<?xml version="1.0" encoding="utf-8"?>
<!-- Generator: Adobe Illustrator 24.2.3, SVG Export Plug-In . SVG Version: 6.00 Build 0)  -->
<svg version="1.1" id="Layer_1" xmlns="http://www.w3.org/2000/svg" xmlns:xlink="http://www.w3.org/1999/xlink" x="0px" y="0px"
	 viewBox="0 0 24 24" style="enable-background:new 0 0 24 24;" xml:space="preserve">
<style type="text/css">
	.st0{fill:none;}
	.st1{fill:#258802;}
</style>
<rect x="0.5" y="0.5" class="st0" width="23" height="23"/>
<path id="Path_22" class="st1" d="M7.2,13.8c-0.4,0.3-0.4,0.9-0.1,1.3c0.2,0.2,0.4,0.3,0.7,0.3h2.8c0.5,0,0.9-0.4,0.9-0.9
	c0-0.5-0.4-0.9-0.9-0.9H9.9c1.3-1.5,1.5-2.2,1.5-2.7c0-1.2-1-2.2-2.2-2.2h0h0c-1.2,0-2.2,1-2.2,2.2c0,0.5,0.4,0.9,0.9,0.9
	s0.9-0.4,0.9-0.9c0,0,0,0,0,0c0-0.2,0.2-0.4,0.4-0.4h0h0c0.2,0,0.4,0.2,0.4,0.4c0,0-0.1,0.5-1.2,1.7C7.8,13.2,7.2,13.8,7.2,13.8z"/>
<path id="Path_23" class="st1" d="M17,20.3c-1.5,0.9-3.3,1.4-5,1.4c-0.5,0-0.9,0.4-0.9,0.9c0,0.5,0.4,0.9,0.9,0.9
	c2.1,0,4.2-0.6,6-1.7c0.4-0.3,0.6-0.8,0.3-1.2C18,20.2,17.5,20,17,20.3C17,20.3,17,20.3,17,20.3z"/>
<path id="Path_24" class="st1" d="M20.1,3.9c-4.5-4.5-11.8-4.5-16.3,0c-3.8,3.8-4.5,9.7-1.6,14.2c0.9,1.4,2.1,2.7,3.6,3.6H3.3
	c-0.5,0-0.9,0.4-0.9,0.9c0,0.5,0.4,0.9,0.9,0.9h2.7c1.6,0,2.9-1.3,2.9-2.9V18c0-0.5-0.4-0.9-0.9-0.9S7.1,17.5,7.1,18v2.4
	c-4.7-2.7-6.3-8.6-3.6-13.3s8.6-6.3,13.3-3.6s6.3,8.6,3.6,13.3c-0.1,0.2-0.2,0.4-0.4,0.6c-0.3,0.4-0.2,1,0.2,1.3
	c0.4,0.3,1,0.2,1.3-0.2c0,0,0,0,0,0C24.6,13.8,24,7.7,20.1,3.9z"/>
<path id="Path_25" class="st1" d="M13.7,8.6c-0.5,0-0.9,0.4-0.9,0.9v1.1c0,1.4,1.1,2.4,2.4,2.4c0.2,0,0.4,0,0.7-0.1v1.5
	c0,0.5,0.4,0.9,0.9,0.9c0.5,0,0.9-0.4,0.9-0.9c0,0,0,0,0,0V9.5c0-0.5-0.4-0.9-0.9-0.9S15.9,9,15.9,9.5c0,0,0,0,0,0v1.1
	c0,0.4-0.3,0.6-0.7,0.6c-0.3,0-0.6-0.3-0.6-0.6V9.5C14.6,9,14.2,8.6,13.7,8.6C13.7,8.6,13.7,8.6,13.7,8.6z"/>
</svg>
