<?xml version="1.0" encoding="utf-8"?>
<!-- Generator: Adobe Illustrator 24.2.3, SVG Export Plug-In . SVG Version: 6.00 Build 0)  -->
<svg version="1.1" id="Layer_1" xmlns="http://www.w3.org/2000/svg" xmlns:xlink="http://www.w3.org/1999/xlink" x="0px" y="0px"
	 viewBox="0 0 30 30" style="enable-background:new 0 0 30 30;" xml:space="preserve">
<style type="text/css">
	.st0{fill:#F2F2F2;}
	.st1{fill:#EF0027;}
	.st2{fill:#1F283B;}
	.st3{fill:#EBEBEB;}
	.st4{fill:#FFFFFF;}
</style>
<circle class="st0" cx="15" cy="15" r="15"/>
<path class="st1" d="M23.4,18.1l-6.8,6.5L4.8,12.4l0.9-5.9l6.2-0.4L23.4,18.1z"/>
<path class="st2" d="M5.5,13.2l6.8-6.5l11.1,11.5l-6.8,6.5L5.5,13.2z"/>
<path class="st2" d="M8.5,8.3c0,0.6-0.5,1.1-1.1,1.1S6.3,8.9,6.3,8.3c0-0.6,0.5-1.1,1.1-1.1S8.5,7.7,8.5,8.3z"/>
<path class="st3" d="M8,8.3c0,0.3-0.2,0.5-0.5,0.5c-0.3,0-0.5-0.2-0.5-0.5s0.2-0.5,0.5-0.5C7.7,7.8,8,8,8,8.3z"/>
<path class="st0" d="M12,10l-0.5-0.5c-0.1-0.1-0.4-0.1-0.5,0l-2.1,2c-0.1,0.1-0.1,0.4,0,0.5l0.5,0.5c0.2,0.2,0.5,0.3,0.8,0.3h0
	c0.6,0,1-0.4,1.1-1c0.3,0,0.5-0.1,0.7-0.3C12.4,11.1,12.4,10.4,12,10z M10.4,12c-0.1,0.1-0.2,0.1-0.3,0.1c-0.1,0-0.2,0-0.3-0.1
	l-0.3-0.3l0.5-0.5l0.3,0.3C10.6,11.6,10.6,11.8,10.4,12z M11.5,11c-0.1,0.1-0.2,0.1-0.3,0.1c-0.1,0-0.2,0-0.3-0.1l-0.3-0.3l0.5-0.5
	l0.3,0.3C11.6,10.6,11.6,10.8,11.5,11z"/>
<path class="st0" d="M15.8,13.9c-0.1-0.1-0.3-0.1-0.4-0.1L12.5,15c-0.2,0.1-0.3,0.3-0.2,0.5c0.1,0.2,0.3,0.3,0.5,0.2l0.5-0.2
	l0.8,0.8l-0.2,0.5c-0.1,0.2,0,0.4,0.2,0.5c0,0,0.1,0,0.2,0c0.1,0,0.3-0.1,0.3-0.2l1.3-2.8C15.9,14.1,15.9,14,15.8,13.9z M14,15.2
	l0.8-0.3l-0.4,0.8L14,15.2z"/>
<g>
	<path class="st0" d="M13.8,11.8l-0.5-0.5c-0.1-0.1-0.2-0.1-0.3-0.1c-0.1,0-0.2,0-0.3,0.1l-1,1l-1,1c-0.1,0.1-0.1,0.2-0.1,0.4
		c0,0.1,0.1,0.2,0.3,0.3c0.1,0,0.3,0,0.4-0.1L12,13l0.1,0.1l-0.5,1.3c0,0.1,0,0.3,0.1,0.4c0.1,0.1,0.2,0.1,0.3,0.1
		c0.1,0,0.2-0.1,0.3-0.2l0.4-1.1c0.5,0.2,1,0,1.2-0.5C14.2,12.7,14.1,12.1,13.8,11.8L13.8,11.8z M13.2,12.8
		c-0.1,0.1-0.2,0.1-0.3,0.1c-0.1,0-0.2,0-0.3-0.1l-0.3-0.3L13,12l0.3,0.3C13.4,12.4,13.4,12.7,13.2,12.8L13.2,12.8z"/>
	<path class="st0" d="M16.2,19.4c-0.1,0-0.2-0.1-0.3-0.1c-0.1-0.1-0.1-0.2-0.1-0.3l0.5-2.1L15.2,18c-0.1,0.1-0.4,0.1-0.5,0
		c-0.1-0.1-0.1-0.4,0-0.5l2.1-2c0.1-0.1,0.3-0.1,0.4-0.1c0.1,0.1,0.2,0.2,0.2,0.4l-0.5,2.1l1.2-1.1c0.1-0.1,0.2-0.1,0.4-0.1
		c0.1,0,0.2,0.1,0.3,0.3c0,0.1,0,0.3-0.1,0.4l-2.1,2C16.4,19.3,16.3,19.4,16.2,19.4z"/>
	<path class="st0" d="M18.3,20.8c-0.5,0-1-0.2-1.3-0.6L16.7,20c-0.1-0.1-0.1-0.4,0-0.5l2.1-2c0.1-0.1,0.2-0.1,0.3-0.1
		c0.1,0,0.2,0,0.3,0.1l0.3,0.3c0.5,0.5,0.6,1.3,0.4,2C19.6,20.4,19,20.8,18.3,20.8z M17.5,19.8c0.4,0.4,1.1,0.4,1.5,0
		c0.4-0.4,0.4-1.1,0-1.5L17.5,19.8z"/>
</g>
<path class="st2" d="M6.9,8.2c-0.1,0-0.2,0-0.3-0.1L4.7,6c-0.1-0.1-0.1-0.4,0-0.5c0.1-0.1,0.4-0.1,0.5,0l2,2.1
	c0.1,0.1,0.1,0.3,0.1,0.4C7.2,8.1,7.1,8.2,6.9,8.2L6.9,8.2z"/>
<path class="st1" d="M14.2,22.1h5.1l-2.7,2.5L14.2,22.1z"/>
<path class="st1" d="M25.4,17.6c0,1.3-1.1,2.4-2.4,2.4s-2.4-1.1-2.4-2.4c0-1.3,1.1-2.4,2.4-2.4S25.4,16.3,25.4,17.6z"/>
<path class="st4" d="M24.5,17.2H24l0.4-0.4l-0.5-0.5l-0.4,0.4v-0.6h-0.7v0.6l-0.4-0.4l-0.5,0.5l0.4,0.4h-0.6v0.7h0.6l-0.4,0.4
	l0.5,0.5l0.4-0.4V19h0.7v-0.6l0.4,0.4l0.5-0.5L24,17.9h0.6V17.2z"/>
</svg>
