<?xml version="1.0" encoding="utf-8"?>
<!-- Generator: Adobe Illustrator 24.2.3, SVG Export Plug-In . SVG Version: 6.00 Build 0)  -->
<svg version="1.1" id="Layer_1" xmlns="http://www.w3.org/2000/svg" xmlns:xlink="http://www.w3.org/1999/xlink" x="0px" y="0px"
	 viewBox="0 0 30 30" style="enable-background:new 0 0 30 30;" xml:space="preserve">
<style type="text/css">
	.st0{fill:#F2F2F2;}
	.st1{fill:#CCCCCC;}
	.st2{fill:#E1001E;}
	.st3{fill:#1F283B;}
	.st4{fill:#0C1423;}
	.st5{fill:#38465E;}
	.st6{fill:#FFEE58;}
	.st7{fill:#FBC02D;}
	.st8{fill:#B20422;}
	.st9{fill:#697991;}
	.st10{fill:#CFD8DC;}
</style>
<circle class="st0" cx="15" cy="15" r="15"/>
<g>
	<g>
		<path class="st1" d="M11.6,15.5c-0.2-0.1-0.4-0.3-0.4-0.5v-0.5H7.9V15c0,0.2-0.2,0.5-0.4,0.5c-0.6,0.2-1,0.8-1,1.5v7.7
			c0,0.4,0.3,0.6,0.6,0.6h4.8c0.4,0,0.6-0.3,0.6-0.6V17C12.6,16.3,12.2,15.7,11.6,15.5z"/>
		<path class="st2" d="M6.5,17.5h6.1v7.2c0,0.4-0.3,0.6-0.6,0.6H7.1c-0.4,0-0.6-0.3-0.6-0.6C6.5,24.7,6.5,17.5,6.5,17.5z"/>
		<path class="st3" d="M11.3,11.6H7.8c-0.2,0-0.3,0.2-0.3,0.3v1.5h4.1v-1.5C11.6,11.7,11.5,11.6,11.3,11.6z"/>
		<path class="st4" d="M8.6,13.6c-0.2,0-0.2-0.1-0.2-0.2v-0.8c0-0.2,0.1-0.2,0.2-0.2s0.2,0.1,0.2,0.2v0.8
			C8.8,13.5,8.7,13.6,8.6,13.6z M9.8,13.3v-0.8c0-0.2-0.1-0.2-0.2-0.2c-0.2,0-0.2,0.1-0.2,0.2v0.8c0,0.2,0.1,0.2,0.2,0.2
			C9.7,13.6,9.8,13.5,9.8,13.3z M10.8,13.3v-0.8c0-0.2-0.1-0.2-0.2-0.2c-0.2,0-0.2,0.1-0.2,0.2v0.8c0,0.2,0.1,0.2,0.2,0.2
			C10.7,13.6,10.8,13.5,10.8,13.3z"/>
		<path class="st5" d="M11.3,11.6h-1v0.3c0,0.5-0.4,0.8-0.8,0.8H7.5v0.7h4.1v-1.5C11.6,11.7,11.5,11.6,11.3,11.6z"/>
		<path class="st3" d="M10.8,11.6H8.3c0.2-0.4,0.4-0.8,0.4-1.3V9.4c0.1-0.5,0.5-0.9,0.9-0.9c0.5,0,0.8,0.4,0.8,0.8v0.8
			C10.4,10.7,10.6,11.2,10.8,11.6z"/>
		<path class="st4" d="M10.8,11.6c-0.2-0.4-0.4-0.8-0.4-1.3V9.4c0-0.5-0.5-0.9-1-0.8c0,0.2,0,0.1,0,1.1c0,0.2,0,0.2,0,0.4
			c0.1,0.5-0.3,1-0.8,1l0,0c-0.1,0.3-0.2,0.5-0.2,0.5C10.9,11.6,10.8,11.6,10.8,11.6z"/>
		<path class="st4" d="M8.8,13.3H8.3v-0.6h0.5V13.3z M9.8,13.3v-0.8c-0.1,0.1-0.2,0.1-0.3,0.1H9.3v0.7H9.8z M10.8,13.3v-0.8
			c0-0.2-0.1-0.2-0.2-0.2c-0.2,0-0.2,0.1-0.2,0.2v0.8L10.8,13.3L10.8,13.3z"/>
		<path class="st3" d="M11.7,14.4H7.4c-0.1,0-0.1-0.1-0.1-0.1v-0.8c0-0.1,0.1-0.1,0.1-0.1h4.3c0.1,0,0.1,0.1,0.1,0.1L11.7,14.4
			C11.8,14.3,11.8,14.4,11.7,14.4z"/>
		<path class="st5" d="M10.5,13.3L10.5,13.3c0,0.3-0.2,0.5-0.5,0.5H7.3v0.4c0,0.1,0.1,0.1,0.1,0.1h4.3c0.1,0,0.1-0.1,0.1-0.1v-0.8
			c0-0.1-0.1-0.1-0.1-0.1L10.5,13.3z"/>
		<circle class="st6" cx="9.6" cy="21" r="1.3"/>
		<path class="st7" d="M9.6,19.7c-0.1,0-0.2,0-0.2,0c0.6,0.2,1,0.6,1,1.2c0,0.6-0.5,1.1-1,1.2c0.1,0,0.2,0,0.2,0
			c0.7,0,1.3-0.5,1.3-1.3C10.9,20.1,10.3,19.7,9.6,19.7z"/>
	</g>
	<path class="st2" d="M14.7,13.6h5.5v10.2h-5.5C14.7,23.8,14.7,13.6,14.7,13.6z"/>
	<path class="st8" d="M14.7,23.1h5.5v0.8h-5.5C14.7,23.9,14.7,23.1,14.7,23.1z"/>
	<path class="st3" d="M20.2,13.6h3.1v10.2h-3.1V13.6z"/>
	<path class="st4" d="M21.7,13.6v8.2c0,0.6-0.5,1.2-1.2,1.2h-0.4v0.8h3.1V13.6H21.7z"/>
	<path class="st9" d="M23.3,13.6h-8.7c-0.1,0-0.2-0.1-0.2-0.2v-0.8c0-0.1,0.1-0.2,0.2-0.2h8.7c0.1,0,0.2,0.1,0.2,0.2v0.8
		C23.5,13.6,23.4,13.6,23.3,13.6z"/>
	<path class="st5" d="M23.3,25h-8.7c-0.1,0-0.2-0.1-0.2-0.2V24c0-0.1,0.1-0.2,0.2-0.2h8.7c0.1,0,0.2,0.1,0.2,0.2v0.8
		C23.5,24.9,23.4,25,23.3,25z"/>
	<path class="st3" d="M23.3,12.5h-0.6v0.2c0,0.3-0.2,0.5-0.5,0.5h-7.8v0.3c0,0.1,0.1,0.2,0.2,0.2h8.7c0.1,0,0.2-0.1,0.2-0.2v-0.8
		C23.5,12.6,23.4,12.5,23.3,12.5z"/>
	<path class="st3" d="M23.3,23.8h-0.6V24c0,0.3-0.2,0.5-0.5,0.5h-7.8v0.4c0,0.1,0.1,0.2,0.2,0.2h8.7c0.1,0,0.2-0.1,0.2-0.2V24
		C23.5,23.9,23.4,23.8,23.3,23.8z"/>
	<path class="st10" d="M14.9,8.1h3.3v4.3h-3.3V8.1z"/>
	<path class="st5" d="M16.5,8.1v0.5c0,0.6-0.5,1.2-1.2,1.2h-0.5v0.8h3.3V8.1H16.5z"/>
	<path class="st2" d="M14.9,10.8h3.3v1.7h-3.3V10.8z"/>
	<path class="st8" d="M16.5,10.8v0.5c0,0.3-0.2,0.5-0.5,0.5h-1.2v0.8h3.3v-1.7H16.5z"/>
	<path class="st3" d="M18.2,7.2h-3.3c-0.1,0-0.2,0.1-0.2,0.2V8c0,0.1,0.1,0.2,0.2,0.2h3.3c0.1,0,0.2-0.1,0.2-0.2V7.4
		C18.3,7.3,18.3,7.2,18.2,7.2z"/>
	<path class="st3" d="M17.5,4.7h-2c-0.3,0-0.5,0.2-0.5,0.5v2h3v-2C18,5,17.8,4.7,17.5,4.7z"/>
	<path class="st4" d="M17.5,4.7h-1.1v0.8c0,0.5-0.4,0.8-0.8,0.8h-0.5v0.8h3v-2C18,5,17.8,4.7,17.5,4.7z"/>
	<path class="st9" d="M22.3,15.9c0,0.4-0.3,0.6-0.6,0.6s-0.6-0.3-0.6-0.6c0-0.4,0.3-0.6,0.6-0.6C22.1,15.3,22.3,15.6,22.3,15.9z"/>
	<path class="st5" d="M21.8,15.3c0.1,0.1,0.2,0.3,0.2,0.5c0,0.4-0.3,0.6-0.6,0.6h-0.1c0.1,0.1,0.3,0.2,0.5,0.2
		c0.4,0,0.6-0.3,0.6-0.6C22.3,15.6,22.1,15.4,21.8,15.3z"/>
	<path class="st9" d="M22.2,20.8h-1c-0.1,0-0.2-0.1-0.2-0.2v-3c0-0.1,0.1-0.2,0.2-0.2h1c0.1,0,0.2,0.1,0.2,0.2v3
		C22.3,20.7,22.2,20.8,22.2,20.8z"/>
	<path class="st5" d="M22.2,17.5h-0.5v2.4c0,0.1-0.1,0.2-0.2,0.2h-0.5v0.6c0,0.1,0.1,0.2,0.2,0.2h1c0.1,0,0.2-0.1,0.2-0.2v-3
		C22.3,17.6,22.2,17.5,22.2,17.5z"/>
	<path class="st6" d="M17.1,19.4l-0.5,1.3c-0.1,0.2,0.1,0.5,0.3,0.5c0.1,0,0.2-0.1,0.3-0.2l1.6-2.5c0.1-0.1,0-0.3-0.2-0.3H18
		c-0.1,0-0.2-0.1-0.2-0.3l0.5-1.4c0-0.1,0-0.3-0.2-0.3h-1.1c-0.1,0-0.2,0.1-0.2,0.1L16,18.9c0,0.1,0,0.3,0.2,0.3h0.7
		C17,19.2,17.1,19.4,17.1,19.4z"/>
	<path class="st7" d="M18.6,18.2h-0.4l-1.5,2.4c0,0.1-0.1,0.1-0.2,0.2c-0.1,0.2,0.1,0.4,0.3,0.4c0.1,0,0.2-0.1,0.3-0.2l1.6-2.5
		C18.9,18.4,18.8,18.2,18.6,18.2z"/>
	<path class="st3" d="M18.3,11h-3.3c-0.2,0-0.3-0.1-0.3-0.3s0.1-0.3,0.3-0.3h3.3c0.2,0,0.3,0.1,0.3,0.3S18.3,11,18.3,11z"/>
	<path class="st9" d="M21.6,21.9c0,0.2-0.1,0.3-0.3,0.3s-0.3-0.1-0.3-0.3c0-0.2,0.1-0.3,0.3-0.3C21.4,21.6,21.6,21.8,21.6,21.9z"/>
	<path class="st9" d="M22.4,21.9c0,0.2-0.1,0.3-0.3,0.3c-0.2,0-0.3-0.1-0.3-0.3c0-0.2,0.1-0.3,0.3-0.3S22.4,21.8,22.4,21.9z"/>
</g>
</svg>
