<?xml version="1.0" encoding="utf-8"?>
<!-- Generator: Adobe Illustrator 22.0.1, SVG Export Plug-In . SVG Version: 6.00 Build 0)  -->
<svg version="1.1" id="customer" xmlns="http://www.w3.org/2000/svg" xmlns:xlink="http://www.w3.org/1999/xlink" x="0px" y="0px"
	 viewBox="0 0 50 50" style="enable-background:new 0 0 50 50;" xml:space="preserve">
<style type="text/css">
	.st0{fill:#FFFFFF;}
</style>
<g>
	<path id="Path_3587" class="st0" d="M8,50h34c0.4,0,0.7-0.3,0.7-0.7l0,0v-5.5c0-0.5,0-0.9-0.2-1.4c0-0.1,0-0.2-0.1-0.2
		c-0.6-2.1-2.2-3.8-4.3-4.4l-7.6-2.5v-4H29v4.1c-2.6,1.2-5.7,1.2-8.3,0v-4.1h-1.5v4l-7.6,2.5c-2.1,0.7-3.7,2.3-4.3,4.4
		c0,0.1,0,0.2-0.1,0.2C7.1,42.9,7,43.3,7,43.8v5.5C7.3,49.7,7.6,50,8,50L8,50z M8.8,43.7c0-0.4,0-0.7,0.1-1.1c0-0.1,0-0.1,0-0.2
		c0.5-1.6,1.7-2.9,3.3-3.4l7.8-2.5c3.1,1.6,6.8,1.6,9.9,0l7.8,2.5c1.6,0.5,2.8,1.8,3.3,3.4c0,0.1,0,0.1,0,0.2
		c0.1,0.3,0.1,0.7,0.1,1.1v4.8H8.8V43.7z"/>
	<path id="Path_3588" class="st0" d="M14.2,24.4c1.1,6,6.9,9.9,12.9,8.7c4.4-0.8,7.9-4.3,8.7-8.7l0.4-1.5c1.8-0.6,2.8-2.4,2.3-4.2
		c-0.2-0.9-0.9-1.7-1.8-2v-5C36.7,5.2,31.5,0,25,0S13.3,5.2,13.3,11.7v5c-0.9,0.3-1.6,1.1-1.8,2c-0.4,1.8,0.6,3.6,2.3,4.2L14.2,24.4
		z M26,12c2.5,2.5,5.8,4,9.3,4.3v0.4c-4.6-0.1-9.1-1.4-13-3.9h0.1C23.5,12.5,24.7,12.2,26,12L26,12z M14.8,11.7
		C14.8,6,19.4,1.5,25,1.5s10.2,4.6,10.2,10.2v3c-2.8-0.3-5.5-1.4-7.6-3.2c1.8-0.6,3.6-1.4,5.1-2.6c0.3-0.3,0.4-0.7,0.1-1
		c-0.3-0.3-0.7-0.4-1-0.1l0,0c-2.9,1.9-6.2,3.1-9.7,3.5c-1.9,0.2-3.8,0.3-5.6,0.3c-0.4,0-0.8,0.3-0.8,0.7l0,0l-0.2,4
		c0,0.3-0.2,0.5-0.4,0.6C15,17,14.9,17,14.8,17V11.7z M12.9,19.6c0-0.2,0-0.3,0.1-0.5c0.1-0.5,0.5-0.8,0.9-1c1.1,0.5,2.4,0.1,3-1
		c0.1-0.3,0.2-0.6,0.2-0.9l0.1-3.3c0.6,0,1.7,0,2.9-0.1c3,2.4,6.5,4,10.3,4.7c1.9,0.4,3.8,0.6,5.6,0.5l0,0c0.5,0.1,0.9,0.5,1,1
		c0.3,1.1-0.4,2.2-1.5,2.4h-0.1c-0.3,0.1-0.6,0.3-0.6,0.6l-0.4,2c0,0,0,0,0,0.1c-1,5.1-5.9,8.5-11.1,7.6c-3.8-0.7-6.8-3.7-7.6-7.6
		c0,0,0,0,0-0.1l-0.5-1.9c-0.1-0.3-0.3-0.6-0.6-0.6C13.6,21.4,12.8,20.5,12.9,19.6L12.9,19.6z"/>
</g>
</svg>
