<svg id="customer" xmlns="http://www.w3.org/2000/svg" width="20.278" height="28.643" viewBox="0 0 20.278 28.643">
  <path id="Path_3587" data-name="Path 3587" d="M90.769,325.356h19.421a.428.428,0,0,0,.428-.428V321.77a3.5,3.5,0,0,0-.086-.8q-.017-.071-.036-.14a3.7,3.7,0,0,0-2.456-2.529l-4.335-1.405v-2.269h-.857v2.323a5.511,5.511,0,0,1-4.738,0v-2.323h-.857v2.269L92.919,318.3a3.7,3.7,0,0,0-2.456,2.529q-.019.07-.036.14a3.5,3.5,0,0,0-.086.8v3.158A.428.428,0,0,0,90.769,325.356Zm.428-3.586a2.656,2.656,0,0,1,.064-.608q.013-.054.027-.108a2.849,2.849,0,0,1,1.894-1.941l4.455-1.444a6.365,6.365,0,0,0,5.684,0l4.455,1.444a2.849,2.849,0,0,1,1.894,1.941q.015.054.027.108a2.652,2.652,0,0,1,.064.608V324.5H91.2Z" transform="translate(-90.341 -296.714)" fill="#e1001e"/>
  <path id="Path_3588" data-name="Path 3588" d="M129.856,36a6.29,6.29,0,0,0,12.355,0l.254-.875A2.012,2.012,0,0,0,143.8,32.73a1.6,1.6,0,0,0-1.044-1.146V28.728a6.718,6.718,0,0,0-13.436,0v2.856a1.6,1.6,0,0,0-1.047,1.147,2.012,2.012,0,0,0,1.332,2.391Zm6.721-7.144a8.45,8.45,0,0,0,5.319,2.439v.22a14.223,14.223,0,0,1-7.463-2.258l.038-.005a18.238,18.238,0,0,0,2.106-.4Zm-6.4-.124a5.861,5.861,0,0,1,11.722,0v1.7a7.908,7.908,0,0,1-4.365-1.851,9.763,9.763,0,0,0,2.918-1.48.428.428,0,1,0-.521-.68,12.038,12.038,0,0,1-5.551,1.98,20.06,20.06,0,0,1-3.235.168.428.428,0,0,0-.45.408l-.1,2.284a.408.408,0,0,1-.217.346.426.426,0,0,1-.2.051Zm-1.1,4.482a1.161,1.161,0,0,1,.033-.275.743.743,0,0,1,.524-.55,1.271,1.271,0,0,0,1.817-1.089l.085-1.864c.37,0,.954,0,1.67-.054a12.971,12.971,0,0,0,5.906,2.687,15.451,15.451,0,0,0,3.236.306l.028,0a.75.75,0,0,1,.6.568,1.154,1.154,0,0,1-.919,1.41.428.428,0,0,0-.348.349l-.315,1.083c0,.013-.007.027-.01.04a5.433,5.433,0,0,1-10.678,0,.415.415,0,0,0-.01-.04l-.315-1.083a.428.428,0,0,0-.348-.349A1.15,1.15,0,0,1,129.069,33.21Z" transform="translate(-125.894 -22.01)" fill="#e1001e"/>
</svg>
