<svg xmlns="http://www.w3.org/2000/svg" width="30" height="30" viewBox="0 0 30 30">
  <g id="e-liquids" transform="translate(-275 -148)">
    <circle id="Ellipse_10" data-name="Ellipse 10" cx="15" cy="15" r="15" transform="translate(275 148)" fill="#e7e9e7"/>
    <g id="vape-liquid" transform="translate(283.065 153.005)">
      <path id="Path_125" data-name="Path 125" d="M13.789,187.552a.637.637,0,0,1-.4-.592v-.639H9.536v.639a.637.637,0,0,1-.4.592A1.8,1.8,0,0,0,8,189.222v8.165a.715.715,0,0,0,.715.715h5.5a.714.714,0,0,0,.714-.715v-8.165a1.8,1.8,0,0,0-1.134-1.67Zm0,0" transform="translate(-7.722 -179.421)" fill="#e7e9e7"/>
      <path id="Path_126" data-name="Path 126" d="M200.782,187.552a.637.637,0,0,1-.4-.592v-.639h-3.851v.639a.637.637,0,0,1-.4.592,1.8,1.8,0,0,0-1.134,1.67v8.165a.715.715,0,0,0,.715.715h5.5a.715.715,0,0,0,.715-.715v-8.165A1.8,1.8,0,0,0,200.782,187.552Zm0,0" transform="translate(-187.791 -179.421)" fill="#e7e9e7"/>
      <path id="Path_127" data-name="Path 127" d="M13.789,187.552a.4.4,0,0,1-.4-.4v-.829H11.914a.637.637,0,0,0,.394.491,1.8,1.8,0,0,1,1.134,1.67v6.379a2.5,2.5,0,0,1-2.5,2.5H8v.026a.715.715,0,0,0,.715.715h5.5a.714.714,0,0,0,.714-.715v-8.165a1.8,1.8,0,0,0-1.134-1.67Zm0,0" transform="translate(-7.722 -179.421)" fill="#a7aaaa"/>
      <path id="Path_128" data-name="Path 128" d="M200.782,187.552a.637.637,0,0,1-.4-.592v-.639h-1.473a.637.637,0,0,0,.394.491,1.8,1.8,0,0,1,1.134,1.67v6.379a2.5,2.5,0,0,1-2.5,2.5h-2.942v.026a.715.715,0,0,0,.715.715h5.5a.715.715,0,0,0,.715-.715v-8.165a1.8,1.8,0,0,0-1.134-1.67Zm0,0" transform="translate(-187.791 -179.421)" fill="#a7aaaa"/>
      <path id="Path_129" data-name="Path 129" d="M8,295.625h6.924v5.111H8Zm0,0" transform="translate(-7.722 -284.678)" fill="#cfd8dc"/>
      <path id="Path_130" data-name="Path 130" d="M32.746,154.543h5.091v1.177H32.746Zm0,0" transform="translate(-31.552 -148.82)" fill="#e7e9e7"/>
      <path id="Path_131" data-name="Path 131" d="M43.95,100.883H40.064a.345.345,0,0,0-.345.345v1.642h4.575v-1.642a.345.345,0,0,0-.344-.345Zm0,0" transform="translate(-38.267 -97.147)" fill="#e7e9e7"/>
      <path id="Path_132" data-name="Path 132" d="M65.949,10.958H63.106a2.7,2.7,0,0,0,.452-1.5V8.469a.969.969,0,1,1,1.938,0v.992A2.7,2.7,0,0,0,65.949,10.958Zm0,0" transform="translate(-60.787 -7.222)" fill="#e7e9e7"/>
      <g id="Group_206" data-name="Group 206" transform="translate(2.354 12.556)">
        <path id="Path_133" data-name="Path 133" d="M84.171,372.2a.693.693,0,1,1-.693-.693A.693.693,0,0,1,84.171,372.2Zm0,0" transform="translate(-82.092 -370.304)" fill="#ab47bc"/>
        <path id="Path_134" data-name="Path 134" d="M65.456,339.783a.693.693,0,1,1-.693-.693A.693.693,0,0,1,65.456,339.783Zm0,0" transform="translate(-64.07 -339.09)" fill="#ab47bc"/>
        <path id="Path_135" data-name="Path 135" d="M102.882,339.783a.693.693,0,1,1-.693-.693A.693.693,0,0,1,102.882,339.783Zm0,0" transform="translate(-100.11 -339.09)" fill="#ab47bc"/>
      </g>
      <path id="Path_136" data-name="Path 136" d="M194.992,295.625h6.924v5.111h-6.924Zm0,0" transform="translate(-187.79 -284.678)" fill="#cfd8dc"/>
      <path id="Path_137" data-name="Path 137" d="M154.992,295.625h1.481v5.111h-1.481Zm0,0" transform="translate(-149.271 -284.678)" fill="#90a4ae"/>
      <path id="Path_138" data-name="Path 138" d="M341.984,295.625h1.481v5.111h-1.481Zm0,0" transform="translate(-329.339 -284.678)" fill="#90a4ae"/>
      <path id="Path_139" data-name="Path 139" d="M219.738,154.543h5.091v1.177h-5.091Zm0,0" transform="translate(-211.62 -148.82)" fill="#e7e9e7"/>
      <path id="Path_140" data-name="Path 140" d="M36.356,154.543v.053a.569.569,0,0,1-.569.569H32.746v.555h5.091v-1.177Zm0,0" transform="translate(-31.552 -148.82)" fill="#a7aaaa"/>
      <path id="Path_141" data-name="Path 141" d="M223.348,154.543v.053a.569.569,0,0,1-.569.569h-3.042v.555h5.091v-1.177Zm0,0" transform="translate(-211.62 -148.82)" fill="#a7aaaa"/>
      <path id="Path_142" data-name="Path 142" d="M230.942,100.883h-3.886a.345.345,0,0,0-.345.345v1.642h4.575v-1.642a.345.345,0,0,0-.345-.345Zm0,0" transform="translate(-218.335 -97.147)" fill="#e7e9e7"/>
      <path id="Path_143" data-name="Path 143" d="M43.95,100.883H42.813v.329a.917.917,0,0,1-.917.917H39.719v.741h4.575v-1.642a.345.345,0,0,0-.345-.345Zm0,0" transform="translate(-38.267 -97.147)" fill="#a7aaaa"/>
      <path id="Path_144" data-name="Path 144" d="M230.942,100.883h-1.137v.329a.917.917,0,0,1-.917.917h-2.177v.741h4.575v-1.642a.345.345,0,0,0-.345-.345Zm0,0" transform="translate(-218.335 -97.147)" fill="#a7aaaa"/>
      <path id="Path_145" data-name="Path 145" d="M252.941,10.958H250.1a2.7,2.7,0,0,0,.452-1.5V8.469a.969.969,0,0,1,1.938,0v.992A2.7,2.7,0,0,0,252.941,10.958Zm0,0" transform="translate(-240.855 -7.222)" fill="#e7e9e7"/>
      <path id="Path_146" data-name="Path 146" d="M65.493,9.461V8.469a.969.969,0,0,0-1.135-.955,6.24,6.24,0,0,1,.024,1.206,2.761,2.761,0,0,0,.033.425.934.934,0,0,1-.927,1.072h-.041a2.7,2.7,0,0,1-.344.741s-.066,0,2.843,0a2.685,2.685,0,0,1-.452-1.5Zm0,0" transform="translate(-60.784 -7.222)" fill="#a7aaaa"/>
      <path id="Path_147" data-name="Path 147" d="M252.945,10.958a2.7,2.7,0,0,1-.452-1.5V8.469a.969.969,0,0,0-1.135-.955,6.278,6.278,0,0,1,.024,1.206,2.7,2.7,0,0,0,.031.409.939.939,0,0,1-.924,1.088h-.043a2.639,2.639,0,0,1-.344.741c2.915,0,2.843,0,2.843,0Zm0,0" transform="translate(-240.859 -7.222)" fill="#a7aaaa"/>
      <path id="Path_148" data-name="Path 148" d="M255.126,337.241a.7.7,0,0,1-.643-.417l-.567-1.266a.832.832,0,0,1,.759-1.172h.9a.832.832,0,0,1,.759,1.172l-.567,1.266A.7.7,0,0,1,255.126,337.241Zm0,0" transform="translate(-244.462 -322.005)" fill="#ef5350"/>
      <path id="Path_149" data-name="Path 149" d="M58.511,312.066v-.57a.278.278,0,0,0-.555,0v.57a.971.971,0,1,0-.657,1.817.97.97,0,1,0,1.87,0,.971.971,0,1,0-.657-1.817Zm-1.386.877a.415.415,0,1,1,.415.415A.416.416,0,0,1,57.126,312.943Zm1.108,1.615a.415.415,0,1,1,.415-.415A.416.416,0,0,1,58.234,314.559Zm.693-1.2a.415.415,0,1,1,.415-.415A.416.416,0,0,1,58.927,313.358Zm0,0" transform="translate(-54.494 -299.695)" fill="#1f283b"/>
      <path id="Path_150" data-name="Path 150" d="M13.594,7.872a.358.358,0,0,1-.227-.334V7.176h.343a.278.278,0,0,0,.278-.278V5.722a.277.277,0,0,0-.258-.277V4.08a.623.623,0,0,0-.622-.622h-.367a2.417,2.417,0,0,1-.329-1.219V1.246a1.247,1.247,0,0,0-2.494,0v.992a2.416,2.416,0,0,1-.329,1.219H9.22A.623.623,0,0,0,8.6,4.08V5.445a.277.277,0,0,0-.258.277V6.9a.278.278,0,0,0,.278.278H8.96v.362a.358.358,0,0,1-.227.334A2.068,2.068,0,0,0,7.7,8.759a2.068,2.068,0,0,0-1.032-.887.358.358,0,0,1-.227-.334V7.176h.343A.278.278,0,0,0,7.063,6.9V5.722A.277.277,0,0,0,6.8,5.445V4.08a.623.623,0,0,0-.622-.622H5.815a2.417,2.417,0,0,1-.329-1.219V1.246a1.247,1.247,0,0,0-2.494,0v.992a2.417,2.417,0,0,1-.329,1.219H2.3a.623.623,0,0,0-.622.622V5.445a.277.277,0,0,0-.258.277V6.9a.278.278,0,0,0,.278.278h.343v.362a.357.357,0,0,1-.227.334A2.064,2.064,0,0,0,.5,9.8v8.165a.993.993,0,0,0,.992.992h5.5a.989.989,0,0,0,.714-.3.99.99,0,0,0,.715.3h5.5a.993.993,0,0,0,.992-.992V9.8a2.064,2.064,0,0,0-1.31-1.929ZM9.154,4.08a.067.067,0,0,1,.067-.067h1.513a.278.278,0,1,0,0-.555h-.522a4.735,4.735,0,0,0,.261-2.211.691.691,0,0,1,1.383,0v.992a2.971,2.971,0,0,0,.261,1.219H12.03a.278.278,0,0,0,0,.555h1.077a.067.067,0,0,1,.067.067V5.444h-.588V4.787a.278.278,0,0,0-.555,0v.657h-.588V4.787a.278.278,0,0,0-.555,0v.657H10.3V4.787a.278.278,0,0,0-.555,0v.657H9.154ZM8.9,6h4.536v.621H8.9Zm.043,2.389a.91.91,0,0,0,.578-.851V7.176h3.3v.362a.91.91,0,0,0,.578.851A1.511,1.511,0,0,1,14.348,9.8v.868H10.632a.278.278,0,0,0,0,.555h3.716v4.555H7.979V11.224H9.336a.278.278,0,0,0,0-.555H7.979V9.8a1.511,1.511,0,0,1,.959-1.412ZM1.055,11.224H7.424v4.555H1.055ZM3.548,1.246a.691.691,0,0,1,1.383,0v.992a2.971,2.971,0,0,0,.261,1.219h-1.9a4.737,4.737,0,0,0,.261-2.211ZM2.23,4.08A.067.067,0,0,1,2.3,4.013H6.182a.067.067,0,0,1,.067.067V5.444H5.661V4.787a.278.278,0,1,0-.555,0v.657H4.517V4.787a.278.278,0,1,0-.555,0v.657H3.373V4.787a.278.278,0,1,0-.555,0v.657H2.23ZM2.014,8.389a.91.91,0,0,0,.578-.851V7.176H3.819a.278.278,0,0,0,0-.555H1.971V6H6.507v.621H5.115a.278.278,0,1,0,0,.555h.772v.362a.91.91,0,0,0,.578.851A1.511,1.511,0,0,1,7.424,9.8v.868H1.055V9.8a1.511,1.511,0,0,1,.959-1.412ZM6.987,18.4h-5.5a.437.437,0,0,1-.437-.437V16.335H7.424v1.631a.437.437,0,0,1-.437.437Zm6.924,0h-5.5a.437.437,0,0,1-.437-.437V16.335h6.369v1.631a.437.437,0,0,1-.437.437Zm0,0" transform="translate(-0.5 0)" fill="#1f283b"/>
      <path id="Path_151" data-name="Path 151" d="M246.434,313.362l.567,1.266a.983.983,0,0,0,1.793,0l.566-1.266a1.11,1.11,0,0,0-1.013-1.563h-.172v-.3a.278.278,0,1,0-.555,0v.3h-.172A1.11,1.11,0,0,0,246.434,313.362Zm1.013-1.007h.9a.554.554,0,0,1,.506.78l-.566,1.266a.427.427,0,0,1-.779,0l-.567-1.266A.554.554,0,0,1,247.447,312.355Zm0,0" transform="translate(-237.234 -299.695)" fill="#1f283b"/>
      <path id="Path_152" data-name="Path 152" d="M292.153,354.368a.278.278,0,1,1-.278-.278A.278.278,0,0,1,292.153,354.368Zm0,0" transform="translate(-280.819 -340.979)" fill="#1f283b"/>
      <path id="Path_153" data-name="Path 153" d="M281.543,375.208a.278.278,0,1,1-.278-.278A.278.278,0,0,1,281.543,375.208Zm0,0" transform="translate(-270.602 -361.047)" fill="#1f283b"/>
      <path id="Path_154" data-name="Path 154" d="M269.481,354.368a.278.278,0,1,1-.278-.278A.278.278,0,0,1,269.481,354.368Zm0,0" transform="translate(-258.987 -340.979)" fill="#1f283b"/>
    </g>
  </g>
</svg>
