<svg xmlns="http://www.w3.org/2000/svg" width="45.239" height="53.65" viewBox="0 0 45.239 53.65"><defs><style>.a{fill:#a6ce39;}.b{fill:#fff;}</style></defs><g transform="translate(-40.128 0)"><path class="a" d="M83.92,78.595A4.908,4.908,0,0,0,81.654,77.3a4.933,4.933,0,0,0-3.571-5.95,4.937,4.937,0,0,0-2.817-5.693l5.082-5.082a4.94,4.94,0,0,0-6.987-6.985L57.509,69.446l-.927-4.018A6.519,6.519,0,0,0,45.62,62.285h0a1.574,1.574,0,0,0-.46,1.113l.02,19.554-4.59,4.59a1.572,1.572,0,0,0,0,2.223l10.1,10.1a1.572,1.572,0,0,0,1.112.461H66.429a6.58,6.58,0,0,0,4.683-1.94L83.92,85.581a4.939,4.939,0,0,0,0-6.986Zm-8.334-3.73a1.8,1.8,0,1,1,2.539,2.54l-3.572,3.572a1.8,1.8,0,0,1-2.54-2.54Zm-5.8,1.349a1.8,1.8,0,0,1-2.539-2.539l4.763-4.763a1.8,1.8,0,0,1,2.539,2.539h0Zm-.9,19.952a3.5,3.5,0,0,1-2.46,1.02H52.454l-8.531-8.531,3.94-3.94a1.572,1.572,0,0,0,.46-1.113L48.3,64.122a3.375,3.375,0,0,1,5.214,2.012l1.565,6.782a1.57,1.57,0,0,0,.419.756l1.191,1.192a6.855,6.855,0,0,1,0,9.683,1.572,1.572,0,0,0,2.223,2.223,10,10,0,0,0,0-14.129l-.079-.079L75.586,55.815a1.8,1.8,0,0,1,2.539,2.54l-13.1,13.1a4.936,4.936,0,0,0,3.323,8.426,4.926,4.926,0,0,0,4.761,4.763,4.942,4.942,0,0,0,2.95,4.354ZM81.7,83.357h0l-2.382,2.382a1.8,1.8,0,0,1-2.538-2.54l2.381-2.381A1.8,1.8,0,0,1,81.7,83.357Z" transform="translate(0 -46.679)"/><path class="b" d="M186.3,9.871A1.572,1.572,0,0,0,187.871,8.3V1.564a1.572,1.572,0,0,0-3.144,0V8.3A1.572,1.572,0,0,0,186.3,9.871Z" transform="translate(-129.445 0)"/><path class="b" d="M106.539,52.489a1.572,1.572,0,0,0,2.223-2.223l-1.684-1.684a1.572,1.572,0,0,0-2.223,2.223Z" transform="translate(-57.532 -43.078)"/><path class="b" d="M251.678,52.489l1.684-1.684a1.572,1.572,0,0,0-2.223-2.223l-1.684,1.684a1.572,1.572,0,0,0,2.223,2.223Z" transform="translate(-186.977 -43.078)"/></g></svg>