<?xml version="1.0" encoding="utf-8"?>
<!-- Generator: Adobe Illustrator 22.0.1, SVG Export Plug-In . SVG Version: 6.00 Build 0)  -->
<svg version="1.1" id="Layer_1" xmlns="http://www.w3.org/2000/svg" xmlns:xlink="http://www.w3.org/1999/xlink" x="0px" y="0px"
	 viewBox="0 0 120 112.7" style="enable-background:new 0 0 120 112.7;" xml:space="preserve">
<style type="text/css">
	.st0{fill:#CCCCCC;}
	.st1{opacity:0.7;}
	.st2{fill:none;stroke:#CCCCCC;stroke-width:1.6;stroke-linecap:round;stroke-miterlimit:10;}
	.st3{fill:none;stroke:#CCCCCC;stroke-width:0.8332;stroke-linecap:round;stroke-miterlimit:10;}
	.st4{opacity:0.5;fill:#CCCCCC;}
	.st5{fill:none;stroke:#CCCCCC;stroke-width:2.5;stroke-linecap:round;stroke-miterlimit:10;}
	.st6{opacity:0.5;fill:none;stroke:#CCCCCC;stroke-linecap:round;stroke-miterlimit:10;}
</style>
<g>
	<g>
		<path class="st0" d="M58.8,22.2v4.1c0,0.5,0.4,1,0.9,1.2c0.8,0.2,1.4-0.4,1.4-1.1v-4.2c0-0.7-0.7-1.3-1.4-1.1
			C59.2,21.2,58.8,21.7,58.8,22.2z"/>
		<path class="st0" d="M69.3,25.4c-0.5-0.5-1.2-0.5-1.6,0l-2.9,2.9c-0.5,0.5-0.5,1.2,0,1.6c0.5,0.5,1.2,0.5,1.6,0l2.9-2.9
			C69.7,26.6,69.7,25.8,69.3,25.4z"/>
		<path class="st0" d="M52.3,25.4c-0.5-0.5-1.2-0.5-1.6,0s-0.5,1.2,0,1.6l2.9,2.9c0.5,0.5,1.2,0.5,1.6,0c0.5-0.5,0.5-1.2,0-1.6
			L52.3,25.4z"/>
	</g>
	<g class="st1">
		<line class="st2" x1="8.7" y1="33.5" x2="18.3" y2="33.5"/>
		<line class="st2" x1="13.6" y1="28.7" x2="13.6" y2="38.3"/>
	</g>
	<g>
		<line class="st3" x1="108.2" y1="41.4" x2="111.3" y2="41.4"/>
		<line class="st3" x1="109.7" y1="39.8" x2="109.7" y2="43"/>
	</g>
	<g>
		<line class="st3" x1="44.4" y1="8.9" x2="47.6" y2="8.9"/>
		<line class="st3" x1="46" y1="7.3" x2="46" y2="10.4"/>
	</g>
	<g>
		<line class="st3" x1="108.2" y1="106.5" x2="111.3" y2="106.5"/>
		<line class="st3" x1="109.8" y1="104.8" x2="109.8" y2="108"/>
	</g>
	<circle class="st4" cx="103.3" cy="12.1" r="1.6"/>
	<circle class="st4" cx="9.7" cy="103.2" r="1.6"/>
	<circle class="st0" cx="101.7" cy="85.5" r="1.6"/>
</g>
<circle class="st0" cx="18.7" cy="67.2" r="0.4"/>
<g transform="translate(-1569 -181)">
	<g transform="translate(1531.928 190.466)">
		<path class="st0" d="M118.8,77.3l-3.1-35.1c-0.1-0.8-0.7-1.4-1.5-1.4h-6.4c0-5.9-4.8-10.8-10.8-10.8c-5.9,0-10.7,4.8-10.8,10.8
			h-6.4c-0.8,0-1.4,0.6-1.5,1.4l-3.1,35.1c0,0,0,0.1,0,0.1c0.3,4.2,3.9,7.5,8.2,7.2h27.2c4.2,0.2,7.9-3,8.2-7.2
			C118.9,77.3,118.9,77.3,118.8,77.3z M97.1,33.2c4.2,0,7.7,3.4,7.7,7.6H89.3C89.4,36.6,92.9,33.2,97.1,33.2z M110.7,81.6H83.5
			c-2.6,0.2-4.8-1.6-5.2-4.2l3-33.7h5v4.6c0,0.8,0.7,1.5,1.5,1.5c0.8,0,1.5-0.7,1.5-1.5v-4.6h15.5v4.6c0,0.8,0.7,1.5,1.5,1.5
			c0.8,0,1.5-0.7,1.5-1.5v-4.6h5l3,33.7C115.5,80,113.2,81.8,110.7,81.6L110.7,81.6z"/>
	</g>
</g>
<g>
	<line class="st5" x1="53.4" y1="68.7" x2="66.6" y2="81.9"/>
	<line class="st5" x1="66.6" y1="68.8" x2="53.5" y2="81.9"/>
</g>
<line class="st6" x1="18.1" y1="101.4" x2="35.7" y2="101.4"/>
</svg>
