<?xml version="1.0" encoding="utf-8"?>
<!-- Generator: Adobe Illustrator 22.0.1, SVG Export Plug-In . SVG Version: 6.00 Build 0)  -->
<svg version="1.1" id="Layer_1" xmlns="http://www.w3.org/2000/svg" xmlns:xlink="http://www.w3.org/1999/xlink" x="0px" y="0px"
	 viewBox="0 0 50 27.8" style="enable-background:new 0 0 50 27.8;" xml:space="preserve">
<style type="text/css">
	.st0{fill:#B2B2B2;}
</style>
<g>
	<path class="st0" d="M2.8,12.8h28.8L30.5,14c-0.2,0.2-0.2,0.5,0,0.7c0.2,0.2,0.5,0.2,0.7,0c0,0,0,0,0,0l2.1-2.1
		c0.2-0.2,0.2-0.5,0-0.7l-2.1-2.1c-0.2-0.2-0.5-0.2-0.7,0c-0.2,0.2-0.2,0.5,0,0.7l1.2,1.2H2.8c-0.5,0-1-0.4-1-0.9c0,0,0-0.1,0-0.1V4
		c0-0.9,0.7-1.6,1.6-1.6h19.9c0.8,0,1.5,0.6,1.6,1.4c0,0.1,0,0.1,0,0.2c0,0.3,0.2,0.5,0.5,0.5c0.3,0,0.5-0.2,0.5-0.5
		c0.1-1.4-1-2.6-2.4-2.6c-0.1,0-0.1,0-0.2,0H3.4C1.9,1.3,0.8,2.5,0.8,4v6.8c0,1.1,0.9,2.1,2,2.1C2.8,12.8,2.8,12.8,2.8,12.8z"/>
	<path class="st0" d="M25.6,17.2c-0.5-0.5-1.2-0.8-1.9-0.7H8.3l1.2-1.2c0.2-0.2,0.2-0.5,0-0.7c-0.2-0.2-0.5-0.2-0.7,0l-2.1,2.1
		c0,0-0.1,0.1-0.1,0.2c-0.1,0.1-0.1,0.3,0,0.4c0,0.1,0.1,0.1,0.1,0.2l2.1,2.1c0.2,0.2,0.5,0.2,0.7,0c0.2-0.2,0.2-0.5,0-0.7l-1.2-1.2
		h15.5c0.4,0,0.7,0.1,1,0.3c0.1,0.2,0.1,0.4,0.1,0.6c0,0.1,0,0.1,0,0.2v5.2c0,0.9-0.7,1.6-1.6,1.6H3.4c-0.9,0-1.6-0.7-1.6-1.6v-9.4
		c0-0.3-0.2-0.5-0.5-0.5s-0.5,0.2-0.5,0.5v9.4c0,1.4,1.2,2.6,2.6,2.6h19.9c1.4,0,2.6-1.2,2.6-2.6v-5.2C26,18.2,25.9,17.7,25.6,17.2z
		"/>
	<path class="st0" d="M25.3,9.8c0.3,0,0.5-0.2,0.5-0.5V6c0-0.3-0.2-0.5-0.5-0.5H3.9C3.6,5.5,3.4,5.8,3.4,6s0.2,0.5,0.5,0.5h20.9v2.7
		C24.8,9.6,25,9.8,25.3,9.8z"/>
	<path class="st0" d="M3.9,4.5h1c0.3,0,0.5-0.2,0.5-0.5S5.2,3.4,4.9,3.4h-1C3.6,3.4,3.4,3.7,3.4,4S3.6,4.5,3.9,4.5z"/>
	<path class="st0" d="M8.1,4.5c0.3,0,0.5-0.2,0.5-0.5S8.4,3.4,8.1,3.4H7C6.7,3.4,6.5,3.7,6.5,4S6.7,4.5,7,4.5H8.1z"/>
	<path class="st0" d="M23.2,4.5c0.3,0,0.5-0.2,0.5-0.5s-0.2-0.5-0.5-0.5h-1c-0.3,0-0.5,0.2-0.5,0.5s0.2,0.5,0.5,0.5H23.2z"/>
</g>
<g>
	<g>
		<g>
			<path class="st0" d="M46.1,8.3c-0.7-0.8-1.9-1.1-3.5-1.1h-4.6c-0.3,0-0.6,0.2-0.7,0.6l-1.9,12.2c0,0.2,0.1,0.5,0.4,0.5h2.9
				l0.7-4.5l0,0.1c0.1-0.3,0.3-0.6,0.7-0.6h1.4c2.7,0,4.8-1.1,5.4-4.2c0-0.1,0-0.3,0-0.3C46.9,9.8,46.7,9,46.1,8.3z"/>
		</g>
	</g>
	<g>
		<g>
			<path class="st0" d="M47.5,11.6c-0.7,3.1-2.8,4.7-6.2,4.7h-1.2L39.2,22h2c0.3,0,0.5-0.2,0.6-0.5l0-0.1l0.5-2.9l0-0.2
				c0-0.3,0.3-0.5,0.6-0.5h0.4c2.3,0,4.2-0.9,4.7-3.7C48.1,13.1,48,12.2,47.5,11.6z"/>
		</g>
	</g>
</g>
</svg>
