<svg xmlns="http://www.w3.org/2000/svg" width="51.001" height="51" viewBox="0 0 51.001 51"><defs><style>.a{fill:#fff;}.b{fill:#a6ce39;}</style></defs><path class="a" d="M47.979,9.63A25.5,25.5,0,0,0,12.941,4.947L10.7,2.128A1,1,0,0,0,9,2.36L2.883,16.8a1,1,0,0,0,1.09,1.37L19.42,15.452a1,1,0,0,0,.607-1.6l-2.214-2.782A17.672,17.672,0,0,1,35.04,9.27a1,1,0,1,0,.788-1.829,19.66,19.66,0,0,0-20.053,2.668,1,1,0,0,0-.159,1.4l1.808,2.272L5.432,15.891l4.75-11.212,1.809,2.272a1,1,0,0,0,1.4.159A23.5,23.5,0,0,1,51.444,27.519l-3.931.693a19.607,19.607,0,0,0-4.091-14.957,1,1,0,0,0-1.559,1.24,17.633,17.633,0,0,1,3.448,14.735,1,1,0,0,0,.974,1.205c.057,0,6.246-1.085,6.246-1.085a1,1,0,0,0,.816-.865A25.316,25.316,0,0,0,47.979,9.63Z" transform="translate(-2.525 -0.004)"/><path class="b" d="M49.553,206.7,34.106,209.42a1,1,0,0,0-.607,1.6l2.214,2.784a17.583,17.583,0,0,1-9.217,3.21V203.923a12.6,12.6,0,0,0,3.029.381,10.232,10.232,0,0,0,5.158-1.34,11.282,11.282,0,0,0,5.241-7.957,1,1,0,0,0-.648-1.122,11.28,11.28,0,0,0-9.514.557A10.461,10.461,0,0,0,25.5,199.26a10.461,10.461,0,0,0-4.263-4.817,11.281,11.281,0,0,0-9.514-.557,1,1,0,0,0-.648,1.122,11.283,11.283,0,0,0,5.241,7.957,10.232,10.232,0,0,0,5.158,1.34,12.6,12.6,0,0,0,3.029-.381v13.09A17.666,17.666,0,0,1,8.215,195.644a1,1,0,0,0-1.146-1.19L1,195.521a1,1,0,0,0-.817.865A25.494,25.494,0,0,0,22.617,224.7a25.888,25.888,0,0,0,2.934.167,25.282,25.282,0,0,0,15.034-4.942l2.243,2.818a1,1,0,0,0,1.7-.232l6.118-14.441a1,1,0,0,0-1.09-1.37ZM30.76,196.168a9.053,9.053,0,0,1,7.016-.668,9.054,9.054,0,0,1-4.087,5.739,9.057,9.057,0,0,1-7.017.67A9.054,9.054,0,0,1,30.76,196.168ZM17.313,201.24a9.054,9.054,0,0,1-4.087-5.739,9.053,9.053,0,0,1,7.016.668,9.054,9.054,0,0,1,4.088,5.742A9.056,9.056,0,0,1,17.313,201.24ZM43.344,220.2l-1.809-2.272a1,1,0,0,0-1.4-.159A23.5,23.5,0,0,1,2.083,197.353l3.931-.691a19.682,19.682,0,0,0,31.737,18.1,1,1,0,0,0,.16-1.4L36.1,211.092l11.993-2.109Z" transform="translate(0 -173.87)"/><path class="a" d="M360.717,98.859a1,1,0,1,0-.705-.294l0,0A.99.99,0,0,0,360.717,98.859Z" transform="translate(-323.888 -87.217)"/></svg>