<?xml version="1.0" encoding="utf-8"?>
<!-- Generator: Adobe Illustrator 22.0.1, SVG Export Plug-In . SVG Version: 6.00 Build 0)  -->
<svg version="1.1" id="Layer_1" xmlns="http://www.w3.org/2000/svg" xmlns:xlink="http://www.w3.org/1999/xlink" x="0px" y="0px"
	 viewBox="0 0 98.5 68.2" style="enable-background:new 0 0 98.5 68.2;" xml:space="preserve">
<style type="text/css">
	.st0{fill:#FFFFFF;}
</style>
<g transform="translate(0.5 0.5)">
	<path class="st0" d="M79.2,67.2H69.1v-0.7l0-0.7v-0.7l0-0.7l0-0.7l0-0.7l0-0.7l0-0.7l0-0.7l0-0.7l0-0.7l0-0.7l0-0.7l0-0.7l0-0.7
		l0-0.7l0-0.7l0-0.6h9.8l0,0.4l0.1,0.6l0,0.6l0,0.6l0,0.6l0,0.6l0,0.6l0,0.6l0,0.6l0,0.6l0,0.6l0,0.6l0,0.6l0,0.6l0,0.6l0,0.6l0,0.6
		l0,0.6v0.6l0,0.6v0.6L79.2,67.2L79.2,67.2z M10.1,67.2H0v-0.6l0-0.6v-0.6L0,65l0-0.6l0-0.6l0-0.6l0-0.6l0-0.6l0-0.6l0-0.6l0-0.6
		l0-0.6l0-0.6l0-0.6l0-0.6l0-0.6l0-0.6l0-0.6l0-0.6l0.1-0.6l0.1-0.6l0.1-0.6l0.1-0.6l0.1-0.6l0.1-0.6L1,51.9L1,51.4l0.1-0.6l0.1-0.6
		l0.1-0.6l0.1-0.6l0.1-0.6L1.5,48l0.1-0.6l0.1-0.6l0.1-0.6l0.1-0.6L2,45.1l0.1-0.6L2.2,44l0.1-0.6l0.1-0.6l0.1-0.6l0.1-0.6l0.1-0.6
		l0.1-0.6l0.1-0.6L3,39.5L3.1,39l0.1-0.6l0.1-0.6l0.1-0.6l0.1-0.5l0.1-0.6l0.1-0.5L4,35.2l0.1-0.5l0.1-0.5l0.1-0.5L4.5,33l0.1-0.5
		L4.8,32l0.1-0.5l0.1-0.5l0.1-0.5l0.2-0.5l0.1-0.5l0.1-0.5l0.2-0.5L6,27.8l0.2-0.5l0.2-0.5l0.1-0.5l0.2-0.5l0.2-0.5l0.2-0.5l0.2-0.5
		l0.2-0.5l0.2-0.5l0.2-0.5l0.2-0.5L7.9,22l0.2-0.5L8.2,21l0.2-0.5l0.2-0.5l0.2-0.5l0.2-0.4l0.2-0.4l0.2-0.4l0.2-0.4l0.2-0.4L9.8,17
		l0.2-0.4l0.2-0.4l0.2-0.4l0.2-0.4l0.2-0.4l0.2-0.4l0.2-0.4l0.2-0.4l0.2-0.4l0.2-0.4l0.2-0.4l0.2-0.4l0.2-0.4l0.2-0.4l0.2-0.4
		l0.2-0.4l0.2-0.4l0.2-0.4l0.2-0.3l0.2-0.3l0.2-0.3L14,8.6l0.2-0.3L14.4,8l0.2-0.3l0.2-0.3L15,7l0.2-0.3l0.2-0.3l0.2-0.3l0.2-0.3
		L16,5.6l0.2-0.3l0.2-0.3l0.2-0.3l0.2-0.3L17,4.3l0.2-0.2l0.2-0.2l0.2-0.2l0.2-0.2L18,3.2L18.3,3l0.2-0.2l0.2-0.2l0.2-0.2l0.2-0.2
		L19.3,2l0.2-0.2l0.2-0.2l0.2-0.1l0.2-0.1l0.2-0.1l0.2-0.1L20.7,1l0.2-0.1l0.2-0.1l0.2-0.1l0.1-0.1l0.2-0.1l0.2-0.1L22,0.3l0.2-0.1
		l0.2-0.1l0.2,0l0.2,0l0.2,0l0.2,0l0.2,0l0.2,0h0.5l0.3,0l0.3,0l0.3,0.1l0.3,0.1l0.3,0.1l0.3,0.1l0.3,0.1l0.3,0.1L27,0.8L27.3,1
		l0.3,0.2l0.3,0.2l0.3,0.2l0.3,0.2L28.7,2L29,2.2l0.3,0.3l0.3,0.3L29.8,3L30,3.3l0.3,0.3l0.3,0.3l0.2,0.3L31,4.5l0.2,0.3l0.2,0.3
		l0.2,0.4L32,5.9l0.2,0.4l0.2,0.4l0.2,0.4l0.2,0.4l0.2,0.4l0.2,0.4l0.2,0.4l0.2,0.4l0.2,0.4l0.2,0.4l0.2,0.4l0.2,0.4l0.2,0.4
		l0.2,0.5l0.2,0.5l0.2,0.5l0.2,0.5l0.2,0.5l0.2,0.5l0.2,0.5l0.1,0.5l0.2,0.5l0.2,0.5l0.2,0.5l0.1,0.5l0.2,0.5l0.1,0.5l0.1,0.5
		l0.1,0.5l0.1,0.5l0.1,0.5l0.1,0.5l0.1,0.5l0.1,0.5l0.1,0.5l0.1,0.5l0.1,0.5l0.1,0.5l0.1,0.5l0.1,0.5l0.1,0.5l0.1,0.5l0.1,0.5
		l0.1,0.5l0.1,0.4l0.1,0.5l0.1,0.4l0.1,0.4l0.1,0.4l0.1,0.4l0.1,0.4l0.1,0.4l0.1,0.4l0.1,0.4l0,0.4l0.1-0.4l0.1-0.4l0.1-0.4l0.1-0.4
		l0.1-0.4l0.1-0.4l0.1-0.4l0.1-0.4l0.1-0.4l0.1-0.5l0.1-0.4l0.1-0.5l0.1-0.5l0.1-0.5l0.1-0.5l0.1-0.5l0.1-0.5l0.1-0.5l0.1-0.5
		l0.1-0.5l0.1-0.5l0.1-0.5l0.1-0.5l0.1-0.5l0.1-0.5L42,19l0.1-0.5l0.1-0.5l0.1-0.5l0.2-0.5l0.1-0.5l0.2-0.5l0.2-0.5l0.2-0.5l0.1-0.5
		l0.2-0.5l0.2-0.5l0.2-0.5l0.2-0.5l0.2-0.5l0.2-0.5l0.2-0.5l0.2-0.4l0.2-0.4l0.2-0.4l0.2-0.4l0.2-0.4l0.2-0.4l0.2-0.4l0.2-0.4
		l0.2-0.4l0.2-0.4l0.2-0.4L47,6.3l0.2-0.4l0.2-0.4l0.2-0.4l0.2-0.3l0.2-0.3l0.3-0.3l0.2-0.3l0.3-0.3l0.3-0.3L49.4,3l0.3-0.3L50,2.4
		l0.3-0.2L50.5,2l0.3-0.2l0.3-0.2l0.3-0.2l0.3-0.2l0.3-0.2l0.3-0.2l0.3-0.1l0.3-0.1l0.3-0.1l0.3-0.1l0.3-0.1l0.3-0.1l0.3-0.1l0.3,0
		L55,0h0.5l0.2,0L56,0l0.2,0l0.2,0l0.2,0l0.2,0.1L57,0.3l0.2,0.1l0.2,0.1l0.2,0.1l0.2,0.1L58,0.7l0.2,0.1l0.2,0.1L58.6,1l0.2,0.1
		L59,1.2l0.2,0.1l0.2,0.1l0.2,0.1l0.2,0.2L60,2l0.2,0.2l0.2,0.2l0.2,0.2l0.2,0.2L61.1,3l0.2,0.2l0.2,0.2l0.2,0.2l0.2,0.2l0.2,0.2
		l0.2,0.2l0.2,0.3l0.2,0.3l0.2,0.3l0.2,0.3l0.2,0.3l0.2,0.3l0.2,0.3l0.2,0.3l0.2,0.3L64.3,7l0.2,0.3l0.2,0.3L64.9,8l0.2,0.3l0.2,0.3
		l0.2,0.3l0.2,0.3l0.2,0.3l0.2,0.3l0.2,0.3l0.2,0.4l0.2,0.4l0.2,0.4l0.2,0.4l0.2,0.4l0.2,0.4l0.2,0.4l0.2,0.4l0.2,0.4l0.2,0.4
		l0.2,0.4l0.2,0.4l0.2,0.4l0.2,0.4l0.2,0.4l0.2,0.4l0.2,0.4l0.2,0.4l0.2,0.4l0.2,0.4l0.2,0.4l0.2,0.4l0.2,0.4l0.2,0.5l0.2,0.5
		l0.2,0.5l0.2,0.5l0.2,0.5l0.2,0.5l0.2,0.5l0.2,0.5l0.2,0.5l0.2,0.5l0.2,0.5l0.2,0.5l0.2,0.5l0.1,0.5l0.2,0.5l0.2,0.5l0.1,0.5
		l0.1,0.5l0.2,0.5l0.1,0.5l0.1,0.5l0.2,0.5l0.1,0.5l0.1,0.5l0.1,0.5l0.1,0.5l0.1,0.5l0.1,0.5l0.1,0.5l0.1,0.5l0.1,0.5l0.1,0.5
		l0.1,0.6l0.1,0.5l0.1,0.5l0.1,0.6l0.1,0.6l0.1,0.6l0.1,0.6l0.1,0.6l0.1,0.6l0.1,0.6l0.1,0.6l0.1,0.6l0.1,0.6l0.1,0.3h-9.3l-0.1-0.5
		l-0.1-0.6l-0.1-0.6l-0.1-0.6l-0.1-0.6l-0.1-0.6l-0.1-0.6L67,38.5l-0.1-0.6l-0.1-0.6l-0.1-0.6l-0.1-0.6l-0.1-0.6L66.5,35l-0.1-0.6
		l-0.1-0.6l-0.1-0.6l-0.1-0.6L66,32.2l-0.1-0.6l-0.1-0.5l-0.1-0.5L65.6,30l-0.1-0.5l-0.1-0.5l-0.1-0.5l-0.1-0.5l-0.1-0.5L65,26.9
		l-0.1-0.5l-0.1-0.5l-0.1-0.5l-0.1-0.5l-0.1-0.5l-0.1-0.5l-0.1-0.5L64,23l-0.1-0.5l-0.1-0.5l-0.1-0.4l-0.1-0.4l-0.1-0.4l-0.1-0.4
		l-0.1-0.4l-0.1-0.4L62.9,19l-0.1-0.4l-0.1-0.4l-0.1-0.4l-0.2-0.4L62.3,17l-0.1-0.4L62,16.3l-0.1-0.4l-0.1-0.4l-0.1-0.4l-0.1-0.4
		l-0.1-0.3l-0.1-0.3l-0.1-0.3L61,13.5l-0.1-0.3l-0.1-0.3l-0.1-0.3l-0.1-0.3l-0.1-0.3l-0.1-0.3L60,11.4l-0.1-0.3l-0.1-0.3l-0.1-0.3
		l-0.1-0.2l-0.1-0.2l-0.1-0.2l-0.1-0.2L59,9.4l-0.1-0.2L58.7,9l-0.1-0.2l-0.1-0.2l-0.1-0.2l-0.1-0.2l-0.1-0.2l-0.1-0.2l-0.1-0.1
		l-0.1-0.1l-0.1-0.1l-0.1-0.1l-0.1-0.1l-0.1-0.1L57,7.1L56.9,7l-0.1-0.1l-0.1-0.1l-0.1-0.1l-0.1-0.1l-0.1,0l-0.1,0l-0.1,0l-0.1,0
		l-0.1,0l-0.1,0l-0.1,0l-0.1,0l-0.1,0l-0.1,0l-0.1,0l-0.1,0l-0.1,0l-0.1,0.1l-0.1,0.1l-0.1,0.1l-0.1,0.1L54,7l-0.1,0.1l-0.1,0.1
		l-0.1,0.1l-0.1,0.1l-0.1,0.1l-0.1,0.1l-0.1,0.1L53,7.9L52.9,8l-0.1,0.1l-0.1,0.1l-0.1,0.2l-0.1,0.2l-0.1,0.2L52.1,9L52,9.2
		l-0.1,0.2l-0.1,0.2l-0.1,0.2l-0.1,0.2l-0.1,0.2l-0.1,0.2l-0.1,0.2L51,11l-0.1,0.3l-0.1,0.3l-0.1,0.3L50.6,12l-0.1,0.3l-0.1,0.3
		l-0.1,0.3l-0.1,0.3L50,13.5l-0.1,0.3l-0.1,0.3l-0.1,0.3l-0.1,0.3l-0.1,0.3l-0.1,0.3l-0.1,0.4l-0.1,0.4L49,16.5l-0.1,0.4l-0.1,0.4
		l-0.1,0.4L48.6,18l-0.1,0.4l-0.1,0.4l-0.1,0.4l-0.1,0.4l-0.1,0.4l-0.1,0.4L48,21l-0.1,0.4l-0.1,0.5l-0.1,0.5l-0.1,0.5l-0.1,0.5
		l-0.1,0.5l-0.1,0.5l-0.1,0.5l-0.1,0.5l-0.1,0.5L47,26.2l-0.1,0.5l-0.1,0.5l-0.1,0.5l-0.1,0.5l-0.1,0.5l-0.1,0.6L46.5,30l-0.1,0.6
		l-0.1,0.6l-0.1,0.6l-0.1,0.6l-0.1,0.6L46,33.4L46,34l-0.1,0.6l-0.1,0.6l-0.1,0.6l-0.1,0.6l-0.1,0.6l-0.1,0.6l0,0.7l-0.1,0.6l0,0.7
		l-0.1,0.7l0,0.7l0,0.7l0,0.7l0,0.7l0,0.1H34v-0.1l0-0.7l0-0.7l0-0.7l-0.1-0.7l0-0.7l0-0.7l-0.1-0.6l-0.1-0.7l0-0.6l-0.1-0.6
		l-0.1-0.6l-0.1-0.6l-0.1-0.6L33.2,34l-0.1-0.6l-0.1-0.6L33,32.2L33,31.7l-0.1-0.6l-0.1-0.6L32.8,30l-0.1-0.6l-0.1-0.6l-0.1-0.5
		l-0.1-0.5l-0.1-0.5l-0.1-0.5l-0.1-0.5l-0.1-0.5L32,25.2L32,24.7l-0.1-0.5l-0.1-0.5l-0.1-0.5l-0.1-0.5l-0.1-0.5l-0.1-0.5l-0.1-0.4
		L31.3,21l-0.1-0.4l-0.1-0.4L31,19.7l-0.1-0.4l-0.1-0.4l-0.1-0.4L30.6,18l-0.1-0.4l-0.1-0.4l-0.1-0.4l-0.1-0.4l-0.1-0.4L30,15.8
		l-0.1-0.4l-0.1-0.3l-0.1-0.3l-0.1-0.3l-0.1-0.3l-0.1-0.3l-0.1-0.3l-0.1-0.3L29,12.9l-0.1-0.3l-0.1-0.3L28.7,12l-0.1-0.3l-0.1-0.3
		l-0.1-0.3L28.2,11l-0.1-0.2L28,10.5l-0.1-0.2L27.7,10l-0.1-0.2l-0.1-0.2l-0.1-0.2l-0.1-0.2L27.1,9L27,8.8l-0.1-0.2l-0.2-0.2
		l-0.1-0.2l-0.1-0.2L26.3,8l-0.1-0.1l-0.1-0.1l-0.1-0.1l-0.1-0.1l-0.1-0.1l-0.1-0.1l-0.1-0.1l-0.1-0.1L25.1,7L25,6.9l-0.1-0.1
		l-0.1-0.1l-0.1-0.1l-0.1-0.1l-0.1,0l-0.1,0l-0.1,0l-0.1,0l-0.1,0l-0.1,0l-0.1,0l-0.1,0l-0.1,0l-0.1,0l-0.1,0l-0.1,0l-0.1,0
		l-0.1,0.1l-0.1,0.1l-0.1,0.1l-0.1,0.1L22.2,7L22,7.1l-0.1,0.1l-0.1,0.1l-0.1,0.1l-0.1,0.1l-0.1,0.1l-0.1,0.1l-0.1,0.2L21,8.2
		l-0.1,0.2l-0.1,0.2l-0.1,0.2L20.5,9l-0.1,0.2l-0.1,0.2l-0.1,0.2l-0.1,0.2l-0.1,0.2l-0.1,0.2l-0.1,0.2l-0.1,0.3l-0.1,0.3l-0.1,0.3
		L19,11.6l-0.1,0.3l-0.1,0.3l-0.1,0.3l-0.1,0.3l-0.1,0.3l-0.1,0.3l-0.1,0.3L18,14.1l-0.1,0.3l-0.1,0.3l-0.1,0.4l-0.1,0.4l-0.1,0.4
		l-0.1,0.4L17,16.6L16.9,17l-0.1,0.4l-0.1,0.4l-0.1,0.4l-0.1,0.4L16.3,19l-0.1,0.4L16,19.9l-0.1,0.4l-0.1,0.4l-0.1,0.4l-0.1,0.4
		l-0.1,0.4l-0.1,0.5L15.2,23l-0.1,0.5l-0.1,0.5l-0.1,0.5l-0.1,0.5l-0.1,0.5l-0.1,0.5l-0.1,0.5l-0.1,0.5l-0.1,0.5L14,27.9l-0.1,0.5
		l-0.1,0.5l-0.1,0.5L13.6,30l-0.1,0.5l-0.1,0.5l-0.1,0.6l-0.1,0.5l-0.1,0.6L13,33.3l-0.1,0.6l-0.1,0.6L12.7,35l-0.1,0.6l-0.1,0.6
		l-0.1,0.6l-0.1,0.6l-0.1,0.6l-0.1,0.6l-0.1,0.6L12,39.7l-0.1,0.6l-0.1,0.6l-0.1,0.6l-0.1,0.6l-0.1,0.6l-0.1,0.6L11.5,44l-0.1,0.6
		l-0.1,0.6l-0.1,0.6l-0.1,0.6l-0.1,0.6L11,47.7L11,48.4L10.9,49l-0.1,0.7l-0.1,0.6L10.8,51l0,0.7l-0.1,0.7l0,0.7l0,0.7l0,0.7l0,0.7
		l0,0.7l0,0.7l0,0.7l0,0.7l0,0.7l0,0.7l0,0.7l0,0.7l0,0.7l0,0.7l0,0.7l0,0.7l0,0.7l0,0.7l0,0.7l0,0.7L10.1,67.2L10.1,67.2z
		 M44.6,63.4H34.6v-1.7l0-0.9V60l0-0.8l0-0.8l0-0.8l0-0.8l0-0.8l0-0.8V55h10.3v0.1l0,0.8l0,0.8l0,0.8l0,0.8l0,0.8V60l0,0.8v1.7
		L44.6,63.4L44.6,63.4z"/>
	<path class="st0" d="M74.8,44.2h2.9v9.6h-2.9V44.2z"/>
	<path class="st0" d="M88.5,44.2h2l-0.7,2.6h-1.4L88.5,44.2L88.5,44.2z"/>
	<path class="st0" d="M93.9,45.6l0.6,0l0.6,0.1l0.5,0.1l0.5,0.1l0.4,0.2l0.4,0.2l0.3,0.3l0.2,0.4l0.1,0.5l0.1,0.5h-2.8l-0.1-0.5
		l-0.4-0.3l-0.6-0.1l0,0l-0.4,0.1l-0.3,0.2L93,47.8l0,0l0.1,0.4l0.3,0.3l0.4,0.2l0.5,0.1l0.6,0.1l0.6,0.1l0.6,0.1l0,0l0.6,0.2
		l0.5,0.3l0.4,0.3l0.3,0.4l0.2,0.5l0.1,0.5l0,0l0,0.5l-0.1,0.4l-0.2,0.4l-0.2,0.3l-0.3,0.3l-0.4,0.3l-0.4,0.2l-0.5,0.2l-0.6,0.1
		L94.6,54l-0.7,0l0,0l-0.7,0l-0.6-0.1L92,53.8l-0.5-0.2l-0.4-0.2l-0.3-0.3l-0.3-0.3l-0.2-0.3l-0.1-0.4l-0.1-0.4l0-0.5h2.8l0.1,0.6
		l0.4,0.4l0.5,0.1l0,0l0.6-0.1l0.3-0.3l0.1-0.4l0,0l-0.1-0.4l-0.3-0.3l-0.4-0.2l-0.5-0.1L93,50.4l-0.6-0.1l-0.5-0.1l0,0L91.4,50
		L91,49.7l-0.3-0.4l-0.2-0.5l-0.1-0.7l0,0l0-0.3l0.1-0.3l0.1-0.3l0.2-0.3l0.3-0.3l0.4-0.3l0.5-0.2l0.6-0.2l0.7-0.1L93.9,45.6
		L93.9,45.6z"/>
	<path class="st0" d="M34,50.9l-0.2,0.5l-0.2,0.5l-0.3,0.4l-0.3,0.4L32.7,53l-0.4,0.3l-0.4,0.3l-0.5,0.2L31,53.9L30.5,54l-0.5,0l0,0
		l-0.5,0L29,53.9l-0.5-0.1l-0.4-0.2l-0.4-0.2l-0.4-0.3l-0.3-0.3l-0.3-0.4l-0.3-0.4l-0.2-0.4L26,51.2l-0.1-0.5l-0.1-0.5l0-0.6l0,0
		l0-0.6l0.1-0.5l0.1-0.5l0.2-0.5l0.2-0.4l0.3-0.4l0.3-0.4l0.3-0.3l0.4-0.3l0.4-0.2l0.4-0.2l0.5-0.1l0.5-0.1l0.5,0l0,0l0.6,0l0.5,0.1
		l0.5,0.1l0.5,0.2l0.4,0.3l0.4,0.3l0.3,0.3l0.3,0.4l0.2,0.4l0.2,0.5l0.2,0.5h-2.7L31,47.8l-0.4-0.4l-0.6-0.1l0,0l-0.5,0.1L29,47.7
		l-0.3,0.4l-0.2,0.5l-0.1,0.5l0,0.5l0,0l0,0.5l0.1,0.5l0.2,0.5l0.3,0.4l0.4,0.3l0.5,0.1l0,0l0.6-0.1l0.4-0.4l0.3-0.5L34,50.9
		L34,50.9z"/>
	<path class="st0" d="M13.8,44.2h3.5l1.5,5.7l1.5-5.7h3.5l1.5,9.9h-2.9l-0.8-5.8L20.2,54h-2.7l-1.6-5.8L15.2,54h-2.9L13.8,44.2
		L13.8,44.2z"/>
	<path class="st0" d="M58.7,49.1v4.7h-2.9v-8.4h2.9V46l0,0l0.4-0.3l0.5-0.2l0.5-0.2l0.7-0.1l0.8,0l0,0l0.6,0l0.6,0.1l0.5,0.2
		l0.4,0.3l0.4,0.3l0.3,0.4l0.2,0.4l0.1,0.4l0,0v6.4h-2.9v-4.6l0,0l-0.1-0.5l-0.3-0.4l-0.4-0.3l-0.6-0.1l0,0L59.3,48l-0.5,0.5
		L58.7,49.1L58.7,49.1z"/>
	<path class="st0" d="M84.5,46.2v-2h2.9v9.6h-2.9v-0.5l0,0L84,53.7l-0.7,0.3l-1,0.1l0,0L82,54L81.6,54l-0.4-0.1l-0.4-0.1l-0.4-0.2
		l-0.4-0.2l-0.3-0.3l-0.3-0.4l-0.3-0.4L79,51.8l-0.2-0.6l-0.1-0.6l0-0.7l0,0l0-0.7l0.1-0.6l0.2-0.5l0.2-0.5l0.3-0.4l0.3-0.4l0.3-0.3
		l0.3-0.3l0.4-0.2l0.4-0.1l0.4-0.1l0.4-0.1l0.4,0l0.4,0l0,0l1,0.1l0.6,0.2L84.5,46.2L84.5,46.2z M81.4,49.9l0.1,0.7l0.2,0.6l0.3,0.4
		l0.4,0.3L83,52l0,0l0.6-0.1l0.5-0.3l0.4-0.4l0,0v-2.5l0,0l-0.3-0.5l-0.5-0.3l-0.7-0.1l0,0l-0.6,0.1L82,48.1l-0.3,0.4l-0.2,0.6
		L81.4,49.9L81.4,49.9z"/>
	<path class="st0" d="M46.1,49.6l0-0.5l0.1-0.5l0.1-0.5l0.1-0.4l0.2-0.4l0.2-0.4l0.3-0.3l0.3-0.3l0.3-0.3l0.4-0.2l0.4-0.2l0.4-0.2
		l0.5-0.1l0.5-0.1l0.5,0l0,0l0.5,0l0.5,0.1l0.5,0.1l0.4,0.2l0.4,0.2l0.4,0.2l0.3,0.3l0.3,0.3l0.3,0.3l0.2,0.4l0.2,0.4l0.2,0.4
		l0.1,0.5l0.1,0.5l0,0.5l0,0l0,0.5l-0.1,0.5l-0.1,0.5l-0.1,0.4l-0.2,0.4l-0.2,0.4l-0.3,0.3l-0.3,0.3l-0.3,0.3l-0.4,0.2l-0.4,0.2
		L52,53.8l-0.5,0.1L51,54l-0.5,0l0,0l-0.5,0l-0.5-0.1L49,53.8l-0.4-0.2l-0.4-0.2l-0.4-0.2l-0.3-0.3l-0.3-0.3l-0.3-0.3l-0.2-0.4
		l-0.2-0.4l-0.1-0.4l-0.1-0.5l-0.1-0.5L46.1,49.6L46.1,49.6z M52.1,49.6l0-0.5L52,48.6l-0.2-0.5l-0.3-0.4L51,47.4l-0.6-0.1l0,0
		l-0.6,0.1l-0.4,0.3l-0.3,0.4l-0.2,0.5l-0.1,0.5l0,0.5l0,0l0,0.5l0.1,0.5l0.2,0.5l0.3,0.4l0.4,0.3l0.6,0.1l0,0l0.6-0.1l0.4-0.3
		l0.3-0.4l0.2-0.5l0.1-0.5L52.1,49.6z"/>
	<path class="st0" d="M35,44.2h5l0.6,0l0.5,0.1l0.5,0.1l0.5,0.1l0.4,0.2l0.4,0.2l0.4,0.2l0.4,0.3l0.3,0.3l0.3,0.3l0.3,0.4l0.2,0.4
		l0.2,0.4l0.1,0.4l0.1,0.5l0.1,0.5l0,0.5l0,0l0,0.5l-0.1,0.5l-0.1,0.5L45,51l-0.2,0.4l-0.2,0.4l-0.3,0.4L44,52.5l-0.3,0.3l-0.4,0.3
		L43,53.3l-0.4,0.2l-0.4,0.2l-0.5,0.1l-0.5,0.1L40.6,54L40,54h-5V44.2L35,44.2z M38.3,51.7h1.5l0.4,0l0.4-0.1l0.4-0.2l0.4-0.3
		l0.3-0.5l0.2-0.6l0.1-0.8l0,0L42,48.3l-0.2-0.6l-0.3-0.5l-0.4-0.3l-0.4-0.2l-0.4-0.1l-0.4,0h-1.5V51.7L38.3,51.7z"/>
	<path class="st0" d="M69.7,45.2l0.6,0l0.6,0.1l0.6,0.1l0.5,0.2l0.4,0.2l0.4,0.3l0.3,0.3l0.3,0.4l0.2,0.4l0.1,0.5l0,0v6.2h-2.9V53
		l0,0l-0.4,0.3l-0.5,0.3l-0.5,0.2L68.7,54L68,54l0,0L67.5,54l-0.5-0.1l-0.4-0.2l-0.4-0.3l-0.3-0.4l-0.2-0.4L65.4,52l-0.1-0.5l0,0
		l0-0.3l0.1-0.3l0.1-0.3l0.2-0.3l0.2-0.3l0.3-0.3l0.3-0.3l0.4-0.2l0.5-0.2l0.6-0.1l0.7-0.1l0.8,0l0,0l0.7-0.1l0.3-0.3l0.1-0.4l0,0
		l-0.2-0.4l-0.4-0.3L69.6,47l0,0l-0.5,0.1l-0.4,0.2l-0.2,0.4h-2.7l0-0.3l0.1-0.3l0.1-0.3l0.2-0.3l0.2-0.3l0.3-0.3l0.4-0.2l0.5-0.2
		l0.6-0.1l0.7-0.1L69.7,45.2L69.7,45.2z M69.5,49.9L68.9,50l-0.5,0.3L68.2,51l0,0l0.1,0.4l0.3,0.3l0.6,0.1l0,0l0.7-0.1l0.5-0.4
		l0.3-0.7l0,0v-0.8l0,0l-0.3,0.1l-0.4,0L69.5,49.9L69.5,49.9z"/>
	<path class="st0" d="M83.7,60.7h1.8l0.8,0.1l0.5,0.4l0.2,0.6l0,0l-0.1,0.5l-0.4,0.3l-0.5,0.2l0,0v0l0,0l0.6,0.4l0.3,0.6l0.1,0.7
		h-0.8L86,63.7l-0.3-0.4L85,63.1h-0.7v1.4h-0.7L83.7,60.7L83.7,60.7z M84.4,62.5h0.8l0.5-0.1l0.3-0.2l0.1-0.4l0,0l-0.1-0.3l-0.3-0.2
		l-0.5-0.1h-1L84.4,62.5L84.4,62.5z M85.1,59.3l0.5,0l0.5,0.1l0.5,0.2l0.4,0.3l0.4,0.3l0.3,0.4l0.3,0.4l0.2,0.5l0.1,0.5l0,0.5l0,0
		l0,0.5l-0.1,0.5l-0.2,0.5l-0.3,0.4l-0.3,0.4l-0.4,0.3l-0.4,0.3l-0.5,0.2l-0.5,0.1l-0.5,0l0,0l-0.5,0l-0.5-0.1l-0.5-0.2l-0.4-0.3
		l-0.4-0.3l-0.3-0.4l-0.3-0.4L82,63.7l-0.1-0.5l0-0.5l0,0l0-0.5l0.1-0.5l0.2-0.5l0.3-0.4l0.3-0.4l0.4-0.3l0.4-0.3l0.5-0.2l0.5-0.1
		L85.1,59.3z M85.1,65.5l0.5,0l0.5-0.1l0.5-0.2l0.4-0.3l0.4-0.4l0.3-0.4l0.2-0.5l0.1-0.5l0-0.5l0,0l0-0.5l-0.1-0.5l-0.2-0.5
		l-0.3-0.4L87,60.4l-0.4-0.3l-0.5-0.2l-0.5-0.1l-0.5,0l0,0l-0.5,0l-0.5,0.1l-0.4,0.2l-0.4,0.3l-0.4,0.4l-0.3,0.4l-0.2,0.5l-0.1,0.5
		l0,0.5l0,0l0,0.5l0.1,0.5l0.2,0.5l0.3,0.4l0.4,0.4l0.4,0.3l0.4,0.2l0.5,0.1L85.1,65.5z"/>
</g>
</svg>
