<svg xmlns="http://www.w3.org/2000/svg" width="30" height="30" viewBox="0 0 30 30">
  <g id="mods" transform="translate(-1147 -148)">
    <circle id="Ellipse_90" data-name="Ellipse 90" cx="15" cy="15" r="15" transform="translate(1147 148)" fill="#e7e9e7"/>
    <g id="acupuncture" transform="translate(1152.975 154.94)">
      <path id="Path_155" data-name="Path 155" d="M224.1,35.7a.067.067,0,0,0-.067-.067h-2.147a.067.067,0,0,0-.067.067V51.212a.071.071,0,0,0,.071.071h2.14a.071.071,0,0,0,.071-.071Zm0,0" transform="translate(-214.415 -34.447)" fill="#e7e9e7"/>
      <path id="Path_156" data-name="Path 156" d="M224.1,35.7a.067.067,0,0,0-.067-.067H223.1v9.484h-1.28v6.091a.071.071,0,0,0,.071.071h2.14a.071.071,0,0,0,.071-.071Zm0,0" transform="translate(-214.415 -34.447)" fill="#a7aaaa"/>
      <path id="Path_157" data-name="Path 157" d="M226.42,8.439V7.6a.1.1,0,0,0-.1-.1h-1.91a.1.1,0,0,0-.1.1v.836Zm0,0" transform="translate(-216.819 -7.25)" fill="#ef0027"/>
      <path id="Path_158" data-name="Path 158" d="M221.888,326.017h2.14a.071.071,0,0,0,.071-.071v-6.091h-2.281v6.091A.071.071,0,0,0,221.888,326.017Zm0,0" transform="translate(-214.415 -309.182)" fill="#ef0027"/>
      <path id="Path_159" data-name="Path 159" d="M223.1,319.855V324.6a.75.75,0,0,1-.75.75h-.53v.6a.071.071,0,0,0,.071.071h2.14a.071.071,0,0,0,.071-.071v-6.091Zm0,0" transform="translate(-214.415 -309.181)" fill="#d30d2b"/>
      <path id="Path_160" data-name="Path 160" d="M221.816,319.855H224.1v1.309h-2.281Zm0,0" transform="translate(-214.414 -309.181)" fill="#e7e9e7"/>
      <path id="Path_161" data-name="Path 161" d="M260.184,319.855h1v1.309h-1Zm0,0" transform="translate(-251.502 -309.181)" fill="#a7aaaa"/>
      <g id="Group_207" data-name="Group 207" transform="translate(0.25 1.598)">
        <path id="Path_162" data-name="Path 162" d="M11.044,48.8H7.833A.332.332,0,0,1,7.5,48.47v-.243a.332.332,0,0,1,.332-.332h3.211a.1.1,0,0,1,.1.1V48.7a.1.1,0,0,1-.1.1Zm0,0" transform="translate(-7.5 -47.895)" fill="#ef0027"/>
        <path id="Path_163" data-name="Path 163" d="M395.387,148H398.6a.332.332,0,0,0,.332-.332v-.243a.332.332,0,0,0-.332-.332h-3.211a.1.1,0,0,0-.1.1v.706A.1.1,0,0,0,395.387,148Zm0,0" transform="translate(-382.345 -143.783)" fill="#ef0027"/>
        <path id="Path_164" data-name="Path 164" d="M11.044,247.2H7.833a.332.332,0,0,1-.332-.332v-.243a.332.332,0,0,1,.332-.332h3.211a.1.1,0,0,1,.1.1v.706A.1.1,0,0,1,11.044,247.2Zm0,0" transform="translate(-7.5 -239.672)" fill="#ef0027"/>
        <path id="Path_165" data-name="Path 165" d="M395.387,346.4H398.6a.332.332,0,0,0,.332-.332v-.243a.332.332,0,0,0-.332-.332h-3.211a.1.1,0,0,0-.1.1v.705A.1.1,0,0,0,395.387,346.4Zm0,0" transform="translate(-382.345 -335.561)" fill="#ef0027"/>
        <path id="Path_166" data-name="Path 166" d="M11.044,445.6H7.833a.332.332,0,0,1-.332-.332v-.243a.332.332,0,0,1,.332-.332h3.211a.1.1,0,0,1,.1.1v.705A.1.1,0,0,1,11.044,445.6Zm0,0" transform="translate(-7.5 -431.447)" fill="#ef0027"/>
      </g>
      <path id="Path_167" data-name="Path 167" d="M16.5,4.658H13.292a.352.352,0,0,0-.351.351v.1H9.934V1.256a.316.316,0,0,0-.083-.213V.353A.353.353,0,0,0,9.5,0H7.588a.353.353,0,0,0-.353.353v.69a.316.316,0,0,0-.083.213V1.8H4.145V1.7a.352.352,0,0,0-.351-.351H.583A.583.583,0,0,0,0,1.931v.243a.583.583,0,0,0,.583.583H3.794a.352.352,0,0,0,.351-.351V2.3H7.152v6.12h-.5a.25.25,0,0,0,0,.5h.5v6.12H4.145v-.1a.352.352,0,0,0-.351-.351H.583A.583.583,0,0,0,0,15.172v.243A.583.583,0,0,0,.583,16H3.794a.352.352,0,0,0,.351-.351v-.1H7.152v1.221a.321.321,0,0,0,.321.321h2.14a.321.321,0,0,0,.321-.321V12.233H12.94v.1a.352.352,0,0,0,.351.351H16.5a.583.583,0,0,0,.583-.583v-.243a.583.583,0,0,0-.583-.583h-.523a.25.25,0,1,0,0,.5H16.5a.082.082,0,0,1,.082.082V12.1a.082.082,0,0,1-.082.082H14.385v-.407h.427a.25.25,0,1,0,0-.5h-1.52a.352.352,0,0,0-.351.351v.1H9.934V7.295a.25.25,0,0,0-.5,0v3.129H7.652V1.44H9.433V5.112H9.016a.25.25,0,1,0,0,.5h.417v.514a.25.25,0,0,0,.5,0V5.613H12.94v.1a.352.352,0,0,0,.351.351H16.5a.583.583,0,0,0,.583-.583V5.241a.583.583,0,0,0-.583-.583ZM.5,2.174V1.931a.082.082,0,0,1,.082-.082H2.7v.407H.583A.082.082,0,0,1,.5,2.174Zm3.144.082H3.2V1.849h.443ZM.5,15.415v-.243a.082.082,0,0,1,.082-.082H2.7V15.5H.583A.082.082,0,0,1,.5,15.415Zm3.144.082H3.2V15.09h.443Zm9.8-3.717h.443v.407h-.443ZM7.652,16.585V15.544h.417a.25.25,0,1,0,0-.5H7.652v-2.81H9.433v4.352Zm1.781-5.661v.809H7.652v-.809ZM7.735.939V.5H9.35V.939Zm5.706,4.22h.443v.407h-.443Zm3.144.325a.082.082,0,0,1-.082.082H14.385V5.159H16.5a.082.082,0,0,1,.082.082Zm0,0" transform="translate(0 0)" fill="#1f283b"/>
      <path id="Path_168" data-name="Path 168" d="M.583,240.2H3.794a.352.352,0,0,0,.351-.351v-.1H5.482a.25.25,0,0,0,0-.5H4.145v-.1a.352.352,0,0,0-.351-.351H.583a.583.583,0,0,0-.583.583v.243A.583.583,0,0,0,.583,240.2Zm3.062-.5H3.2v-.407h.443ZM.5,239.376a.082.082,0,0,1,.082-.082H2.7v.407H.583a.082.082,0,0,1-.082-.082Zm0,0" transform="translate(0 -230.824)" fill="#1f283b"/>
    </g>
  </g>
</svg>
