<svg xmlns="http://www.w3.org/2000/svg" width="20.229" height="20.229" viewBox="0 0 20.229 20.229"><defs><style>.a{fill:#d2d2d2;}.b{fill:#b9b9b9;}.c{fill:#e4032f;}</style></defs><path class="a" d="M137.556,17.976v4.267a1.976,1.976,0,0,1-1.976,1.976H134a1.976,1.976,0,0,0,1.976-1.976V17.976A1.976,1.976,0,0,0,134,16h1.58A1.976,1.976,0,0,1,137.556,17.976Z" transform="translate(-128.706 -15.368)"/><path class="a" d="M409.556,17.976v4.267a1.976,1.976,0,0,1-1.975,1.976H406a1.976,1.976,0,0,0,1.976-1.976V17.976A1.976,1.976,0,0,0,406,16h1.58A1.976,1.976,0,0,1,409.556,17.976Z" transform="translate(-389.959 -15.368)"/><path class="b" d="M376.9,292.109a4.111,4.111,0,0,1-4.9,4.033,4.11,4.11,0,0,0,0-8.066,4.111,4.111,0,0,1,4.9,4.033Z" transform="translate(-357.302 -276.621)"/><path class="a" d="M137.556,289.975v4.267a1.976,1.976,0,0,1-1.976,1.975H134a1.976,1.976,0,0,0,1.976-1.975v-4.267A1.976,1.976,0,0,0,134,288h1.58A1.976,1.976,0,0,1,137.556,289.975Z" transform="translate(-128.706 -276.621)"/><path class="c" d="M6.875,9.482H2.608A2.611,2.611,0,0,1,0,6.875V2.608A2.611,2.611,0,0,1,2.608,0H6.875A2.611,2.611,0,0,1,9.482,2.608V6.875A2.611,2.611,0,0,1,6.875,9.482ZM2.608,1.264A1.345,1.345,0,0,0,1.264,2.608V6.875A1.345,1.345,0,0,0,2.608,8.218H6.875A1.345,1.345,0,0,0,8.218,6.875V2.608A1.345,1.345,0,0,0,6.875,1.264Z"/><g transform="translate(10.747)"><path class="c" d="M278.875,9.482h-4.267A2.611,2.611,0,0,1,272,6.875V2.608A2.611,2.611,0,0,1,274.608,0h4.267a2.611,2.611,0,0,1,2.608,2.608V6.875A2.611,2.611,0,0,1,278.875,9.482Zm-4.267-8.218a1.345,1.345,0,0,0-1.343,1.343V6.875a1.345,1.345,0,0,0,1.343,1.343h4.267a1.345,1.345,0,0,0,1.343-1.343V2.608a1.345,1.345,0,0,0-1.343-1.343Z" transform="translate(-272)"/></g><g transform="translate(10.747 10.747)"><path class="c" d="M276.741,281.482a4.741,4.741,0,1,1,4.741-4.741A4.747,4.747,0,0,1,276.741,281.482Zm0-8.218a3.477,3.477,0,1,0,3.477,3.477A3.481,3.481,0,0,0,276.741,273.264Z" transform="translate(-272 -272)"/></g><g transform="translate(0 10.747)"><path class="c" d="M6.875,281.482H2.608A2.611,2.611,0,0,1,0,278.875v-4.267A2.611,2.611,0,0,1,2.608,272H6.875a2.611,2.611,0,0,1,2.608,2.608v4.267A2.611,2.611,0,0,1,6.875,281.482Zm-4.267-8.218a1.345,1.345,0,0,0-1.343,1.343v4.267a1.345,1.345,0,0,0,1.343,1.343H6.875a1.345,1.345,0,0,0,1.343-1.343v-4.267a1.345,1.345,0,0,0-1.343-1.343Z" transform="translate(0 -272)"/></g></svg>