<svg xmlns="http://www.w3.org/2000/svg" width="20.086" height="20.086" viewBox="0 0 20.086 20.086"><defs><style>.a{fill:#d2d2d2;}.b{fill:#e4032f;}</style></defs><path class="a" d="M236.785,16c-.264,0-.526.011-.785.033a9.417,9.417,0,0,1,7.047,14.611q.014.209.014.421a6.292,6.292,0,0,1-.189,1.533,9.5,9.5,0,0,0,1.111-1.114A9.416,9.416,0,0,0,236.785,16Z" transform="translate(-226.742 -15.372)"/><path class="a" d="M239.933,83.138a3.141,3.141,0,0,1-3.923,3.04,3.14,3.14,0,0,0,0-6.079,3.141,3.141,0,0,1,3.923,3.04Z" transform="translate(-226.751 -76.862)"/><path class="a" d="M243.061,246.277a6.291,6.291,0,0,1-.189,1.533,9.376,9.376,0,0,1-6.088,2.233q-.4,0-.785-.033a9.369,9.369,0,0,0,5.3-2.2,6.283,6.283,0,0,0-5.3-7.761,6.25,6.25,0,0,1,.7-.048h.178A6.277,6.277,0,0,1,243.061,246.277Z" transform="translate(-226.742 -230.585)"/><path class="b" d="M17.144,2.941A10.043,10.043,0,0,0,2.364,16.516a10.148,10.148,0,0,0,1.172,1.176h0l.013.011a10.043,10.043,0,0,0,13.6-14.762ZM4.519,16.877A5.653,5.653,0,0,1,9.96,10.043h.165a5.653,5.653,0,0,1,5.442,6.834,8.788,8.788,0,0,1-11.049,0Zm5.524-8.09a2.511,2.511,0,1,1,2.511-2.511,2.514,2.514,0,0,1-2.511,2.511Zm6.9,6.7A6.915,6.915,0,0,0,12.411,9.2a3.766,3.766,0,1,0-4.736,0,6.915,6.915,0,0,0-4.533,6.28,8.788,8.788,0,1,1,13.8,0Z" transform="translate(0 0)"/></svg>