<?xml version="1.0" encoding="utf-8"?>
<!-- Generator: Adobe Illustrator 24.2.3, SVG Export Plug-In . SVG Version: 6.00 Build 0)  -->
<svg version="1.1" id="Layer_1" xmlns="http://www.w3.org/2000/svg" xmlns:xlink="http://www.w3.org/1999/xlink" x="0px" y="0px"
	 viewBox="0 0 100 100" style="enable-background:new 0 0 100 100;" xml:space="preserve">
<style type="text/css">
	.st0{fill:#F2F2F2;}
	.st1{fill:#CCCCCC;}
	.st2{fill:#E6E6E6;}
	.st3{fill:#C6C6C6;}
</style>
<path class="st0" d="M77.1,9.5C57.2,9.9,43.4-0.1,33.8,0S4.2,6.1,5,50.1s28,50,38.5,49.8C92.9,99,112.2,8.9,77.1,9.5z"/>
<path class="st1" d="M14,8.6l1.2-1.2l2.3,2.3l-1.2,1.2L14,8.6z"/>
<path class="st1" d="M13.7,16.5l2.3-2.3l1.2,1.2l-2.3,2.3L13.7,16.5z"/>
<path class="st1" d="M20.5,9.7l2.3-2.3L24,8.6l-2.3,2.3L20.5,9.7z"/>
<path class="st1" d="M89.4,75.7c-1.3,0-2.3-1-2.3-2.3s1-2.3,2.3-2.3s2.3,1,2.3,2.3S90.6,75.7,89.4,75.7z M89.4,72.6
	c-0.4,0-0.8,0.3-0.8,0.8c0,0.4,0.3,0.8,0.8,0.8s0.8-0.3,0.8-0.8C90.1,72.9,89.8,72.6,89.4,72.6z"/>
<path class="st0" d="M69.3,81.8L51.6,69.2c-1-0.7-2.3-0.7-3.2,0L30.7,81.8c-1.8,1.3-4.4,0-4.4-2.3V23.3c0-3.1,2.5-5.6,5.6-5.6h36.2
	c3.1,0,5.6,2.5,5.6,5.6v56.2C73.7,81.8,71.2,83.1,69.3,81.8L69.3,81.8z"/>
<path class="st0" d="M50,36.7l-2.1-2.3c-3-3.1-7.8-3.1-10.7,0c-3,3.1-3,8.2,0,11.3L50,59.3l12.9-13.6c3-3.1,3-8.2,0-11.3
	c-3-3.1-7.8-3.1-10.7,0L50,36.7z"/>
<path class="st2" d="M58.1,69.2c-1-0.7-2.3-0.7-3.2,0l-1.6,1.2l16.1,11.4c1.6,1.2,3.8,0.3,4.3-1.5L58.1,69.2z"/>
<path class="st2" d="M29.8,79.5V23.3c0.2-4.3,2.5-5.6,5.6-5.6h-6.5c-1.9,0.3-3.6,2.5-3.6,5.6v56.2c0,2.3,0.5,3.6,2.4,2.3L29,82
	C29.9,81.7,29.8,80.4,29.8,79.5C29.8,79.5,29.8,79.5,29.8,79.5L29.8,79.5z"/>
<g>
	<g>
		<g>
			<path class="st3" d="M71.3,84c-0.9,0-1.7-0.3-2.4-0.8l-18-12.7c-0.5-0.3-1.1-0.3-1.6,0l-18,12.7c-1.3,0.9-3,1-4.4,0.3
				c-1.4-0.7-2.3-2.2-2.3-3.8V23.1c0-3.9,3.2-7.1,7.1-7.1h36.8c3.9,0,7.1,3.2,7.1,7.1v56.7c0,1.6-0.9,3-2.3,3.8
				C72.6,83.9,71.9,84,71.3,84L71.3,84z M50,67.4c0.9,0,1.7,0.3,2.5,0.8l18,12.7c0.4,0.3,1,0.3,1.5,0.1c0.5-0.2,0.8-0.7,0.8-1.3
				V23.1c0-2.3-1.9-4.3-4.3-4.3H31.6c-2.3,0-4.3,1.9-4.3,4.3v56.7c0,0.5,0.3,1,0.8,1.3c0.5,0.2,1,0.2,1.5-0.1l18-12.7
				C48.3,67.7,49.1,67.4,50,67.4z"/>
		</g>
	</g>
	<g>
		<g>
			<path class="st3" d="M50,61.3c-0.4,0-0.8-0.2-1-0.4L35.7,46.8c-3.6-3.8-3.6-9.9,0-13.7c3.5-3.7,9.6-3.7,13.1,0l1.2,1.3l1.2-1.3
				c1.8-1.9,4.1-2.9,6.6-2.9s4.8,1,6.6,2.9c3.6,3.8,3.6,9.9,0,13.7L51,60.9C50.8,61.2,50.4,61.3,50,61.3z M42.2,33
				c-1.7,0-3.3,0.7-4.5,2c-2.6,2.7-2.6,7.1,0,9.8l12.3,13l12.3-13c2.6-2.7,2.6-7.1,0-9.8c-1.2-1.3-2.8-2-4.5-2s-3.3,0.7-4.5,2
				L51,37.3c-0.5,0.6-1.5,0.6-2.1,0L46.7,35C45.5,33.7,43.9,33,42.2,33L42.2,33z"/>
		</g>
	</g>
</g>
</svg>
