<svg id="Layer_1" data-name="Layer 1" xmlns="http://www.w3.org/2000/svg" viewBox="0 0 80 80"><defs><style>.cls-1{fill:#e0e0e0;}.cls-2{fill:#b3b3b3;}.cls-3{fill:#ccc;}.cls-4{fill:#999;}.cls-5{opacity:0.39;}.cls-6{fill:#e6e6e6;}.cls-7{fill:#f2f2f2;}.cls-8{fill:#4d5d7a;}.cls-9{fill:#f8cf6a;}</style></defs><path class="cls-1" d="M2.65,33.83a2.3,2.3,0,0,1-.78.07,2.33,2.33,0,0,1-.79-.07A3.78,3.78,0,0,1,2.65,33.83Z"/><path class="cls-1" d="M3.48,31.7a4.2,4.2,0,0,1,0,1.58A4.2,4.2,0,0,1,3.48,31.7Z"/><path class="cls-1" d="M4.36,33.77a2.28,2.28,0,0,1,.78-.07,2.33,2.33,0,0,1,.79.07A3.78,3.78,0,0,1,4.36,33.77Z"/><path class="cls-1" d="M3.53,35.91a4.25,4.25,0,0,1,0-1.59A4.25,4.25,0,0,1,3.53,35.91Z"/><path class="cls-1" d="M4.8,35s-.19-.11-.34-.29-.25-.36-.22-.38.18.1.34.28S4.83,35,4.8,35Z"/><path class="cls-1" d="M4.72,32.57s-.07.19-.23.35-.32.27-.34.24.07-.19.23-.35A.92.92,0,0,1,4.72,32.57Z"/><path class="cls-1" d="M2.93,33.19s-.17,0-.33-.17-.24-.25-.22-.28.17,0,.32.16S3,33.16,2.93,33.19Z"/><path class="cls-1" d="M2.86,34.26s-.06.17-.21.34-.28.26-.31.23.05-.18.2-.34S2.83,34.23,2.86,34.26Z"/><path class="cls-1" d="M76,32.31a3.84,3.84,0,0,1-1.56,0A4.09,4.09,0,0,1,76,32.31Z"/><path class="cls-1" d="M76.87,30.19a4.66,4.66,0,0,1,0,1.58A3.82,3.82,0,0,1,76.87,30.19Z"/><path class="cls-1" d="M77.75,32.26a4.38,4.38,0,0,1,1.56,0A4.09,4.09,0,0,1,77.75,32.26Z"/><path class="cls-1" d="M76.92,34.39a4.25,4.25,0,0,1,0-1.59A4.25,4.25,0,0,1,76.92,34.39Z"/><path class="cls-1" d="M78.18,33.5s-.18-.1-.34-.28-.25-.36-.22-.38.19.1.34.28S78.22,33.45,78.18,33.5Z"/><path class="cls-1" d="M78.11,31.06s-.07.18-.24.34-.31.27-.34.24.07-.18.24-.34A.92.92,0,0,1,78.11,31.06Z"/><path class="cls-1" d="M76.32,31.68s-.18-.05-.33-.17-.25-.26-.22-.29.17.05.32.17S76.34,31.65,76.32,31.68Z"/><path class="cls-1" d="M76.25,32.74s-.06.18-.21.34-.29.27-.32.24.06-.18.21-.34S76.22,32.72,76.25,32.74Z"/><polygon class="cls-2" points="6.04 24.94 5.84 25.8 4.98 26.02 5.84 26.18 6.04 27.09 6.23 26.18 7.1 26.02 6.24 25.8 6.04 24.94"/><polygon class="cls-2" points="74.38 23.18 74.18 24.04 73.32 24.25 74.19 24.41 74.38 25.32 74.58 24.41 75.44 24.25 74.58 24.04 74.38 23.18"/><path class="cls-3" d="M13.44,21.07a.44.44,0,1,0,.4.39A.45.45,0,0,0,13.44,21.07Z"/><path class="cls-4" d="M1.09,46.79a.45.45,0,0,0,0,.89.45.45,0,0,0,.39-.49A.44.44,0,0,0,1.09,46.79Z"/><path class="cls-2" d="M26.31,22.33a.44.44,0,0,0,0,.88.43.43,0,0,0,.39-.48A.45.45,0,0,0,26.31,22.33Z"/><path class="cls-3" d="M77.25,42a.45.45,0,0,0-.4.49.46.46,0,0,0,.4.4.45.45,0,0,0,.39-.49A.44.44,0,0,0,77.25,42Z"/><g class="cls-5"><path class="cls-6" d="M21.1,43.81a.88.88,0,0,1-.56-.83v-.89H15.16V43a.88.88,0,0,1-.56.83A2.51,2.51,0,0,0,13,46.14V57.55a1,1,0,0,0,1,1h7.67a1,1,0,0,0,1-1V46.14A2.51,2.51,0,0,0,21.1,43.81Z"/><path class="cls-6" d="M30.77,43.81a.88.88,0,0,1-.56-.83v-.89H24.83V43a.88.88,0,0,1-.56.83,2.51,2.51,0,0,0-1.59,2.33V57.55a1,1,0,0,0,1,1h7.67a1,1,0,0,0,1-1V46.14A2.51,2.51,0,0,0,30.77,43.81Z"/><path class="cls-3" d="M21.1,43.81a.56.56,0,0,1-.56-.56V42.09H18.48a.89.89,0,0,0,.55.69,2.5,2.5,0,0,1,1.58,2.33V54a3.49,3.49,0,0,1-3.49,3.49H13v0a1,1,0,0,0,1,1h7.67a1,1,0,0,0,1-1V46.14A2.51,2.51,0,0,0,21.1,43.81Z"/><path class="cls-3" d="M30.77,43.81a.88.88,0,0,1-.56-.83v-.89H28.15a.89.89,0,0,0,.55.69,2.5,2.5,0,0,1,1.58,2.33V54a3.49,3.49,0,0,1-3.49,3.49H22.68v0a1,1,0,0,0,1,1h7.67a1,1,0,0,0,1-1V46.14A2.51,2.51,0,0,0,30.77,43.81Z"/><path class="cls-6" d="M13,47.74h9.67v7.14H13Z"/><path class="cls-6" d="M14.29,40.45H21.4v1.64H14.29Z"/><path class="cls-6" d="M20.56,37.67H15.13a.49.49,0,0,0-.48.48v2.3H21v-2.3A.48.48,0,0,0,20.56,37.67Z"/><path class="cls-6" d="M19.83,37.67h-4a3.77,3.77,0,0,0,.63-2.09V34.2a1.36,1.36,0,1,1,2.71,0v1.38A3.77,3.77,0,0,0,19.83,37.67Z"/><path class="cls-3" d="M18.81,52.63a1,1,0,1,1-1-1A1,1,0,0,1,18.81,52.63Z"/><path class="cls-3" d="M17.85,51a1,1,0,1,1-1-1A1,1,0,0,1,17.85,51Z"/><path class="cls-3" d="M19.78,51a1,1,0,1,1-1-1A1,1,0,0,1,19.78,51Z"/><path class="cls-6" d="M22.68,47.74h9.67v7.14H22.68Z"/><path class="cls-3" d="M20.61,47.74h2.07v7.14H20.61Z"/><path class="cls-3" d="M30.28,47.74h2.07v7.14H30.28Z"/><path class="cls-6" d="M24,40.45h7.11v1.64H24Z"/><path class="cls-3" d="M19.33,40.45v.07a.79.79,0,0,1-.79.79H14.29v.78H21.4V40.45Z"/><path class="cls-3" d="M29,40.45v.07a.79.79,0,0,1-.79.79H24v.78h7.11V40.45Z"/><path class="cls-6" d="M30.23,37.67H24.8a.49.49,0,0,0-.48.48v2.3h6.39v-2.3A.48.48,0,0,0,30.23,37.67Z"/><path class="cls-3" d="M20.56,37.67H19v.46a1.28,1.28,0,0,1-1.28,1.28h-3v1H21v-2.3A.48.48,0,0,0,20.56,37.67Z"/><path class="cls-3" d="M30.23,37.67H28.64v.46a1.28,1.28,0,0,1-1.28,1.28h-3v1h6.39v-2.3A.48.48,0,0,0,30.23,37.67Z"/><path class="cls-6" d="M29.5,37.67h-4a3.77,3.77,0,0,0,.63-2.09V34.2a1.36,1.36,0,1,1,2.71,0v1.38A3.77,3.77,0,0,0,29.5,37.67Z"/><path class="cls-3" d="M19.2,35.58V34.2a1.35,1.35,0,0,0-1.58-1.34,9.9,9.9,0,0,1,0,1.69,5.3,5.3,0,0,0,0,.59,1.3,1.3,0,0,1-1.29,1.5h-.06a3.71,3.71,0,0,1-.48,1h4A3.75,3.75,0,0,1,19.2,35.58Z"/><path class="cls-3" d="M29.5,37.67a3.77,3.77,0,0,1-.63-2.09V34.2a1.35,1.35,0,0,0-1.58-1.34,9.9,9.9,0,0,1,0,1.69,3.64,3.64,0,0,0,0,.57,1.31,1.31,0,0,1-1.29,1.52H26a3.58,3.58,0,0,1-.48,1Z"/><path class="cls-3" d="M27.52,53.73a1,1,0,0,1-.9-.58l-.79-1.77a1.15,1.15,0,0,1,1.06-1.63h1.26a1.16,1.16,0,0,1,1.06,1.63l-.8,1.77A1,1,0,0,1,27.52,53.73Z"/><path class="cls-2" d="M18.24,49.73v-.79a.39.39,0,0,0-.39-.39.38.38,0,0,0-.39.39v.79a1.36,1.36,0,1,0-.92,2.54,1.36,1.36,0,1,0,2.61,0,1.36,1.36,0,1,0-.91-2.54ZM16.3,51a.58.58,0,1,1,.58.58A.58.58,0,0,1,16.3,51Zm1.55,2.25a.58.58,0,1,1,.58-.58A.58.58,0,0,1,17.85,53.21Zm1-1.67a.58.58,0,1,1,.58-.58A.58.58,0,0,1,18.81,51.54Z"/><path class="cls-2" d="M30.91,43.45a.51.51,0,0,1-.32-.47v-.5h.48a.39.39,0,0,0,.39-.39V40.45a.39.39,0,0,0-.36-.39V38.15a.87.87,0,0,0-.87-.87h-.51a3.36,3.36,0,0,1-.46-1.7V34.2a1.74,1.74,0,0,0-3.48,0v1.38a3.36,3.36,0,0,1-.46,1.7H24.8a.87.87,0,0,0-.87.87v1.91a.39.39,0,0,0-.36.39v1.64a.4.4,0,0,0,.39.39h.48V43a.5.5,0,0,1-.32.47,2.92,2.92,0,0,0-1.44,1.24,2.92,2.92,0,0,0-1.44-1.24.51.51,0,0,1-.32-.47v-.5h.48a.39.39,0,0,0,.39-.39V40.45a.39.39,0,0,0-.36-.39V38.15a.87.87,0,0,0-.87-.87h-.51a3.36,3.36,0,0,1-.46-1.7V34.2a1.74,1.74,0,1,0-3.48,0v1.38a3.36,3.36,0,0,1-.46,1.7h-.52a.87.87,0,0,0-.87.87v1.91a.39.39,0,0,0-.36.39v1.64a.4.4,0,0,0,.39.39h.48V43a.5.5,0,0,1-.32.47,2.89,2.89,0,0,0-1.83,2.69V57.55A1.39,1.39,0,0,0,14,58.93h7.67a1.37,1.37,0,0,0,1-.42,1.39,1.39,0,0,0,1,.42h7.67a1.38,1.38,0,0,0,1.39-1.38V46.14A2.89,2.89,0,0,0,30.91,43.45Zm-6.2-5.3a.09.09,0,0,1,.09-.09h2.12a.38.38,0,0,0,.38-.39.39.39,0,0,0-.38-.39h-.73a6.6,6.6,0,0,0,.36-3.08,1,1,0,1,1,1.93,0v1.38a4.13,4.13,0,0,0,.37,1.7h-.12a.39.39,0,0,0-.39.39.38.38,0,0,0,.39.39h1.5a.09.09,0,0,1,.09.09v1.91H29.5v-.92a.39.39,0,1,0-.77,0v.92H27.9v-.92a.39.39,0,1,0-.77,0v.92h-.82v-.92a.39.39,0,0,0-.78,0v.92h-.82Zm-.36,2.68h6.33v.87H24.35Zm.06,3.34A1.27,1.27,0,0,0,25.22,43v-.5h4.6V43a1.26,1.26,0,0,0,.8,1.19,2.1,2.1,0,0,1,1.34,2v1.21H26.77a.39.39,0,0,0-.38.39.38.38,0,0,0,.38.39H32v6.36H23.07V48.13H25a.38.38,0,0,0,.39-.39.39.39,0,0,0-.39-.39H23.07V46.14A2.12,2.12,0,0,1,24.41,44.17Zm-11,4h8.89v6.36H13.4ZM16.88,34.2a1,1,0,1,1,1.93,0v1.38a4.13,4.13,0,0,0,.37,1.7H16.52A6.6,6.6,0,0,0,16.88,34.2ZM15,38.15a.09.09,0,0,1,.09-.09h5.43a.09.09,0,0,1,.09.09v1.91h-.82v-.92a.39.39,0,1,0-.77,0v.92h-.82v-.92a.4.4,0,0,0-.39-.39.39.39,0,0,0-.39.39v.92h-.82v-.92a.39.39,0,0,0-.78,0v.92H15Zm-.3,6A1.27,1.27,0,0,0,15.55,43v-.5h1.71a.39.39,0,0,0,0-.78H14.68v-.87H21v.87H19.07a.39.39,0,1,0,0,.78h1.08V43a1.26,1.26,0,0,0,.8,1.19,2.1,2.1,0,0,1,1.34,2v1.21H13.4V46.14A2.12,2.12,0,0,1,14.74,44.17Zm6.94,14H14a.61.61,0,0,1-.61-.61V55.27h8.89v2.28A.61.61,0,0,1,21.68,58.16Zm9.67,0H23.68a.61.61,0,0,1-.61-.61V55.27H32v2.28A.61.61,0,0,1,31.35,58.16Z"/><path class="cls-2" d="M25.47,51.54l.79,1.77a1.38,1.38,0,0,0,2.51,0l.79-1.77a1.55,1.55,0,0,0-1.41-2.18H27.9v-.42a.39.39,0,1,0-.77,0v.42h-.24A1.55,1.55,0,0,0,25.47,51.54Zm1.42-1.41h1.26a.77.77,0,0,1,.7,1.09L28.06,53A.6.6,0,0,1,27,53l-.79-1.77A.77.77,0,0,1,26.89,50.13Z"/><path class="cls-2" d="M28.45,51.15a.39.39,0,1,1-.38-.38A.38.38,0,0,1,28.45,51.15Z"/><path class="cls-2" d="M27.9,52.23a.39.39,0,1,1-.77,0,.39.39,0,1,1,.77,0Z"/><path class="cls-2" d="M27.28,51.15a.39.39,0,1,1-.77,0,.39.39,0,0,1,.77,0Z"/><path class="cls-6" d="M44.13,58.35H35.42a1.08,1.08,0,0,1-1.09-1.08V32.22A2.17,2.17,0,0,1,36.5,30H43a2.18,2.18,0,0,1,2.18,2.18V57.27A1.08,1.08,0,0,1,44.13,58.35Z"/><path class="cls-7" d="M40.84,30H36.5a2.17,2.17,0,0,0-2.17,2.18V43.35A16.9,16.9,0,0,0,40.84,30Z"/><circle class="cls-3" cx="39.77" cy="35.48" r="2.18"/><path class="cls-6" d="M39.77,33.31a2.17,2.17,0,0,0-.69,4.23,16.84,16.84,0,0,0,1.41-4.1A2.09,2.09,0,0,0,39.77,33.31Z"/><path class="cls-6" d="M36.5,30l1.09-4.36H42L43,30Z"/><path class="cls-7" d="M40.28,25.68H37.59L36.5,30h4.34v0A17.27,17.27,0,0,0,40.28,25.68Z"/><path class="cls-6" d="M63.76,58.35H48.52a1.08,1.08,0,0,1-1.09-1.08V37.66H63.76a1.09,1.09,0,0,1,1.09,1.09V57.27A1.08,1.08,0,0,1,63.76,58.35Z"/><path class="cls-7" d="M47.43,51.25A16.93,16.93,0,0,0,58.15,37.66H47.43Z"/><path class="cls-6" d="M61.58,37.66H54V35.48a1.08,1.08,0,0,1,1.09-1.08H60.5a1.08,1.08,0,0,1,1.08,1.08Z"/><path class="cls-7" d="M58.26,34.4H55.05A1.08,1.08,0,0,0,54,35.48v2.18h4.19a17.67,17.67,0,0,0,.15-2.2C58.3,35.11,58.28,34.75,58.26,34.4Z"/><path class="cls-7" d="M50.69,37.66l1.64,2.73H60l1.63-2.73Z"/><path class="cls-6" d="M49.6,42.56H62.67v4.36H49.6Z"/><path class="cls-7" d="M56.73,42.56H49.6v4.36h4.22A16.78,16.78,0,0,0,56.73,42.56Z"/><path class="cls-6" d="M54,31.13v6.53H47.43V31.13L48.52,30h4.35Z"/><path class="cls-6" d="M54,32.22H47.43V31.13L48.52,30h4.35L54,31.13Z"/><path class="cls-7" d="M54,37.12l-1.74-1.31a1.08,1.08,0,0,1,0-1.74L54,32.76Z"/><path class="cls-7" d="M47.43,37.12l1.74-1.31a1.1,1.1,0,0,0,0-1.74l-1.74-1.31Z"/><path class="cls-6" d="M52.87,30H48.52V26.23a.55.55,0,0,1,.54-.55h3.27a.55.55,0,0,1,.54.55Z"/><path class="cls-7" d="M44.48,51.37H34.94v1.91a1,1,0,0,0,1,.95h7.63a1,1,0,0,0,.95-.95Z"/><path class="cls-3" d="M39.77,52.91a1.63,1.63,0,0,1-1.63-1.63V44.74a1.64,1.64,0,0,1,3.27,0v6.54A1.64,1.64,0,0,1,39.77,52.91Z"/><path class="cls-8" d="M36.91,28.4h5.72l-.27-1.08H37.19Z"/><path class="cls-9" d="M40.32,33.38a2.51,2.51,0,0,0-.55-.07,2.35,2.35,0,0,0-.54.07v1.56h1.09Z"/><path class="cls-2" d="M63.76,37.12H62.13V35.48a1.63,1.63,0,0,0-1.63-1.63H55.05a1.62,1.62,0,0,0-.54.1V31.13a.57.57,0,0,0-.16-.39l-.93-.93V26.23a1.09,1.09,0,0,0-1.09-1.09H49.06A1.09,1.09,0,0,0,48,26.23v3.58l-.93.93a.57.57,0,0,0-.16.39V57.27a1.64,1.64,0,0,0,1.64,1.63H63.76a1.64,1.64,0,0,0,1.64-1.63V38.75A1.64,1.64,0,0,0,63.76,37.12ZM49.5,36.25a1.65,1.65,0,0,0,0-2.62l-1.17-.87h4.72l-1.16.87a1.65,1.65,0,0,0,0,2.62l1.16.87H48.33ZM48,36V33.85l.87.65a.55.55,0,0,1,0,.88Zm5.45,0-.88-.65a.57.57,0,0,1,0-.88l.88-.65V36ZM54,38.21h6.66l-1,1.63h-7l-1-1.63Zm1.09-3.27H60.5a.54.54,0,0,1,.54.54v1.64H54.51V35.48A.54.54,0,0,1,55.05,34.94Zm-6-8.71h3.27v3.26H49.06Zm-.32,4.35h3.91l.77.77v.32H48v-.32ZM64.31,57.27a.55.55,0,0,1-.55.54H48.52a.55.55,0,0,1-.55-.54V38.21h2.42l1.47,2.46a.56.56,0,0,0,.47.26H60a.56.56,0,0,0,.47-.26l1.47-2.46h1.87a.55.55,0,0,1,.55.54Z"/><path class="cls-2" d="M62.67,42H49.6a.54.54,0,0,0-.54.54v4.36a.54.54,0,0,0,.54.54H62.67a.55.55,0,0,0,.55-.54V42.56A.55.55,0,0,0,62.67,42Zm-.54,4.35h-12V43.11h12Z"/><path class="cls-2" d="M43.48,29.54l-1-4a.55.55,0,0,0-.53-.41H37.59a.53.53,0,0,0-.52.41l-1,4a2.73,2.73,0,0,0-2.29,2.68V57.27a1.64,1.64,0,0,0,1.64,1.63h8.71a1.63,1.63,0,0,0,1.63-1.63V32.22a2.72,2.72,0,0,0-2.28-2.68Zm-1.14-.05H37.2l.27-1.08h4.6Zm-.82-3.26.28,1.09h-4L38,26.23Zm-5,4.35H43a1.64,1.64,0,0,1,1.63,1.64V54.54h-9.8V32.22A1.64,1.64,0,0,1,36.5,30.58Zm7.63,27.23H35.42a.55.55,0,0,1-.55-.54V55.63h9.8v1.64A.54.54,0,0,1,44.13,57.81Z"/><path class="cls-2" d="M39.77,38.21a2.73,2.73,0,1,0-2.72-2.73A2.72,2.72,0,0,0,39.77,38.21ZM39.23,34v1h1.09V34a1.64,1.64,0,1,1-1.09,0Z"/><path class="cls-2" d="M39.77,42.56a2.19,2.19,0,0,0-2.18,2.18v6.54a2.18,2.18,0,0,0,4.36,0V44.74A2.19,2.19,0,0,0,39.77,42.56Zm0,1.09a1.09,1.09,0,0,1,1.09,1.09v2.72H38.68V44.74A1.09,1.09,0,0,1,39.77,43.65Zm0,8.71a1.08,1.08,0,0,1-1.09-1.08V48.55h2.18v2.73A1.08,1.08,0,0,1,39.77,52.36Z"/></g></svg>