<?xml version="1.0" encoding="utf-8"?>
<!-- Generator: Adobe Illustrator 22.0.1, SVG Export Plug-In . SVG Version: 6.00 Build 0)  -->
<svg version="1.1" id="Layer_1" xmlns="http://www.w3.org/2000/svg" xmlns:xlink="http://www.w3.org/1999/xlink" x="0px" y="0px"
	 viewBox="0 0 36.8 37.6" style="enable-background:new 0 0 36.8 37.6;" xml:space="preserve">
<style type="text/css">
	.st0{fill:#FFFFFF;}
</style>
<g transform="translate(-4.919 0)">
	<g transform="translate(4.919 0)">
		<circle class="st0" cx="13.4" cy="15.6" r="1.6"/>
		<circle class="st0" cx="23.4" cy="22" r="1.6"/>
		<path class="st0" d="M36.4,20.9l-0.6-0.8c-0.6-0.8-0.6-2,0-2.9l0.6-0.8c0.8-1.1,0.5-2.6-0.6-3.4c-0.1-0.1-0.2-0.1-0.3-0.2
			l-0.8-0.5c-0.9-0.5-1.4-1.5-1.3-2.6l0.2-0.9c0.2-1.3-0.7-2.6-2-2.8c-0.1,0-0.2,0-0.3,0l-1,0c-1,0-2-0.8-2.2-1.8l-0.3-0.9
			c-0.4-1.3-1.7-2-3-1.7c-0.1,0-0.2,0.1-0.3,0.1l-0.9,0.4c-1,0.4-2.1,0.2-2.8-0.6l-0.6-0.7c-0.9-1-2.4-1.1-3.4-0.2
			c-0.1,0.1-0.1,0.1-0.2,0.2l-0.6,0.7C15.1,2.4,14,2.6,13,2.2l-0.9-0.4c-1.3-0.5-2.7,0.1-3.2,1.3c0,0.1-0.1,0.2-0.1,0.3L8.6,4.4
			c-0.3,1-1.2,1.7-2.2,1.8l-1,0.1C4.1,6.3,3,7.5,3.1,8.8c0,0.1,0,0.2,0,0.3l0.2,0.9c0.2,1-0.3,2.1-1.2,2.6l-0.8,0.5
			c-1.2,0.7-1.6,2.1-1,3.3c0,0.1,0.1,0.2,0.2,0.3L1,17.5c0.6,0.8,0.6,2,0,2.9l-0.6,0.8c-0.8,1.1-0.5,2.6,0.6,3.4
			c0.1,0.1,0.2,0.1,0.3,0.2l0.8,0.5c0.9,0.5,1.4,1.5,1.3,2.6l-0.2,0.9c-0.2,1.3,0.7,2.6,2,2.8c0.1,0,0.2,0,0.3,0l1,0
			c1,0,2,0.8,2.2,1.8l0.3,0.9c0.4,1.3,1.7,2,3,1.7c0.1,0,0.2-0.1,0.3-0.1l0.9-0.4c1-0.4,2.1-0.2,2.8,0.6l0.6,0.7
			c0.9,1,2.4,1.1,3.4,0.2c0.1-0.1,0.2-0.1,0.2-0.2L21,36c0.7-0.8,1.8-1.1,2.8-0.7l0.9,0.4c1.3,0.5,2.7-0.1,3.2-1.3
			c0-0.1,0.1-0.2,0.1-0.3l0.3-0.9c0.3-1,1.2-1.7,2.2-1.8l1-0.1c1.3-0.1,2.4-1.2,2.3-2.6c0-0.1,0-0.2,0-0.3l-0.2-0.9
			c-0.2-1,0.3-2.1,1.2-2.6l0.8-0.5c1.2-0.7,1.6-2.1,1-3.3C36.5,21,36.4,21,36.4,20.9z M9.6,15.6c0-2.1,1.7-3.8,3.8-3.8
			s3.8,1.7,3.8,3.8c0,2.1-1.7,3.8-3.8,3.8l0,0C11.3,19.4,9.6,17.7,9.6,15.6C9.6,15.6,9.6,15.6,9.6,15.6z M14.1,25.4
			c-0.3,0.4-0.9,0.4-1.3,0.1l0,0c-0.4-0.3-0.4-0.9-0.1-1.3l9.9-12c0.3-0.4,0.9-0.4,1.3-0.1c0.4,0.3,0.4,0.9,0.1,1.3L14.1,25.4z
			 M23.4,25.8c-2.1,0-3.8-1.7-3.8-3.8s1.7-3.8,3.8-3.8s3.8,1.7,3.8,3.8C27.2,24.1,25.5,25.8,23.4,25.8
			C23.4,25.8,23.4,25.8,23.4,25.8L23.4,25.8z"/>
	</g>
</g>
</svg>
