<svg xmlns="http://www.w3.org/2000/svg" width="46.595" height="52.142" viewBox="0 0 46.595 52.142"><defs><style>.a{fill:#a6ce39;}.b{fill:#fff;}</style></defs><g transform="translate(-27.234)"><g transform="translate(27.234)"><path class="a" d="M39.437,0H28.343a1.11,1.11,0,0,0-1.109,1.109V39.938a1.11,1.11,0,0,0,1.109,1.109H39.437a1.11,1.11,0,0,0,1.109-1.109V1.109A1.11,1.11,0,0,0,39.437,0ZM38.328,38.829H29.453V2.219h8.875Z" transform="translate(-27.234)"/></g><g transform="translate(38.328 5.547)"><g transform="translate(0)"><path class="a" d="M148.373,54.468H137.279a1.11,1.11,0,0,0-1.109,1.109V99.953a1.11,1.11,0,0,0,1.109,1.109h11.094a1.11,1.11,0,0,0,1.109-1.109V55.577A1.11,1.11,0,0,0,148.373,54.468Zm-1.109,44.376h-8.875V56.687h8.875Z" transform="translate(-136.17 -54.468)"/></g></g><g transform="translate(49.422)"><g transform="translate(0)"><path class="a" d="M257.309,0H246.215a1.11,1.11,0,0,0-1.109,1.109V39.938a1.11,1.11,0,0,0,1.109,1.109h11.094a1.11,1.11,0,0,0,1.109-1.109V1.109A1.11,1.11,0,0,0,257.309,0ZM256.2,38.829h-8.875V2.219H256.2Z" transform="translate(-245.106)"/></g></g><g transform="translate(60.516 5.547)"><path class="a" d="M366.245,54.468H355.151a1.11,1.11,0,0,0-1.109,1.109V99.953a1.11,1.11,0,0,0,1.109,1.109h11.094a1.11,1.11,0,0,0,1.109-1.109V55.577A1.11,1.11,0,0,0,366.245,54.468Zm-1.109,44.376h-8.875V56.687h8.875Z" transform="translate(-354.042 -54.468)"/></g><g transform="translate(30.562 3.328)"><g transform="translate(0)"><path class="b" d="M60.47,32.681a.555.555,0,0,0-.555.555V44.33a.555.555,0,1,0,1.109,0V33.236A.555.555,0,0,0,60.47,32.681Z" transform="translate(-59.915 -32.681)"/></g></g><g transform="translate(33.336 19.969)"><path class="b" d="M87.7,196.085a.555.555,0,0,0-.555.555v5.547a.555.555,0,1,0,1.109,0V196.64A.555.555,0,0,0,87.7,196.085Z" transform="translate(-87.149 -196.085)"/></g><g transform="translate(33.336 31.063)"><path class="b" d="M87.7,305.021a.555.555,0,0,0-.555.555v2.773a.555.555,0,1,0,1.109,0v-2.773A.555.555,0,0,0,87.7,305.021Z" transform="translate(-87.149 -305.021)"/></g><g transform="translate(33.336 6.102)"><path class="b" d="M87.7,59.915a.555.555,0,0,0-.555.555v5.547a.555.555,0,1,0,1.109,0V60.47A.555.555,0,0,0,87.7,59.915Z" transform="translate(-87.149 -59.915)"/></g><g transform="translate(47.203 8.875)"><path class="b" d="M223.874,87.149a.555.555,0,0,0-.555.555v13.867a.555.555,0,0,0,1.109,0V87.7A.555.555,0,0,0,223.874,87.149Z" transform="translate(-223.319 -87.149)"/></g><g transform="translate(44.43 14.422)"><path class="b" d="M196.64,141.617a.555.555,0,0,0-.555.555v5.547a.555.555,0,1,0,1.109,0v-5.547A.555.555,0,0,0,196.64,141.617Z" transform="translate(-196.085 -141.617)"/></g><g transform="translate(41.656 28.29)"><path class="b" d="M169.406,277.787a.555.555,0,0,0-.555.555v8.32a.555.555,0,1,0,1.109,0v-8.32A.555.555,0,0,0,169.406,277.787Z" transform="translate(-168.851 -277.787)"/></g><g transform="translate(44.43 31.063)"><path class="b" d="M196.64,305.021a.555.555,0,0,0-.555.555v13.867a.555.555,0,1,0,1.109,0V305.576A.555.555,0,0,0,196.64,305.021Z" transform="translate(-196.085 -305.021)"/></g><g transform="translate(55.524 3.328)"><path class="b" d="M305.576,32.681a.555.555,0,0,0-.555.555v5.547a.555.555,0,1,0,1.109,0V33.236A.555.555,0,0,0,305.576,32.681Z" transform="translate(-305.021 -32.681)"/></g><g transform="translate(58.297 11.649)"><path class="b" d="M332.81,114.383a.555.555,0,0,0-.555.555v16.641a.555.555,0,0,0,1.109,0V114.938A.555.555,0,0,0,332.81,114.383Z" transform="translate(-332.255 -114.383)"/></g><g transform="translate(55.524 14.422)"><path class="b" d="M305.576,141.617a.555.555,0,0,0-.555.555v2.773a.555.555,0,0,0,1.109,0v-2.773A.555.555,0,0,0,305.576,141.617Z" transform="translate(-305.021 -141.617)"/></g><g transform="translate(52.75 19.969)"><path class="b" d="M278.342,196.085a.555.555,0,0,0-.555.555v13.867a.555.555,0,1,0,1.109,0V196.64A.555.555,0,0,0,278.342,196.085Z" transform="translate(-277.787 -196.085)"/></g><g transform="translate(63.844 36.61)"><path class="b" d="M387.278,359.489a.554.554,0,0,0-.555.555v11.094a.555.555,0,0,0,1.109,0V360.044A.554.554,0,0,0,387.278,359.489Z" transform="translate(-386.723 -359.489)"/></g><g transform="translate(66.617 31.063)"><g transform="translate(0)"><path class="b" d="M414.512,305.021a.554.554,0,0,0-.555.555V316.67a.555.555,0,1,0,1.109,0V305.576A.554.554,0,0,0,414.512,305.021Z" transform="translate(-413.957 -305.021)"/></g></g><g transform="translate(63.844 14.422)"><path class="b" d="M387.278,141.617a.555.555,0,0,0-.555.555v2.773a.555.555,0,0,0,1.109,0v-2.773A.555.555,0,0,0,387.278,141.617Z" transform="translate(-386.723 -141.617)"/></g><g transform="translate(69.391 19.969)"><path class="b" d="M441.746,196.085a.555.555,0,0,0-.555.555v8.32a.555.555,0,0,0,1.109,0v-8.32A.555.555,0,0,0,441.746,196.085Z" transform="translate(-441.191 -196.085)"/></g></g></svg>