<svg xmlns="http://www.w3.org/2000/svg" width="47.762" height="51" viewBox="0 0 47.762 51"><defs><style>.a{fill:#a6ce39;}.b{fill:#fff;}</style></defs><path class="a" d="M47.429,10.214H41.277L39.071,2.55A2.845,2.845,0,0,0,36.348.5H17.24a2.85,2.85,0,0,0-2.645,1.818l-3.031,7.9H5.333A2.837,2.837,0,0,0,2.5,13.048v3.238a2.837,2.837,0,0,0,2.833,2.833h2.5L9.693,48.843A2.837,2.837,0,0,0,12.521,51.5h27.72a2.837,2.837,0,0,0,2.828-2.656l1.858-29.725h2.5a2.837,2.837,0,0,0,2.833-2.833V13.048A2.837,2.837,0,0,0,47.429,10.214ZM16.862,3.188a.407.407,0,0,1,.378-.26H36.348a.406.406,0,0,1,.389.293l2.013,6.993h-6.3V6.571a1.214,1.214,0,0,0-1.214-1.214H21.524A1.214,1.214,0,0,0,20.31,6.571v3.643H14.165Zm13.162,7.026H22.738V7.786h7.286ZM40.645,48.693a.4.4,0,0,1-.4.379H12.521a.4.4,0,0,1-.4-.379L10.269,19.119H42.493Zm7.188-32.407a.405.405,0,0,1-.4.4H5.333a.405.405,0,0,1-.4-.4V13.048a.405.405,0,0,1,.4-.4h42.1a.405.405,0,0,1,.4.4Z" transform="translate(-2.5 -0.5)"/><path class="b" d="M26.924,45.526H22.877A1.215,1.215,0,0,1,21.825,43.7l1.87-3.238a1.214,1.214,0,0,1,2.1,1.214L24.98,43.1h1.944a1.214,1.214,0,1,1,0,2.429Zm.743-7.083a1.214,1.214,0,1,1-2.1-1.214L28.3,32.488a1.215,1.215,0,0,1,2.1,0l2.737,4.741a1.214,1.214,0,0,1-2.1,1.214l-1.685-2.919Zm8.162,7.083H31.781a1.214,1.214,0,0,1,0-2.429h1.944l-.817-1.417a1.214,1.214,0,0,1,2.1-1.214L36.88,43.7a1.215,1.215,0,0,1-1.051,1.821Z" transform="translate(-5.472 -5.86)"/></svg>