<?xml version="1.0" encoding="utf-8"?>
<!-- Generator: Adobe Illustrator 22.0.1, SVG Export Plug-In . SVG Version: 6.00 Build 0)  -->
<svg version="1.1" id="Layer_1" xmlns="http://www.w3.org/2000/svg" xmlns:xlink="http://www.w3.org/1999/xlink" x="0px" y="0px"
	 viewBox="0 0 51 51" style="enable-background:new 0 0 51 51;" xml:space="preserve">
<style type="text/css">
	.st0{fill:#A6CE39;}
</style>
<path class="st0" d="M32.3,41.9H19.5c-1.2,0-2.1-1-2.1-2.1s1-2.1,2.1-2.1l0,0h0.4l-4.9-8.2c-0.4-0.5-0.4-1.2,0-1.9L23,14.5
	c-0.8-0.4-1.5-1.1-2-1.9l-7.8,5.9c0.1,0.4,0.2,0.9,0.2,1.4c0,2.9-2.3,5.3-5.2,5.3S2.7,22.9,2.7,20s2.4-5.3,5.3-5.3
	c1.1,0,2.1,0.4,3,1l6.9-5.2H7.1c-1,0-1.8-0.8-1.8-1.8s0.8-1.8,1.8-1.8h13.7C22.2,4,25.6,3,28.4,4.3c1.1,0.5,2,1.4,2.6,2.6h13.8
	c1,0,1.8,0.8,1.8,1.8s-0.8,1.8-1.8,1.8H32.9l6.9,5.2c0.9-0.6,2-1,3-1c3-0.1,5.5,2.3,5.6,5.2c0.1,3-2.3,5.5-5.2,5.6s-5.5-2.3-5.6-5.2
	c0-0.5,0.1-1.1,0.2-1.6l-7.4-5.7c-0.5,0.6-1.2,1.2-1.9,1.6l8.1,13.1c0.4,0.5,0.4,1.3,0,1.9l-5.2,8.2h0.7c1.2,0,2.1,1,2.1,2.1
	C34.4,41,33.4,41.9,32.3,41.9L32.3,41.9z M23.7,20.1l-5.2,8.5l5.5,9.2h3.3l5.8-9.3L28,20.3v7.4c0,1.2-1,2.1-2.1,2.1s-2.1-1-2.1-2.1
	V20.1z M42.9,18.1c-1,0-1.8,0.7-1.8,1.8c0,1,0.7,1.8,1.8,1.8c1.1,0,1.8-0.7,1.8-1.8l0,0C44.6,18.9,43.9,18.1,42.9,18.1z M8.1,18.1
	c-1,0-1.8,0.7-1.8,1.8c0,1,0.7,1.8,1.8,1.8c1,0,1.8-0.7,1.8-1.8l0,0C9.9,18.9,9.1,18.1,8.1,18.1z M25.8,11.7L25.8,11.7L25.8,11.7
	C25.9,11.7,25.9,11.7,25.8,11.7c1.2,0,2.2-1.1,2.2-2.2c0-1.2-1.1-2.1-2.2-2.1s-2.1,1.1-2.1,2.2S24.5,11.7,25.8,11.7L25.8,11.7
	L25.8,11.7L25.8,11.7z"/>
<path class="st0" d="M18.2,47.8c-1,0-1.8-0.8-1.8-1.8c0-1,0.8-1.8,1.8-1.8h14.6c1,0,1.8,0.8,1.8,1.8c0,1-0.8,1.8-1.8,1.8H18.2z"/>
</svg>
