<svg xmlns="http://www.w3.org/2000/svg" width="22.602" height="21.369" viewBox="0 0 22.602 21.369"><defs><style>.a{fill:#efefef;}.b{fill:#a4afc1;}.c{fill:#f3f3f1;}.d{fill:#e1001e;}.e{fill:#d5dbe1;}.f{fill:#b40f2f;}.g{fill:#1f283b;}</style></defs><g transform="translate(0 0)"><path class="a" d="M22.128,13.578C19.736,9.914,19.99,6.16,18.837,4.394s-4.59-4.809-12.71.495S.072,15.958,1.341,17.9C7.279,26.991,26.365,20.065,22.128,13.578Z" transform="translate(-0.134 -0.897)"/><g transform="translate(0.277 0)"><path class="b" d="M0,0H1.265V.633H0Z" transform="translate(2.572 1.007) rotate(-45)"/><path class="b" d="M0,0H1.265V.633H0Z" transform="translate(0 3.578) rotate(-45)"/><path class="b" d="M0,0H.633V1.265H0Z" transform="translate(0.001 0.447) rotate(-45)"/></g><path class="c" d="M11.611,20.922h4.311v-8.56a.613.613,0,0,0-.612-.612H7.362a.613.613,0,0,0-.612.612v7.949a.613.613,0,0,0,.612.612h4.249Z" transform="translate(-2.565 -4.513)"/><path class="c" d="M24.947,23.127h.771a.6.6,0,0,0,.593-.6V21.335a3.571,3.571,0,0,0-3.558-3.585h-1.5v5.377h3.7Z" transform="translate(-7.893 -6.718)"/><circle class="d" cx="1.423" cy="1.423" r="1.423" transform="translate(14.147 15.46)"/><circle class="d" cx="1.423" cy="1.423" r="1.423" transform="translate(6.082 15.46)"/><path class="e" d="M8.616,20.922H7.364a.614.614,0,0,1-.614-.614V12.364a.614.614,0,0,1,.614-.614H8.629a.614.614,0,0,0-.614.614v7.945A.616.616,0,0,0,8.616,20.922Z" transform="translate(-2.565 -4.513)"/><path class="e" d="M21.25,17.75h1.265v5.377H21.25Z" transform="translate(-7.893 -6.718)"/><path class="f" d="M24.556,27.445a1.335,1.335,0,0,1-.633.152,1.423,1.423,0,0,1,0-2.846,1.335,1.335,0,0,1,.633.152,1.418,1.418,0,0,0,0,2.543Z" transform="translate(-8.353 -9.29)"/><path class="f" d="M11.806,27.445a1.335,1.335,0,0,1-.633.152,1.423,1.423,0,0,1,0-2.846,1.335,1.335,0,0,1,.633.152,1.418,1.418,0,0,0,0,2.543Z" transform="translate(-3.668 -9.29)"/><path class="g" d="M15.646,21.121H11.336v-.949h3.836V12.086a.139.139,0,0,0-.137-.137H7.086a.139.139,0,0,0-.137.137v7.949a.139.139,0,0,0,.137.137H8.339v.949H7.086A1.088,1.088,0,0,1,6,20.035V12.086A1.088,1.088,0,0,1,7.086,11h7.949a1.088,1.088,0,0,1,1.086,1.086v8.56A.475.475,0,0,1,15.646,21.121Z" transform="translate(-2.29 -4.237)"/><path class="g" d="M25.442,23.326h-.771v-.949h.771a.121.121,0,0,0,.119-.123V21.059a3.1,3.1,0,0,0-3.084-3.11H21.449v4.428h.316v.949h-.791a.475.475,0,0,1-.474-.474V17.474A.475.475,0,0,1,20.974,17h1.5a4.05,4.05,0,0,1,4.033,4.059v1.195A1.071,1.071,0,0,1,25.442,23.326Z" transform="translate(-7.618 -6.442)"/><path class="g" d="M23.648,27.8a1.9,1.9,0,1,1,1.9-1.9A1.9,1.9,0,0,1,23.648,27.8Zm0-2.846a.949.949,0,1,0,.949.949A.95.95,0,0,0,23.648,24.949Z" transform="translate(-8.077 -9.014)"/><path class="g" d="M10.9,27.8a1.9,1.9,0,1,1,1.9-1.9A1.9,1.9,0,0,1,10.9,27.8Zm0-2.846a.949.949,0,1,0,.949.949A.95.95,0,0,0,10.9,24.949Z" transform="translate(-3.392 -9.014)"/><path class="g" d="M0,0H2.721V.949H0Z" transform="translate(5.698 11.068) rotate(-54.482)"/><path class="g" d="M0,0H2.721V.949H0Z" transform="translate(9.492 12.964) rotate(-54.482)"/><path class="g" d="M0,0H5V.948H0Z" transform="translate(6.954 12.973) rotate(-55.308)"/></g></svg>