<svg xmlns="http://www.w3.org/2000/svg" width="62.655" height="52.142" viewBox="0 0 62.655 52.142"><defs><style>.a{fill:#a6ce39;}.b{fill:#fff;}</style></defs><g transform="translate(-10.848 -17.794)"><path class="a" d="M61.873,40h-.442c-20.425.046-33.534.137-58.648,0H1v2.962H4.624L2.6,45.926H1v2.962H63.655V45.926H60.032l2.021-2.962h1.6V40Zm-7.9,5.924,2.021-2.962h3.206l-2.021,2.962Zm-6.063,0,2.021-2.962h3.206L51.11,45.926Zm-6.063,0,2.021-2.962h3.206l-2.021,2.962Zm-6.063,0L37.8,42.964H41l-2.021,2.962Zm-6.063,0,2.021-2.962h3.206L32.92,45.926Zm-6.063,0,2.021-2.962h3.206l-2.021,2.962Zm-6.063,0,2.021-2.962h3.206l-2.021,2.962Zm-6.063,0,2.021-2.962h3.206L14.73,45.926Zm-6.063,0,2.021-2.962h3.206L8.666,45.926ZM57.07,40H7.586C32.353,40.071,44.386,39.971,57.07,40Z" transform="translate(9.848 10.68)"/><path class="a" d="M1,51H63.655v2.962H1Z" transform="translate(9.848 15.974)"/><path class="b" d="M38.632,16.77,35.971,19.3A1.835,1.835,0,1,0,38.5,21.959l2.661-2.528a1.835,1.835,0,1,0-2.529-2.661Z" transform="translate(7.593 16.454)"/><path class="b" d="M24.447,19.107l-1.113,1.057L9.936,9.8a1.835,1.835,0,0,0-2.547,2.643L22.052,24.026a1.835,1.835,0,0,0,2.538.009l2.386-2.267a1.835,1.835,0,1,0-2.529-2.661Z" transform="translate(13.795 21.7)"/><path class="b" d="M49.924,8.572A1.835,1.835,0,0,0,47.33,8.5l-2.661,2.528A1.835,1.835,0,1,0,47.2,13.694l2.661-2.528a1.835,1.835,0,0,0,.067-2.594Z" transform="translate(6.878 17.135)"/><path class="b" d="M55.258,10.093a1.835,1.835,0,0,1-1.835-1.835V3.951l-4.328.618A1.835,1.835,0,1,1,48.575.936L55,.018a1.835,1.835,0,0,1,2.095,1.817V8.258a1.835,1.835,0,0,1-1.835,1.835Z" transform="translate(6.637 17.794)"/></g></svg>