<svg xmlns="http://www.w3.org/2000/svg" width="51.458" height="53.65" viewBox="0 0 51.458 53.65"><defs><style>.a{fill:#a6ce39;}.b{fill:#fff;}</style></defs><g transform="translate(0)"><path class="a" d="M60.85,0H11.529A1.069,1.069,0,0,0,10.46,1.069V44.361a9.287,9.287,0,0,0,17.509,4.322,9.285,9.285,0,0,0,16.44,0,9.287,9.287,0,0,0,17.509-4.322V1.069A1.069,1.069,0,0,0,60.85,0ZM26.9,44.362a7.151,7.151,0,1,1-14.3,0V35.913a9.277,9.277,0,0,0,14.3,0Zm0-14.431v.061a7.151,7.151,0,1,1-14.3,0v-8.57a9.277,9.277,0,0,0,14.3,0Zm0-14.431a7.151,7.151,0,1,1-14.3,0V2.137H26.9Zm16.44,28.862a7.151,7.151,0,1,1-14.3,0V35.913a9.277,9.277,0,0,0,14.3,0Zm0-14.431v.061a7.151,7.151,0,1,1-14.3,0v-8.57a9.277,9.277,0,0,0,14.3,0Zm0-14.431a7.151,7.151,0,1,1-14.3,0V2.137h14.3Zm16.44,28.862a7.151,7.151,0,1,1-14.3,0V35.913a9.277,9.277,0,0,0,14.3,0Zm0-14.431v.061a7.151,7.151,0,1,1-14.3,0v-8.57a9.277,9.277,0,0,0,14.3,0Zm0-14.431a7.151,7.151,0,1,1-14.3,0V2.137h14.3Z" transform="translate(-10.46)"/></g><g transform="translate(46.249 3.318)"><path class="b" d="M452.894,31.669a1.069,1.069,0,0,0-1.069,1.069v4.916a1.069,1.069,0,0,0,2.137,0V32.738A1.069,1.069,0,0,0,452.894,31.669Z" transform="translate(-451.825 -31.669)"/></g><g transform="translate(46.249 11.441)"><path class="b" d="M452.894,109.182a1.069,1.069,0,0,0-1.069,1.069v1.069a1.069,1.069,0,0,0,2.137,0v-1.069A1.069,1.069,0,0,0,452.894,109.182Z" transform="translate(-451.825 -109.182)"/></g><g transform="translate(4.25 26.167)"><path class="b" d="M452.894,31.669a.967.967,0,0,0-1.069.812v3.734a1.109,1.109,0,0,0,2.137,0V32.481A.967.967,0,0,0,452.894,31.669Z" transform="translate(-451.825 -31.669)"/></g></svg>