<?xml version="1.0" encoding="utf-8"?>
<!-- Generator: Adobe Illustrator 22.0.1, SVG Export Plug-In . SVG Version: 6.00 Build 0)  -->
<svg version="1.1" id="Layer_1" xmlns="http://www.w3.org/2000/svg" xmlns:xlink="http://www.w3.org/1999/xlink" x="0px" y="0px"
	 viewBox="0 0 80 62.7" style="enable-background:new 0 0 80 62.7;" xml:space="preserve">
<style type="text/css">
	.st0{fill:#E1001E;}
	.st1{fill:#E0E0E0;}
	.st2{fill:#1F283B;}
	.st3{fill:#CCDED5;}
	.st4{fill:#F5F8F7;}
	.st5{fill:#FFFFFF;}
	.st6{fill:#009245;}
</style>
<path class="st0" d="M64.8,34.9c-0.5-1.8-2.8-1.6-2.8-1.6l0.1,1.2c1.3-0.2,2.2,1.3,2.2,1.3L64.8,34.9z"/>
<path class="st1" d="M16.1,38.6c-0.5-1.8-2.8-1.6-2.8-1.6l0.1,1.2c1.3-0.2,2.2,1.3,2.2,1.3L16.1,38.6z"/>
<path class="st1" d="M42.9,14.2c2.7,0.8,4.3-2.3,4.3-2.3L45.6,11c-0.8,1.9-3.5,1.7-3.5,1.7L42.9,14.2z"/>
<path class="st0" d="M28.1,17.5c-1.2,0.1-1.4,1.7-1.4,1.7l0.8,0.1c0-0.9,1.1-1.3,1.1-1.3L28.1,17.5z"/>
<path class="st1" d="M79.2,28.9c0.2-1.2-1.3-1.8-1.3-1.8l-0.3,0.8c0.9,0.2,1,1.4,1,1.4L79.2,28.9z"/>
<path class="st2" d="M35.4,4.3c0.2-1.2-1.3-1.8-1.3-1.8l-0.3,0.8c0.9,0.2,1,1.4,1,1.4L35.4,4.3z"/>
<path class="st0" d="M4.8,21.1c-0.2,1.9,2.3,2.4,2.3,2.4l0.5-1.3c-1.6-0.1-1.8-1.9-1.8-1.9L4.8,21.1z"/>
<path class="st2" d="M61.8,14.1c1.2,0.1,1.6-1.4,1.6-1.4l-0.8-0.2c-0.2,0.9-1.3,1.1-1.3,1.1L61.8,14.1z"/>
<path class="st1" d="M68.6,19.2c-0.7,0.1-1.4,0.1-2.1,0C67.2,19.1,67.9,19.1,68.6,19.2z"/>
<path class="st1" d="M69.7,16.4c0.1,0.7,0.1,1.4,0,2.1C69.5,17.8,69.5,17.1,69.7,16.4z"/>
<path class="st1" d="M70.8,19.1c0.3-0.1,0.7-0.1,1-0.1c0.3,0,0.7,0,1,0.1C72.1,19.3,71.5,19.3,70.8,19.1z"/>
<path class="st1" d="M69.7,22c-0.1-0.7-0.1-1.4,0-2.1C69.8,20.6,69.8,21.3,69.7,22z"/>
<path class="st1" d="M71.4,20.8c0,0-0.2-0.1-0.4-0.4s-0.3-0.5-0.3-0.5s0.2,0.1,0.4,0.4S71.4,20.7,71.4,20.8z"/>
<path class="st1" d="M71.3,17.6c0,0-0.1,0.2-0.3,0.5s-0.4,0.4-0.4,0.3s0.1-0.2,0.3-0.5C71,17.7,71.1,17.6,71.3,17.6z"/>
<path class="st1" d="M68.9,18.4c0,0-0.2,0-0.4-0.2s-0.3-0.3-0.3-0.4s0.2,0.1,0.4,0.2S69,18.4,68.9,18.4z"/>
<path class="st1" d="M68.8,19.8c0,0-0.1,0.2-0.3,0.5s-0.4,0.3-0.4,0.3s0.1-0.2,0.3-0.5S68.8,19.8,68.8,19.8z"/>
<path class="st2" d="M12.6,13.5c-0.7,0.1-1.4,0.1-2.1,0c0.3-0.1,0.7-0.1,1-0.1C11.9,13.4,12.3,13.4,12.6,13.5z"/>
<path class="st2" d="M13.7,10.7c0.1,0.7,0.1,1.4,0,2.1C13.6,12.1,13.6,11.4,13.7,10.7z"/>
<path class="st2" d="M14.9,13.4c0.7-0.1,1.4-0.1,2.1,0C16.2,13.6,15.6,13.6,14.9,13.4z"/>
<path class="st2" d="M13.8,16.2c-0.1-0.7-0.1-1.4,0-2.1C13.9,14.8,13.9,15.5,13.8,16.2z"/>
<path class="st2" d="M15.4,15c0,0-0.2-0.1-0.4-0.4s-0.3-0.5-0.3-0.5s0.2,0.1,0.4,0.4S15.5,15,15.4,15z"/>
<path class="st2" d="M15.4,11.9c0,0-0.1,0.3-0.3,0.5s-0.4,0.4-0.4,0.3s0.1-0.2,0.3-0.5S15.3,11.8,15.4,11.9z"/>
<path class="st2" d="M13,12.7c0,0-0.2,0-0.4-0.2s-0.3-0.3-0.3-0.4s0.2,0.1,0.4,0.2S13,12.6,13,12.7z"/>
<path class="st2" d="M12.9,14.1c0,0-0.1,0.2-0.3,0.5s-0.4,0.3-0.4,0.3s0.1-0.2,0.3-0.4S12.9,14,12.9,14.1z"/>
<circle class="st3" cx="40.5" cy="45.5" r="13.4"/>
<ellipse class="st4" cx="40.5" cy="45.5" rx="11.8" ry="13.4"/>
<path class="st5" d="M28.7,45.5c0-7.4,5.3-13.4,11.8-13.4c-7.4,0.2-13.3,6.4-13.1,13.8c0.2,7.1,5.9,12.9,13.1,13.1
	C34,59,28.7,53,28.7,45.5z"/>
<path class="st6" d="M40.5,59.5c-7.7,0-14-6.3-14-14s6.3-14,14-14s14,6.3,14,14S48.2,59.5,40.5,59.5z M40.5,32.7
	c-7.1,0-12.9,5.8-12.9,12.9c0,7.1,5.8,12.9,12.9,12.9c7.1,0,12.9-5.8,12.9-12.9c0,0,0,0,0,0C53.4,38.4,47.6,32.6,40.5,32.7z"/>
<path class="st6" d="M38.9,50.4c-0.1,0-0.2,0-0.3-0.1L33.2,46c-0.2-0.2-0.3-0.5-0.1-0.8c0.2-0.2,0.5-0.3,0.8-0.1c0,0,0,0,0,0l5,4
	l8.3-9.3c0.2-0.2,0.6-0.2,0.8,0c0.2,0.2,0.2,0.5,0,0.7l-8.6,9.7C39.2,50.3,39,50.4,38.9,50.4z"/>
<polygon class="st0" points="72.4,45.2 72.2,43.9 71.9,45.2 70.6,45.5 71.9,45.7 72.2,47 72.4,45.7 73.7,45.5 "/>
<polygon class="st2" points="8.1,48 7.8,49.1 6.7,49.4 7.9,49.6 8.1,50.8 8.4,49.6 9.5,49.4 8.4,49.1 "/>
<path class="st0" d="M1.3,34.9c-0.3,0-0.6,0.3-0.5,0.6c0,0,0,0,0,0c0,0.3,0.2,0.5,0.5,0.5c0.3,0,0.6-0.3,0.5-0.6c0,0,0,0,0,0
	C1.8,35.2,1.6,34.9,1.3,34.9z"/>
</svg>
