<?xml version="1.0" encoding="utf-8"?>
<!-- Generator: Adobe Illustrator 22.0.1, SVG Export Plug-In . SVG Version: 6.00 Build 0)  -->
<svg version="1.1" id="Layer_1" xmlns="http://www.w3.org/2000/svg" xmlns:xlink="http://www.w3.org/1999/xlink" x="0px" y="0px"
	 viewBox="0 0 80 49.7" style="enable-background:new 0 0 80 49.7;" xml:space="preserve">
<style type="text/css">
	.st0{fill:#E0E0E0;}
	.st1{fill:#B3B3B3;}
	.st2{fill:#CCCCCC;}
	.st3{fill:#999999;}
	.st4{opacity:0.39;}
	.st5{fill:#E6E6E6;}
	.st6{fill:#F2F2F2;}
	.st7{fill:#4D5D7A;}
	.st8{fill:#F8CF6A;}
</style>
<path class="st0" d="M2.7,16.7c-0.3,0.1-0.5,0.1-0.8,0.1s-0.5,0-0.8-0.1C1.6,16.6,2.1,16.6,2.7,16.7z"/>
<path class="st0" d="M3.5,14.5c0.1,0.5,0.1,1.1,0,1.6C3.4,15.6,3.4,15.1,3.5,14.5z"/>
<path class="st0" d="M4.4,16.6c0.2-0.1,0.5-0.1,0.7-0.1c0.3,0,0.5,0,0.8,0.1C5.4,16.7,4.9,16.7,4.4,16.6z"/>
<path class="st0" d="M3.5,18.7c-0.1-0.5-0.1-1.1,0-1.6C3.6,17.7,3.6,18.2,3.5,18.7z"/>
<path class="st0" d="M4.8,17.8c0,0-0.2-0.1-0.3-0.3s-0.3-0.4-0.2-0.4s0.2,0.1,0.3,0.3C4.7,17.6,4.8,17.8,4.8,17.8z"/>
<path class="st0" d="M4.7,15.4c0,0-0.1,0.2-0.2,0.3S4.2,16,4.2,15.9s0.1-0.2,0.2-0.3C4.5,15.5,4.6,15.5,4.7,15.4z"/>
<path class="st0" d="M2.9,16c0,0-0.2,0-0.3-0.2s-0.2-0.3-0.2-0.3s0.2,0,0.3,0.2S3,16,2.9,16z"/>
<path class="st0" d="M2.9,17.1c0,0-0.1,0.2-0.2,0.3c-0.1,0.1-0.3,0.3-0.3,0.2s0-0.2,0.2-0.3C2.8,17.2,2.8,17.1,2.9,17.1z"/>
<path class="st0" d="M76,15.1c-0.5,0.1-1,0.1-1.6,0C75,15,75.5,15,76,15.1z"/>
<path class="st0" d="M76.9,13c0.1,0.5,0.1,1.1,0,1.6C76.8,14.1,76.8,13.5,76.9,13z"/>
<path class="st0" d="M77.8,15.1c0.5-0.1,1-0.1,1.6,0C78.8,15.2,78.3,15.2,77.8,15.1z"/>
<path class="st0" d="M76.9,17.2c-0.1-0.5-0.1-1.1,0-1.6C77,16.2,77,16.7,76.9,17.2z"/>
<path class="st0" d="M78.2,16.3c0,0-0.2-0.1-0.3-0.3c-0.1-0.2-0.3-0.4-0.2-0.4s0.2,0.1,0.3,0.3S78.2,16.3,78.2,16.3z"/>
<path class="st0" d="M78.1,13.9c0,0-0.1,0.2-0.2,0.3s-0.3,0.3-0.4,0.3s0.1-0.2,0.2-0.3C77.9,14,78,13.9,78.1,13.9z"/>
<path class="st0" d="M76.3,14.5c0,0-0.2,0-0.3-0.2S75.7,14,75.8,14s0.2,0,0.3,0.2S76.3,14.5,76.3,14.5z"/>
<path class="st0" d="M76.3,15.6c0,0-0.1,0.2-0.2,0.3c-0.1,0.1-0.3,0.3-0.3,0.2s0.1-0.2,0.2-0.3S76.2,15.6,76.3,15.6z"/>
<polygon class="st1" points="6,7.8 5.8,8.6 5,8.9 5.8,9 6,9.9 6.2,9 7.1,8.9 6.2,8.6 "/>
<polygon class="st1" points="74.4,6 74.2,6.9 73.3,7.1 74.2,7.2 74.4,8.2 74.6,7.2 75.4,7.1 74.6,6.9 "/>
<path class="st2" d="M13.4,3.9c-0.2,0-0.5,0.2-0.5,0.4c0,0.2,0.2,0.5,0.4,0.5s0.5-0.2,0.5-0.4V4.3C13.8,4.1,13.6,3.9,13.4,3.9z"/>
<path class="st3" d="M1.1,29.6c-0.2,0-0.4,0.3-0.4,0.5s0.2,0.3,0.4,0.4c0.2,0,0.4-0.2,0.4-0.5C1.5,29.8,1.3,29.6,1.1,29.6z"/>
<path class="st1" d="M26.3,5.2c-0.2,0-0.4,0.2-0.4,0.4c0,0.2,0.2,0.4,0.4,0.4c0.2,0,0.4-0.2,0.4-0.5l0,0C26.7,5.4,26.5,5.2,26.3,5.2
	z"/>
<path class="st2" d="M77.3,24.8c-0.2,0-0.4,0.2-0.4,0.5c0,0.2,0.2,0.4,0.4,0.4c0.2,0,0.4-0.2,0.4-0.5C77.6,25,77.5,24.9,77.3,24.8z"
	/>
<g class="st4">
	<path class="st5" d="M21.1,26.6c-0.3-0.1-0.6-0.5-0.6-0.8v-0.9h-5.4v0.9c0,0.4-0.2,0.7-0.6,0.8c-1,0.4-1.6,1.3-1.6,2.3v11.4
		c0,0.6,0.4,1,1,1h7.7c0.6,0,1-0.4,1-1V29C22.7,27.9,22,27,21.1,26.6z"/>
	<path class="st5" d="M30.8,26.6c-0.3-0.1-0.6-0.5-0.6-0.8v-0.9h-5.4v0.9c0,0.4-0.2,0.7-0.6,0.8c-1,0.4-1.6,1.3-1.6,2.3v11.4
		c0,0.6,0.4,1,1,1h7.7c0.6,0,1-0.4,1-1V29C32.3,27.9,31.7,27,30.8,26.6z"/>
	<path class="st2" d="M21.1,26.6c-0.3,0-0.6-0.3-0.6-0.6l0,0v-1.2h-2.1c0,0.3,0.3,0.6,0.5,0.7c1,0.4,1.6,1.3,1.6,2.3v8.9
		c0,1.9-1.6,3.5-3.5,3.5l0,0h-4l0,0c0,0.6,0.4,1,1,1h7.7c0.6,0,1-0.4,1-1V29C22.7,27.9,22,27,21.1,26.6z"/>
	<path class="st2" d="M30.8,26.6c-0.3-0.1-0.6-0.5-0.6-0.8v-0.9h-2.1c0,0.3,0.3,0.6,0.5,0.7c1,0.4,1.6,1.3,1.6,2.3v8.9
		c0,1.9-1.6,3.5-3.5,3.5l0,0h-4.1l0,0c0,0.6,0.4,1,1,1h7.7c0.6,0,1-0.4,1-1V29C32.3,27.9,31.7,27,30.8,26.6z"/>
	<path class="st5" d="M13,30.6h9.7v7.1H13V30.6z"/>
	<path class="st5" d="M14.3,23.3h7.1v1.6h-7.1C14.3,24.9,14.3,23.3,14.3,23.3z"/>
	<path class="st5" d="M20.6,20.5h-5.4c-0.3,0-0.5,0.2-0.5,0.5v2.3H21V21C21,20.7,20.8,20.5,20.6,20.5z"/>
	<path class="st5" d="M19.8,20.5h-4c0.4-0.6,0.6-1.3,0.6-2.1V17c-0.1-0.7,0.5-1.4,1.2-1.5s1.4,0.5,1.5,1.2c0,0.1,0,0.2,0,0.2v1.4
		C19.2,19.2,19.4,19.9,19.8,20.5z"/>
	<path class="st2" d="M18.8,35.5c0,0.6-0.4,1-1,1s-1-0.4-1-1s0.4-1,1-1S18.8,34.9,18.8,35.5z"/>
	<path class="st2" d="M17.9,33.8c0,0.6-0.4,1-1,1s-1-0.4-1-1s0.4-1,1-1S17.9,33.3,17.9,33.8z"/>
	<path class="st2" d="M19.8,33.8c0,0.6-0.4,1-1,1s-1-0.4-1-1s0.4-1,1-1S19.8,33.3,19.8,33.8z"/>
	<path class="st5" d="M22.7,30.6h9.7v7.1h-9.7V30.6z"/>
	<path class="st2" d="M20.6,30.6h2.1v7.1h-2.1V30.6z"/>
	<path class="st2" d="M30.3,30.6h2.1v7.1h-2.1C30.3,37.7,30.3,30.6,30.3,30.6z"/>
	<path class="st5" d="M24,23.3h7.1v1.6H24V23.3z"/>
	<path class="st2" d="M19.3,23.3L19.3,23.3c0,0.5-0.4,0.9-0.8,0.9l0,0h-4.2V25h7.1v-1.6L19.3,23.3L19.3,23.3z"/>
	<path class="st2" d="M29,23.3L29,23.3c0,0.5-0.4,0.9-0.8,0.9l0,0H24V25h7.1v-1.6L29,23.3L29,23.3z"/>
	<path class="st5" d="M30.2,20.5h-5.4c-0.3,0-0.5,0.2-0.5,0.5v2.3h6.4V21C30.7,20.7,30.5,20.5,30.2,20.5z"/>
	<path class="st2" d="M20.6,20.5H19V21c0,0.7-0.6,1.3-1.3,1.3h-3v1H21V21C21,20.7,20.8,20.5,20.6,20.5z"/>
	<path class="st2" d="M30.2,20.5h-1.6V21c0,0.7-0.6,1.3-1.3,1.3h-3v1h6.4V21C30.7,20.7,30.5,20.5,30.2,20.5L30.2,20.5z"/>
	<path class="st5" d="M29.5,20.5h-4c0.4-0.6,0.6-1.3,0.6-2.1V17c-0.1-0.7,0.5-1.4,1.2-1.5s1.4,0.5,1.5,1.2c0,0.1,0,0.2,0,0.2v1.4
		C28.8,19.2,29.1,19.9,29.5,20.5z"/>
	<path class="st2" d="M19.2,18.4V17c0-0.7-0.6-1.4-1.3-1.4c-0.1,0-0.2,0-0.2,0c0,0.6,0,1.1,0,1.7c0,0.2,0,0.4,0,0.6
		c0.1,0.7-0.4,1.4-1.1,1.5c-0.1,0-0.1,0-0.2,0h-0.1c-0.1,0.4-0.3,0.7-0.5,1h4C19.4,19.9,19.2,19.1,19.2,18.4z"/>
	<path class="st2" d="M29.5,20.5c-0.4-0.6-0.6-1.3-0.6-2.1V17c0-0.7-0.6-1.4-1.3-1.4c-0.1,0-0.2,0-0.2,0c0,0.6,0,1.1,0,1.7
		c0,0.2,0,0.4,0,0.6c0.1,0.7-0.4,1.4-1.1,1.5c-0.1,0-0.1,0-0.2,0l0,0c-0.1,0.4-0.3,0.7-0.5,1L29.5,20.5z"/>
	<path class="st2" d="M27.5,36.6c-0.4,0-0.7-0.2-0.9-0.6l-0.8-1.8c-0.3-0.6,0-1.3,0.6-1.5c0.2-0.1,0.3-0.1,0.5-0.1h1.3
		c0.6,0,1.2,0.5,1.2,1.2c0,0.2,0,0.3-0.1,0.5l-0.8,1.8C28.2,36.3,27.9,36.6,27.5,36.6z"/>
	<path class="st1" d="M18.2,32.6v-0.8c0-0.2-0.2-0.4-0.4-0.4c-0.2,0-0.4,0.2-0.4,0.4l0,0v0.8c-0.7-0.3-1.5-0.1-1.8,0.6
		s-0.1,1.5,0.6,1.8c0.1,0,0.2,0.1,0.3,0.1c-0.2,0.7,0.2,1.5,0.9,1.7s1.5-0.2,1.7-0.9c0.1-0.2,0.1-0.5,0-0.8c0.7-0.2,1.2-0.9,1-1.6
		c-0.2-0.7-0.9-1.2-1.6-1C18.5,32.5,18.3,32.5,18.2,32.6z M16.3,33.8c0-0.3,0.3-0.6,0.6-0.6s0.6,0.3,0.6,0.6s-0.3,0.6-0.6,0.6
		C16.6,34.4,16.3,34.2,16.3,33.8L16.3,33.8z M17.8,36.1c-0.3,0-0.6-0.3-0.6-0.6s0.3-0.6,0.6-0.6c0.3,0,0.6,0.3,0.6,0.6
		S18.2,36,17.8,36.1L17.8,36.1z M18.8,34.4c-0.3,0-0.6-0.3-0.6-0.6s0.3-0.6,0.6-0.6c0.3,0,0.6,0.3,0.6,0.6
		C19.4,34.2,19.1,34.4,18.8,34.4L18.8,34.4L18.8,34.4z"/>
	<path class="st1" d="M30.9,26.3c-0.2-0.1-0.3-0.3-0.3-0.5v-0.5h0.5c0.2,0,0.4-0.2,0.4-0.4v-1.6c0-0.2-0.2-0.4-0.4-0.4V21
		c0-0.5-0.4-0.9-0.9-0.9h-0.5c-0.3-0.5-0.5-1.1-0.5-1.7V17c0-1-0.8-1.7-1.7-1.7c-1,0-1.7,0.8-1.7,1.7v1.4c0,0.6-0.2,1.2-0.5,1.7
		h-0.5c-0.5,0-0.9,0.4-0.9,0.9v1.9c-0.2,0-0.4,0.2-0.4,0.4v1.6c0,0.2,0.2,0.4,0.4,0.4h0.5v0.5c0,0.2-0.1,0.4-0.3,0.5
		c-0.6,0.2-1.1,0.7-1.4,1.2c-0.3-0.6-0.8-1-1.4-1.2C21.1,26.2,21,26,21,25.8v-0.5h0.5c0.2,0,0.4-0.2,0.4-0.4v-1.7
		c0-0.2-0.2-0.4-0.4-0.4v-1.9c0-0.5-0.4-0.9-0.9-0.9H20c-0.3-0.5-0.5-1.1-0.5-1.7v-1.4c0-1-0.8-1.7-1.7-1.7c-1,0-1.7,0.8-1.7,1.7
		l0,0v1.4c0,0.6-0.2,1.2-0.5,1.7h-0.5c-0.5,0-0.9,0.4-0.9,0.9v1.9c-0.2,0-0.4,0.2-0.4,0.4v1.6c0,0.2,0.2,0.4,0.4,0.4h0.5v0.5
		c0,0.2-0.1,0.4-0.3,0.5c-1.1,0.4-1.8,1.5-1.8,2.7v11.4c0,0.8,0.6,1.4,1.4,1.4h7.7c0.4,0,0.7-0.1,1-0.4c0.3,0.3,0.6,0.4,1,0.4h7.7
		c0.8,0,1.4-0.6,1.4-1.4l0,0V29C32.7,27.8,32,26.7,30.9,26.3z M24.7,21C24.7,20.9,24.8,20.9,24.7,21L24.7,21l2.2-0.1
		c0.2,0,0.4-0.2,0.4-0.4l0,0c0-0.2-0.2-0.4-0.4-0.4h-0.7c0.4-1,0.5-2,0.4-3.1c-0.1-0.5,0.2-1.1,0.7-1.2s1.1,0.2,1.2,0.7
		c0,0.2,0,0.4,0,0.5v1.4c0,0.6,0.1,1.2,0.4,1.7h-0.1c-0.2,0-0.4,0.2-0.4,0.4c0,0.2,0.2,0.4,0.4,0.4l0,0h1.5c0,0,0.1,0,0.1,0.1l0,0
		v1.9h-0.8V22c0-0.2-0.1-0.4-0.3-0.4c-0.2,0-0.4,0.1-0.4,0.3V22v0.9h-0.8V22c0-0.2-0.1-0.4-0.3-0.4c-0.2,0-0.4,0.1-0.4,0.3V22v0.9
		h-0.8V22c0-0.2-0.2-0.4-0.4-0.4c-0.2,0-0.4,0.2-0.4,0.4v0.9H25V21H24.7z M24.3,23.7h6.3v0.8h-6.3V23.7z M24.4,27
		c0.5-0.2,0.8-0.7,0.8-1.2v-0.5h4.6v0.5c0,0.5,0.3,1,0.8,1.2c0.8,0.3,1.4,1.1,1.3,2v1.2h-5.2c-0.2,0-0.4,0.2-0.4,0.4
		c0,0.2,0.2,0.4,0.4,0.4l0,0H32v6.4h-8.9V31H25c0.2,0,0.4-0.2,0.4-0.4l0,0c0-0.2-0.2-0.4-0.4-0.4h-1.9V29
		C23.1,28.1,23.6,27.3,24.4,27z M13.4,31h8.9v6.4h-8.9V31z M16.9,17c-0.1-0.5,0.2-1.1,0.7-1.2s1.1,0.2,1.2,0.7c0,0.2,0,0.4,0,0.5
		v1.4c0,0.6,0.1,1.2,0.4,1.7h-2.7C16.9,19.1,17,18.1,16.9,17z M15,21C15,20.9,15,20.9,15,21L15,21l5.5-0.1c0,0,0.1,0,0.1,0.1l0,0
		v1.9h-0.8V22c0-0.2-0.1-0.4-0.3-0.4c-0.2,0-0.4,0.1-0.4,0.3V22v0.9h-0.8V22c0-0.2-0.2-0.4-0.4-0.4c-0.2,0-0.4,0.2-0.4,0.4v0.9h-0.8
		V22c0-0.2-0.2-0.4-0.4-0.4c-0.2,0-0.4,0.2-0.4,0.4v0.9H15V21z M14.7,27c0.5-0.2,0.8-0.6,0.9-1.2v-0.5h1.7c0.2,0,0.4-0.2,0.4-0.4
		c0-0.2-0.2-0.4-0.4-0.4h-2.6v-0.9H21v0.9h-1.9c-0.2,0-0.4,0.2-0.4,0.4c0,0.2,0.2,0.4,0.4,0.4l0,0h1.1v0.5c0,0.5,0.3,1,0.8,1.2
		c0.8,0.3,1.4,1.1,1.3,2v1.2h-8.9v-1.3C13.4,28.1,13.9,27.3,14.7,27L14.7,27z M21.6,41H14c-0.3,0-0.6-0.3-0.6-0.6l0,0v-2.3h8.9v2.3
		C22.3,40.7,22,41,21.6,41L21.6,41z M31.3,41h-7.6c-0.3,0-0.6-0.3-0.6-0.6l0,0v-2.3H32v2.3C32,40.7,31.7,41,31.3,41
		C31.4,41,31.4,41,31.3,41L31.3,41z"/>
	<path class="st1" d="M25.5,34.4l0.8,1.8c0.3,0.7,1.1,1,1.8,0.7c0.3-0.1,0.5-0.4,0.7-0.7l0.8-1.8c0.3-0.8,0-1.7-0.8-2
		c-0.2-0.1-0.4-0.1-0.6-0.1h-0.3v-0.4c0-0.2-0.1-0.4-0.3-0.4c-0.2,0-0.4,0.1-0.4,0.3v0.1v0.4H27c-0.9,0-1.6,0.7-1.6,1.5
		C25.3,34,25.4,34.2,25.5,34.4z M26.9,33h1.3c0.4,0,0.8,0.3,0.8,0.8c0,0.1,0,0.2-0.1,0.3l-0.8,1.8c-0.2,0.3-0.5,0.4-0.8,0.2
		c-0.1-0.1-0.2-0.1-0.2-0.2l-0.8-1.8c-0.2-0.4,0-0.8,0.4-1C26.7,33,26.8,33,26.9,33z"/>
	<path class="st1" d="M28.5,34c0,0.2-0.2,0.4-0.4,0.4c-0.2,0-0.4-0.2-0.4-0.4c0-0.2,0.2-0.4,0.4-0.4l0,0
		C28.3,33.6,28.5,33.8,28.5,34L28.5,34z"/>
	<path class="st1" d="M27.9,35.1c0,0.2-0.1,0.4-0.3,0.4c-0.2,0-0.4-0.1-0.4-0.3v-0.1c0-0.2,0.1-0.4,0.3-0.4
		C27.7,34.7,27.9,34.8,27.9,35.1C27.9,35,27.9,35,27.9,35.1z"/>
	<path class="st1" d="M27.3,34c0,0.2-0.1,0.4-0.3,0.4c-0.2,0-0.4-0.1-0.4-0.3V34c0-0.2,0.2-0.4,0.4-0.3C27.1,33.7,27.3,33.8,27.3,34
		z"/>
	<path class="st5" d="M44.1,41.2h-8.7c-0.6,0-1.1-0.5-1.1-1.1l0,0v-25c0-1.2,0.9-2.2,2.1-2.2c0,0,0,0,0.1,0H43c1.2,0,2.2,1,2.2,2.2
		l0,0v25.1C45.2,40.7,44.7,41.2,44.1,41.2z"/>
	<path class="st6" d="M40.8,12.8h-4.3c-1.2,0-2.2,1-2.2,2.2l0,0v11.2C38.4,23,40.8,18,40.8,12.8z"/>
	<circle class="st2" cx="39.8" cy="18.3" r="2.2"/>
	<path class="st5" d="M39.8,16.1c-1.2,0-2.2,1-2.2,2.2c0,0.9,0.6,1.8,1.5,2.1c0.6-1.3,1.1-2.7,1.4-4.1C40.3,16.2,40,16.1,39.8,16.1z
		"/>
	<path class="st5" d="M36.5,12.8l1.1-4.3H42l1,4.4L36.5,12.8L36.5,12.8z"/>
	<path class="st6" d="M40.3,8.5h-2.7l-1.1,4.3h4.3l0,0C40.8,11.4,40.6,9.9,40.3,8.5z"/>
	<path class="st5" d="M63.8,41.2H48.5c-0.6,0-1.1-0.5-1.1-1.1l0,0V20.5h16.3c0.6,0,1.1,0.5,1.1,1.1l0,0v18.5
		C64.9,40.7,64.4,41.2,63.8,41.2L63.8,41.2z"/>
	<path class="st6" d="M47.4,34.1c5.8-2.2,9.9-7.4,10.7-13.6H47.4V34.1z"/>
	<path class="st5" d="M61.6,20.5H54v-2.2c0-0.6,0.5-1.1,1.1-1.1l0,0h5.4c0.6,0,1.1,0.5,1.1,1.1l0,0V20.5z"/>
	<path class="st6" d="M58.3,17.2H55c-0.6,0-1.1,0.5-1,1.1v2.2h4.2c0.1-0.7,0.1-1.5,0.2-2.2C58.3,17.9,58.3,17.6,58.3,17.2z"/>
	<path class="st6" d="M50.7,20.5l1.6,2.7H60l1.6-2.7H50.7z"/>
	<path class="st5" d="M49.6,25.4h13.1v4.4H49.6V25.4z"/>
	<path class="st6" d="M56.7,25.4h-7.1v4.4h4.2C55,28.5,56,27,56.7,25.4z"/>
	<path class="st5" d="M54,14v6.5h-6.6V14l1.1-1.1h4.3L54,14z"/>
	<path class="st5" d="M54,15.1h-6.6V14l1.1-1.1h4.3l1.1,1.1v1.1H54z"/>
	<path class="st6" d="M54,20l-1.7-1.3c-0.5-0.4-0.6-1-0.2-1.5c0.1-0.1,0.1-0.2,0.2-0.2l1.7-1.3V20z"/>
	<path class="st6" d="M47.4,20l1.7-1.3c0.5-0.4,0.6-1.1,0.2-1.5c-0.1-0.1-0.1-0.1-0.2-0.2l-1.7-1.3V20z"/>
	<path class="st5" d="M52.9,12.8h-4.3V9.1c0-0.3,0.2-0.5,0.5-0.5h3.3c0.3,0,0.5,0.3,0.5,0.5V12.8z"/>
	<path class="st6" d="M44.5,34.2H35v1.9c0,0.5,0.5,1,1,1h7.6c0.5,0,0.9-0.4,1-1L44.5,34.2z"/>
	<path class="st2" d="M39.8,35.7c-0.9,0-1.6-0.7-1.6-1.6l0,0v-6.5c0.1-0.9,0.9-1.6,1.8-1.5c0.8,0.1,1.4,0.7,1.5,1.5v6.5
		C41.4,35,40.7,35.7,39.8,35.7z"/>
	<path class="st7" d="M36.9,11.2h5.7l-0.3-1.1h-5.2L36.9,11.2z"/>
	<path class="st8" d="M40.3,16.2c-0.2,0-0.4-0.1-0.5-0.1c-0.2,0-0.4,0-0.5,0.1v1.6h1.1L40.3,16.2L40.3,16.2z"/>
	<path class="st1" d="M63.8,20h-1.6v-1.6c0-0.9-0.7-1.6-1.6-1.6l0,0H55c-0.2,0-0.4,0-0.5,0.1v-2.8c0-0.1-0.1-0.3-0.2-0.4l-0.9-0.9
		V9.1c0-0.6-0.5-1.1-1.1-1.1l0,0H49c-0.5,0-1,0.5-1,1.1v3.6l-0.9,0.9c-0.1,0.1-0.2,0.2-0.2,0.4v26.1c0,0.9,0.7,1.6,1.6,1.6h15.2
		c0.9,0,1.6-0.7,1.6-1.6V21.6C65.4,20.7,64.7,20,63.8,20z M49.5,19.1c0.7-0.6,0.9-1.6,0.3-2.3c-0.1-0.1-0.2-0.2-0.3-0.3l-1.2-0.9H53
		l-1.1,0.9c-0.7,0.6-0.9,1.6-0.3,2.3c0.1,0.1,0.2,0.2,0.3,0.3l1.2,0.9h-4.7L49.5,19.1z M48,18.8v-2.2l0.9,0.7
		c0.2,0.2,0.3,0.5,0.1,0.8l-0.1,0.1L48,18.8z M53.5,18.8l-0.9-0.7c-0.2-0.2-0.3-0.6-0.1-0.8c0,0,0-0.1,0.1-0.1l0.9-0.7V18.8z M54,21
		h6.7l-1,1.6h-7l-1-1.6H54z M55.1,17.8h5.4c0.3,0,0.5,0.2,0.5,0.5l0,0v1.6h-6.5v-1.6C54.5,18,54.8,17.8,55.1,17.8L55.1,17.8
		L55.1,17.8z M49.1,9.1h3.3v3.3h-3.3V9.1z M48.8,13.4h3.9l0.8,0.8v0.3H48v-0.3L48.8,13.4z M64.3,40.1c0,0.3-0.3,0.5-0.5,0.5H48.5
		c-0.3,0-0.5-0.2-0.5-0.5V21h2.4l1.5,2.5c0.1,0.2,0.3,0.3,0.5,0.3H60c0.2,0,0.4-0.1,0.5-0.3L62,21h1.9c0.3,0,0.5,0.2,0.5,0.5
		L64.3,40.1z"/>
	<path class="st1" d="M62.7,24.8H49.6c-0.3,0-0.5,0.2-0.5,0.5l0,0v4.4c0,0.3,0.2,0.5,0.5,0.5l0,0h13.1c0.3,0,0.5-0.2,0.5-0.5v-4.3
		C63.2,25.1,63,24.8,62.7,24.8L62.7,24.8z M62.1,29.2h-12V26h12V29.2z"/>
	<path class="st1" d="M43.5,12.4l-1-4C42.4,8.2,42.2,8,42,8h-4.4c-0.2,0-0.5,0.2-0.5,0.4l-1,4c-1.3,0.2-2.3,1.3-2.3,2.7v25
		c0,0.9,0.7,1.6,1.6,1.6h8.7c0.9,0,1.6-0.7,1.6-1.6l0,0v-25C45.8,13.7,44.8,12.6,43.5,12.4z M42.3,12.3h-5.1l0.3-1.1h4.6L42.3,12.3z
		 M41.5,9.1l0.3,1.1h-4L38,9.1H41.5z M36.5,13.4H43c0.9,0,1.6,0.7,1.6,1.6v22.3h-9.8V15.1C34.8,14.1,35.6,13.4,36.5,13.4L36.5,13.4
		L36.5,13.4z M44.2,40.6h-8.7c-0.3,0-0.5-0.2-0.5-0.5v-1.6h9.8v1.6C44.7,40.4,44.4,40.6,44.2,40.6L44.2,40.6z"/>
	<path class="st1" d="M39.8,21c1.5,0,2.7-1.2,2.7-2.7s-1.2-2.7-2.7-2.7s-2.7,1.2-2.7,2.7l0,0C37,19.8,38.3,21,39.8,21L39.8,21z
		 M39.2,16.8v1h1.1v-1c0.9,0.3,1.3,1.2,1,2.1s-1.2,1.3-2.1,1s-1.3-1.2-1-2.1C38.4,17.4,38.8,17,39.2,16.8z"/>
	<path class="st1" d="M39.8,25.4c-1.2,0-2.2,1-2.2,2.2v6.5c0,1.2,1,2.2,2.2,2.2s2.2-1,2.2-2.2v-6.5C41.9,26.4,41,25.4,39.8,25.4z
		 M39.8,26.5c0.6,0,1.1,0.5,1.1,1.1l0,0v2.7h-2.2v-2.7C38.7,27,39.2,26.5,39.8,26.5L39.8,26.5z M39.8,35.2c-0.6,0-1.1-0.5-1.1-1.1
		l0,0v-2.7h2.2v2.7C40.9,34.7,40.4,35.2,39.8,35.2L39.8,35.2z"/>
</g>
</svg>
