<?xml version="1.0" encoding="utf-8"?>
<!-- Generator: Adobe Illustrator 22.0.1, SVG Export Plug-In . SVG Version: 6.00 Build 0)  -->
<svg version="1.1" id="Layer_1" xmlns="http://www.w3.org/2000/svg" xmlns:xlink="http://www.w3.org/1999/xlink" x="0px" y="0px"
	 viewBox="0 0 50 50" style="enable-background:new 0 0 50 50;" xml:space="preserve">
<style type="text/css">
	.st0{fill:#FFFFFF;}
</style>
<g transform="translate(0)">
	<path class="st0" d="M38,11.1c0.2,1.2,2,2.9,2.5,2.9c0.3,0,0.5-1.6,0.5-2.9c0-0.7,0-1.3-0.3-1.4C40.1,10.9,38.5,11.1,38,11.1
		L38,11.1z M38.1,10.5c1.3,0,2.6-1.1,2.6-2c0-0.4-0.3-0.8-0.7-0.9c0,0,0,0,0,0c0.1,0.1,0.1,0.3,0.1,0.4c0,0.7-1.1,1.5-2.3,1.5
		c-0.3,0-0.5,0.2-0.6,0.4c0,0,0,0,0,0C37.3,10.4,37.6,10.5,38.1,10.5L38.1,10.5z M37.8,9c-0.2,0-0.5-0.1-0.6-0.3
		C37.1,8.5,37.2,8.1,37,8C37.2,8,37.4,8.1,37.6,8c0.6,0,1.1-0.4,1.6-0.4c0.2,0,0.4,0.1,0.4,0.3c0,0,0,0,0,0.1
		C39.5,8.6,38.4,9,37.8,9L37.8,9z M8.8,19.2c0.4,0,0.3-2.7,1.1-2.7c0.2,0,0.2,0.2,0.2,0.4c0,0.6-0.3,1.5-0.3,2
		c0,0.2,0.1,0.3,0.2,0.3c0.3,0,0.9-3,1.4-3c0.2,0,0.2,0.2,0.2,0.3c0,0.6-0.8,2.4-0.8,2.9c0,0.1,0,0.1,0.1,0.1c0.3,0,1-1.4,1.2-2.1
		c0.1-0.4,0.3-0.6,0.4-0.6c0.1,0,0.2,0.1,0.2,0.4c0,0.7-0.6,2.4-1.2,3.5c-0.4,0.9-1.1,2.1-1.1,2.8c0,0.5,0.2,0.9,0.6,1.2
		c-0.8-0.1-1.2-0.1-1.5-0.8c-1.4,2.8,2.6,2.5,1.2,4.9c-0.2-0.4-2.2-0.9-2.2-3.5c0-2.2,1.9-3.5,1.9-4.4c0-0.2-0.1-0.4-0.2-0.5
		c-0.4-0.4-0.4-0.7-0.8-0.7c-0.2,0-0.5,0.6-0.2,1.1c0.1,0.2,0.2,0.3,0.2,0.4c0,0.4-0.6,1.3-1,1.3s-0.7-1-0.7-2.6
		c0-1.4,0.3-2.9,0.7-2.9c0.1,0,0.2,0.1,0.2,0.2c0,0.2-0.1,0.5-0.1,1.1C8.5,19.2,8.7,19.2,8.8,19.2L8.8,19.2z M28.7,6.5
		c0.2,0,0.2,0.5,0.3,0.8c0,0.2,0.1,0.2,0.1,0.2c0.2,0,0.4-0.6,0.6-0.6c0.2,0,0.9,0.7,2,0.7c1.6,0.1,3-1.2,3.1-2.9c0-0.1,0-0.1,0-0.2
		c0-1.9-1.3-3-3.2-3c-0.9,0-1.5,0.4-1.8,0.4c-0.2,0-0.5-0.5-0.7-0.5c-0.1,0-0.1,0.1-0.1,0.4c0,0.1,0,0.6-0.2,0.6
		c-0.3,0-1.5-0.9-1.5-0.6C27.2,2.1,28,3,28,3.2c0,0.2-0.8,0.5-0.8,0.6c0,0.3,0.8,0.3,0.8,0.7s-0.9,0.6-0.9,0.9
		c0,0.2,0.9,0.1,0.9,0.3c0,0.3-0.6,1.2-0.6,1.4c0,0.1,0,0.1,0.1,0.1C27.8,7.3,28.5,6.5,28.7,6.5L28.7,6.5z M12,25.7
		c0-0.3,0.2-0.5,0.4-0.5c0.3,0,0.5,0.2,0.5,0.4c0,0,0,0,0,0c0,0.3-0.2,0.5-0.4,0.5C12.3,26.1,12.1,25.9,12,25.7z M10.6,26.1
		c0.1,0.5,0.5,0.8,0.9,0.7c0.2,0,0.3-0.1,0.4-0.1c0.1,0.4,0.5,0.7,0.9,0.6c0.5,0,0.8-0.4,0.8-0.9c0,0,0,0,0-0.1c0-0.1,0-0.2-0.1-0.3
		l0.1,0c0.5-0.1,0.8-0.5,0.7-0.9c-0.1-0.4-0.4-0.8-0.9-0.7c-0.2,0-0.3,0.1-0.4,0.2c-0.1-0.4-0.5-0.7-0.9-0.6c-0.5,0-0.8,0.5-0.8,0.9
		c0,0,0,0,0,0c0,0.1,0,0.2,0.1,0.3l-0.1,0C10.9,25.2,10.5,25.6,10.6,26.1L10.6,26.1z M39.5,2.2c0,0.2,0.1,0.3,0.3,0.3
		c0.2,0,0.3-0.1,0.3-0.3c0-0.2-0.1-0.3-0.3-0.3C39.7,1.9,39.5,2.1,39.5,2.2C39.5,2.2,39.5,2.2,39.5,2.2z M32.3,14.6
		c0,0.3,0.2,0.5,0.5,0.5c0.3,0,0.5-0.2,0.5-0.5S33.1,14,32.8,14l0,0C32.5,14,32.3,14.3,32.3,14.6z M32.3,16.2c0,0.3,0.3,0.6,0.6,0.6
		c0.3,0,0.6-0.3,0.6-0.6c0-0.3-0.3-0.6-0.6-0.6c0,0,0,0,0,0C32.6,15.6,32.3,15.9,32.3,16.2z M30.4,17.3c0,0.5,0.4,0.9,0.9,0.9
		c0.5,0,0.9-0.4,0.9-0.9c0-0.5-0.4-0.9-0.9-0.9C30.8,16.4,30.4,16.8,30.4,17.3z M30.9,15.5c0,0.3,0.2,0.5,0.5,0.5
		c0.3,0,0.5-0.2,0.5-0.5s-0.2-0.5-0.5-0.5c0,0,0,0,0,0C31.2,14.9,30.9,15.2,30.9,15.5z M29.2,16.5c0,0.3,0.2,0.5,0.5,0.5
		c0.3,0,0.5-0.2,0.5-0.5c0-0.3-0.2-0.5-0.5-0.5c0,0,0,0,0,0C29.5,16,29.2,16.2,29.2,16.5z M30.6,13.5c0,0.5,0.4,0.8,0.8,0.8
		c0.5,0,0.8-0.4,0.8-0.8c0-0.5-0.4-0.8-0.8-0.8C30.9,12.6,30.6,13,30.6,13.5z M31.5,11.9c0,0.3,0.2,0.5,0.5,0.5
		c0.3,0,0.5-0.2,0.5-0.5c0-0.3-0.2-0.5-0.5-0.5c0,0,0,0,0,0C31.8,11.4,31.5,11.6,31.5,11.9z M29.2,13.1c0,0.3,0.2,0.5,0.5,0.5
		c0.3,0,0.5-0.2,0.5-0.5c0-0.3-0.2-0.5-0.5-0.5c0,0,0,0,0,0C29.4,12.6,29.2,12.8,29.2,13.1z M29.1,14.8c0,0.4,0.4,0.8,0.8,0.8
		c0.4,0,0.8-0.4,0.8-0.8c0-0.4-0.4-0.8-0.8-0.8C29.5,14,29.1,14.4,29.1,14.8C29.1,14.8,29.1,14.8,29.1,14.8z M27.5,15.6
		c0,0.4,0.3,0.7,0.7,0.7c0.4,0,0.7-0.3,0.7-0.7c0-0.4-0.3-0.7-0.7-0.7C27.8,14.9,27.5,15.2,27.5,15.6z M27.9,13.8
		c0,0.3,0.2,0.5,0.5,0.5c0.3,0,0.5-0.2,0.5-0.5c0-0.3-0.2-0.5-0.5-0.5C28.2,13.3,27.9,13.5,27.9,13.8z M26.2,32.9
		c0,0.3,0.2,0.5,0.5,0.5c0.3,0,0.5-0.2,0.5-0.5c0-0.3-0.2-0.5-0.5-0.5C26.4,32.4,26.2,32.7,26.2,32.9z M12.2,11.4
		c0,0.3,0.2,0.5,0.5,0.5c0.3,0,0.5-0.2,0.5-0.5c0-0.3-0.2-0.5-0.5-0.5c0,0,0,0,0,0C12.5,10.9,12.2,11.1,12.2,11.4z M11.5,10.3
		c0,0.3,0.2,0.5,0.5,0.5c0.3,0,0.5-0.2,0.5-0.5c0-0.3-0.2-0.5-0.5-0.5C11.8,9.7,11.5,10,11.5,10.3z M12.1,23c0.5,0,1-0.4,1-1.3v-1.3
		c0-0.5,0.1-1,0.4-1.5c0,0.2,0,0.3,0,0.5c0,1.1,0.6,1.9,0.6,3c0,0.4-0.1,0.6-0.4,0.6c-0.3,0-0.3-0.3-0.3-0.3c-0.1,0-0.1,0.2-0.1,0.4
		c0,0.4,0.3,0.7,0.7,0.7c0,0,0,0,0,0c0.5,0,0.9-0.4,0.8-0.9c0-1.2-0.9-2.5-0.9-3.7c0-0.4,0.1-0.8,0.3-1.2c0,2.6,2.2,4.5,2.2,5.5
		c0,0.2-0.2,0.4-0.4,0.4c0,0,0,0,0,0c-0.2,0-0.4-0.2-0.4-0.4c0,0,0,0,0,0c0-0.1,0-0.1-0.1-0.1C15.1,23.6,15,23.8,15,24
		c0,0.5,0.5,1,1,0.9c0,0,0,0,0,0c0.6,0,1.1-0.5,1.1-1.2c0,0,0,0,0,0c0-1.4-2.7-3.4-2.7-5.6c0-0.5,0.1-1,0.3-1.5
		c-1.4,0.8-2.2,2.3-2.2,3.9c0,1.1,0,1.7-0.6,1.7c-0.3,0-0.4-0.3-0.5-0.3c-0.1,0-0.1,0.2-0.1,0.3C11.4,22.7,11.7,23,12.1,23
		C12.1,23,12.1,23,12.1,23L12.1,23z M34.6,10.1c0.6,0,1-0.3,1-0.4c0-0.1-0.1-0.1-0.2-0.1c-0.4,0-0.8,0-1.1-0.1
		c-0.5-0.1-1-0.3-1.1-0.3c-0.1,0-0.1,0-0.1,0.1C33,9.5,33.6,10.1,34.6,10.1L34.6,10.1z M31.8,8.4c0.2-0.1,0.9,0.1,1.8-0.4
		C33.7,8,33.8,7.9,34,7.9c0.5,0,0.3,0.5,0.8,0.5c0.3,0,0.7-0.3,1-0.3c0.4,0,0.9,1.2,0.9,1.8c0,0.7-1,1.1-2.2,1.1
		c-1.4,0-2.6-1.1-2.8-2.5C31.7,8.5,31.7,8.4,31.8,8.4L31.8,8.4z M12.4,27.9c-0.7,0.3-1.2,1.1-1.1,1.8c0,1.3,1.4,3.2,3.6,3.2
		c1.9,0,2.4-1.3,2.4-2.2c0-2-1.2-3.3-2.8-3.3c-0.9,0-1.6,0.6-1.6,1.5c0,0,0,0,0,0c0,1.2,1,2.1,2.2,2.1c0,0,0,0,0,0
		c0.6,0,1.1-0.4,1.2-1c0,0,0-0.1,0-0.1c0-0.7-0.6-1.3-1.3-1.4c-0.2,0-0.4,0.1-0.4,0.4c0,0,0,0,0,0c0,0.3,0.4,0.6,1,0.6
		c0.1,0,0.2,0,0.3-0.1c0,0,0,0.1,0,0.2c0,0.3-0.3,0.5-0.7,0.5c-0.7,0-1.3-0.5-1.3-1.2c0,0,0,0,0,0c0-0.5,0.4-0.8,1-0.8
		c1.1,0,1.9,0.9,1.8,2c0,0,0,0,0,0c0,0.9-0.5,1.5-1.5,1.5C12.9,31.7,11.9,29.8,12.4,27.9L12.4,27.9z M11.1,13.8
		c-0.5,0.1-0.9,0.6-0.9,1.1c0,0.4,0.3,0.8,0.8,0.8c0,0,0,0,0.1,0c0.2,0,0.4,0,0.5-0.1c-0.3-0.3-0.5-0.7-0.5-1.1
		C11,14.2,11,14,11.1,13.8L11.1,13.8z M7.9,14c0,0.1,0,0.1,0,0.2c0,0.6,0.3,0.9,0.8,0.9c0.4,0,0.8-0.3,1-0.6c-0.2,0-0.3,0-0.5,0
		C8.7,14.6,8.2,14.4,7.9,14L7.9,14z M7.4,15.2c0,1,0.3,1.5,0.8,1.5c0.4,0,1-0.3,1.6-0.9c-0.4,0.1-0.8,0.2-1.2,0.2
		C8.1,15.9,7.7,15.6,7.4,15.2L7.4,15.2z M27.2,35.5c0.3,0,0.5,0,0.8-0.1c0.2,0,0.2,0.1,0.2,0.2c0,0.3-0.6,0.6-1.8,0.6
		c-0.5,0-1-0.3-1.2-0.7c-0.8,0.5-1.7,0.8-2.6,0.8c-2.7,0-3.3-1.2-4.2-1.5c-0.6-0.3-1.6,0.3-3-1.2c0.2,0,0.4,0.1,0.6,0.1
		c1.2,0,1.8-0.6,1.8-1.5c0-0.1,0-0.2,0-0.4c0.7,0.4,1.2,1.1,1.4,1.9c0,0.1,0.6,0.2,0.9,0.2c0.6,0.1,1.1-0.4,1.2-0.9c0,0,0,0,0,0
		c1.6-0.1,2.6-1.1,2.8-2.2c0.5,0.2,1,0.5,1.3,0.9c0.3-0.1,0.5-0.1,0.8-0.1c0.5,0,1,0.1,1.4,0.2c0-0.2,0.1-0.4,0.3-0.4
		c0.4,0,0.3,0.4,0.4,0.7c0.1,0.1,0.4,0.2,0.4,0.5c0,0.2-0.1,0.3-0.3,0.3c0,0,0,0,0,0c-0.1,0-0.1,0-0.2,0c-0.3,0.1-0.3,2-1.4,2
		c-0.9-0.1-1.6-0.7-1.9-1.5c-0.1-0.2-0.2-0.4-0.5-0.4c-0.2,0-0.3,0-0.6,0.3c-0.9,0.9-2.1,1.4-3.3,1.4c-0.4,0-0.8,0-0.9,0
		c-0.1,0-0.1,0-0.1,0c0,0.1,0.4,0.4,1.4,0.4c2.3,0,2.8-1.3,3.2-1.3c0.1,0,0.3,0.1,0.3,0.2C25.2,35,26.1,35.6,27.2,35.5L27.2,35.5z
		 M19.8,9.4c0.9,0,1.2,0.7,1.2,1.6c0,0.4-0.1,0.9-0.3,0.9s-0.1-0.3-0.2-0.6c0-0.4-0.1-0.4-0.2-0.4c-0.2,0-0.4,0.5-0.4,1
		c0,0.3,0.1,0.6,0.3,0.6c0.1,0,0.2-0.1,0.3-0.1c0,0.6-0.5,1.1-1.1,1.1c-1.1,0-1.6-1.3-1.7-2.1c-0.7,0.7-1.3,1.3-2.5,1.3
		c-0.8,0-1.5-0.6-1.5-1.4c0,0,0-0.1,0-0.1c0-0.2,0.1-0.8,0.3-0.8c0.3,0,0,1.1,0.7,1.1c0.2,0,0.4-0.1,0.6-0.6
		c0.1-0.2,0.1-0.5,0.1-0.8c0-0.4-0.1-0.6-0.3-0.6c-0.2,0-0.4,0.1-0.6,0.3c0.2-0.8,1-1.4,1.9-1.4c1,0,1.6,0.9,1.6,1.9
		c0,0.1,0,0.3,0,0.4C18.6,10,19.2,9.4,19.8,9.4L19.8,9.4z M16.6,1.7c0-0.1-0.4-0.2-0.9-0.2c-0.8,0-0.7,0.7-1.4,0.7
		c-0.7,0-0.5-0.7-1.4-0.7c-0.5,0-1,0.1-1,0.2c0,0.2,0.6,0.1,0.6,0.5c0,0.5-1.3,0.6-1.3,0.9c0,0.1,0.1,0.1,0.2,0.1
		c0.3,0,0.7-0.1,1.1-0.1c0.2,0,0.4,0,0.4,0.2c0,0.3-0.7,0.9-0.7,1.2c0,0.1,0.1,0.1,0.1,0.1c0.3,0,0.7-0.7,1.1-0.7
		c0.7,0,0.2,1.5,0.6,1.5c0.4,0,0.2-1.4,0.8-1.4c0.5,0,0.8,1,1.1,1C16,4.9,16,4.9,16,4.8c0,0,0,0,0,0c0-0.3-0.4-0.8-0.4-1.2
		c0-0.2,0.2-0.3,0.4-0.3c0.3,0,0.7,0.2,0.9,0.2c0.1,0,0.2,0,0.2-0.1c0-0.3-1.2-0.6-1.2-1.1S16.6,1.9,16.6,1.7L16.6,1.7z M35.1,27.3
		c-0.3,0-1.8,2-2.8,2c-0.2,0-0.4-0.4-0.4-0.8c0-0.2,0.1-0.3,0.5-0.4c2.2-0.5,1.7-2.2,3.6-2.2c1.2,0,2.2,0.9,2.2,2.1
		c0,0.1,0,0.1,0,0.2c0,1.7-2.4,3.8-2.8,3.8c-0.3,0-0.6-0.4-0.6-0.7c0-0.1,0-0.2,0.3-0.3c1.2-0.5,2-1.6,2-2.2c0-0.1-0.1-0.2-0.2-0.3
		c0,0,0,0,0,0c-0.2,0-1.2,2.2-2.2,2.2c-0.7,0-1.5-0.7-1.5-1c0-0.5,2.1-1.5,2.1-2.2C35.3,27.3,35.2,27.3,35.1,27.3L35.1,27.3z
		 M36.5,26.5c-0.2,0-0.4,0.1-0.4,0.5c0,0.3,0.2,0.6,0.5,0.7c0.1,0.1,0.2,0.1,0.4,0.1c0.4,0,0.7-0.1,0.7-0.4
		C37.6,26.9,37,26.5,36.5,26.5L36.5,26.5z M19.6,3c0,0.2,0.8,0.7,1.2,0.7c0.2,0,0.3-0.3,0.3-0.6c0-0.4-0.2-0.4-0.5-0.4
		C20.2,2.7,19.6,2.9,19.6,3L19.6,3z M21,5.6c0-0.8-2.1-2.2-2.1-2.8c0,0,0,0,0-0.1C19,2.3,20.8,2,20.8,1.6c0-0.2-0.3-0.2-0.5-0.2
		c-1.2,0-3,0.4-3,0.9c0,0.4,1.6,1.5,1.6,2.1c0,0.1-0.1,0.2-0.2,0.2c-0.4,0-1.4-0.5-1.9-0.5c-0.2,0-0.3,0.1-0.3,0.4
		c0,0.6,0.7,1.8,0.7,2.2c0,0,0,0.1-0.1,0.1c-0.2,0-1.3-1.3-1.7-1.3c-0.1,0-0.2,0.2-0.2,0.5v0.4c0,0.3,0,0.5-0.2,0.5
		c-0.3,0-0.5-0.9-0.8-0.9c-0.3,0-0.4,1.7-0.7,1.7c-0.4,0-0.1-1.9-0.4-1.9c-0.4,0-0.9,1.2-1.1,1.2c-0.1,0-0.1-0.1-0.1-0.2
		c0-0.4,0.2-1,0.2-1.3C12.2,5.2,12.1,5,12,5c-0.4,0-1.3,0.7-1.6,0.7c-0.1,0-0.1,0-0.1-0.1c0-0.3,1.4-1.3,1.4-1.7
		c0-0.4-1.9-0.1-1.9-0.6c0-0.4,1.4-0.8,1.4-1.3c0-0.4-1.6-0.5-2.3-0.5C8,1.4,7.6,1.5,7.6,1.7c0,0.3,1.7,0.4,1.7,0.7
		c0,0.3-1.8,1.1-1.8,1.5c0,0.4,2.5,0,2.5,0.4c0,0.4-2.2,2.3-2.2,3c0,0.1,0.1,0.2,0.2,0.2c0.7,0,2.4-1.3,2.9-1.3
		c0.2,0,0.2,0.2,0.2,0.4c0,0.3-0.1,0.9-0.1,1.2c0,0.3,0.1,0.5,0.3,0.5c0.5,0,0.9-0.8,1.2-0.8c0.4,0,0.2,2.4,0.8,2.4
		c0.5,0,0.8-2.6,1.1-2.6s0.6,0.8,0.9,0.8c0.4,0,0.2-1.3,0.6-1.3c0.5,0,1.8,1.6,2.3,1.6c0.2,0,0.2-0.1,0.2-0.3c0-0.7-1-2.2-1-2.7
		c0-0.1,0-0.2,0.2-0.2c0.5,0,2,0.7,2.7,0.7C20.8,5.9,21,5.8,21,5.6L21,5.6z M38.7,20.5c0.2-0.6,0.5-1.2,0.9-1.8
		C39.2,18.5,38,18,38,17.3c0-0.9,1.1-1.6,1.3-1.6c0.1,0,0.1,0.1,0.1,0.3c0,0.5-0.2,1.2-0.2,1.6c0,0.4,0.2,0.7,0.4,0.7
		c0.2,0,0.8-0.8,0.8-1.5c0-0.9-0.7-1.7-1.6-1.8c-0.4,0-1,0.6-2.5,0.6c-2.8,0-3.4-2.8-3.4-4c0-0.1,0-0.1,0-0.1
		c0.4,0.2,0.8,0.4,1.2,0.3c0.5,0,0.9-0.1,1.5-0.1c1.6,0,2.2,1.1,3.2,2.5c0.6,0.4,2,0.9,2,2.6c0,1.5-1.5,2.3-1.9,3.8
		c0.6-0.1,0.9-1.1,1.6-1.1c0.3,0,0.5,0.2,0.5,0.6c0,0.8-0.4,1.5-0.9,2c0-0.1,0-0.1,0-0.2c0-0.4-0.1-0.9-0.6-0.9
		c-0.6,0-0.9,0.7-1.2,1.3c-0.4-1.3-0.9-2.5-1.8-3.2c-0.9-0.7-2.5-0.3-2.5-1.7c0-0.4,0.2-0.9,0.2-1.3c0-0.1,0-0.3-0.1-0.4
		c1.2,0.5,0.8,1.3,1.6,2.2c0.5,0.5,1.8,1.1,2.6,3.3c0-0.1,0-0.2,0-0.3c0-1.9-2.5-3.8-2.8-4.6c1.5,0.2,1.7,0.5,2.4,2.5
		C38.4,19.2,38.6,19.9,38.7,20.5L38.7,20.5z M10.8,10c0.1-0.2,0.1-0.5,0.1-0.8c0-0.6-0.3-1.6-1.2-1.6C9.3,7.6,8.9,8,8.9,8.5
		c0,0,0,0,0,0C8.9,9.5,9.9,10,10.8,10z M9.7,13.2c-0.5-0.1-0.9-0.5-0.9-1c0-0.3,0.2-0.6,0.3-0.6c0.1,0,0.1,0,0.1,0.1
		c0.1,0.5,0.4,1,0.9,1.2c0,0,0.1,0,0.1,0.1C10.2,13.1,9.9,13.2,9.7,13.2L9.7,13.2z M11.2,12c0,0.2-0.1,0.4-0.3,0.4
		c-0.5,0-0.8-0.7-0.8-1.1c0-0.2,0.1-0.3,0.3-0.3c0.1,0,0.1,0,0.2,0.1c0.1,0.1,0.1,0.3,0.3,0.5C11,11.8,11.2,11.9,11.2,12L11.2,12z
		 M10.8,10.6c-0.1,0-0.2,0-0.3,0C10,10.6,9.4,10.8,9,11c-1.1,0.7-1,1.9-1.1,2.2c0,0,0,0.1,0,0.1c0,0.1,0.1,0.2,0.2,0.2
		c0.1,0,0.2,0,0.2,0c0.3,0,0.7,0.2,1.2,0.2c0.4,0,0.8-0.1,1.1-0.3c0.7-0.4,1.1-1.1,1.3-1.8c0-0.2-0.2-0.2-0.4-0.4
		c-0.2-0.3-0.1-0.4-0.2-0.5C11.1,10.7,10.9,10.6,10.8,10.6L10.8,10.6z M12.2,12.7c-0.4,0.4-0.6,0.9-0.6,1.5c-0.1,0.6,0.4,1.2,1,1.3
		c0,0,0,0,0.1,0c0.5,0,1-0.5,0.9-1c0,0,0-0.1,0-0.1C13.6,13.5,12.8,12.9,12.2,12.7L12.2,12.7z M9.4,10.2c-0.2,0.2-0.5,0.3-0.8,0.3
		c-0.5,0-1-0.4-1-1c0,0,0,0,0,0c0-0.5,0.3-0.9,0.7-1c0,0.1,0,0.1,0,0.2C8.2,9.4,8.7,10.1,9.4,10.2L9.4,10.2z M32.5,17.8
		c0-0.3,0.2-0.5,0.5-0.5c0.3,0,0.5,0.2,0.5,0.5c0,0.3-0.2,0.5-0.5,0.5C32.7,18.3,32.5,18.1,32.5,17.8z M32.8,32.7
		c0.1,0,0.1,0,0.1,0.3c0,0.4-0.2,0.8-0.6,1c-0.4,0.3-0.9,0.4-1.4,0.4c0.1-0.3,0.2-0.6,0.2-0.9c0-0.1,0-0.2,0-0.3h0.2
		C31.8,33.1,32.4,33,32.8,32.7L32.8,32.7z M32.9,31.4c0.1-0.1,0.1-0.2,0.1-0.4v-0.3c0-0.4-0.6-0.6-1.3-0.6c-0.9,0-1.5,0.4-1.5,0.6
		v0.6c0,0.2,0.6,0.5,1.3,0.5C32,31.9,32.5,31.7,32.9,31.4L32.9,31.4z M33.6,31.6c-0.7,0.6-1.6,0.9-2.4,0.8c-0.4,0-0.8-0.1-1.1-0.2
		c-0.1,0-0.3,0.1-0.4,0.3c-0.4,0.5-0.7,1.1-0.7,1.8c0,0.6,0.5,1.1,1.1,1c0,0,0,0,0.1,0c2.4,0,4.2-1.5,4.2-2.8
		C34.3,31.9,33.9,31.6,33.6,31.6L33.6,31.6z M34,20.7c0,0.3,0.1,0.7,0.4,0.7c0.3,0,0.5-0.4,0.5-0.9c0-0.5-0.1-0.9-0.1-1.1
		c0-0.1,0-0.1,0.1-0.1c0.2,0,0.4,0.5,0.6,0.5c0.2,0,0.6-0.4,0.7-0.4c0,0,0.1,0.1,0.1,0.1c0,0.2-0.3,0.6-0.3,0.8
		c0,0.1,0.8,0.2,0.8,0.3c0,0.2-0.8,0.2-1.2,0.4C35.3,21,35,21.2,35,21.5c0,0.3,0.3,0.3,0.6,0.3c0.9,0,1.5-0.5,1.7-0.5
		c0,0,0.1,0,0.1,0.1c0,0,0,0,0,0c0,0.1-0.4,0.6-0.4,0.8c0,0.2,0.8,0.5,0.8,0.6c0,0-0.1,0.1-0.2,0.1c-0.1,0-0.4,0-0.5,0
		c-0.1,0-0.2,0-0.2,0.1c-0.1,0.1,0,0.8-0.2,0.8c-0.2,0-0.6-1.5-1.6-1.5c-0.1,0-0.2,0.1-0.2,0.3c0.1,0.6,0.5,1.1,1,1.4
		c0.2,0.1,0.6,0.3,0.6,0.4c0,0.2-0.8,0-0.8,0.3c0,0.2,0.1,0.6,0.1,0.8c0,0.1,0,0.1-0.1,0.1c-0.2,0-0.5-0.7-0.7-0.7
		c-0.2,0-0.5,0.4-0.6,0.4c0,0-0.1,0-0.1-0.1c0-0.3,0.5-1,0.5-1.6c0-0.3,0-1-0.4-1c-0.3,0-0.7,0.5-0.8,1c-0.1,0.3,0,1.4-0.2,1.4
		C33,24.8,33,24,32.8,24c-0.2,0-0.6,0.4-0.8,0.4c0,0-0.1,0-0.1,0c0-0.2,0.4-0.7,0.4-0.8c0-0.2-0.9-0.2-0.9-0.4
		c0-0.1,0.3-0.2,0.6-0.2c0.7-0.1,1.6-0.6,1.6-1.3c0-0.8-0.7-1.1-1.2-1.4c-0.2-0.2-0.5-0.3-0.5-0.4c0-0.1,0.3-0.1,0.4-0.1
		c0.2,0,0.4,0,0.4-0.2c0-0.1,0-0.4,0-0.5c0-0.1,0-0.2,0.1-0.2c0.2,0,0.5,0.6,0.6,0.6c0.2,0,0.5-0.5,0.7-0.5c0.1,0,0.1,0,0.1,0.2
		C34.3,19.7,34,20.2,34,20.7L34,20.7z M27.9,16.9c0.1,1.1,1.6,0.5,1.6,1.9c0,0.2-0.1,0.5-0.1,0.7c0,0.3,0,0.5,0.2,0.5
		s0.3-0.2,0.3-0.4c0-0.2-0.1-0.5-0.1-0.6c0-0.3,0.2-0.5,0.4-0.6c0,0,0.1,0,0.1,0c0.5,0,0.9,0.5,1.6,0.5c-0.2,0.8-1.9,0.6-1.9,1.5
		c0,0.5,0.5,0.6,0.8,0.6c0.3,0,0.4,0,0.4-0.3c0-0.1,0-0.3,0-0.4c0-0.1,0-0.1,0.1-0.1c0,0,0,0,0,0c0.3,0,1.7,1.1,1.7,1.4
		c0,0.3-1.5,0.6-1.9,0.6c-0.1,0-0.1,0-0.2-0.1c0,0,0,0,0,0c0-0.1,0.2-0.4,0.2-0.5c0-0.1-0.2-0.2-0.7-0.2c-0.2,0-0.4,0-0.4,0.2
		c0,0.4,0.6,0.8,0.6,1.1c0,0.3-0.2,0.4-0.6,0.4c-0.4,0-0.9-0.3-0.9-0.7c0-0.4,0.4-0.7,0.4-0.9c0-0.1-0.1-0.2-0.2-0.2c0,0,0,0,0,0
		c-0.5,0-0.6,1.3-2.3,1.4c0.3-0.3,0.5-0.7,0.5-1.1c0-0.3-0.1-0.5-0.1-0.8c0-0.4,0.2-0.6,0.4-0.6c0.5,0,0.7,0.7,1,0.7
		c0.2,0,0.4-0.2,0.4-0.4c0-1-1.9-0.8-1.9-2.2C27.4,17.8,27.6,17.3,27.9,16.9L27.9,16.9z M30.3,25.3c0,0.2,0.1,0.3,0.3,0.3
		c0,0,0,0,0,0c0.2,0,0.3-0.2,0.3-0.4c0,0,0,0,0,0c0-0.3-0.2-0.6-0.5-0.6c-0.1,0-0.1,0.2-0.1,0.3C30.4,25,30.3,25.2,30.3,25.3
		L30.3,25.3z M29.6,23.6c1.2,0.1,2,1.1,2.1,2.2c0.1,0.6-0.4,1.2-1.1,1.3c0,0,0,0-0.1,0c-0.6,0-1.1-0.4-1.1-1.1c0,0,0-0.1,0-0.1
		c0-0.5,0.4-1.1,0.4-1.7C29.9,24,29.8,23.8,29.6,23.6L29.6,23.6z M27.9,25.8c0.1,0.1,0.2,0.2,0.2,0.4c0,0.2-0.1,0.4-0.1,0.6
		c0,0.3,0.2,0.6,0.6,0.6c0,0,0,0,0,0c0.3,0,0.6-0.3,0.6-0.6c0,0,0,0,0,0C29.1,26.1,28.5,25.7,27.9,25.8L27.9,25.8z M32.2,24.9
		c0.1,0.1,0.1,0.3,0.1,0.4c0,0.4-0.2,0.7-0.2,1.1c0,0.4,0.3,0.8,0.8,0.8c0,0,0,0,0,0c0.5,0,0.9-0.4,0.9-0.9c0,0,0,0,0,0
		C33.8,25.6,33.2,25,32.2,24.9L32.2,24.9z M28.2,24.3c0.6,0.1,0.7,0.3,0.7,0.5c0,0.3-0.3,0.4-0.5,0.4c-0.2,0-0.4,0-0.6,0
		c-0.3,0-0.6,0.1-0.8,0.3c0.2,0,0.4,0.1,0.4,0.4c0,0.8-2.1,0.1-2.1,2.1c0,1,1.1,2.1,2.7,2.1c0.8,0,1.4-0.3,1.4-0.6
		c0-0.2-0.4-0.1-0.4-0.3c0-0.1,0.2-0.3,0.2-0.4c0-0.1-0.1-0.2-0.2-0.2c-0.2,0-0.7,0.4-1.6,0.4c-0.7,0-1.4-0.4-1.4-0.9
		c0-0.1,0.1-0.2,0.1-0.2s0.2,0.1,0.3,0.1c0.1,0,0.1-0.1,0.1-0.2s0-0.5,0.2-0.5c0.2,0,0.7,0.9,2.5,0.9c0.6,0,1.8-0.1,2.2-0.5
		c0,1.9-1.6,3.3-3.4,3.3c0,0,0,0,0,0c-2,0-3.7-1.6-3.7-3.6c0,0,0-0.1,0-0.1c0-2.1,1.7-3.8,3.8-3.8c0.6,0,1.1,0.2,1.1,0.4
		C29.1,24.1,28.3,23.9,28.2,24.3L28.2,24.3z M18.8,11c0-0.2-0.1-0.3-0.1-0.3c-0.1,0-0.3,0.2-0.5,0.5c0,0.5,0.1,0.7,0.2,0.7
		C18.6,11.9,18.8,11.4,18.8,11L18.8,11z M17.1,11.5c0.1,0,0.3-0.2,0.7-0.5c0-0.2,0-0.3,0-0.5c0-0.3-0.1-0.5-0.3-0.5
		c-0.4,0-0.6,1-0.6,1.3C16.9,11.4,17,11.5,17.1,11.5L17.1,11.5z M19.2,12.7c0.3,0,0.7-1.2,0.7-2c0-0.2,0-0.4-0.1-0.4
		c-0.3,0-0.7,1.3-0.7,2C19,12.5,19.1,12.7,19.2,12.7L19.2,12.7z M16,11.9c0.4,0,0.9-2.4,0.9-2.8c0-0.1,0-0.2-0.1-0.2
		c-0.4,0-1,2.3-1,2.8C15.8,11.8,15.9,11.9,16,11.9L16,11.9z M17.4,12.9c-0.6,0-0.6,0.7-0.6,2c-0.4-0.9-1.1-1.9-1.9-1.9
		c-0.5,0-0.8,0.4-0.8,1c0,0.1,0,0.3,0,0.4c0.1-0.2,0.3-0.3,0.5-0.3c0.7,0.1,1.3,0.4,1.7,1c-0.5-0.1-0.9-0.2-1.4-0.2
		c-0.2,0-0.5,0-0.7,0.1c-0.6,0.3-0.9,0.9-0.9,1.6c0,0.1,0,0.3,0,0.4c0.5-0.9,1.4-1.5,2.4-1.5c0.1,0,0.2,0,0.4,0
		c-0.3,0.4-0.5,0.9-0.5,1.4c0,0.2-0.1,0.2-0.2,0.2c0,0.4,0.3,1.1,0.3,1.4c0,0.1,0,0.2-0.1,0.2c0,0.6,0.6,1,0.6,1.3
		c0,0.1,0,0.1-0.1,0.2c0,0.2,0.7,0.6,0.7,0.8c0.1,0.3,0.2,0.3,0.3,0.3c0.2,0,0.6-0.3,0.6-0.5c0-0.1-0.1-0.2-0.1-0.2
		c-0.2-0.2-0.4-0.5-0.5-0.8c-0.1,0-0.2-0.1-0.2-0.2c-0.1-0.2-0.1-0.8-0.2-1.1c-0.2,0-0.2-0.1-0.2-0.5c0-0.2,0.1-0.8,0.1-1.1
		c-0.1,0-0.2-0.1-0.2-0.2c0,0,0,0,0,0c0-0.4,0.4-0.7,0.5-1.3c0.6,0.3,0.9,0.9,0.9,1.6c0,0.2,0,0.5-0.1,0.7c0.5-0.3,1.4-0.7,1.4-1.5
		c0-0.5-0.2-1-1.7-1.2c0.5-0.2,1-0.3,1.5-0.3c0.8,0,1.3,0.3,1.4,0.8c0.2-0.2,0.3-0.5,0.3-0.8c0-0.6-0.5-1.1-1.1-1.1c0,0,0,0-0.1,0
		c-0.8,0-1.5,0.4-2.2,0.9c0.3-0.7,0.6-1.1,1-1.1c0.1,0,0.1,0,0.2,0C18.3,13.5,17.7,12.9,17.4,12.9L17.4,12.9z M9.1,4.8
		c0,0.3-1,1.1-1.3,1.1C7.7,6,7.6,5.8,7.6,5.7c0-0.3,0.1-0.5,0.3-0.7c0.3-0.2,0.6-0.2,0.9-0.2C8.9,4.7,9.1,4.7,9.1,4.8L9.1,4.8z
		 M39.3,22.3c0.6,0,1.2,0.8,1.2,1.8c0,1.1-0.5,2.2-1.4,3c0-1.8-2.2-1.2-2.2-2.5c0-0.5,0.3-0.9,0.8-0.9c0,0,0,0,0,0
		c0.4,0,0.7,0.1,1,0.4c-0.2-0.2-0.4-0.5-0.4-0.8C38.4,22.7,38.7,22.3,39.3,22.3C39.2,22.3,39.3,22.3,39.3,22.3L39.3,22.3z M29.6,9
		c-0.2-0.2-0.4-0.3-0.7-0.3c-0.5,0-0.9,0.3-1,0.8c-0.1-0.1-0.1-0.3-0.1-0.4c0-0.7,0.5-1.3,1.2-1.3c0,0,0.1,0,0.1,0
		c0.5,0,0.9,0.2,1.3,0.4c0.1,0,0.3-0.1,0.4-0.1C31,8.1,31,8.3,31,8.5c0,0.5-0.2,1.4-0.8,1.7c-0.1-0.3-0.4-0.5-0.6-0.6
		c-0.1,0-0.1-0.1-0.1-0.2C29.4,9.2,29.5,9.1,29.6,9L29.6,9z M27.7,10c0.3,0.3,0.6,0.5,1,0.5c0.1,0,0.3,0,0.4,0
		c0.1,0,0.2,0.1,0.2,0.1c0,0.2-0.1,0.4-0.3,0.5c0.2,0.1,0.3,0.1,0.5,0.1c0.8,0,1.6-0.6,1.6-1.5c0-0.1,0-0.1,0-0.2
		c0.2,0.3,0.2,0.5,0.2,0.8c0.1,1-0.7,1.9-1.8,2c-0.1,0-0.2,0-0.2,0c-0.3,0-0.7-0.1-1-0.2c-0.2,0-0.2,0.5-0.4,0.5
		c-0.3-0.1-0.6-0.7-0.6-1.4C27.3,10.7,27.5,10.3,27.7,10L27.7,10z M18.7,6.2c0,0.5,1.6,2.7,1.9,2.7c0.3,0,0.5-0.5,0.5-0.8
		c0-0.1,0-0.2-0.1-0.3C20.7,7.4,19.1,6.1,18.7,6.2C18.7,6.1,18.7,6.1,18.7,6.2L18.7,6.2z M37.4,5.1c0-0.9-2.2-1.2-2.2-1.4
		c0-0.2,1.2-0.5,1.9-0.5c-1-1.2-2.4-1.1-2.4-1.3c0-0.1,1-0.4,2-0.4c0.8,0,1.6,0.2,1.6,0.8C38.3,2.7,38,3,38,3.6
		c0,0.3,0.2,0.5,0.4,0.5c0,0,0.1,0,0.1,0c0.4,0,0.5-0.4,0.5-0.9c0-0.4-0.1-0.7-0.1-0.8c0-0.5,0.3-0.9,0.8-0.9c0,0,0.1,0,0.1,0
		c0.4,0,0.5,0.2,1.2,0.2c-0.3,0.2-0.5,0.4-0.5,0.8c0,0.5,0.4,0.9,0.4,2c0,2.1-1.9,2.8-4.3,2.8c-0.7,0-1.3-0.1-2-0.2
		c-0.1,0-0.1,0-0.1-0.1c0-0.2,0.9-0.3,0.9-1.1c0-0.3-0.1-0.5-0.1-0.8c0-0.1,0-0.1,0.1-0.1c0,0,0,0,0,0c0.2,0,0.6,0.8,1.3,0.8
		c0.3,0,0.6-0.2,0.7-0.6C37.4,5.2,37.4,5.1,37.4,5.1L37.4,5.1z M39.6,3.8c0,1.2-0.8,2-2.4,2.3c0.2,0,0.3,0,0.5,0
		c1.8,0,2.4-0.8,2.4-1.5C40.2,4.3,39.9,3.9,39.6,3.8L39.6,3.8z M38.4,14.2c0-0.3-0.7-0.3-0.8-1.1c0-0.1-0.1-0.3-0.2-0.3
		c-0.2,0-0.1,0.7-0.3,0.7c-0.6,0-0.8-1.2-1-1.2c-0.1,0-0.1,0-0.1,0.2c0,0.1,0,0.2,0,0.4c0,0.2,0,0.3-0.2,0.3c-0.4,0-0.7-0.8-1-0.8
		c-0.1,0-0.1,0-0.1,0.1c0,0.2,0.3,0.4,0.3,0.6c0,0.3-0.8,0.1-0.8,0.4c0,0.1,0.1,0.2,0.3,0.2c0.3,0,0.7-0.1,0.9-0.1
		c0.1,0,0.3,0,0.3,0.2c0,0.2-0.5,0.4-0.5,0.6c0,0.1,0.1,0.1,0.1,0.1c0,0,0,0,0,0c0.4,0,1-0.6,1.4-0.6c0.1,0,0.3,0,0.3,0.2
		c0,0.2-0.4,0.5-0.4,0.7c0,0.1,0,0.1,0.1,0.1c0,0,0,0,0,0c0.2,0,0.5-0.6,1-0.6c0.2,0,0.4,0.1,0.5,0.1C38.3,14.3,38.4,14.3,38.4,14.2
		L38.4,14.2z M29.1,4.3c0-0.1-0.5-0.4-0.5-0.6c0,0,0,0,0.1,0c0.1,0,0.4,0.1,0.6,0.1c0.2,0,0.2-0.7,0.3-0.7c0.1,0,0.2,0.7,0.4,0.7
		c0.2,0,0.5-0.2,0.6-0.2c0,0,0.1,0,0.1,0c0,0.1-0.3,0.4-0.3,0.5c0,0.1,0.7,0.3,0.7,0.4c0,0.1-0.7,0.1-0.7,0.2c0,0.1,0.3,0.5,0.3,0.6
		c0,0,0,0,0,0c0,0,0,0,0,0c-0.1,0-0.5-0.2-0.6-0.2c-0.1,0-0.4,0.5-0.5,0.5c0,0-0.1-0.1-0.1-0.1l0-0.5c0-0.1,0-0.1-0.1-0.1
		c-0.2,0-0.5,0-0.5,0c-0.1,0-0.1,0-0.1,0C28.5,4.8,29.1,4.4,29.1,4.3L29.1,4.3z M31.6,6.8c-0.9,0-1.5-0.5-1.5-0.7
		c0-0.1,0.1-0.2,0.2-0.2c0,0,0,0,0,0c0.3,0,0.9,0.4,1.1,0.4c0.1,0,0.1,0,0.1-0.1c0-0.2-0.2-0.6-0.2-0.8c0-0.1,0-0.1,0.1-0.1
		c0.4,0,0.9,0.1,1.1,0.1c0.1,0,0.1-0.1,0.1-0.1c0-0.3-0.8-0.8-0.8-1c0-0.2,1.1-0.4,1.1-0.6c0-0.3-1.4-0.1-1.4-0.3
		c0-0.2,0.3-0.5,0.3-0.6c0-0.1-0.1-0.1-0.1-0.1c-0.3,0.1-0.7,0.2-1,0.2c-0.1,0-0.3,0-0.3-0.2c0-0.3,0.5-0.6,1.3-0.6
		c1.3,0,2.1,0.9,2.1,2.4C33.6,6.3,32.3,6.8,31.6,6.8L31.6,6.8z M22.8,29.3c0,0.1-0.1,0.3-0.1,0.4c-0.2-0.2-0.4-0.4-0.7-0.4
		c-1.3,0-0.8,1.9-2.3,1.9c-0.3,0-0.6,0-0.9-0.1c-0.1,0-0.1,0-0.1,0.1c0,0.3,0.5,1.2,1.8,1.2s2.6-0.8,2.6-1.8c0-0.2,0-0.4-0.1-0.5
		c0.1-0.1,0.2-0.1,0.3-0.1c0.2,0,0.3,0.2,0.5,0.2c0.2,0,0.4-0.2,0.4-0.3c0,0,0,0,0,0c0-0.2-0.1-0.3-0.2-0.4c0.1-0.1,0.2-0.2,0.2-0.4
		c0-0.2-0.2-0.4-0.4-0.4c0,0,0,0,0,0c-0.1,0-0.2,0-0.3,0.1c0-0.2-0.2-0.5-0.4-0.5c-0.2,0-0.3,0.1-0.3,0.3c0,0,0,0,0,0
		C22.7,28.9,22.8,29,22.8,29.3L22.8,29.3z M19.3,29.8c-0.4,0-1-0.4-1-0.6c0-0.2,0.2-0.3,0.3-0.3c0.3,0,0.9,0.4,0.9,0.7
		C19.6,29.6,19.5,29.8,19.3,29.8L19.3,29.8z M15.7,26.8c1,0.3,1.6,0.8,1.7,1.5c0,0.5,0.2,1,0.5,1.4c0.4,0.4,0.9,0.7,1.5,0.7
		c0.5,0,0.8-0.2,0.8-0.6c-0.1-0.8-0.8-1.4-1.6-1.5c-0.1,0-0.2,0-0.3,0c-0.1,0-0.3,0-0.4-0.1c-0.2-0.2-0.3-1.2-0.7-1.7
		c-0.3-0.5-0.9-0.9-1.5-0.8c-0.5,0-1,0.2-1,0.6C14.7,26.5,14.9,26.6,15.7,26.8L15.7,26.8z M22.2,25.3c0-0.6-1.2-0.6-1.2-1.5
		c0-0.4,0.2-0.7,0.4-1c0,0.6,0.4,1.1,1,1.2c1.2,0.4,1.3,1.1,1.3,1.8c0,1.2-0.8,2.6-2.9,2.6c-1.5,0-2.8-1.2-2.9-2.8
		c0-0.4,0.1-0.7,0.3-0.7c0.2,0,0.3,0.2,0.4,0.3c0.6,0.5,1.4,0.8,2.1,0.7C21.6,26,22.2,25.6,22.2,25.3L22.2,25.3z M22.3,26.2
		c-0.5,0.2-0.6,0.2-0.6,0.6c0,0.2,0,0.4,0,0.5c0,0.2,0,0.2,0.2,0.2c0.5,0,1.2-0.8,1.2-1.5c0-0.2-0.1-0.3-0.2-0.3
		C22.7,25.8,22.6,26.1,22.3,26.2L22.3,26.2z M18.1,19.6c0-0.8,2-1.3,2-2.3c0-0.2-0.1-0.5-0.2-0.7c0.7,0.4,1.2,1,1.2,1.5
		c0,0.9-0.9,1.3-0.9,1.9c0,0.6,1,0.8,1,1.6c0,0.7-0.9,1.4-0.9,2.3c0,0.7,0.5,1.2,1.2,1.3c-0.2,0.1-0.4,0.1-0.7,0.1
		c-1.3,0-2.7-1.1-2.7-2.4c0-0.6,0.3-1.2,0.7-1.6c0.3,0.3,0.6,0.4,1,0.5c0.2,0,0.3-0.1,0.3-0.3C20,21.1,18.1,20.7,18.1,19.6
		L18.1,19.6z"/>
	<path class="st0" d="M20.8,47.4c0.6,0,1.2-0.4,1.5-0.9c-0.3-0.8-0.4-1.6-0.5-2.4c-0.1-2.4,0.8-4.6,1.8-4.7c0.7,0,1.3,0.7,1.4,1.8
		c0.2,3-0.8,4.2-1.3,5.3c0.2,0.6,0.8,1,1.4,1.1c0.2,0,0.4-0.1,0.6-0.2c-0.1-0.2-0.1-0.5-0.1-0.7c0-1.7,1.1-3.2,2.1-3.2
		c0.8,0,1.2,1,1.2,1.7c0,0.8-0.7,1.4-1.6,2c0.2,0.2,0.5,0.3,0.8,0.3c1.4,0,2.1-1.7,2.7-3.2c0.1-0.3,0.3-0.7,0.6-0.7
		c0.6,0,0.8,3.9,1.8,3.9c0.4,0,0.8-0.9,0.8-1.5c0-0.5-0.2-0.5-0.2-1.3c0-0.8,0.4-1.4,1-1.4c0.3,0,0.5,0.3,0.5,0.8
		c0,1.6-1.1,4.5-2.8,4.5c-1.2,0-1.2-2.2-1.6-2.2c-0.5,0-1.2,2.2-3.6,2.2c-0.5,0-0.9-0.2-1.1-0.6c-0.5,0.4-1,0.6-1.6,0.6
		c-0.9,0-1.3-0.9-1.7-0.9c-0.4,0-0.9,1-2.4,1c-1.2,0-1.4-1.6-1.8-1.6c-0.4,0-0.9,1.6-1.5,1.6c-1,0-1.2-2.7-2.2-2.7
		c-0.7,0-3,2.8-3.6,2.7c-0.2,0-0.3-0.2-0.3-0.5c0.1-0.6,0.3-1.1,0.4-1.7c0.2-0.7,0.4-1.6,0.5-1.8c0.1-0.3,0.3-0.4,0.6-0.4
		c0.1,0,0.1,0.2,0.2,0.4c0.1,0.6,0.3,1.2,0.5,1.2c0.3,0,1.5-2.2,2.1-2.2c0.8,0,0.9,3.4,2,3.4c0.4,0,0.6-0.4,0.9-1
		c0-0.9,0.3-2.2,1-2.2c0.5,0,0.8,1.1,0.4,2.2C19.5,47.1,20.3,47.4,20.8,47.4L20.8,47.4z M39.1,45.1c0-0.8-0.6-1.4-1.4-1.5
		c-1.1,0-2.2,1.2-2.2,2.9c0,1.5,0.9,2,1.9,2c1.6,0,2.6-1.3,3.1-2.4c0.2,0.7,0.4,2.4,1,2.4c0.2,0,0.4-0.1,0.7-0.8
		c0.7-1.6,1.4-3.5,2.4-3.5c0.4,0,0.1,0.7,1,0.7c0.4,0,0.7-0.3,0.7-0.7c0,0,0,0,0,0c0-0.6-0.5-1-1.3-1c-2.3,0-2.8,3.5-3.2,3.5
		c-0.6,0-0.4-2.8-0.9-2.8c-0.4,0-0.6,0.5-0.6,0.7c-0.3,1.3-1.2,3.1-2.6,3.1c-0.3,0-0.9-0.1-0.9-0.4C36.9,46.8,39,46.8,39.1,45.1
		L39.1,45.1z M24.1,41.9c0-0.7-0.2-1-0.6-1c-0.5,0-0.7,1.6-0.6,3.2c0.1,1.1,0.2,1.2,0.4,1.2C23.6,45.3,24.2,43.4,24.1,41.9
		L24.1,41.9z M20.2,40.5c0-0.4-0.4-0.7-0.8-0.7c-0.5,0.1-0.9,0.5-0.9,1.1c0,0,0,0,0,0c0,0.4,0.3,0.7,0.7,0.7c0,0,0,0,0,0
		C19.8,41.6,20.2,41,20.2,40.5C20.2,40.5,20.2,40.5,20.2,40.5L20.2,40.5z M27.8,45.5c0-0.4-0.2-0.8-0.5-0.8c-0.2,0-0.7,0.2-0.7,1
		c0,0.4,0.1,0.7,0.3,1C27.4,46.6,27.8,46.1,27.8,45.5L27.8,45.5z M37.3,44.6c0.5,0,0.7,0.6,0.5,1c-0.2,0.5-0.7,0.8-1.2,0.9
		C36.5,46.1,36.4,44.6,37.3,44.6L37.3,44.6z M3.7,45c0-1.2,0.1-2.3,0.4-3.4c0.2-0.8,0.4-1,1.1-1.2c0.5-0.1,0.5,0.5,0.4,1.1
		c-0.3,1.3-0.4,2.6-0.3,3.8c0.1,1.8,0.9,2.4,1.8,2.4c1.3,0,1.9-1.1,2.2-2.7c0.2-0.8,0.1-1.5-0.1-2.3c-0.1-0.4-0.2-0.7-0.3-1.1
		c-0.1-0.9,0.3-1.4,0.7-1.5c0.4-0.1,0.6,0.1,0.8,0.6c0.2,1.1,0.3,2.2,0.2,3.3c-0.1,2-1.1,4.4-3.6,4.4C4.7,48.5,3.8,47.2,3.7,45
		L3.7,45z"/>
</g>
</svg>
