<svg xmlns="http://www.w3.org/2000/svg" width="244.999" height="41.821" viewBox="0 0 244.999 41.821">
  <g id="Group_1473" data-name="Group 1473" transform="translate(-6.854 -12.306)">
    <path id="Path_2901" data-name="Path 2901" d="M447.841,55.337h-36.72a5.145,5.145,0,0,1-5.208-6.12l4.259-28.561a7.359,7.359,0,0,1,7.032-6.12h36.721a5.146,5.146,0,0,1,5.208,6.12l-4.259,28.561a7.36,7.36,0,0,1-7.033,6.12" transform="translate(-216.49 -1.21)" fill="#a3a3a3"/>
    <path id="Path_2902" data-name="Path 2902" d="M448.175,53.107H411.454a5.146,5.146,0,0,1-5.207-6.12l4.258-28.561a7.361,7.361,0,0,1,7.032-6.12h36.721a5.146,5.146,0,0,1,5.208,6.12l-4.258,28.561a7.362,7.362,0,0,1-7.033,6.12" transform="translate(-216.671)" fill="#eae9e8"/>
    <path id="Path_2903" data-name="Path 2903" d="M457.327,32.376l-10.8,19.095-5.109-19.095h-6.936a.954.954,0,0,0-.921,1.13l5.71,21.342a2.717,2.717,0,0,0,2.714,2.008h7.479a3.918,3.918,0,0,0,3.313-2.008l12.074-21.342a.715.715,0,0,0-.585-1.13Z" transform="translate(-231.512 -10.89)" fill="#fff"/>
    <path id="Path_2904" data-name="Path 2904" d="M450.081,54.627h-6.528a2.037,2.037,0,0,1-2.035-1.507l-5.844-21.844a.954.954,0,0,1,.922-1.129h4.215a3.4,3.4,0,0,1,3.392,2.511Z" transform="translate(-232.661 -9.68)" fill="#c00020"/>
    <path id="Path_2905" data-name="Path 2905" d="M11.043,31.729l4.016,19,10.062-19h4.188L17.953,53.1a3.734,3.734,0,0,1-2.288,2.2c-2.5.691-3.8-.172-4.232-2.2L6.854,31.729Z" transform="translate(0 -10.539)" fill="#e1001e"/>
    <path id="Path_2906" data-name="Path 2906" d="M56.753,45.979c.776-4.75,3.54-7.254,7.125-7.254h9.586l.26-1.512v-.432a1.3,1.3,0,0,0-1.252-1.122l-.389-.043H58.394l.648-3.887H72.86c3.066,0,4.621,1.295,4.793,4.275a2.978,2.978,0,0,1-.043,1.079l-1.9,12.005a7.357,7.357,0,0,1-6.607,5.96H61.33a5.386,5.386,0,0,1-3.023-1.08,5.217,5.217,0,0,1-1.986-5.182ZM60.164,49.3c.216,1.511.735,1.857,2.851,1.857h5.311c1.944,0,2.462-.259,3.109-1.253a3.529,3.529,0,0,0,.433-1.036l.6-3.757v-.432c-.173-1.425-.691-1.9-2.462-2.073H63.921a3.025,3.025,0,0,0-2.677,1.425,3.565,3.565,0,0,0-.475,1.079l-.561,3.757a1.325,1.325,0,0,0-.043.432" transform="translate(-26.797 -10.539)" fill="#e1001e"/>
    <path id="Path_2907" data-name="Path 2907" d="M107.118,37.645a6.6,6.6,0,0,1,7-5.917h7.342a5.489,5.489,0,0,1,3.67.993c1.425,1.166,1.857,2.591,1.555,4.664L124.909,48.57a7.512,7.512,0,0,1-7,6.477h-9.673l-1.208,7.6h-3.887Zm2.116,11.227c-.043,1.079.173,1.555.864,1.986a1.747,1.747,0,0,0,.95.3h7.384a3.56,3.56,0,0,0,.778-.129,2.475,2.475,0,0,0,1.641-1.685c.043-.173.086-.345.129-.475l1.727-11.1.043-.26c.086-1.295-.129-1.641-1.382-1.856a.73.73,0,0,0-.3-.043h-6.953c-1.813,0-2.936.864-3.152,2.375l-1.685,10.45c0,.173-.043.3-.043.432" transform="translate(-52.247 -10.538)" fill="#e1001e"/>
    <path id="Path_2908" data-name="Path 2908" d="M160.664,38.466c.734-4.491,3.368-6.737,8.291-6.737h5.787c3.756,0,5.786,2.2,5.181,5.959l-.431,2.764-16.366,7.082-.129.778v.259c-.044,2.116.389,2.591,2.2,2.591h12.868l-.647,3.887H164.378c-3.714,0-5.916-2.5-5.355-6.132Zm15.329-.475c0-.086.043-.216.043-.3.259-1.555-.259-2.073-2.073-2.073h-6.3c-1.857,0-2.764.864-3.109,2.936l-.734,4.708Z" transform="translate(-82.519 -10.539)" fill="#e1001e"/>
    <path id="Path_2909" data-name="Path 2909" d="M207.207,53.461H219c2.677,0,4.189-1.122,4.837-3.627a6.671,6.671,0,0,0,.172-.907l.13-1.166c.3-2.98-.561-4.1-3.325-4.1h-5.484c-.431,0-.864,0-1.338-.043-3.5-.388-4.966-2.116-4.4-5.614l.26-1.468a5.37,5.37,0,0,1,.949-2.375c1.339-1.987,2.98-2.807,6.218-2.807h11.357l-.216,1.426H216.793c-2.116,0-2.548.086-3.584.734a4.485,4.485,0,0,0-1.986,2.98l-.215,1.468c-.476,2.936.776,4.188,4.577,4.188H221.2c3.411,0,4.966,1.944,4.4,5.614l-.216,1.166a7.4,7.4,0,0,1-1.079,3.281c-1.382,1.987-2.807,2.634-5.571,2.634H206.991Z" transform="translate(-108.593 -10.334)" fill="#252f38"/>
    <path id="Path_2910" data-name="Path 2910" d="M258.757,31.352h1.425l-2.72,17.187c-.519,3.325,1.079,4.923,5.052,4.923h5.1c3.585,0,5.4-1.123,6.3-3.757a4.563,4.563,0,0,0,.26-1.036l2.764-17.316h1.382L275.6,48.539a6.757,6.757,0,0,1-2.591,4.751c-1.511,1.208-2.677,1.554-5.614,1.554h-5.1c-4.879,0-6.909-2.159-6.261-6.3Z" transform="translate(-135.141 -10.334)" fill="#252f38"/>
    <path id="Path_2911" data-name="Path 2911" d="M313.509,25.646h1.425l-3.757,23.491H309.8Zm.432-4.492a1.16,1.16,0,0,1,1.641.043,1.317,1.317,0,0,1-.086,1.9,1.158,1.158,0,0,1-1.728-.172,1.564,1.564,0,0,1-.259-.864,1.292,1.292,0,0,1,.432-.907" transform="translate(-164.374 -4.628)" fill="#252f38"/>
    <path id="Path_2912" data-name="Path 2912" d="M330.954,14.736h1.382l-1.166,7.6h6.607l-.216,1.425h-6.65l-3.5,22.067h-1.382Z" transform="translate(-173.184 -1.318)" fill="#252f38"/>
    <path id="Path_2913" data-name="Path 2913" d="M350,38.08c.691-4.534,2.893-6.477,7.168-6.779a8.966,8.966,0,0,1,1.079-.043l5.658.043c4.707.086,6.218,1.943,5.4,7.082l-.129.648L350,46.889l-.13,1.036c-.431,4.145.606,5.484,4.578,5.484h12.436l-.216,1.382H354.582c-5.1,0-6.909-2.073-6.175-6.694Zm17.878.043a2.793,2.793,0,0,0,.173-.864c.388-3.023-1.122-4.534-4.923-4.534h-4.75c-4.1,0-5.787,1.036-6.694,3.93a8.808,8.808,0,0,0-.216,1.036l-1.253,7.644Z" transform="translate(-185.24 -10.283)" fill="#252f38"/>
    <path id="Path_2914" data-name="Path 2914" d="M462.835,53.12l12.36-21.843a.716.716,0,0,0-.586-1.13h-4.216a4.9,4.9,0,0,0-4.14,2.511l-12.43,21.97h6.528a2.936,2.936,0,0,0,2.485-1.507" transform="translate(-242.523 -9.68)" fill="#e1001e"/>
    <path id="Path_2915" data-name="Path 2915" d="M530.234,12.455h1.946l-.079.487h-.73l-.458,2.882h-.487l.454-2.882h-.725Z" transform="translate(-283.94 -0.081)" fill="#252f38"/>
    <path id="Path_2916" data-name="Path 2916" d="M534.536,12.866a.565.565,0,0,1,.3-.487c.412-.177.632-.019.678.351l.323,2.479,1.132-2.479c.118-.252.192-.337.341-.379.337-.107.59.061.608.257a1.564,1.564,0,0,1-.01.258l-.458,2.877h-.486l.454-2.882-1.146,2.512c-.113.243-.2.332-.328.379-.333.117-.519-.028-.57-.379l-.351-2.512-.458,2.882h-.487Z" transform="translate(-286.071 0)" fill="#252f38"/>
  </g>
</svg>
