<svg xmlns="http://www.w3.org/2000/svg" width="30" height="30" viewBox="0 0 30 30">
  <g id="accessories" transform="translate(-1257 -148)">
    <circle id="Ellipse_91" data-name="Ellipse 91" cx="15" cy="15" r="15" transform="translate(1257 148)" fill="#e7e9e7"/>
    <g id="vaper_1_" data-name="vaper (1)" transform="translate(1262.046 156.822) rotate(-14)">
      <path id="Path_218" data-name="Path 218" d="M2.048,6.521.02,4.493a.069.069,0,0,1,0-.1L4.348.067a.23.23,0,0,1,.326,0l1.8,1.8a.23.23,0,0,1,0,.326L2.146,6.521a.069.069,0,0,1-.1,0Zm0,0" transform="translate(0.239 9.548)" fill="#ef0027"/>
      <path id="Path_219" data-name="Path 219" d="M5.014,1.867l-1.8-1.8a.23.23,0,0,0-.326,0L2.413.542l.6.6a1.261,1.261,0,0,1,0,1.783L0,5.932l.589.589a.069.069,0,0,0,.1,0L5.014,2.193a.23.23,0,0,0,0-.326Zm0,0" transform="translate(1.698 9.548)" fill="#d30d2b"/>
      <path id="Path_220" data-name="Path 220" d="M2.186,0,3.963,1.777,1.777,3.963,0,2.186Zm0,0" transform="translate(9.684 2.68)" fill="#e7e9e7"/>
      <path id="Path_221" data-name="Path 221" d="M1.047,0,.409.638l.676.676a.655.655,0,0,1,0,.927L0,3.325l.638.638L2.824,1.777Zm0,0" transform="translate(10.823 2.681)" fill="#a7aaaa"/>
      <path id="Path_222" data-name="Path 222" d="M2.414,1.858.573.017a.059.059,0,0,0-.084,0L.017.489a.059.059,0,0,0,0,.084L1.858,2.414a.059.059,0,0,0,.084,0l.472-.472A.059.059,0,0,0,2.414,1.858Zm0,0" transform="translate(11.821 2.075)" fill="#e7e9e7"/>
      <path id="Path_223" data-name="Path 223" d="M2.414,1.858.573.017a.059.059,0,0,0-.084,0L.017.49a.059.059,0,0,0,0,.084L1.858,2.414a.06.06,0,0,0,.084,0l.472-.472A.059.059,0,0,0,2.414,1.858Zm0,0" transform="translate(9.079 4.817)" fill="#e7e9e7"/>
      <path id="Path_224" data-name="Path 224" d="M2.249.9,1.409.062a.2.2,0,0,0-.281-.01.2.2,0,0,0,0,.284L1.13.341a.1.1,0,0,1,.007.13L.805.884a3.35,3.35,0,0,1-.761.693l-.013.008a.071.071,0,0,0-.011.11l.588.588a.071.071,0,0,0,.109-.011L.727,2.26A3.343,3.343,0,0,1,1.42,1.5l.413-.332a.1.1,0,0,1,.13.007.2.2,0,0,0,.267.022A.2.2,0,0,0,2.249.9Zm0,0" transform="translate(13.784 0.239)" fill="#a7aaaa"/>
      <path id="Path_225" data-name="Path 225" d="M1.935.713A.064.064,0,0,1,1.922.7L1.334.114A.073.073,0,0,1,1.323.1,1.193,1.193,0,0,0,0,.349L1.687,2.036A1.193,1.193,0,0,0,1.935.713Zm0,0" transform="translate(12.471 1.821)" fill="#a7aaaa"/>
      <path id="Path_226" data-name="Path 226" d="M4.2,0,5.981,1.777l-4.2,4.2L0,4.2Zm0,0" transform="translate(4.924 5.422)" fill="#ef0027"/>
      <path id="Path_227" data-name="Path 227" d="M2.157,0,1.519.638l.546.546a.838.838,0,0,1,0,1.185L0,4.436l.638.638,3.3-3.3Zm0,0" transform="translate(6.063 6.33)" fill="#d30d2b"/>
      <path id="Path_228" data-name="Path 228" d="M.908,0,2.685,1.777l-.908.908L0,.908Zm0,0" transform="translate(8.221 5.422)" fill="#a7aaaa"/>
      <path id="Path_229" data-name="Path 229" d="M2.048,2.985.02.957a.069.069,0,0,1,0-.1L.879,0,3.005,2.126l-.859.859A.069.069,0,0,1,2.048,2.985Zm0,0" transform="translate(0.239 13.084)" fill="#a7aaaa"/>
      <path id="Path_230" data-name="Path 230" d="M.033,1.038l1-1a.113.113,0,0,1,.159,0l.532.532a.113.113,0,0,1,0,.159l-1,1a.113.113,0,0,1-.159,0L.033,1.2A.113.113,0,0,1,.033,1.038Zm0,0" transform="translate(6.18 8.386)" fill="#e7e9e7"/>
      <path id="Path_231" data-name="Path 231" d="M.478.239A.239.239,0,1,1,.239,0,.239.239,0,0,1,.478.239Zm0,0" transform="translate(8.995 6.196)" fill="#1f283b"/>
      <path id="Path_232" data-name="Path 232" d="M.478.239A.239.239,0,1,1,.239,0,.239.239,0,0,1,.478.239Zm0,0" transform="translate(9.652 6.854)" fill="#1f283b"/>
      <path id="Path_233" data-name="Path 233" d="M.478.239A.239.239,0,1,1,.239,0,.239.239,0,0,1,.478.239Zm0,0" transform="translate(0.933 13.806)" fill="#1f283b"/>
      <path id="Path_234" data-name="Path 234" d="M.478.239A.239.239,0,1,1,.239,0,.239.239,0,0,1,.478.239Zm0,0" transform="translate(1.488 14.361)" fill="#1f283b"/>
      <path id="Path_235" data-name="Path 235" d="M.478.239A.239.239,0,1,1,.239,0,.239.239,0,0,1,.478.239Zm0,0" transform="translate(2.043 14.916)" fill="#1f283b"/>
      <path id="Path_236" data-name="Path 236" d="M15.363.131a.438.438,0,0,0-.752.3.433.433,0,0,0,.054.219,3.84,3.84,0,0,1-.982.979,1.447,1.447,0,0,0-1.217.233.3.3,0,0,0-.326.065l-.472.472a.3.3,0,0,0-.086.234L9.633,4.579a.3.3,0,0,0-.234.086l-.472.472a.3.3,0,0,0-.086.234L7.56,6.652A.239.239,0,0,0,7.9,6.99l.322-.322L9.659,8.107,6.7,11.065,5.262,9.626,7.109,7.779a.239.239,0,0,0-.338-.338L4.884,9.328a.469.469,0,0,0-.467.118L.09,13.773a.309.309,0,0,0,0,.436l2.028,2.028a.308.308,0,0,0,.436,0L6.882,11.91A.47.47,0,0,0,7,11.443c4.2-4.2,3.942-3.956,3.98-3.956A.3.3,0,0,0,11.19,7.4l.472-.472a.3.3,0,0,0,.086-.234l.292-.292a.239.239,0,0,0-.338-.338l-.241.241-.55-.55,1.847-1.848.55.55-.817.817a.239.239,0,0,0,.338.338l.868-.868a.3.3,0,0,0,.234-.086l.472-.472a.3.3,0,0,0,.065-.326,1.419,1.419,0,0,0,.23-1.213,3.829,3.829,0,0,1,.983-.987A.436.436,0,0,0,16.2.97ZM13.654,2.122l.552.552a.946.946,0,0,1-.069.823L12.831,2.19a.946.946,0,0,1,.823-.069ZM8.559,6.33l.569-.569L10.567,7.2,10,7.769ZM2.336,15.779.549,13.991l.57-.569,1.787,1.787Zm.908-.908L1.457,13.083,4.75,9.79l1.787,1.787Zm7.735-7.936L9.393,5.348,9.61,5.13,11.2,6.717Zm-.407-1.518-.55-.55L11.87,3.019l.55.55Zm3.148-1.223L12.134,2.606l.218-.218,1.587,1.587ZM15.467,1.22a4.951,4.951,0,0,0-1.047.992l-.3-.3A4.95,4.95,0,0,0,15.108.86a.337.337,0,0,0,.074-.234l.52.52a.337.337,0,0,0-.234.074Zm0,0" transform="translate(0 0)" fill="#1f283b"/>
      <path id="Path_237" data-name="Path 237" d="M.1,1.108a.352.352,0,0,0,0,.5l.532.532a.352.352,0,0,0,.5,0l1-1a.352.352,0,0,0,0-.5L1.606.1a.352.352,0,0,0-.5,0ZM1.71.884l-.826.826L.531,1.357,1.357.531Zm0,0" transform="translate(5.941 8.146)" fill="#1f283b"/>
      <path id="Path_238" data-name="Path 238" d="M2.175.07l-2.1,2.1a.239.239,0,0,0,.338.338l2.1-2.1A.239.239,0,0,0,2.175.07Zm0,0" transform="translate(2.287 10.632)" fill="#1f283b"/>
      <path id="Path_239" data-name="Path 239" d="M1.095.07.07,1.094a.239.239,0,0,0,.338.338L1.433.408A.239.239,0,0,0,1.095.07Zm0,0" transform="translate(3.112 12.537)" fill="#1f283b"/>
      <path id="Path_240" data-name="Path 240" d="M.24.769A.238.238,0,0,0,.409.7L.7.408A.239.239,0,0,0,.361.07L.07.361A.239.239,0,0,0,.24.769Zm0,0" transform="translate(4.926 11.457)" fill="#1f283b"/>
    </g>
  </g>
</svg>
