<svg id="address" xmlns="http://www.w3.org/2000/svg" width="36.831" height="21.761" viewBox="0 0 36.831 21.761">
  <path id="Path_3547" data-name="Path 3547" d="M47.939,225.127h4.024a.563.563,0,1,0,0-1.127H47.939a.563.563,0,1,0,0,1.127Z" transform="translate(-45.766 -215.71)" fill="#e1001e"/>
  <path id="Path_3548" data-name="Path 3548" d="M33.573,275.127a.563.563,0,0,0,0-1.127H27.939a.563.563,0,0,0,0,1.127Z" transform="translate(-27.376 -261.686)" fill="#e1001e"/>
  <path id="Path_3549" data-name="Path 3549" d="M67.939,175.127h2.414a.563.563,0,1,0,0-1.127H67.939a.563.563,0,1,0,0,1.127Z" transform="translate(-64.157 -169.734)" fill="#e1001e"/>
  <path id="Path_3550" data-name="Path 3550" d="M172,153.739v4.679a.563.563,0,0,0,.282.488l4.053,2.34a.563.563,0,0,0,.563,0l4.064-2.34a.574.574,0,0,0,.294-.488v-4.679a.574.574,0,0,0-.293-.488l-4.058-2.34a.569.569,0,0,0-.566,0l-4.054,2.34A.565.565,0,0,0,172,153.739Zm1.127.976,2.9,1.689v3.379l-2.9-1.689Zm3.49.713-.939-.542L178.6,153.2l.939.542Zm.534,4.355V156.4l2.978-1.689v3.379Zm-.534-7.732.859.5-2.925,1.689-.859-.5Z" transform="translate(-160.36 -148.434)" fill="#e1001e"/>
  <path id="Path_3551" data-name="Path 3551" d="M150.263,130.516c0-.009,0-.017,0-.025s0-.019,0-.029,0-.017-.005-.026l-.007-.027c0-.009,0-.017-.008-.026l-.01-.026-.01-.025-.012-.025-.013-.024-.014-.023-.016-.024-.016-.021-.019-.023-.009-.011-4.146-4.525a2.186,2.186,0,0,0-1.6-.711h-5.905v-1.8A2.143,2.143,0,0,0,136.3,121H123.142A2.125,2.125,0,0,0,121,123.142v14.627a2.125,2.125,0,0,0,2.143,2.143h2.012a.563.563,0,1,0,0-1.127h-2.012a1,1,0,0,1-1.016-1.016V123.142a1,1,0,0,1,1.016-1.016H136.3a1.015,1.015,0,0,1,1.038,1.016v15.643h-6.549a.563.563,0,1,0,0,1.127h9.658a.563.563,0,1,0,0-1.127h-1.982v-7.646h10.7v6.629a1.049,1.049,0,0,1-1.077,1.016h-2.012a.563.563,0,1,0,0,1.127h2.012a2.176,2.176,0,0,0,2.2-2.143V130.56s-.016-.009-.016-.014S150.263,130.526,150.263,130.516Zm-11.8-4.447h5.905a1.064,1.064,0,0,1,.771.355l3.28,3.589h-9.956Z" transform="translate(-113.464 -120.999)" fill="#e1001e"/>
  <path id="Path_3552" data-name="Path 3552" d="M165.624,310.75a3.38,3.38,0,1,0,3.38-3.38A3.38,3.38,0,0,0,165.624,310.75Zm5.634,0A2.254,2.254,0,1,1,169,308.5,2.254,2.254,0,0,1,171.258,310.75Z" transform="translate(-154.497 -292.371)" fill="#e1001e"/>
  <path id="Path_3553" data-name="Path 3553" d="M355.624,310.75a3.38,3.38,0,1,0,3.38-3.38A3.38,3.38,0,0,0,355.624,310.75Zm5.634,0A2.254,2.254,0,1,1,359,308.5,2.254,2.254,0,0,1,361.258,310.75Z" transform="translate(-329.206 -292.371)" fill="#e1001e"/>
</svg>
