<?xml version="1.0" encoding="utf-8"?>
<!-- Generator: Adobe Illustrator 24.2.3, SVG Export Plug-In . SVG Version: 6.00 Build 0)  -->
<svg version="1.1" id="Layer_1" xmlns="http://www.w3.org/2000/svg" xmlns:xlink="http://www.w3.org/1999/xlink" x="0px" y="0px"
	 viewBox="0 0 30 30" style="enable-background:new 0 0 30 30;" xml:space="preserve">
<style type="text/css">
	.st0{fill:#F2F2F2;}
	.st1{fill:#1F283B;}
	.st2{fill:#FFFFFF;}
	.st3{fill:#38465E;}
	.st4{fill:#DEDEDE;}
	.st5{fill:#E1001E;}
	.st6{fill:#B20422;}
</style>
<circle class="st0" cx="15" cy="15" r="15"/>
<path class="st1" d="M22.4,7H8.5C7.3,7,6.2,8,6.2,9.3v12.4c0,1.3,1,2.3,2.3,2.3h13.9c1.3,0,2.3-1,2.3-2.3V9.3C24.8,8,23.7,7,22.4,7z
	"/>
<path class="st2" d="M22.4,22.4H8.5c-0.4,0-0.8-0.3-0.8-0.8V10.9h15.4v10.8C23.2,22.1,22.9,22.4,22.4,22.4z"/>
<path class="st3" d="M15.5,7h-7C7.3,7,6.2,8,6.2,9.3v12.4c0,1.3,1,2.3,2.3,2.3h7v-1.5h-7c-0.4,0-0.8-0.3-0.8-0.8V10.9h7.7V7z"/>
<path class="st4" d="M15.5,10.9H7.8v10.8c0,0.4,0.3,0.8,0.8,0.8h7V10.9z"/>
<path class="st5" d="M14.9,19.4h-4.2c-0.7,0-1.4-0.6-1.4-1.4v-4.2c0-0.7,0.6-1.4,1.4-1.4h4.2c0.7,0,1.4,0.6,1.4,1.4V18
	C16.3,18.7,15.7,19.4,14.9,19.4z"/>
<path class="st3" d="M14.9,19.4h-4.2c-0.7,0-1.4-0.6-1.4-1.4v-0.7c0-0.2,0.1-0.3,0.2-0.4l1.2-1.2c0.5-0.5,1.4-0.5,1.9,0
	c0,0,0.2,0.1,0.3,0l0.4-0.5c0.5-0.6,1.6-0.7,2.1,0l0.7,0.9c0.1,0.1,0.1,0.2,0.1,0.4V18C16.3,18.7,15.7,19.4,14.9,19.4z"/>
<path class="st6" d="M12.8,12.4h-2.1c-0.7,0-1.4,0.6-1.4,1.4V18c0,0.7,0.6,1.4,1.4,1.4h2.1h-2.1c-0.7,0-1.4-0.6-1.4-1.4v-0.7
	c0-0.2,0.1-0.3,0.2-0.4l1.2-1.2c0.3-0.3,0.6-0.4,1-0.4s0.7,0.1,1,0.4c0,0,0.1,0.1,0.1,0.1c0,0,0,0,0.1,0L12.8,12.4L12.8,12.4z"/>
<path class="st1" d="M11.6,15.4c-0.3,0-0.7,0.1-1,0.4l-1.2,1.2c-0.1,0.1-0.2,0.3-0.2,0.4V18c0,0.7,0.6,1.4,1.4,1.4h2.1v-3.5
	c0,0,0,0-0.1,0c-0.1,0-0.1,0-0.1-0.1C12.3,15.5,12,15.4,11.6,15.4L11.6,15.4z"/>
<path class="st5" d="M20.9,21.7H10.1c-0.4,0-0.8-0.3-0.8-0.8s0.3-0.8,0.8-0.8h10.8c0.4,0,0.8,0.3,0.8,0.8S21.3,21.7,20.9,21.7z"/>
<path class="st6" d="M15.5,20.1h-5.4c-0.4,0-0.8,0.3-0.8,0.8s0.3,0.8,0.8,0.8h5.4V20.1z"/>
<path class="st5" d="M20.9,15.5h-2.3c-0.4,0-0.8-0.3-0.8-0.8c0-0.4,0.3-0.8,0.8-0.8h2.3c0.4,0,0.8,0.3,0.8,0.8
	C21.7,15.1,21.3,15.5,20.9,15.5z"/>
<path class="st5" d="M20.9,18.6h-2.3c-0.4,0-0.8-0.3-0.8-0.8c0-0.4,0.3-0.8,0.8-0.8h2.3c0.4,0,0.8,0.3,0.8,0.8
	C21.7,18.2,21.3,18.6,20.9,18.6z"/>
<g>
	<path class="st6" d="M19.7,14h-1.2c-0.4,0-0.8,0.3-0.8,0.8c0,0.4,0.3,0.8,0.8,0.8h1.2V14z"/>
	<path class="st6" d="M19.7,17h-1.2c-0.4,0-0.8,0.3-0.8,0.8c0,0.4,0.3,0.8,0.8,0.8h1.2V17z"/>
</g>
</svg>
