<?xml version="1.0" encoding="utf-8"?>
<!-- Generator: Adobe Illustrator 22.0.1, SVG Export Plug-In . SVG Version: 6.00 Build 0)  -->
<svg version="1.1" id="Layer_1" xmlns="http://www.w3.org/2000/svg" xmlns:xlink="http://www.w3.org/1999/xlink" x="0px" y="0px"
	 viewBox="0 0 45 45" style="enable-background:new 0 0 45 45;" xml:space="preserve">
<style type="text/css">
	.st0{fill:#F2F2F2;}
	.st1{fill:#333333;}
</style>
<g transform="translate(-1569 -181)">
	<circle class="st0" cx="1591.5" cy="203.5" r="22.5"/>
	<g transform="translate(1531.928 190.466)">
		<path class="st1" d="M70.3,23.2L68.7,5.9c0-0.4-0.4-0.7-0.7-0.7h-3.2c0-2.9-2.4-5.3-5.3-5.3c-2.9,0-5.3,2.4-5.3,5.3h-3.2
			c-0.4,0-0.7,0.3-0.7,0.7l-1.5,17.3c0,0,0,0,0,0.1c0.1,2.1,1.9,3.7,4,3.6h13.4C68.3,26.9,70.1,25.3,70.3,23.2
			C70.3,23.2,70.3,23.2,70.3,23.2z M59.5,1.5c2.1,0,3.8,1.7,3.8,3.7h-7.6C55.8,3.1,57.5,1.5,59.5,1.5z"/>
	</g>
</g>
</svg>
