<?xml version="1.0" encoding="utf-8"?>
<!-- Generator: Adobe Illustrator 21.1.0, SVG Export Plug-In . SVG Version: 6.00 Build 0)  -->
<svg version="1.1" id="Capa_1" xmlns="http://www.w3.org/2000/svg" xmlns:xlink="http://www.w3.org/1999/xlink" x="0px" y="0px"
	 viewBox="0 0 60 60" style="enable-background:new 0 0 60 60;" xml:space="preserve">
<style type="text/css">
	.st0{fill:#BCBCBC;}
</style>
<g transform="translate(1 1)">
	<g>
		<g>
			<path class="st0" d="M31,38.4h15.8c0.6,0,1-0.4,1-1v-8.9c0-0.6-0.4-1-1-1H31c-0.6,0-1,0.4-1,1v8.9C30,38,30.4,38.4,31,38.4z
				 M32,29.5h13.8v6.9H32V29.5z"/>
			<path class="st0" d="M4.3,25.5h7.9c0.6,0,1-0.4,1-1s-0.4-1-1-1H4.3c-0.6,0-1,0.4-1,1S3.7,25.5,4.3,25.5z"/>
			<path class="st0" d="M16.2,25.5h7.9c0.6,0,1-0.4,1-1s-0.4-1-1-1h-7.9c-0.6,0-1,0.4-1,1S15.6,25.5,16.2,25.5z"/>
			<path class="st0" d="M4.3,29.5h12.8c0.6,0,1-0.4,1-1c0-0.6-0.4-1-1-1H4.3c-0.6,0-1,0.4-1,1C3.3,29.1,3.7,29.5,4.3,29.5z"/>
			<path class="st0" d="M24.1,27.5h-3c-0.6,0-1,0.4-1,1c0,0.6,0.4,1,1,1h3c0.6,0,1-0.4,1-1C25,27.9,24.6,27.5,24.1,27.5z"/>
			<path class="st0" d="M57.7,15.3c-0.7-0.9-1.6-1.4-2.7-1.5l-2.4-0.3v-2.8v-2c0-2.2-1.8-3.9-3.9-3.9H3.3c-2.2,0-3.9,1.8-3.9,3.9v2
				v7.9v21.7c0,1.8,1.2,3.3,2.8,3.8c0,2,1.5,3.7,3.5,3.9l45.6,5.1c0.1,0,0.3,0,0.4,0c2,0,3.7-1.5,3.9-3.4l3-31.7
				C58.7,17.2,58.4,16.1,57.7,15.3z M1.4,11.7h49.3v2.6v3.4H1.4V11.7z M3.3,6.8h45.4c1.1,0,2,0.9,2,2v1H1.4v-1
				C1.4,7.7,2.3,6.8,3.3,6.8z M1.4,40.3V19.6h49.3v20.7c0,1.1-0.9,2-2,2H3.4H3.3C2.3,42.3,1.4,41.4,1.4,40.3z M56.6,17.8l-3,31.7
				c-0.1,1.1-1.1,1.9-2.2,1.8L6,46.1c-1-0.1-1.7-0.9-1.8-1.8h44.5c2.2,0,3.9-1.8,3.9-3.9V18.6v-3.3l2.3,0.2c0.5,0,1,0.3,1.3,0.7
				C56.5,16.7,56.7,17.3,56.6,17.8z"/>
		</g>
	</g>
</g>
</svg>
