<svg xmlns="http://www.w3.org/2000/svg" width="30" height="30" viewBox="0 0 30 30">
  <g id="e-cig-kits" transform="translate(-550 -148)">
    <circle id="Ellipse_86" data-name="Ellipse 86" cx="15" cy="15" r="15" transform="translate(550 148)" fill="#e7e9e7"/>
    <g id="vaper" transform="translate(559.919 153.506)">
      <path id="Path_241" data-name="Path 241" d="M14.43,217.285h5.408v10.1H14.43Zm0,0" transform="translate(-13.887 -208.817)" fill="#ef0027"/>
      <path id="Path_242" data-name="Path 242" d="M14.43,456.4h5.408v.779H14.43Zm0,0" transform="translate(-13.887 -438.616)" fill="#d32f2f"/>
      <path id="Path_243" data-name="Path 243" d="M153.2,217.285h3.028v10.1H153.2Zm0,0" transform="translate(-147.248 -208.817)" fill="#e7e9e7"/>
      <path id="Path_244" data-name="Path 244" d="M154.665,217.285v8.172a1.147,1.147,0,0,1-1.147,1.147H153.2v.779h3.029v-10.1Zm0,0" transform="translate(-147.244 -208.817)" fill="#a7aaaa"/>
      <path id="Path_245" data-name="Path 245" d="M16.772,190.286H8.166A.166.166,0,0,1,8,190.12v-.763a.166.166,0,0,1,.166-.166h8.605a.166.166,0,0,1,.166.166v.763A.166.166,0,0,1,16.772,190.286Zm0,0" transform="translate(-7.708 -181.818)" fill="#e7e9e7"/>
      <path id="Path_246" data-name="Path 246" d="M16.772,477.5H8.166A.166.166,0,0,1,8,477.335v-.763a.166.166,0,0,1,.166-.166h8.605a.166.166,0,0,1,.166.166v.763A.166.166,0,0,1,16.772,477.5Zm0,0" transform="translate(-7.708 -457.84)" fill="#b0bec5"/>
      <path id="Path_247" data-name="Path 247" d="M20.055,79.793h3.173v4.263H20.055Zm0,0" transform="translate(-19.293 -76.683)" fill="#e7e9e7"/>
      <path id="Path_248" data-name="Path 248" d="M21.669,79.793v.58A1.171,1.171,0,0,1,20.5,81.544h-.444v.779h3.173v-2.53Zm0,0" transform="translate(-19.293 -76.683)" fill="#e7e9e7"/>
      <path id="Path_249" data-name="Path 249" d="M49.2,79.793h.9v2.53h-.9Zm0,0" transform="translate(-47.301 -76.683)" fill="#e7e9e7"/>
      <path id="Path_250" data-name="Path 250" d="M20.055,144.715h3.173v1.733H20.055Zm0,0" transform="translate(-19.293 -139.075)" fill="#ef0027"/>
      <path id="Path_251" data-name="Path 251" d="M21.669,144.715v.473a.481.481,0,0,1-.481.481H20.055v.779h3.173v-1.733Zm0,0" transform="translate(-19.293 -139.075)" fill="#d30d2b"/>
      <path id="Path_252" data-name="Path 252" d="M17.9,54.855H14.673a.188.188,0,0,0-.188.188v.6a.188.188,0,0,0,.188.188H17.9a.188.188,0,0,0,.188-.188v-.6A.188.188,0,0,0,17.9,54.855Zm0,0" transform="translate(-13.94 -52.718)" fill="#a7aaaa"/>
      <path id="Path_253" data-name="Path 253" d="M33.306,9.346H30.984V7.662a.161.161,0,0,1,.161-.162h2a.161.161,0,0,1,.161.162Zm0,0" transform="translate(-29.796 -7.208)" fill="#e7e9e7"/>
      <path id="Path_254" data-name="Path 254" d="M33.144,7.5H32.137v.4a.662.662,0,0,1-.662.662h-.491v.779h2.322V7.662a.162.162,0,0,0-.162-.162Zm0,0" transform="translate(-29.796 -7.208)" fill="#a7aaaa"/>
      <path id="Path_255" data-name="Path 255" d="M176.841,261.213a.643.643,0,1,1-.643-.643A.643.643,0,0,1,176.841,261.213Zm0,0" transform="translate(-168.733 -250.415)" fill="#a7aaaa"/>
      <path id="Path_256" data-name="Path 256" d="M177.15,320.374h-.944a.152.152,0,0,1-.152-.152V317.3a.152.152,0,0,1,.152-.152h.944a.152.152,0,0,1,.152.152v2.926A.152.152,0,0,1,177.15,320.374Zm0,0" transform="translate(-169.213 -304.785)" fill="#eceff1"/>
      <path id="Path_257" data-name="Path 257" d="M177.15,317.145h-.433v2.3a.152.152,0,0,1-.152.152h-.511v.628a.152.152,0,0,0,.152.152h.944a.152.152,0,0,0,.152-.152V317.3A.152.152,0,0,0,177.15,317.145Zm0,0" transform="translate(-169.213 -304.785)" fill="#e7e9e7"/>
      <path id="Path_258" data-name="Path 258" d="M48.242,287.591l-.453,1.269a.32.32,0,0,0,.571.28l1.6-2.508a.178.178,0,0,0-.15-.274h-.626a.178.178,0,0,1-.168-.238l.521-1.459a.178.178,0,0,0-.168-.238H48.3a.178.178,0,0,0-.168.118l-.919,2.574a.178.178,0,0,0,.168.238h.7a.178.178,0,0,1,.168.238Zm0,0" transform="translate(-45.379 -273.338)" fill="#ffee58"/>
      <path id="Path_259" data-name="Path 259" d="M174.355,420.937a.292.292,0,1,1-.292-.292A.292.292,0,0,1,174.355,420.937Zm0,0" transform="translate(-167.017 -404.252)" fill="#1f283b"/>
      <path id="Path_260" data-name="Path 260" d="M195.925,420.937a.292.292,0,1,1-.292-.292A.292.292,0,0,1,195.925,420.937Zm0,0" transform="translate(-187.747 -404.252)" fill="#1f283b"/>
      <path id="Path_261" data-name="Path 261" d="M9.563,7.08H8.341a.292.292,0,0,0,0,.585h1.1v.51H1.084v-.51H6.977a.292.292,0,0,0,0-.585H4.727V5.93a.292.292,0,0,0,0-.582V3.322a.48.48,0,0,0,.217-.4v-.6a.481.481,0,0,0-.48-.48H4.3V.453A.454.454,0,0,0,3.847,0h-2a.454.454,0,0,0-.454.454V1.845H1.232a.481.481,0,0,0-.48.48v.6a.48.48,0,0,0,.217.4V5.348a.292.292,0,0,0,0,.582V7.08a.459.459,0,0,0-.47.458V8.3a.458.458,0,0,0,.251.408V9.954a.292.292,0,1,0,.585,0V8.76H6.158v9.514H1.334V11.318a.292.292,0,0,0-.585,0v7.006a.459.459,0,0,0-.251.408v.763a.459.459,0,0,0,.458.458H9.563a.459.459,0,0,0,.458-.458v-.763a.458.458,0,0,0-.251-.408V8.709a.458.458,0,0,0,.251-.408V7.539a.459.459,0,0,0-.458-.458ZM1.554,5.347V3.4H2.1V5.347ZM2.689,3.4h.317V5.347H2.689Zm.9,0h.551V5.347H3.591ZM1.98.584H3.717V1.845H1.98ZM1.337,2.43H4.36v.387H1.337Zm.217,3.5H4.142V7.08H1.554ZM6.742,8.76H9.186v9.514H6.742ZM9.437,19.368H1.084v-.51H9.437Zm0,0" transform="translate(-0.499 0)" fill="#1f283b"/>
      <path id="Path_262" data-name="Path 262" d="M168.99,253.07a.935.935,0,1,0,.935.935A.936.936,0,0,0,168.99,253.07Zm0,1.286a.351.351,0,1,1,.351-.351A.351.351,0,0,1,168.99,254.356Zm0,0" transform="translate(-161.525 -243.208)" fill="#1f283b"/>
      <path id="Path_263" data-name="Path 263" d="M169.942,309.645H169a.444.444,0,0,0-.444.444v2.926a.444.444,0,0,0,.444.444h.944a.444.444,0,0,0,.444-.444v-.675a.292.292,0,0,0-.585,0v.534h-.663v-2.644h.663v.746a.292.292,0,0,0,.585,0v-.887A.444.444,0,0,0,169.942,309.645Zm0,0" transform="translate(-162.005 -297.578)" fill="#1f283b"/>
      <path id="Path_264" data-name="Path 264" d="M42.153,276.922h-1.07a.471.471,0,0,0-.443.312l-.919,2.574a.471.471,0,0,0,.443.629H40.7l-.4,1.117a.612.612,0,0,0,1.093.535l1.6-2.508a.471.471,0,0,0-.4-.723h-.463l.467-1.306a.471.471,0,0,0-.443-.629Zm.232,2.52c-1.589,2.5-1.485,2.346-1.509,2.346a.028.028,0,0,1-.026-.037l.453-1.269a.471.471,0,0,0-.443-.629h-.535l.838-2.346h.828l-.467,1.307a.471.471,0,0,0,.443.629Zm0,0" transform="translate(-38.165 -266.13)" fill="#1f283b"/>
    </g>
  </g>
</svg>
