<svg xmlns="http://www.w3.org/2000/svg" width="22.602" height="22.433" viewBox="0 0 22.602 22.433"><defs><style>.a{fill:#efefef;}.b{fill:#a4afc1;}.c{fill:#f3f3f1;}.d{fill:#d5dbe1;}.e{fill:#e1001e;}.f{fill:#b40f2f;}.g{fill:#00b871;}.h{fill:#1f283b;}</style></defs><g transform="translate(0 0)"><g transform="translate(0 0)"><path class="a" d="M2.422,15.7c3.925,2.158,5.5,5.673,7.393,6.713s6.461,2.136,11.245-6.564S21.2,2.937,19.122,1.793C9.382-3.562-4.529,11.881,2.422,15.7Z" transform="translate(-0.547 -0.677)"/></g><g transform="translate(4.159 2.745)"><path class="b" d="M0,0H1.3V.648H0Z" transform="translate(0 0.916) rotate(-45)"/></g><g transform="translate(1.526 5.377)"><path class="b" d="M0,0H1.3V.648H0Z" transform="translate(0 0.916) rotate(-45)"/></g><g transform="translate(1.527 2.631)"><path class="b" d="M0,0H.648V1.3H0Z" transform="translate(0 0.458) rotate(-45)"/></g><g transform="translate(18.999 3.123)"><path class="b" d="M30.86,7.443a.971.971,0,1,1,.971-.971A.972.972,0,0,1,30.86,7.443Zm0-1.3a.324.324,0,1,0,.324.324A.324.324,0,0,0,30.86,6.148Z" transform="translate(-29.889 -5.5)"/></g><g transform="translate(10.222 10.499)"><path class="c" d="M19.967,16.892,23.4,22.984l-2.36-.182-1.036,2.091L17.39,20.251l-1.056-1.864Z" transform="translate(-16.334 -16.892)"/></g><g transform="translate(5.311 10.478)"><path class="c" d="M12.147,16.859,8.75,22.97l2.321-.179,1.03,2.091,2.616-4.643Z" transform="translate(-8.75 -16.859)"/></g><g transform="translate(10.127 10.919)"><path class="d" d="M18.633,20.48l-1.151-2.031L20.3,17.8l-.148-.262-3.965.908,1.151,2.031,2.616,4.643L20.56,23.9Z" transform="translate(-16.187 -17.541)"/></g><g transform="translate(5.311 10.913)"><path class="d" d="M12.723,18.389l-.818-.857L8.75,23.207l1.353-.1Z" transform="translate(-8.75 -17.532)"/></g><g transform="translate(7.254 3.932)"><path class="e" d="M16.12,7.143l.708-.322a.779.779,0,0,1,1.052.436l.273.728a.78.78,0,0,0,.456.456l.728.273a.779.779,0,0,1,.436,1.052l-.322.708a.778.778,0,0,0,0,.645l.322.708a.779.779,0,0,1-.436,1.052l-.728.273a.78.78,0,0,0-.456.456l-.273.728a.779.779,0,0,1-1.052.436l-.708-.322a.778.778,0,0,0-.645,0l-.708.322a.779.779,0,0,1-1.052-.436l-.273-.728a.78.78,0,0,0-.456-.456l-.728-.273a.779.779,0,0,1-.436-1.052l.322-.708a.778.778,0,0,0,0-.645l-.322-.708a.779.779,0,0,1,.436-1.052l.728-.273a.78.78,0,0,0,.456-.456l.273-.728a.779.779,0,0,1,1.052-.436l.708.322a.778.778,0,0,0,.645,0Z" transform="translate(-11.75 -6.75)"/></g><g transform="translate(9.196 5.875)"><circle class="c" cx="2.104" cy="2.104" r="2.104"/></g><g transform="translate(9.196 5.875)"><path class="d" d="M16.661,13.343a2.1,2.1,0,0,1,0-2.976,2.076,2.076,0,0,1,.839-.5,2.055,2.055,0,0,0-.646-.112,2.1,2.1,0,1,0,.646,4.1,2.087,2.087,0,0,1-.839-.505Z" transform="translate(-14.75 -9.751)"/></g><g transform="translate(7.254 3.933)"><path class="f" d="M15.009,14.339l-.273-.728a.78.78,0,0,0-.456-.456l-.728-.273a.779.779,0,0,1-.436-1.052l.322-.708a.778.778,0,0,0,0-.645l-.322-.708a.779.779,0,0,1,.436-1.052l.728-.273a.778.778,0,0,0,.456-.456l.273-.728a.772.772,0,0,1,.161-.253l-.4-.183a.779.779,0,0,0-1.052.436l-.273.728a.778.778,0,0,1-.456.456l-.728.273a.779.779,0,0,0-.436,1.052l.322.708a.778.778,0,0,1,0,.645l-.322.708a.779.779,0,0,0,.436,1.052l.728.273a.778.778,0,0,1,.456.456l.273.728a.779.779,0,0,0,1.052.436l.4-.183a.762.762,0,0,1-.161-.253Z" transform="translate(-11.75 -6.752)"/></g><g transform="translate(11.948 3.933)"><path class="g" d="M19.325,7.143a.778.778,0,0,0,.645,0l.3-.139a.775.775,0,0,0-.892-.183L19,7Z" transform="translate(-19 -6.752)"/></g><g transform="translate(11.948 11.564)"><path class="g" d="M19.97,18.607a.778.778,0,0,0-.645,0L19,18.755l.383.174a.776.776,0,0,0,.892-.183Z" transform="translate(-19 -18.537)"/></g><g transform="translate(4.825 10.242)"><path class="h" d="M11.836,25.24h-.014a.484.484,0,0,1-.422-.271l-.885-1.8-1.994.153a.478.478,0,0,1-.446-.222.486.486,0,0,1-.016-.5l3.4-6.111.85.472L9.349,22.289l1.421-.109a.481.481,0,0,1,.473.27l.623,1.265,2.164-3.84.846.477L12.26,24.994A.489.489,0,0,1,11.836,25.24Z" transform="translate(-8 -16.495)"/></g><g transform="translate(9.8 10.259)"><path class="h" d="M19.776,25.249A.484.484,0,0,1,19.353,25L15.682,18.5l.845-.479,3.222,5.707.629-1.268a.472.472,0,0,1,.472-.269L22.3,22.3,19.314,17l.846-.477L23.6,22.614a.485.485,0,0,1-.014.5.477.477,0,0,1-.447.223L21.1,23.18l-.89,1.8a.486.486,0,0,1-.422.27h-.014Z" transform="translate(-15.682 -16.522)"/></g><g transform="translate(8.711 5.389)"><path class="h" d="M16.59,14.18a2.59,2.59,0,1,1,2.59-2.59A2.593,2.593,0,0,1,16.59,14.18Zm0-4.209a1.619,1.619,0,1,0,1.619,1.619A1.621,1.621,0,0,0,16.59,9.971Z" transform="translate(-14 -9)"/></g><g transform="translate(6.768 3.447)"><path class="h" d="M14.179,15.065a1.264,1.264,0,0,1-1.185-.82l-.273-.728a.294.294,0,0,0-.172-.172l-.728-.273a1.266,1.266,0,0,1-.708-1.709l.321-.708a.289.289,0,0,0,0-.243L11.112,9.7A1.266,1.266,0,0,1,11.819,8l.728-.273a.294.294,0,0,0,.172-.172l.273-.728A1.266,1.266,0,0,1,14.7,6.114l.708.322a.294.294,0,0,0,.243,0l.708-.322a1.266,1.266,0,0,1,1.709.708l.273.728a.294.294,0,0,0,.172.172L19.244,8A1.266,1.266,0,0,1,19.951,9.7l-.321.708a.289.289,0,0,0,0,.243l.322.708a1.266,1.266,0,0,1-.708,1.708l-.728.273a.294.294,0,0,0-.172.172l-.273.728a1.266,1.266,0,0,1-1.709.708l-.708-.321a.292.292,0,0,0-.243,0l-.708.322a1.3,1.3,0,0,1-.524.112Zm0-8.094a.3.3,0,0,0-.113.023.29.29,0,0,0-.163.168l-.273.728a1.264,1.264,0,0,1-.741.74l-.728.273A.294.294,0,0,0,12,9.3l.322.708a1.268,1.268,0,0,1,0,1.047L12,11.764a.294.294,0,0,0,.164.4l.728.273a1.264,1.264,0,0,1,.74.741l.273.728a.294.294,0,0,0,.4.164l.708-.322a1.265,1.265,0,0,1,1.047,0l.708.321a.284.284,0,0,0,.234,0,.29.29,0,0,0,.163-.168l.273-.728a1.264,1.264,0,0,1,.741-.74l.728-.273a.294.294,0,0,0,.164-.4l-.322-.708a1.268,1.268,0,0,1,0-1.047l.321-.708a.294.294,0,0,0-.164-.4l-.728-.273a1.264,1.264,0,0,1-.74-.741l-.273-.728A.292.292,0,0,0,17,6.994a.3.3,0,0,0-.234,0l-.708.322a1.271,1.271,0,0,1-1.046,0L14.3,7a.315.315,0,0,0-.121-.025Z" transform="translate(-10.999 -6.001)"/></g></g></svg>