<svg xmlns="http://www.w3.org/2000/svg" width="57.33" height="53.803" viewBox="0 0 57.33 53.803"><defs><style>.a{fill:#fff;stroke:#fff;}.a,.b{stroke-width:0.8px;}.b{fill:#a6ce39;stroke:#a6ce39;}</style></defs><g transform="translate(0.4 -15.606)"><path class="a" d="M300.313,61.85A2.573,2.573,0,0,0,298.6,59.9l-3.421-1.157a2.6,2.6,0,0,0-3.273,3.354l1.157,3.164a2.6,2.6,0,0,0,4.164,1.052l2.264-2.006a2.572,2.572,0,0,0,.823-2.459Zm-1.922,1.22-2.264,2.006a.942.942,0,0,1-1.51-.381l-1.157-3.164a.945.945,0,0,1,.876-1.268.969.969,0,0,1,.311.052l3.421,1.158a.942.942,0,0,1,.323,1.6Z" transform="translate(-259.533 -37.889)"/><path class="b" d="M41.48,16.078a16.373,16.373,0,0,0-13.214,4.881,16.374,16.374,0,0,0-13.215-4.881A16.743,16.743,0,0,0,0,32.793,28.954,28.954,0,0,0,4.386,47.671a50.17,50.17,0,0,0,9.558,11.347,73.475,73.475,0,0,0,13.934,9.895.828.828,0,0,0,.767,0,72.972,72.972,0,0,0,13.894-9.855A50.256,50.256,0,0,0,52.126,47.7a28.968,28.968,0,0,0,4.4-14.908A16.743,16.743,0,0,0,41.48,16.078Zm9.874,6.993a15.289,15.289,0,0,1,3.452,8.286L48.121,31a2.591,2.591,0,0,0-2.22,1.041l-.7.939A1.653,1.653,0,0,1,42.375,31.3l1.13-2.439a1.434,1.434,0,0,1,1.9-.7.828.828,0,0,0,1.027-.282l1.825-2.641a4.5,4.5,0,0,1,1.683-1.461ZM5.563,22.62a14.579,14.579,0,0,1,9.63-4.892q.662-.057,1.317-.057l.133,0-.849,2.206a3.483,3.483,0,0,0,2.346,4.616l1.773.477a.828.828,0,0,0,.868-.291l1.249-1.6a.057.057,0,0,1,.086,0l2.786,2.92a1.836,1.836,0,0,1,.186,2.293L22.2,32.5a4.491,4.491,0,0,1-3.091,1.909l-3.7.507a1.713,1.713,0,0,0-1.433,2.1l.449,1.85-1.594.1a3.583,3.583,0,0,1-3.32-1.756L3.085,26.375A15.476,15.476,0,0,1,5.563,22.62Zm.246,24.2A27.326,27.326,0,0,1,1.656,32.793a15.123,15.123,0,0,1,.67-4.45l5.758,9.716a5.231,5.231,0,0,0,4.848,2.565l5.333-.334a2.7,2.7,0,0,1,1.653.438L10.909,44a2.6,2.6,0,0,0-.681,4.515l3.456,2.615.283,5.653a47.232,47.232,0,0,1-8.158-9.956Zm44.905.012a43.1,43.1,0,0,1-4.846,6.538l-.748-3.439a1.711,1.711,0,0,0-1.2-1.283l-1.435-.41a4.512,4.512,0,0,1,1.661-8.83.828.828,0,0,0,.155-1.649,6.168,6.168,0,0,0-2.27,12.072l1.435.41a.057.057,0,0,1,.04.043l.994,4.572q-1.429,1.489-3.04,2.948a73.835,73.835,0,0,1-13.193,9.435A72.8,72.8,0,0,1,15.7,58.369l-.386-7.712a.828.828,0,0,0-.327-.619l-3.765-2.848a.942.942,0,0,1,.247-1.637l9.954-3.612,4.889,4a1.827,1.827,0,0,1,.021,2.812l-4.177,3.519a2.592,2.592,0,0,0-.814,1.237l-1.568,5.2a.828.828,0,1,0,1.586.478l1.568-5.2a.94.94,0,0,1,.3-.448l4.177-3.519a3.483,3.483,0,0,0-.039-5.36L21.2,39.616a4.354,4.354,0,0,0-3.039-.978l-2.06.129-.518-2.136a.057.057,0,0,1,.048-.07l3.7-.507a6.15,6.15,0,0,0,4.234-2.615l2.886-4.217A3.5,3.5,0,0,0,26.1,24.85l-2.786-2.92a1.713,1.713,0,0,0-2.591.13l-.911,1.169L18.57,22.9a1.827,1.827,0,0,1-1.231-2.421l1.034-2.686a14.736,14.736,0,0,1,9.27,4.935.828.828,0,0,0,1.243,0,14.748,14.748,0,0,1,12.451-4.995A14.5,14.5,0,0,1,50.183,21.8L49.2,22.3a6.157,6.157,0,0,0-2.3,2l-1.478,2.138A3.1,3.1,0,0,0,42,28.165L40.873,30.6a3.309,3.309,0,0,0,5.656,3.37l.7-.939a.941.941,0,0,1,.805-.378l6.838.362a24.461,24.461,0,0,1-.731,5.665l-6.464-.606a.828.828,0,0,0-.155,1.649l6.163.578A31.1,31.1,0,0,1,50.714,46.835Z" transform="translate(0 0)"/></g></svg>