<svg xmlns="http://www.w3.org/2000/svg" width="53.65" height="53.65" viewBox="0 0 53.65 53.65"><defs><style>.a{fill:#fff;}.b{fill:#a6ce39;}</style></defs><path class="a" d="M26.825,0A26.825,26.825,0,1,0,53.65,26.825,26.825,26.825,0,0,0,26.825,0Zm0,51.862A25.037,25.037,0,1,1,51.862,26.825,25.037,25.037,0,0,1,26.825,51.862Z"/><path class="b" d="M42.638,10.2a.894.894,0,0,0-.313-.645A23.248,23.248,0,0,0,9.554,42.325a.894.894,0,0,0,.646.313h.035a.894.894,0,0,0,.632-.262L42.377,10.865a.894.894,0,0,0,.261-.667ZM15.626,32.454v-.133a18.522,18.522,0,0,1,.683-4.7,20,20,0,0,1,1.857-4.494c.179-.325.376-.638.572-.942a9.05,9.05,0,0,0-.43,2.64,5.15,5.15,0,0,0,2.8,4.781L15.84,34.874a13.692,13.692,0,0,1-.215-2.42Zm6.81-4.176A3.447,3.447,0,0,1,20.1,24.827c0-3.507,3.141-8.022,6.8-8.291a5.016,5.016,0,0,1,.686,0H27.6a6.513,6.513,0,0,1,4.258,2.319Zm5.286-13.527a7.221,7.221,0,0,0-.923,0h-.026a.083.083,0,0,0-.036.005,9.177,9.177,0,0,0-2.944.672c.529-3.373,2.683-3.38,3.456-3.38s2.926.007,3.456,3.38A9.115,9.115,0,0,0,27.722,14.751ZM33.6,17.118c-.33-.258-.663-.494-1-.709-.192-3.967-2.074-6.148-5.348-6.148S22.1,12.438,21.906,16.4a13.316,13.316,0,0,0-1.664,1.265A2.414,2.414,0,0,1,19.2,15.626a.894.894,0,0,0-1.788,0,4.2,4.2,0,0,0,1.556,3.308,18.387,18.387,0,0,0-2.012,2.742,3.059,3.059,0,0,1-2.272-1.86.895.895,0,0,0-1.7.563,4.639,4.639,0,0,0,3.086,2.885,21.892,21.892,0,0,0-1.284,3.219A3.547,3.547,0,0,1,11.9,24.971a.894.894,0,1,0-1.49.989,5.227,5.227,0,0,0,3.913,2.274,20.119,20.119,0,0,0-.455,3.463,5.866,5.866,0,0,1-3.389.047.894.894,0,1,0-.431,1.735,8.852,8.852,0,0,0,2.146.276,7.064,7.064,0,0,0,1.682-.2,13.965,13.965,0,0,0,.471,2.8L10.3,40.412A21.46,21.46,0,0,1,40.412,10.3Z" transform="translate(-0.425 -0.425)"/><path class="b" d="M44.563,13.052,27.386,30.229,13.052,44.563a.894.894,0,0,0,.052,1.313A23.248,23.248,0,0,0,45.875,13.1a.894.894,0,0,0-.646-.313.873.873,0,0,0-.667.261Zm-7.3,11.006A20,20,0,0,1,39.12,28.55a18.535,18.535,0,0,1,.683,4.69v.143c0,8.03-6.005,10.891-11.624,10.891-3.756,0-6.885-1.2-8.935-3.375l9.15-9.15c7.2-.065,8.726-3.284,8.726-5.994a9.016,9.016,0,0,0-.35-2.383l.053-.053c.146.235.292.477.439.739Zm-2,.822a6.5,6.5,0,0,1,.069.875c0,.926-.013,3.529-5.04,4.1Zm14.376,3.3A21.46,21.46,0,0,1,15.016,45.127l2.963-2.963c2.389,2.514,5.959,3.9,10.2,3.9,7.749,0,12.876-4.507,13.364-11.573a7.072,7.072,0,0,0,1.691.2,8.852,8.852,0,0,0,2.146-.276.894.894,0,1,0-.431-1.735,5.863,5.863,0,0,1-3.388-.047,20.264,20.264,0,0,0-.456-3.463,5.224,5.224,0,0,0,3.91-2.281.894.894,0,0,0-1.49-.989,3.554,3.554,0,0,1-2.891,1.514,21.864,21.864,0,0,0-1.267-3.182,6.07,6.07,0,0,0,3.923-2.8.895.895,0,0,0-1.6-.8c-.589,1.179-2.159,1.736-3.2,1.985-.121-.2-.243-.4-.366-.583l7.011-7.011a21.453,21.453,0,0,1,4.508,13.162Z" transform="translate(-1.354 -1.354)"/></svg>