<svg xmlns="http://www.w3.org/2000/svg" width="53.053" height="52.994" viewBox="0 0 53.053 52.994"><defs><style>.a{fill:#fff;}.b{fill:#a6ce39;}</style></defs><path class="a" d="M50.023,23.737a2.661,2.661,0,0,0-.512-3.027,2.732,2.732,0,0,0-3.771,0l-.628.628-.889-.889,1.422-1.422a2.765,2.765,0,0,1,2.415-.724,8.066,8.066,0,0,0,6.85-2.256,7.977,7.977,0,0,0,1.711-8.779.889.889,0,0,0-1.447-.283l-4.331,4.327-2.094-.419-.42-2.1L52.657,4.47a.889.889,0,0,0-.283-1.45,8,8,0,0,0-11.036,8.564A2.776,2.776,0,0,1,40.614,14l-1.422,1.422L33.269,9.5l-1.2-2.387a.889.889,0,0,0-.363-.38L26.058,3.595A.889.889,0,0,0,25,3.743L23.744,5a.889.889,0,0,0-.148,1.06l3.138,5.654a.889.889,0,0,0,.379.364l2.388,1.2,5.921,5.922L34,20.615a2.765,2.765,0,0,1-2.415.724,8.006,8.006,0,0,0-8.562,11.035.889.889,0,0,0,1.447.283L28.8,28.329l2.094.419.419,2.1-4.327,4.328a.889.889,0,0,0,.283,1.447A8,8,0,0,0,38.3,28.054a2.776,2.776,0,0,1,.724-2.413l1.422-1.422.889.889-.627.63a2.66,2.66,0,0,0,3.029,4.286l5.25,5.251a4.445,4.445,0,0,0,6.286-6.286ZM30.654,11.91a.88.88,0,0,0-.229-.166L28.155,10.6l-2.68-4.829.3-.3L30.6,8.154l1.139,2.269a.864.864,0,0,0,.166.23l6.023,6.024-1.259,1.258Zm7.123,12.474a4.533,4.533,0,0,0-1.226,3.934A6.227,6.227,0,0,1,29.3,35.377l3.614-3.613a.889.889,0,0,0,.243-.8l-.633-3.142a.889.889,0,0,0-.7-.7l-3.142-.628a.889.889,0,0,0-.8.243l-3.613,3.613A6.228,6.228,0,0,1,31.322,23.1a4.593,4.593,0,0,0,3.936-1.225l6.613-6.612A4.534,4.534,0,0,0,43.1,11.324,6.227,6.227,0,0,1,50.35,4.265L46.736,7.878a.889.889,0,0,0-.243.8l.628,3.142a.889.889,0,0,0,.7.7l3.142.628a.889.889,0,0,0,.8-.243l3.617-3.61a6.228,6.228,0,0,1-7.056,7.254,4.59,4.59,0,0,0-3.936,1.229Zm5.193-2.677.889.889L42.6,23.853l-.889-.889Zm-1,6.546a.889.889,0,0,1,0-1.257L47,21.967a.889.889,0,0,1,1.257,1.258l-5.03,5.029a.909.909,0,0,1-1.26,0Zm12.051,5.766a2.671,2.671,0,0,1-3.772,0l-5.137-5.137,3.772-3.771,5.137,5.136a2.667,2.667,0,0,1,0,3.772Z" transform="translate(-4.265 -2.384)"/><path class="b" d="M54.578,44.578a3.551,3.551,0,0,0-4.852-1.306l-8.668,5a3.524,3.524,0,0,0-2.008-1.448L25.788,43.272a6.222,6.222,0,0,0-3.12-.027L18,44.417V42.889A.889.889,0,0,0,17.112,42H10a.889.889,0,0,0-.889.889v.889H2.889A.889.889,0,0,0,2,44.667V57.112A.889.889,0,0,0,2.889,58H9.111v.889a.889.889,0,0,0,.889.889h7.111A.889.889,0,0,0,18,58.89V57.661l1.143.572a6.246,6.246,0,0,0,2.782.657H35.24a6.232,6.232,0,0,0,3.111-.834l14.934-8.623a3.565,3.565,0,0,0,1.293-4.855ZM3.778,56.223V45.556H9.111V56.223ZM16.223,58H10.889V43.778h5.334Zm36.17-10.1L37.459,56.52a4.444,4.444,0,0,1-2.222.6H21.926a4.469,4.469,0,0,1-1.987-.469L18,55.673V46.251l5.1-1.275a4.467,4.467,0,0,1,2.229.019L38.59,48.55a1.778,1.778,0,1,1-.92,3.434l-10.6-2.843a.889.889,0,1,0-.46,1.717l10.6,2.845a3.594,3.594,0,0,0,.926.123,3.513,3.513,0,0,0,3.525-3.837l8.953-5.169a1.809,1.809,0,0,1,2.423.651A1.785,1.785,0,0,1,52.393,47.9Z" transform="translate(-2 -6.785)"/></svg>