<svg xmlns="http://www.w3.org/2000/svg" width="21.488" height="20.144" viewBox="0 0 21.488 20.144"><defs><style>.a{fill:#d2d2d2;}.b{fill:#e2e0e0;}.c{fill:#e4032f;}</style></defs><path class="a" d="M226.073,39.368V49.525a1.259,1.259,0,0,1-1.259,1.259h-.565a1.249,1.249,0,0,0,.146-.588V40.039l-6.673-6.673A2.426,2.426,0,0,0,216,32.653a2.434,2.434,0,0,1,3.4.042Z" transform="translate(-206.935 -31.312)"/><path class="b" d="M249.106,305.41v5.96h-1.679v-5.96A1.427,1.427,0,0,0,246,303.983h1.679A1.427,1.427,0,0,1,249.106,305.41Z" transform="translate(-235.676 -291.897)"/><path class="c" d="M21.292,25.277,12.94,16.925a3.109,3.109,0,0,0-4.392,0L.2,25.277a.671.671,0,1,0,.95.95l.532-.532V34.23A1.933,1.933,0,0,0,3.61,36.161h14.27A1.933,1.933,0,0,0,19.81,34.23V25.694l.532.532a.671.671,0,0,0,.95-.95ZM8.73,34.818V29.53a.756.756,0,0,1,.755-.755H12a.756.756,0,0,1,.755.755v5.288Zm9.737-.588a.588.588,0,0,1-.588.588H14.1V29.53a2.1,2.1,0,0,0-2.1-2.1H9.485a2.1,2.1,0,0,0-2.1,2.1v5.288H3.61a.588.588,0,0,1-.588-.588V24.351L9.5,17.875a1.765,1.765,0,0,1,2.493,0l6.476,6.476Z" transform="translate(0 -16.017)"/></svg>