<svg xmlns="http://www.w3.org/2000/svg" width="13.34" height="20.518" viewBox="0 0 13.34 20.518"><defs><style>.a{fill:#e4032f;}</style></defs><path class="a" d="M36.213,9.25H24.129a.629.629,0,0,0-.629.629V29.138a.629.629,0,0,0,1.045.473l5.742-5.053,5.5,5.035a.632.632,0,0,0,.425.166.649.649,0,0,0,.252-.053.632.632,0,0,0,.375-.576V9.879a.629.629,0,0,0-.627-.629Zm-.629,1.259v2.014H24.759V10.509ZM30.723,23.25a.632.632,0,0,0-.841,0l-5.123,4.5V13.781H35.584V27.708Z" transform="translate(-23.5 -9.25)"/></svg>