<svg xmlns="http://www.w3.org/2000/svg" width="16.942" height="21.167" viewBox="0 0 16.942 21.167"><defs><style>.a{fill:#e4032f;}</style></defs><g transform="translate(-26.695 -8.762)"><path class="a" d="M65.738,18.3,64.526,4.649a.583.583,0,0,0-.58-.532H61.453a4.182,4.182,0,0,0-8.363,0H50.6a.58.58,0,0,0-.58.532L48.8,18.3c0,.017,0,.035,0,.052a3.016,3.016,0,0,0,3.177,2.818H62.565a3.016,3.016,0,0,0,3.177-2.818A.211.211,0,0,0,65.738,18.3ZM57.271,1.169a3.016,3.016,0,0,1,3.013,2.948H54.258A3.016,3.016,0,0,1,57.271,1.169ZM62.565,20H51.977a1.865,1.865,0,0,1-2.008-1.623L51.129,5.29h1.957V7.064a.584.584,0,1,0,1.169,0V5.29h6.03V7.064a.584.584,0,0,0,1.169,0V5.29h1.957l1.164,13.085A1.868,1.868,0,0,1,62.565,20Z" transform="translate(-22.105 8.762)"/></g></svg>