<?xml version="1.0" encoding="utf-8"?>
<!-- Generator: Adobe Illustrator 22.0.1, SVG Export Plug-In . SVG Version: 6.00 Build 0)  -->
<svg version="1.1" id="Layer_1" xmlns="http://www.w3.org/2000/svg" xmlns:xlink="http://www.w3.org/1999/xlink" x="0px" y="0px"
	 viewBox="0 0 50 50" style="enable-background:new 0 0 50 50;" xml:space="preserve">
<style type="text/css">
	.st0{fill:#FFFFFF;}
</style>
<g>
	<path class="st0" d="M29.4,5.6c0.3,0,0.6-0.2,0.6-0.6c0-0.3-0.3-0.6-0.6-0.6c-0.3,0-0.5,0.2-0.6,0.5c0,0,0,0,0,0
		C28.8,5.4,29,5.6,29.4,5.6C29.3,5.6,29.3,5.6,29.4,5.6z"/>
	<path class="st0" d="M21.7,4.7c0.3,0,0.5-0.2,0.5-0.5c0-0.3-0.2-0.5-0.4-0.5c0,0,0,0,0,0c-0.3,0-0.5,0.2-0.5,0.4c0,0,0,0,0,0
		C21.3,4.4,21.5,4.7,21.7,4.7z"/>
	<path class="st0" d="M16,16.4l-0.2-0.2c0.7-0.6,1.2-1.3,1.5-2.1c0-0.2,0.2-0.4,0.4-0.4c0.2,0,0.4,0.2,0.4,0.4c0,0,0,0.1,0,0.1
		C17.7,14.8,16.9,15.7,16,16.4z"/>
	<path class="st0" d="M11.1,4.9C10,5.4,9.8,6.6,10.6,7.3c0.6,0.6,1.6,0.5,2.2-0.1c0.3-0.3,0.4-0.7,0.4-1.1c1.1,0,2-0.9,2-2
		c0-0.1,0-0.2,0-0.3c0.5-0.5,0.6-1.3,0.1-1.9c-0.1-0.1-0.1-0.1-0.2-0.2c-0.8-0.5-1.5-0.3-2,0.6C11.9,2.3,10.7,3.2,11.1,4.9l-0.6-0.2
		c-0.5-0.9-0.2-2.1,0.8-2.7c0.4-0.2,0.9-0.3,1.4-0.2c0.5-1,1.7-1.4,2.6-1c0.1,0,0.2,0.1,0.2,0.1c0.9,0.6,1.1,1.7,0.6,2.6
		C16.1,3.7,16,3.9,15.8,4c0.5,1.5-0.6,2.8-2.1,2.6c-0.2,2-2,2.2-3.2,1.3C9.9,7.5,9.5,6.8,9.4,6.1C9.2,5.5,9.2,5,8.7,4.4
		C8.3,4.1,7.9,4,7.4,4c0.1-1.2-0.9-2.2-2.1-2.2c-0.3,0-0.6,0-0.9,0.2C4,1.4,3.2,1.4,2.8,1.8c0,0-0.1,0.1-0.1,0.1
		C2.2,2.5,2.3,3.2,2.8,3.6C2.9,3.6,3,3.7,3.1,3.7C3,5,4,5.8,5.5,5.7C5.6,6.5,6.2,7,7,7.1l0,0.4C6.3,7.4,5.7,7.7,5.4,8.3
		C3.7,8.2,2.5,9,2.5,10.2c-0.7,0.1-1.2,0.7-1.1,1.4c0,0.3,0.2,0.6,0.4,0.8c0.5,0.5,1.2,0.5,1.7,0c0.1-0.1,0.2-0.3,0.3-0.4
		c1,0.2,2.1-0.4,2.3-1.4c0-0.1,0-0.1,0-0.2c1.1,0,1.6-0.5,1.8-1.5l0.4,0C8.5,10,7.9,11,6.6,10.9c0,1-0.8,1.8-1.8,1.8
		c-0.2,0-0.5-0.1-0.7-0.1c-0.4,0.9-1.4,1.3-2.3,0.9c-0.2-0.1-0.4-0.3-0.6-0.4c-0.8-0.7-0.8-1.8-0.1-2.6c0.2-0.3,0.5-0.4,0.9-0.5
		c0-1.3,1-2.5,2.8-2.1c0.1-0.3,0.5-0.6,0.8-0.6C5.2,7.1,4.9,6.7,4.8,6.4c-1,0.2-2.1-0.4-2.3-1.5c-0.1-0.3-0.1-0.6,0-0.8
		C1.2,3.4,1.2,2.1,1.8,1.4c0.6-0.8,1.8-0.9,2.6-0.3c0.1,0,0.1,0.1,0.2,0.1C5.6,0.6,7,0.9,7.7,2C7.9,2.4,8,2.9,8,3.4
		C8.9,3.3,9.7,4,9.8,4.9c0,0.2,0,0.3,0,0.5c0.1-0.4,0.5-0.7,0.9-0.8L11.1,4.9L11.1,4.9z"/>
	<path class="st0" d="M14,2.6l0.3,0.2C13.7,3.9,12.9,5,12,5.8l-0.3-0.3C12.3,4.5,13.1,3.5,14,2.6L14,2.6z"/>
	<path class="st0" d="M5.9,8.9L6,9.2c-0.8,0.8-1.7,1.4-2.6,2l-0.2-0.3C3.9,10,4.9,9.4,5.9,8.9z"/>
	<path class="st0" d="M7.5,5.5L7.2,5.9C6.1,5.1,5,4.2,4.1,3.1l0.3-0.3C5.6,3.6,6.6,4.5,7.5,5.5z"/>
	<path class="st0" d="M5.9,20.6c0.1,0.5,0,1.1,0.5,1.7c0.5,0.7,1.1,1.4,1.7,2c-0.9,0.4-2.7,1.1-4,1.3c-0.3,0.1-0.6,0.2-0.8,0.4
		c-0.2,0.4-0.3,0.8-0.4,1.3c0,0.4,0,0.8,0,1.3c0.1,0.9,0.3,1.7,0.6,2.5c0.3,0.6,0.8,1.2,1.4,1.5c0.2-0.1,0.5-0.1,0.7-0.1
		c0.8,0,1.5,0.3,2.1,0.9c0.1,0.2,0.4,0.2,0.7,0.2c0.8,0,1.7-0.2,2.4-0.6c0.2-0.1,0.7-0.5,1.1-0.8c0.5-0.4,3.2-2.7,4.4-3.2
		c0.8,0.5,1.8,0.7,2.7,0.8c0.2,0,0.3,0,0.5,0c0.3-0.1,0.8-0.2,1.3-0.3c0.8-0.2,1.6-0.3,2.4-0.4c0.9,0,3.4,0.1,4.1,0.1
		c0.6,0,1.5,0,1.9-0.1c1-0.3,2-0.6,2.9-1c1.4-0.7,2.7-1.6,3.9-2.6c0.2-0.2,0.4-0.3,0.5-0.5c0-0.1,0.1-0.1,0.1-0.2c0,0,0-1.7,0-1.7
		s0.6-0.6,0.8-0.9v-0.1c-0.2-0.8-0.2-1.6-0.2-2.4l-0.6-0.3c-0.1,1.1-0.4,2.2-0.9,3.1c-0.9,0.1-2.6,0.6-3.2,1.3l0.4,0.1
		c0.6-0.3,1.2-0.5,1.9-0.5c0.6,0,0.9,0.2,0.9,0.3c0,0.2-0.1,0.3-0.2,0.5c0,0.1-0.1,0.2-0.2,0.3c-0.8,0.9-1.8,1.7-2.9,2.3
		c-0.8,0.5-1.7,0.8-2.6,1.1c-0.4,0.1-0.7,0.2-1.1,0.3c-0.4,0-2.6-0.1-3.9-0.1c-1.6,0-3.2,0.1-4.8,0.4c-0.4,0.1-0.5,0.3-0.9,0.3
		c-0.9-0.1-1.8-0.3-2.6-0.8c-0.2,0-0.4,0.1-0.6,0.2c-0.5,0.2-1.5,1.7-2.2,1.3c-0.3,0.7-1.7,1.3-2.1,1.9c0-0.3,0.6-2.6,0.6-3.1
		c0-0.1,0-0.2,0-0.2c-0.5-0.8-1.9-1.3-2.7-1.5c-0.2,0-0.3-0.1-0.5-0.1L7.7,26l-1.1,0.4l1.3,0.2l-1.7,1.1c0.3-0.1,2.1-0.6,2.3-0.7
		C8.7,27,8.9,27,9,27.1c0.3,0.1,0.9,0.2,1.4,0.4c0.3,0.2,0.6,0.4,0.8,0.8c0,0.3,0.1,0.5,0.1,0.8c0,0.3,0,0.7-0.1,1
		c-0.2,0.6-0.4,1.2-0.7,1.7c-0.1,0.3-0.3,0.4-0.6,0.5c-0.4,0.2-0.9,0.3-1.3,0.3c-0.4,0-0.6,0-0.8-0.2c-0.7-0.8-1.7-1.2-2.7-1
		c-0.7-0.4-1.4-1.8-1.4-2.9c0.1-0.8,0.2-1.5,0.5-2.3c1.6-0.3,3.1-0.9,4.6-1.5c0.5-0.1,1-0.2,1.5-0.2c1.5,0,3,1.3,3.9,2.2
		c0.3-0.4,0.7-0.7,1.2-0.6c1.1,0,1.7,1,2,2l0.6-0.4c-0.1-0.6-0.4-1.2-0.8-1.7c-0.4-0.4-1-0.6-1.6-0.7c-0.4,0-0.7,0.1-0.9,0.1
		c-0.8,0-1.1-0.4-1.7-0.8c-0.6-0.4-1.7-1-2.6-1c-0.5,0-0.8,0.2-1.2,0.2c-0.5,0-0.9-0.2-1.1-0.6c-0.3-0.3-0.7-0.6-0.9-0.9
		c-0.2-0.3-0.3-0.6-0.4-1L5.9,20.6z"/>
	<path class="st0" d="M6.7,21.2c0.2,0.2,0.4,0.4,0.6,0.6c0.2,0.2,0.5,0.3,0.8,0.5c0.4,0.2,0.8,0.4,1.2,0.6c0.4,0.1,0.9,0.1,1.3,0.1
		c0.6,0,1.4-0.1,2,0.2c0.4,0.2,0.4,0.6,0.8,0.8c0.9,0.2,1.8,0.3,2.7,0.2c1.4,0,2.9-0.1,4.3-0.4L20,23.2c-1.2,0.2-2.5,0.3-3.7,0.4
		c-1.3,0-2.6-0.2-2.6-0.8c0.1-0.6,0.6-1,1.2-0.9c0.8,0.1,1.6,0.3,2.3,0.6c0.2,0.1,0.3,0,0.5,0l0.5-0.2c-0.6-0.3-2.9-1.1-3.7-1.1
		c-0.3,0-0.6,0.1-0.8,0.4c-0.3,0.4-1.1,0.8-2.4,0.8c-0.7,0-1.3-0.1-1.9-0.2c-0.6-0.3-1.1-0.6-1.6-0.9c-0.6-0.4-1.1-0.9-1.5-1.5
		C6,19.3,6,19.1,6,18.9C6,18.8,6,18.6,6,18.5c0.1,0.2,0.2,0.3,0.4,0.4c0.7,0.7,1.7,1.2,2.7,1.3c0.3,0.1,0.6,0.1,0.9,0.1
		c0.4,0,0.8-0.2,1.1-0.5l-0.4-0.5c-0.2,0-0.4,0-0.6,0c-1.5,0-3.4-0.9-3.8-2.1c0-0.1-0.1-0.2,0-0.3c0-0.2,0.1-0.3,0.1-0.5
		c0.1,0.1,0.3,0.2,0.5,0.4c0.6,0.4,1.6,0.8,1.9,1c0.4-0.1,0.8-0.3,1.2-0.5c0.4-0.2,0.8-0.3,1.2-0.3c1.1,0,2.4,0.6,3.6,1.2l0.8-0.3
		c-1.1-0.8-3.3-1.8-4.6-1.8c-0.8,0-1.5,0.6-2,0.6c-0.6,0-2.3-0.9-2.3-1.6c0-0.6,1.1-0.9,3-1.1c-0.3,0.4-0.6,0.9-0.9,1.4l0.5,0.3
		c2.2-3.3,5-6.2,8.3-8.5c0.6-0.4,1.1-0.9,1.4-1.6C19.7,4.2,20.4,3,21.7,3c0.6,0,1.1,0.3,1.4,0.7L24,4l-0.9,0.6L24,5
		c-1.6,0.6-3,1.8-3.6,3.4c-1.3,0-1.9,1.1-2.4,2c-0.3,0.6-0.8,0.9-1.5,1.3l-5.4,3.8l0.8,0.1l5-3.4c0.7-0.4,1.3-1,1.7-1.6
		C19,9.7,19.6,9,20.5,9c0.5,0,1,0.3,1.4,0.6l0.9,0.3l-0.9,0.6l0.8,0.5c-2.3,0.7-3.7,2.4-4.5,5.5l0.6,0.1c0.3-1,0.7-1.9,1.1-2.8
		c1.3,0,2.7,0,4,0c3.5,0,6.4,0.2,8,0.6l-0.6-0.9c-2.5-0.4-5-0.5-7.5-0.4c-1.1,0-2.3,0-3.4,0c0.9-0.9,2.1-1.6,3.4-1.9l-1.1-0.6
		L24,9.7l-1.7-0.6c-0.3-0.3-0.7-0.6-1.1-0.7c0.6-1.7,2.4-2.7,4.3-3.4l-1.3-0.5l1.3-0.7l-2-0.6c-0.4-0.6-1.1-0.9-1.8-0.9
		c-1.8,0-2.6,1.6-3.3,3c-0.2,0.6-0.7,1.2-1.3,1.5c-1.8,1.2-3.4,2.6-4.9,4.1C11.3,10.3,9.5,8.4,9,7.3C8.8,7.6,8.7,7.9,8.6,8.1
		c0.2,0.2,2.3,2.3,3.1,3.3c-0.1,0.1-0.1,0.1-0.2,0.2c-1.3,0.2-2.5,0.3-3.8,0.3l-0.4,0.8c0.6,0,2.7-0.3,3.7-0.4
		c-0.3,0.3-0.6,0.7-0.8,1c-2.8,0.3-4.7,0.9-4.7,1.9c0,0.2,0,0.4,0,0.6c0,0.3-0.2,0.7-0.5,0.8c-0.2,0.1-0.2,0.2-0.1,0.4
		c0.2,0.3,0.4,0.6,0.5,0.9c0,0.2-0.2,0.4-0.4,0.6c-0.2,0.2-0.2,0.2,0,0.4l0.8,1.7L6.7,21.2L6.7,21.2z"/>
	<path class="st0" d="M41.7,11.5c-0.2,0.2-0.3,0.4-0.5,0.6l-0.4-0.6c1.5-2,5.5-3,7.9-3.2V7.3c-0.3,0.1-0.6,0.2-0.9,0.3
		c-0.4,0.1-0.7,0.2-1.1,0.2c-0.3,0-0.6-0.1-0.8-0.3c-0.3-0.4,0-1.1,1-1.7l-0.8-0.7c-0.5,0.8-1.2,1.6-1.9,2.3
		c-0.6,0.5-1.2,0.8-1.7,0.4c-0.3-0.2-0.4-0.3-0.4-0.8C42.3,5.9,42.6,5,43,4.1L42.1,4c-0.2,1-0.6,2-1.1,2.9c-0.6,0.9-1.3,1.7-2.2,2.2
		l-0.6-0.5c0.8-0.5,1.5-1.1,2.1-1.9c0.7-1,1.1-2.2,1.2-3.4l2.8,0.2c-0.5,0.8-1,1.6-1.3,2.5c-0.1,0.4-0.1,0.8,0,0.9
		c0.3,0.2,0.8-0.2,1.3-0.7c0.6-0.7,1.2-1.5,1.7-2.3L48,5.6c-0.9,0.5-1.8,1-1.6,1.3c0.2,0.3,0.8,0.2,1.4,0c0.5-0.2,1-0.4,1.5-0.7V9
		c-1.4,0-2.9,0.3-4.2,0.7c0.4,0.5,1.5,0.7,2.1,0.8l-0.3,2.2C45.3,11.9,43.5,11.5,41.7,11.5l0.7-0.6c1.4,0,2.7,0.4,4,0.9l0.1-0.8
		c-0.8-0.1-1.6-0.5-2.2-1.1c-0.7,0.2-1.3,0.5-1.9,0.9L41.7,11.5L41.7,11.5z"/>
	<path class="st0" d="M33.4,18.6l0.6-1.4c-0.8-0.9-1.5-1.8-2.1-2.8l-0.6-0.9c-1.3-2.4-0.8-3.6-1.5-4.7c-0.6-0.9-3.4-0.3-3.8-0.2
		l0.8-1.3l-1.6,0.1l1.3-1.6C26.8,5.3,26.9,5,27,4.7c0.3-1.4,1.6-2.4,3.1-2.3c2.3,0,3.1,1.9,4.1,2.7c1.2,0.9,2.7,2.3,4,3.6l0.6,0.5
		c0.7,0.7,1.4,1.5,2.1,2.3l0.4,0.6c2.8,4.1,6.3,12,7.9,15.6c0.1,0.4,0.2,0.7,0.4,1c-1.1-0.6-2.2-1.3-3.4-2.1l-0.7-0.5L44,25.1
		l-0.7-0.6c-0.4-0.3-0.9-0.7-1.3-1l1.4,8.2c0.1,0.5,0.5,0.4,0.8,0c0.3-0.4,0.5-0.6,0.3-1.1l-1.3-6l0.7,0.6l1.3,5.1
		c0.1,0.5,0.3,0.6,0.9,0.6c0.6,0,0.6-0.2,0.6-0.5l-1.4-4.3l0.7,0.5l1.3,3.8c0.4,1,0,1.1-0.6,1.1c-0.6,0-1.1-0.2-1.4,0
		c-0.3,0.2-0.7,0.8-1.2,1.3c-0.4,0.4-1,0.4-1.1-0.5l-1.6-9.4c-1-0.9-1.9-1.8-2.8-2.8c-0.4-0.2-0.8-0.4-1.2-0.5l-0.6-0.3
		c-0.2-0.1-0.4-0.2-0.4-0.2c-0.4,0.5-0.9,1-1.3,1.5c-0.2,0.2-0.5,0.4-0.8,0.4c-0.1,0-0.3,0-0.4-0.1c-0.2-0.1-0.3-0.3-0.4-0.5
		c-0.1-0.2-0.3-0.4-0.4-0.6c-0.3-0.5-0.6-1.2-0.9-1.7c-0.3-0.6-0.6-1-0.7-1.1c0-0.1-0.1-0.2-0.2-0.2c-0.2,0.3-0.3,0.7-0.3,1.1
		l-0.6-0.2c0-0.4,0.2-0.8,0.3-1.1c0-0.2-0.2-0.4-0.4-0.5c-0.3,0-0.6,0.3-0.7,0.8L28.9,17c0-0.9,0.4-1.9,1.3-1.9
		c0.7,0.1,1.2,0.5,1.5,1.1C32,16.7,33.1,18.2,33.4,18.6l0.4,0.6c0.1,0.2,0.2,0.5,0.3,0.7c0.2,0.2,0.3,0.2,0.6,0
		c0.3-0.2,0.5-0.5,0.8-0.7c0.2-0.3,0.5-0.5,0.7-0.8c0.3,0.1,0.9,0.4,1.4,0.6c-2.1-2.6-4.1-5.8-5-7.9c-0.4-0.9,0.4-1.2,0.7-0.3
		c0.9,2.4,3.7,6.6,5.7,8.8c2.3,2.5,6.5,6.2,9.3,7.7c-0.4-0.8-0.9-1.9-1.5-3.2c-3.4-1.9-6.7-5.4-8.3-8.4l0.7,0.1
		c1.5,2.6,5,6.1,7.1,7.1c-1.9-4-4.4-9.1-6.3-11.3c-1.9-2.1-4-4.1-6.3-5.9c-1.2-1.1-1.7-2.4-3.5-2.4c-1.2,0-2.3,0.9-2.5,2.1
		c-0.1,0.2-0.1,0.4-0.2,0.6l-0.7,0.8l1.5-0.2l-0.9,1.2c0,0,2.3-0.5,3.2,0.6c0.9,1.2,0.3,2.5,1.8,5.2c0.8,1.3,1.7,2.5,2.7,3.7l-1,2.1
		L33.4,18.6L33.4,18.6z"/>
	<path class="st0" d="M10.4,18.9L10,18.7c0.3-0.2,0.6-0.4,1-0.6c0.2-0.1,0.4-0.1,0.6-0.1c0.4,0,0.8,0.1,1.1,0.4
		c0.5,0.3,1,0.5,1.6,0.6c0.2,0,0.3,0,0.5,0c0.4,0,0.8,0.1,1.1,0.2c0.2,0,0.2-0.1,0.4-0.3c0.2-0.4,0.6-0.6,1-0.8
		c0.5-0.2,1.1-0.3,1.6-0.3c0.4,0,0.8,0,1.2,0.1c0,0-0.4,0.4-0.4,0.6c-0.7,0-1.4,0-2,0.2c-0.3,0.1-0.5,0.4-0.5,0.7
		c0,0.4,0.5,0.6,1,0.8c0.3,0.1,0.7,0.1,1,0.1c0.6-0.1,1.2-0.2,1.8-0.3c0.6-0.1,1.3-0.3,1.9-0.5l0.3,0.6c-0.9,0.3-1.9,0.6-2.8,0.8
		c-0.5,0.1-0.9,0.2-1.4,0.2c-0.8,0-1.5-0.3-2.2-0.6c-0.5-0.3-1-0.4-1.5-0.5c-0.5,0-1,0.2-1.4,0.4c-0.5,0.3-1,0.6-1.5,0.8
		c-0.4,0.2-0.9,0.3-1.3,0.3c-0.3,0-0.6-0.1-0.9-0.2l0.7-0.4c0.1,0.1,0.2,0.1,0.4,0.1c0.2,0,0.4-0.1,0.5-0.2c0.2-0.1,0.4-0.2,0.6-0.3
		c0.3-0.2,0.4-0.3,0.5-0.4c0.2-0.1,0.3-0.3,0.2-0.5c0-0.1-0.1-0.1-0.1-0.2c-0.2-0.1-0.3-0.2-0.4-0.4c-0.3-0.2-0.6-0.3-0.9-0.3
		C11.1,18.7,10.7,18.7,10.4,18.9L10.4,18.9z"/>
	<path class="st0" d="M20.4,19.2c-0.2-0.1-0.4-0.1-0.6-0.1c0.3-0.4,0.6-0.7,0.9-0.9c0.6-0.4,1.4-0.7,2.1-0.7c0.3,0,0.7-0.1,1-0.1
		c0.3,0,0.7,0,1.1,0.1c0.3,0,0.6,0.1,0.8,0.2c0.2,0,0.5,0,0.8,0c0.6-0.1,1.3-0.3,1.9-0.6l0.2,0.6c-0.8,0.5-1.8,0.8-2.8,0.9
		c-0.4,0-0.9,0-1.4-0.1c-0.8-0.1-1.5-0.2-1.7-0.2C21.9,18.4,21.1,18.7,20.4,19.2z"/>
	<path class="st0" d="M19.8,22.7L19,22.3c1.2-0.6,2.4-1,3.6-1.3c0.7-0.1,1.4-0.2,2-0.4c0.2,0.6,0.7,1.1,1.3,1.1
		c0.3-0.1,0.7-0.2,1-0.3c0.4-0.2,0.8-0.4,1.1-0.5c0.2-0.1,1-0.4,1.7-0.7c0.2-0.1,0.9-0.4,0.9-0.4l0.4,0.2c-0.1,0.6-0.3,1.2-0.6,1.8
		c-0.1,0.2-0.2,0.3-0.3,0.5c-0.3,0.3-0.6,0.6-0.9,0.8c-0.5,0.3-1,0.7-1.5,0.9c-0.4,0.3-0.9,0.5-1.3,0.7l-0.2-0.4
		c0.7-0.4,1.4-0.9,2-1.3c0.3-0.2,0.5-0.4,0.8-0.6c0.1-0.1,0.2-0.2,0.3-0.4c0.2-0.3,0.4-0.7,0.6-1c-0.3,0.1-1.2,0.6-1.7,0.8
		c-0.5,0.3-1.3,0.7-1.8,0.9c-0.3,0.1-0.6,0.2-0.9,0.2c-0.4,0-0.7-0.2-0.9-0.6c-0.3-0.6-0.6-0.6-1.5-0.6
		C21.9,21.7,20.8,22.1,19.8,22.7L19.8,22.7z"/>
	<path class="st0" d="M24.7,20.1c0,0-0.1-0.5-0.2-0.7c0.1,0,0.2,0,0.4,0c0.3,0,1.1,0.1,1.4,0.1c0.7,0.1,1.4-0.2,2-0.7
		c0.4-0.4,0.9-0.6,1.4-0.5c0.6,0,1.2,0.2,1.8,0.4l0,0.7c-0.4-0.2-0.8-0.3-1.3-0.3c-0.3,0-0.5,0-0.8,0.1c-0.2,0.1-0.4,0.3-0.6,0.4
		c-0.3,0.2-0.6,0.4-0.9,0.5c-0.5,0.2-1,0.3-1.5,0.2C25.8,20.3,25.2,20.2,24.7,20.1L24.7,20.1z"/>
	<path class="st0" d="M17.1,25l0.6-0.2c0.6,0.2,1.1,0.4,1.7,0.4c0.3,0,0.5-0.1,0.8-0.2c0.2-0.1,2-1,2.9-1.3c0.2-0.1,0.5-0.1,0.7-0.2
		c0.2,0,0.2,0.1,0.3,0.2c0.2,0.3,1.5,2.2,1.7,2.3c1.1-0.3,2.1-0.8,3-1.5c0.7-0.7,1.3-1.5,1.9-2.1c0.2-0.2,0.4-0.4,0.6-0.5
		c0.6-0.3,2.4-0.4,3.2-0.3L34,22.3c-1.4,0-2.1,0.2-2.5,0.4c-0.2,0.2-0.4,0.4-0.6,0.6c-0.5,0.6-1,1.4-1.2,1.6c0.4,0.3,1,0.5,1.5,0.5
		c0.9-0.1,1.8-0.4,2.4-1.1l0.4,0.2c-0.3,0.4-0.6,0.7-1,1c-0.4,0.3-0.9,0.5-1.4,0.6c-0.7-0.1-2.1-0.4-2.5-0.5c-1.3,0.5-3.4,1.3-4,1.5
		c-0.2,0.1-0.3,0.1-0.5,0.1c-0.7,0-1.3,0-2,0c-0.4,0-0.8,0-1.2,0l-0.6-0.6c0.4,0.1,0.8,0.1,1.3,0.1c0.7,0,1.5-0.1,2.2-0.2
		c0.2-0.1,0.3-0.2,0.2-0.4c-0.1-0.3-0.3-0.6-0.6-0.9c-0.2-0.2-0.4-0.4-0.6-0.5c-0.2-0.1-0.3-0.2-0.8,0c-0.8,0.3-1.5,0.7-2.3,1.1
		c-0.3,0.2-0.7,0.2-1,0.1C18.6,25.7,17.8,25.4,17.1,25z"/>
	<path class="st0" d="M20.7,10.7c0.3,0,0.5-0.2,0.5-0.5c0-0.3-0.2-0.5-0.5-0.5c-0.3,0-0.5,0.2-0.5,0.4c0,0,0,0,0,0
		C20.2,10.4,20.4,10.7,20.7,10.7z"/>
	<path class="st0" d="M38.6,38c0-0.4-0.3-0.7-0.7-0.7h-1c-0.4,0-0.7,0.3-0.7,0.7l0,10.6c0,0.4,0.3,0.7,0.7,0.7c0,0,0,0,0,0h1
		c0.4,0,0.7-0.3,0.7-0.7C38.6,48.5,38.6,38,38.6,38z"/>
	<path class="st0" d="M39.8,38.3v0.5c0,0.2,0.1,0.4,0.3,0.4c0,0,0,0,0,0h7c0.3,0,0.6-0.3,0.6-0.6v-0.8c0-0.3-0.2-0.6-0.6-0.6
		c0,0,0,0,0,0c0,0-6.7,0.7-7,0.7C40,37.8,39.8,38,39.8,38.3C39.8,38.3,39.8,38.3,39.8,38.3L39.8,38.3z"/>
	<path class="st0" d="M34.2,49.2c-1.5,0.1-2.7-1.1-2.8-2.6c0-0.1,0-0.1,0-0.2v-4.2h-0.5c-0.3,0-0.5-0.2-0.5-0.5V41
		c0-0.3,0.2-0.5,0.5-0.5h0.5V38c0-0.4,0.3-0.7,0.7-0.7c0,0,0,0,0,0h1c0.4,0,0.6,0.3,0.6,0.7v2.6h1.5c0.3,0,0.5,0.2,0.5,0.4
		c0,0,0,0,0,0v0.7c0,0.3-0.2,0.5-0.5,0.5h-1.5v3.9c0,0.7,0.5,1.3,1.1,1.3c0.1,0,0.1,0,0.2,0h0.2c0.3,0,0.5,0.2,0.5,0.5c0,0,0,0,0,0
		v0.8c0,0.3-0.2,0.5-0.5,0.5H34.2z"/>
	<path class="st0" d="M22.3,44.8c0-2.3-1.3-4.5-4.4-4.5c-2.8,0-4.3,2.2-4.3,4.5c0,2.4,1.7,4.6,4.4,4.6c1.9,0,3.7-0.9,4-2.6
		c0-0.2-0.1-0.5-0.4-0.5c0,0,0,0,0,0h-1.3c-0.2,0-0.4,0.1-0.6,0.3c-0.4,0.6-1.1,0.9-1.7,0.8c-1.1,0-2-0.8-2.1-1.9h5.6
		c0.4,0,0.7-0.2,0.8-0.6C22.3,44.9,22.3,44.8,22.3,44.8z M16,43.8c0.1-1,1-1.8,2-1.7c1,0,1.9,0.7,2.1,1.7H16z"/>
	<path class="st0" d="M48,44.8c0-2.3-1.3-4.5-4.4-4.5c-2.8,0-4.3,2.2-4.3,4.5c0,2.4,1.7,4.6,4.4,4.6c1.9,0,3.7-0.9,4-2.6
		c0-0.2-0.1-0.5-0.4-0.5c0,0,0,0,0,0h-1.3c-0.2,0-0.4,0.1-0.6,0.3c-0.4,0.6-1.1,0.9-1.8,0.8c-1.1,0-2-0.9-2-1.9h5.6
		c0.4,0,0.7-0.2,0.8-0.6C48,44.9,48,44.8,48,44.8z M41.6,43.8c0.2-1.1,1.2-1.9,2.3-1.7c0.9,0.1,1.6,0.8,1.7,1.7H41.6z"/>
	<path class="st0" d="M29.5,37.4H11.2c-0.4,0-0.7,0.3-0.8,0.7c0,0,0,0,0,0l0,7.2c0,0-3.9-7.1-4.1-7.5c-0.2-0.4-0.7-0.7-1.2-0.7H3.7
		C3.3,37.2,3,37.5,3,38c0,0,0,0,0,0v10.5c0,0.4,0.3,0.7,0.7,0.7c0,0,0,0,0,0h0.9c0.4,0,0.7-0.3,0.8-0.7c0,0,0,0,0,0l0-7.3
		c0,0,4,7.1,4.1,7.4c0.2,0.4,0.7,0.7,1.1,0.7h1.4c0.4,0,0.7-0.3,0.8-0.7c0,0,0,0,0,0v-9.3h16.7c0.3,0,0.5-0.2,0.5-0.5v-0.7
		C30,37.6,29.8,37.4,29.5,37.4z"/>
	<path class="st0" d="M26.5,42c0.8,0,1.4,0.3,1.6,0.8c0.1,0.2,0.3,0.3,0.6,0.3h1.1c0.2,0,0.4-0.2,0.4-0.4c0-1.3-1.5-2.4-3.7-2.4
		c-2.2,0-3.7,1.1-3.7,2.7c0,1.3,1,2.1,2.3,2.4c0.6,0.1,1.6,0.4,2.1,0.5c0.5,0.1,0.9,0.3,0.9,0.7c0,0.7-0.7,0.9-1.5,0.9
		c-0.8,0-1.5-0.3-1.7-0.9c-0.1-0.3-0.4-0.4-0.7-0.4h-1.1c-0.2,0-0.4,0.2-0.4,0.4v0.2c0,1.2,1.7,2.5,3.9,2.5c1.6,0,3.8-0.7,3.8-2.8
		c0-1.3-0.8-2.1-2.2-2.5c-0.5-0.1-1.8-0.5-2.1-0.5c-0.5-0.2-1-0.3-1-0.7C25.2,42.2,25.8,42,26.5,42L26.5,42z"/>
</g>
</svg>
