<svg xmlns="http://www.w3.org/2000/svg" width="30" height="30" viewBox="0 0 30 30">
  <g id="nic-salt" transform="translate(-417 -148)">
    <circle id="Ellipse_11" data-name="Ellipse 11" cx="15" cy="15" r="15" transform="translate(417 148)" fill="#e7e9e7"/>
    <g id="lozenge" transform="translate(424.608 153.765)">
      <path id="Path_197" data-name="Path 197" d="M29.95,9.426h-6.5V7.791a.291.291,0,0,1,.291-.291h5.918a.291.291,0,0,1,.291.291Zm0,0" transform="translate(-22.638 -7.24)" fill="#e7e9e7"/>
      <path id="Path_198" data-name="Path 198" d="M29.658,7.5H28.563v.311a.922.922,0,0,1-.922.923H23.449v.693h6.5V7.791a.291.291,0,0,0-.291-.291Zm0,0" transform="translate(-22.637 -7.24)" fill="#a7aaaa"/>
      <path id="Path_199" data-name="Path 199" d="M66.942,64.948H63.694a.241.241,0,0,1-.241-.241V63.113h3.729v1.594a.241.241,0,0,1-.241.241Zm0,0" transform="translate(-61.256 -60.927)" fill="#e7e9e7"/>
      <path id="Path_200" data-name="Path 200" d="M65.8,63.113v.312a.831.831,0,0,1-.831.831H63.453v.452a.241.241,0,0,0,.241.241h3.247a.241.241,0,0,0,.241-.241V63.113Zm0,0" transform="translate(-61.256 -60.928)" fill="#a7aaaa"/>
      <path id="Path_201" data-name="Path 201" d="M9.438,64.218H8.052a.552.552,0,1,1,0-1.1H9.438Zm5.114-1.1H13.167v1.1h1.385a.552.552,0,1,0,0-1.1Zm0,0" transform="translate(-7.24 -60.928)" fill="#e7e9e7"/>
      <path id="Path_202" data-name="Path 202" d="M34.907,95.008v.49a.241.241,0,0,1-.241.241H31.419a.241.241,0,0,1-.241-.241v-.49H30.02v13.53a.651.651,0,0,0,.651.651h4.742a.651.651,0,0,0,.651-.651V95.008Zm0,0" transform="translate(-28.98 -91.718)" fill="#e7e9e7"/>
      <path id="Path_203" data-name="Path 203" d="M30.033,95.046h1.144v-.038H30.02v.037Zm0,0" transform="translate(-28.98 -91.718)" fill="#42a5f5"/>
      <path id="Path_204" data-name="Path 204" d="M34.907,95.007v.49a.241.241,0,0,1-.227.24v10.669A2.089,2.089,0,0,1,32.59,108.5H30.02v.041a.651.651,0,0,0,.651.651h4.742a.651.651,0,0,0,.651-.651V95.007Zm0,0" transform="translate(-28.98 -91.717)" fill="#a7aaaa"/>
      <path id="Path_205" data-name="Path 205" d="M63.453,148.086h3.729v10.5H63.453Zm0,0" transform="translate(-61.256 -142.958)" fill="#eceff1"/>
      <path id="Path_206" data-name="Path 206" d="M65.8,148.086v8.686a1.126,1.126,0,0,1-1.126,1.126H63.453v.693h3.729v-10.5Zm0,0" transform="translate(-61.256 -142.958)" fill="#b0bec5"/>
      <path id="Path_207" data-name="Path 207" d="M63.453,148.086h1.463v10.5H63.453Zm0,0" transform="translate(-61.256 -142.958)" fill="#ef0027"/>
      <path id="Path_208" data-name="Path 208" d="M64.223,148.086v9.191a.621.621,0,0,1-.621.621h-.149v.693h1.463v-10.5Zm0,0" transform="translate(-61.256 -142.957)" fill="#d30d2b"/>
      <path id="Path_209" data-name="Path 209" d="M208.867,382.582a2.148,2.148,0,1,1-2.148-2.148A2.148,2.148,0,0,1,208.867,382.582Zm0,0" transform="translate(-197.486 -367.259)" fill="#ffe0b2"/>
      <path id="Path_210" data-name="Path 210" d="M222.515,380.719a2.148,2.148,0,0,1-1.589,3.594c-.069,0-.137,0-.2-.01a2.148,2.148,0,1,0,1.793-3.584Zm0,0" transform="translate(-213.079 -367.535)" fill="#ffb74d"/>
      <path id="Path_211" data-name="Path 211" d="M227.945,306.855c.578,0,1.387,1.692,1.387,2.474a1.439,1.439,0,0,1-.092.508,2.15,2.15,0,0,0-2.59,0,1.439,1.439,0,0,1-.092-.508C226.558,308.547,227.367,306.855,227.945,306.855Zm0,0" transform="translate(-218.712 -296.229)" fill="#66bb6a"/>
      <path id="Path_212" data-name="Path 212" d="M294.669,310.912a2.154,2.154,0,0,0-.224-.2,1.443,1.443,0,0,0,.092-.508,3.737,3.737,0,0,0-.435-1.449c1.01-.693,3.014-1.318,3.526-.807.581.581-.307,3.093-1.092,3.879a2.029,2.029,0,0,1-1.237.588A2.141,2.141,0,0,0,294.669,310.912Zm0,0" transform="translate(-283.917 -297.108)" fill="#66bb6a"/>
      <path id="Path_213" data-name="Path 213" d="M252.124,306.855a.787.787,0,0,0-.519.343,4.208,4.208,0,0,1,.867,2.131c0,.034,0,.068,0,.1a2.135,2.135,0,0,1,.951.406,1.441,1.441,0,0,0,.092-.508C253.511,308.547,252.7,306.855,252.124,306.855Zm0,0" transform="translate(-242.892 -296.229)" fill="#388e3c"/>
      <path id="Path_214" data-name="Path 214" d="M328.168,307.955c-.244-.244-.827-.229-1.48-.072a.469.469,0,0,1,.094.072c.569.569-.272,2.992-1.045,3.828a2.157,2.157,0,0,1,.1.638,2.03,2.03,0,0,0,1.237-.588C327.861,311.047,328.749,308.536,328.168,307.955Zm0,0" transform="translate(-314.458 -297.11)" fill="#388e3c"/>
      <path id="Path_215" data-name="Path 215" d="M56.213,140.586a.26.26,0,0,0-.26.26v10.5a.26.26,0,0,0,.26.26h3.729a.26.26,0,0,0,.26-.26v-10.5a.26.26,0,0,0-.26-.26Zm.26,10.5v-9.985h.943v9.985Zm3.21,0H57.935v-9.985h1.747Zm0,0" transform="translate(-54.015 -135.717)" fill="#1f283b"/>
      <path id="Path_216" data-name="Path 216" d="M131.24,296.641a.26.26,0,0,0,.26-.26v-3.867a.26.26,0,0,0-.519,0v3.867A.26.26,0,0,0,131.24,296.641Zm0,0" transform="translate(-126.444 -282.133)" fill="#1f283b"/>
      <path id="Path_217" data-name="Path 217" d="M10.281,11.283c-.761-1.319-1.487-1.165-2.189.166A4.044,4.044,0,0,0,7.586,13.1a1.7,1.7,0,0,0,.052.419,2.428,2.428,0,0,0-.294.311V6.677a.26.26,0,0,0-.519,0V16.82a.392.392,0,0,1-.392.392H1.691A.392.392,0,0,1,1.3,16.82V3.55h.638v.23a.5.5,0,0,0,.5.5H5.686a.5.5,0,0,0,.5-.5V3.55h.638V5.465a.26.26,0,1,0,.519,0V3.549a.812.812,0,0,0,.228-1.58V.551A.551.551,0,0,0,7.021,0H1.1a.551.551,0,0,0-.55.55V1.969A.812.812,0,0,0,.78,3.549V16.82a.912.912,0,0,0,.911.911H6.433a.912.912,0,0,0,.911-.917,2.4,2.4,0,0,0,3.042.623.26.26,0,1,0-.249-.456,1.885,1.885,0,1,1,.754-.754.26.26,0,0,0,.456.249,2.41,2.41,0,0,0,.284-.94,2.3,2.3,0,0,0,1.171-.629c.791-.791,1.853-3.485,1.092-4.246-.635-.635-2.559,0-3.613.622ZM7.312,3.031H6.186V2.446H7.312a.293.293,0,1,1,0,.585ZM1.1.52C7.417.52,7.052.5,7.052.551V1.926H5.134a.26.26,0,1,0,0,.519h.533V3.761H2.457V2.446H3.922a.26.26,0,1,0,0-.519H1.072V.551A.031.031,0,0,1,1.1.52ZM.52,2.738a.293.293,0,0,1,.293-.293H1.938v.585H.812A.293.293,0,0,1,.52,2.738Zm8.033,8.953c.32-.608.6-.805.681-.805s.36.2.681.805a3.412,3.412,0,0,1,.443,1.5,2.389,2.389,0,0,0-.864-.265v-.987a.26.26,0,0,0-.519,0v.987a2.388,2.388,0,0,0-.864.265A3.412,3.412,0,0,1,8.552,11.692Zm4.877.939a5.187,5.187,0,0,1-.994,1.909,1.788,1.788,0,0,1-.815.466,2.4,2.4,0,0,0-.511-1.191l1.264-1.264A.26.26,0,0,0,12,12.184l-1.14,1.14a3.208,3.208,0,0,0-.347-1.577c1.055-.637,2.681-1.046,3.009-.718.147.146.178.71-.1,1.6Zm0,0" transform="translate(0 0)" fill="#1f283b"/>
    </g>
  </g>
</svg>
