<?xml version="1.0" encoding="utf-8"?>
<!-- Generator: Adobe Illustrator 24.2.3, SVG Export Plug-In . SVG Version: 6.00 Build 0)  -->
<svg version="1.1" id="Layer_1" xmlns="http://www.w3.org/2000/svg" xmlns:xlink="http://www.w3.org/1999/xlink" x="0px" y="0px"
	 viewBox="0 0 100 100" style="enable-background:new 0 0 100 100;" xml:space="preserve">
<style type="text/css">
	.st0{fill:#F2F2F2;}
	.st1{fill:#CCCCCC;}
	.st2{fill:#E6E6E6;}
	.st3{fill:#C6C6C6;}
</style>
<g>
	<path class="st0" d="M77.6,89.7c-19.9,0-33.5,10.3-43.1,10.3S4.9,94.5,4.9,50.5S31.9,0,42.5,0C91.7,0,112.8,89.7,77.6,89.7z"/>
	<path class="st1" d="M75.1,12.4l0.9-0.9l1.8,1.8l-0.9,0.9L75.1,12.4z"/>
	<path class="st1" d="M80.3,17.6l0.9-0.9l1.8,1.8l-0.9,0.9L80.3,17.6z"/>
	<path class="st1" d="M80.1,13.3l1.8-1.8l0.9,0.9L81,14.2L80.1,13.3z"/>
	<path class="st2" d="M32.4,69.9V42.7c0-3.2,2.6-5.7,5.7-5.7h-6.5c-3.2,0-5.7,2.6-5.7,5.7v27.3c0,6.3,5.1,11.5,11.5,11.5h6.5
		C37.6,81.4,32.4,76.3,32.4,69.9z"/>
	<path class="st3" d="M63,42.6h-1.5V27.8c0-6.5-5.3-11.8-11.8-11.8c-6.5,0-11.8,5.3-11.8,11.8v14.8h-1.5c-0.8,0-1.5,0.7-1.5,1.5
		c0,0.8,0.7,1.5,1.5,1.5h5.9c0.8,0,1.5-0.7,1.5-1.5c0-0.8-0.7-1.5-1.5-1.5h-1.5V27.8c0-4.9,4-8.9,8.9-8.9c4.9,0,8.9,4,8.9,8.9v14.8
		h-1.5c-0.8,0-1.5,0.7-1.5,1.5c0,0.8,0.7,1.5,1.5,1.5H63c0.8,0,1.5-0.7,1.5-1.5C64.4,43.3,63.8,42.6,63,42.6z"/>
	<path class="st3" d="M65.9,33.7H33.4c-4.1,0-7.4,3.3-7.4,7.4v9v20.6C26,78.1,32,84,39.3,84H60c7.3,0,13.3-6,13.3-13.3V50.1v-9
		C73.3,37.1,70,33.7,65.9,33.7z M70.4,70.7c0,5.7-4.6,10.4-10.4,10.4H39.3c-5.7,0-10.4-4.6-10.4-10.4V50.1v-9c0-2.4,2-4.4,4.4-4.4
		h32.5c2.4,0,4.4,2,4.4,4.4v9V70.7z"/>
	<path class="st1" d="M11.4,87.7c-1.3,0-2.3-1-2.3-2.3s1-2.3,2.3-2.3s2.3,1,2.3,2.3S12.6,87.7,11.4,87.7z M11.4,84.6
		c-0.4,0-0.8,0.3-0.8,0.8c0,0.4,0.3,0.8,0.8,0.8c0.4,0,0.8-0.3,0.8-0.8C12.1,84.9,11.8,84.6,11.4,84.6z"/>
</g>
</svg>
