<?xml version="1.0" encoding="utf-8"?>
<!-- Generator: Adobe Illustrator 22.0.1, SVG Export Plug-In . SVG Version: 6.00 Build 0)  -->
<svg version="1.1" id="Layer_1" xmlns="http://www.w3.org/2000/svg" xmlns:xlink="http://www.w3.org/1999/xlink" x="0px" y="0px"
	 viewBox="0 0 80 64.5" style="enable-background:new 0 0 80 64.5;" xml:space="preserve">
<style type="text/css">
	.st0{fill:#F9CCD2;}
	.st1{fill:#FEF5F6;}
	.st2{fill:#FFFFFF;}
	.st3{fill:#E1001E;}
	.st4{fill:#1F283B;}
</style>
<g>
	<g>
		<circle class="st0" cx="40.9" cy="43.4" r="15.1"/>
		<ellipse class="st1" cx="40.9" cy="43.4" rx="13.2" ry="15.1"/>
		<path class="st2" d="M27.7,43.4c0-8.3,5.9-15.1,13.2-15.1c-8.3,0-15.1,6.7-15.1,15.1c0,8.3,6.7,15.1,15.1,15.1
			C33.6,58.4,27.7,51.7,27.7,43.4z"/>
		<path class="st3" d="M40.9,59.1c-8.7,0-15.7-7-15.7-15.7s7-15.7,15.7-15.7s15.7,7,15.7,15.7S49.6,59.1,40.9,59.1z M40.9,29
			c-8,0-14.4,6.5-14.4,14.4c0,8,6.5,14.4,14.4,14.4s14.4-6.5,14.4-14.4l0,0C55.3,35.4,48.9,28.9,40.9,29L40.9,29z"/>
		<path class="st3" d="M48,36.8L48,36.8c0.2,0.2,0.2,0.5,0,0.8L34.5,51c-0.2,0.2-0.5,0.2-0.7,0l0,0c-0.2-0.2-0.2-0.5,0-0.7
			l13.5-13.5C47.5,36.6,47.8,36.6,48,36.8z"/>
		<path class="st3" d="M48,51L48,51c-0.2,0.2-0.5,0.2-0.8,0L33.8,37.5c-0.2-0.2-0.2-0.5,0-0.7l0,0c0.2-0.2,0.5-0.2,0.7,0L48,50.3
			C48.2,50.5,48.2,50.8,48,51z"/>
	</g>
	<polygon class="st4" points="73.4,48.2 73,48.4 72.7,48.2 72.9,48.6 72.7,49 73,48.7 73.4,48.9 73.2,48.6 	"/>
	<polygon class="st4" points="44.7,2.8 44.1,3.2 43.4,2.8 43.9,3.4 43.4,4.1 44.1,3.7 44.7,4.1 44.3,3.5 	"/>
	<polygon class="st4" points="3.4,43.3 2.8,43.7 2.3,43.3 2.6,43.9 2.3,44.5 2.8,44.1 3.4,44.5 3,43.9 	"/>
	<polygon class="st4" points="77.7,18 77.1,18.3 76.5,18 76.9,18.5 76.5,19.2 77.1,18.8 77.7,19.1 77.3,18.6 	"/>
	<path class="st3" d="M65.4,28.9c-0.4,0-0.6,0.4-0.6,0.7l0,0c0,0.3,0.3,0.5,0.6,0.6c0.4,0,0.6-0.4,0.6-0.7l0,0
		C65.9,29.2,65.7,29,65.4,28.9z"/>
	<path class="st3" d="M1.1,28.9c-0.4,0-0.6,0.4-0.6,0.7l0,0c0,0.3,0.3,0.5,0.6,0.6c0.4,0,0.6-0.4,0.6-0.7l0,0
		C1.7,29.2,1.4,29,1.1,28.9z"/>
	<path class="st4" d="M36.6,18.8c-0.2,0-0.3,0.2-0.3,0.4l0,0c0,0.2,0.1,0.3,0.3,0.3s0.3-0.2,0.3-0.4l0,0
		C36.9,19,36.7,18.8,36.6,18.8z"/>
	<path class="st4" d="M18.7,27c-0.4,0-0.7,0.4-0.7,0.8l0,0c0,0.3,0.3,0.6,0.7,0.7c0.4,0,0.7-0.4,0.7-0.8l0,0
		C19.4,27.3,19.1,27,18.7,27z"/>
	<path class="st3" d="M3.4,4.5c-0.2,0-0.3,0.2-0.3,0.4l0,0c0,0.2,0.1,0.3,0.3,0.3S3.7,5,3.7,4.8l0,0C3.7,4.6,3.6,4.5,3.4,4.5z"/>
	<path class="st4" d="M13.5,52.2c-0.2,0-0.3,0.2-0.3,0.4l0,0c0,0.2,0.1,0.3,0.3,0.3s0.3-0.2,0.3-0.4l0,0
		C13.8,52.3,13.6,52.2,13.5,52.2z"/>
	<path class="st4" d="M67,3.3c-0.2,0-0.4,0.2-0.4,0.5l0,0c0,0.2,0.2,0.4,0.4,0.4c0.2,0,0.4-0.2,0.4-0.5l0,0
		C67.4,3.5,67.3,3.3,67,3.3z"/>
	<path class="st3" d="M57.2,14.8c-0.2,0-0.3,0.2-0.3,0.4l0,0c0,0.2,0.1,0.3,0.3,0.3s0.3-0.2,0.3-0.4l0,0
		C57.5,14.9,57.4,14.8,57.2,14.8z"/>
	<g>
		<path class="st4" d="M19.8,4.3c-0.8,0.2-1.5,0.2-2.3,0c0.4-0.1,0.7-0.1,1.1-0.1C19,4.1,19.4,4.1,19.8,4.3z"/>
		<path class="st4" d="M21,1.1c0.2,0.8,0.2,1.6,0,2.3C20.9,2.7,20.9,1.9,21,1.1z"/>
		<path class="st4" d="M22.3,4.2c0.8-0.2,1.5-0.2,2.3,0C23.9,4.3,23.1,4.3,22.3,4.2z"/>
		<path class="st4" d="M21.1,7.3c-0.2-0.8-0.2-1.6,0-2.3C21.3,5.7,21.3,6.5,21.1,7.3z"/>
		<path class="st4" d="M23,5.9c0,0-0.3-0.1-0.5-0.4S22.1,5,22.2,4.9c0,0,0.3,0.1,0.5,0.4S23,5.9,23,5.9z"/>
		<path class="st4" d="M22.9,2.4c0,0-0.1,0.3-0.3,0.5s-0.5,0.4-0.5,0.3c0,0,0.1-0.3,0.3-0.5C22.6,2.5,22.8,2.3,22.9,2.4z"/>
		<path class="st4" d="M20.2,3.3c0,0-0.2-0.1-0.5-0.2s-0.4-0.4-0.3-0.4c0,0,0.3,0.1,0.5,0.2C20.1,3.1,20.2,3.3,20.2,3.3z"/>
		<path class="st4" d="M20.1,4.9c0,0-0.1,0.3-0.3,0.5c-0.2,0.2-0.4,0.4-0.5,0.3c0,0,0.1-0.3,0.3-0.5C19.9,5,20.1,4.8,20.1,4.9z"/>
	</g>
	<path class="st3" d="M79.5,36.8c-0.3-1-1.6-0.9-1.6-0.9v0.7c0.7-0.1,1.2,0.7,1.2,0.7L79.5,36.8z"/>
	<path class="st4" d="M6.7,16.8c-0.3-1-1.6-0.9-1.6-0.9v0.7c0.7-0.1,1.2,0.7,1.2,0.7L6.7,16.8z"/>
</g>
</svg>
