<?xml version="1.0" encoding="utf-8"?>
<!-- Generator: Adobe Illustrator 22.0.1, SVG Export Plug-In . SVG Version: 6.00 Build 0)  -->
<svg version="1.1" id="Layer_1" xmlns="http://www.w3.org/2000/svg" xmlns:xlink="http://www.w3.org/1999/xlink" x="0px" y="0px"
	 viewBox="0 0 512 512" style="enable-background:new 0 0 512 512;" xml:space="preserve">
<style type="text/css">
	.st0{fill:#727272;stroke:#FFFFFF;}
</style>
<g id="surface1">
	<path class="st0" d="M34.1,512h409.6c18.9,0,34.1-15.3,34.1-34.1v-25.6c0-4.7-3.8-8.5-8.5-8.5h-17.1V307.2h-17.1v136.5h-17.1V307.2
		h-17.1v136.5H292.1c-9.1,0-17.4,5.1-21.4,13.3c-1.2,2.3-3.6,3.8-6.2,3.8h-49.2c-2.6,0-5-1.5-6.2-3.8c-4-8.1-12.4-13.3-21.4-13.3
		H76.8V230.4c0-4.7,3.8-8.5,8.5-8.5h153.6v-17.1H85.3c-14.1,0-25.6,11.5-25.6,25.6v213.3H42.7V213.3c0-14.1,11.5-25.6,25.6-25.6
		h170.7v-17.1H68.3c-23.6,0-42.6,19.1-42.7,42.7v230.4H8.5c-4.7,0-8.5,3.8-8.5,8.5v25.6C0,496.7,15.3,512,34.1,512z M17.1,460.8
		h170.7c2.6,0,5,1.5,6.2,3.8c4,8.1,12.3,13.3,21.4,13.3h49.2c9.1,0,17.4-5.1,21.4-13.3c1.2-2.3,3.6-3.8,6.2-3.8h168.7v17.1
		c0,9.4-7.6,17.1-17.1,17.1H34.1c-9.4,0-17.1-7.6-17.1-17.1V460.8z"/>
	<path class="st0" d="M110.9,315.7V384c0,4.7,3.8,8.5,8.5,8.5h238.9c4.7,0,8.5-3.8,8.5-8.5v-68.3c0-4.7-3.8-8.5-8.5-8.5H119.5
		C114.8,307.2,110.9,311,110.9,315.7z M128,324.3h221.9v51.2H128V324.3z"/>
	<path class="st0" d="M145.1,341.3h17.1v17.1h-17.1V341.3z"/>
	<path class="st0" d="M179.2,341.3h17.1v17.1h-17.1V341.3z"/>
	<path class="st0" d="M213.3,341.3h17.1v17.1h-17.1V341.3z"/>
	<path class="st0" d="M247.5,341.3h17.1v17.1h-17.1V341.3z"/>
	<path class="st0" d="M486.4,128.3v-25.9C486.4,45.8,440.6,0,384,0S281.6,45.8,281.6,102.4v25.9c-14.5,1.5-25.5,13.8-25.6,28.4
		v104.8c0,15.8,12.9,28.7,28.7,28.7h198.6c15.8,0,28.7-12.9,28.7-28.7V156.7C511.9,142.1,500.9,129.9,486.4,128.3z M298.7,102.4
		c0-47.1,38.2-85.3,85.3-85.3s85.3,38.2,85.3,85.3V128h-17.1v-25.6c0-37.7-30.6-68.3-68.3-68.3s-68.3,30.6-68.3,68.3V128h-17.1
		V102.4z M332.8,128v-25.6c0-28.3,22.9-51.2,51.2-51.2s51.2,22.9,51.2,51.2V128H332.8z M494.9,261.4c0,6.4-5.2,11.6-11.6,11.6H284.7
		c-6.4,0-11.6-5.2-11.6-11.6V156.7c0-6.4,5.2-11.6,11.6-11.6h198.6c6.4,0,11.6,5.2,11.6,11.6V261.4z"/>
	<path class="st0" d="M384,179.2c-12.5,0-23.1,8.9-25.2,21.2c-2.1,12.3,4.9,24.3,16.7,28.4v18.6h17.1v-18.6
		c11.7-4.1,18.8-16.1,16.7-28.4C407.1,188.1,396.5,179.2,384,179.2z M384,213.3c-4.7,0-8.5-3.8-8.5-8.5c0-4.7,3.8-8.5,8.5-8.5
		s8.5,3.8,8.5,8.5C392.5,209.5,388.7,213.3,384,213.3z"/>
	<path class="st0" d="M153.6,136.5h17.1v17.1h-17.1V136.5z"/>
	<path class="st0" d="M153.6,102.4h17.1v17.1h-17.1V102.4z"/>
	<path class="st0" d="M153.6,68.3h17.1v17.1h-17.1V68.3z"/>
	<path class="st0" d="M153.6,34.1h17.1v17.1h-17.1V34.1z"/>
	<path class="st0" d="M187.7,34.1h17.1v17.1h-17.1V34.1z"/>
	<path class="st0" d="M221.9,34.1h17.1v17.1h-17.1V34.1z"/>
	<path class="st0" d="M256,34.1h17.1v17.1H256V34.1z"/>
</g>
</svg>
