<svg xmlns="http://www.w3.org/2000/svg" width="26.395" height="22.061" viewBox="0 0 26.395 22.061">
  <g id="payment" transform="translate(0.15 0.15)">
    <g id="Group_2713" data-name="Group 2713" transform="translate(1.925)">
      <path id="Path_3563" data-name="Path 3563" d="M58.549,0H38.224A1.925,1.925,0,0,0,36.3,1.923V10.44h.636V1.923A1.288,1.288,0,0,1,38.224.636H58.549a1.288,1.288,0,0,1,1.286,1.286V13.577a1.288,1.288,0,0,1-1.286,1.287H47.529V15.5h11.02a1.925,1.925,0,0,0,1.923-1.923V1.923A1.925,1.925,0,0,0,58.549,0Zm0,0" transform="translate(-36.301)" fill="#e1001e" stroke="#e1001e" stroke-width="0.3"/>
      <path id="Path_3564" data-name="Path 3564" d="M304.98,171.888a2.383,2.383,0,1,0-2.9-.662A2.383,2.383,0,0,0,304.98,171.888Zm1.032-3.893a1.746,1.746,0,1,1-.4,3.446,2.377,2.377,0,0,0,0-3.4,1.743,1.743,0,0,1,.4-.047Zm-1.746,1.746a.885.885,0,1,1,.714,1.407,1.745,1.745,0,0,1-.714-1.407Zm-2.064,0a1.745,1.745,0,0,1,2.143-1.7,2.378,2.378,0,0,0,0,3.4,1.745,1.745,0,0,1-2.143-1.7Zm0,0" transform="translate(-287.496 -158.482)" fill="#e1001e" stroke="#e1001e" stroke-width="0.3"/>
      <path id="Path_3565" data-name="Path 3565" d="M84.59,54.863H76.1a.318.318,0,1,0,0,.636H84.59a.318.318,0,0,0,0-.636Zm0,0" transform="translate(-73.687 -51.953)" fill="#e1001e" stroke="#e1001e" stroke-width="0.3"/>
      <path id="Path_3566" data-name="Path 3566" d="M258.855,55.5a.318.318,0,0,0,0-.636h-.919a.318.318,0,1,0,0,.636Zm0,0" transform="translate(-245.878 -51.953)" fill="#e1001e" stroke="#e1001e" stroke-width="0.3"/>
      <path id="Path_3567" data-name="Path 3567" d="M76.1,85.754h.4a.318.318,0,0,0,0-.636h-.4a.318.318,0,0,0,0,.636Zm0,0" transform="translate(-73.687 -80.603)" fill="#e1001e" stroke="#e1001e" stroke-width="0.3"/>
      <path id="Path_3568" data-name="Path 3568" d="M105.97,85.117a.318.318,0,0,0,0,.636h5.3a.318.318,0,1,0,0-.636Zm0,0" transform="translate(-101.974 -80.603)" fill="#e1001e" stroke="#e1001e" stroke-width="0.3"/>
      <path id="Path_3569" data-name="Path 3569" d="M227.367,85.435a.318.318,0,0,0,.318.318h2.524a.318.318,0,1,0,0-.636h-2.524A.318.318,0,0,0,227.367,85.435Zm0,0" transform="translate(-217.233 -80.603)" fill="#e1001e" stroke="#e1001e" stroke-width="0.3"/>
    </g>
    <path id="Path_3570" data-name="Path 3570" d="M6.736,156.25a6.736,6.736,0,1,0,6.737,6.736A6.736,6.736,0,0,0,6.736,156.25Zm0,12.836a6.1,6.1,0,1,1,6.1-6.1A6.1,6.1,0,0,1,6.736,169.086Zm0,0" transform="translate(0 -147.963)" fill="#e1001e" stroke="#e1001e" stroke-width="0.3"/>
    <path id="Path_3571" data-name="Path 3571" d="M71.98,246.025l-3.841,3.125-1.551-1.816a.318.318,0,0,0-.484.413l1.753,2.052a.318.318,0,0,0,.443.04l4.082-3.321a.318.318,0,1,0-.4-.494Zm0,0" transform="translate(-62.527 -232.909)" fill="#e1001e" stroke="#e1001e" stroke-width="0.3"/>
  </g>
</svg>
