<?xml version="1.0" encoding="utf-8"?>
<!-- Generator: Adobe Illustrator 22.0.1, SVG Export Plug-In . SVG Version: 6.00 Build 0)  -->
<svg version="1.1" id="Layer_1" xmlns="http://www.w3.org/2000/svg" xmlns:xlink="http://www.w3.org/1999/xlink" x="0px" y="0px"
	 viewBox="0 0 50 50" style="enable-background:new 0 0 50 50;" xml:space="preserve">
<style type="text/css">
	.st0{fill:#FFFFFF;}
</style>
<g transform="translate(0.5 0.5)">
	<g transform="translate(34.726 4.41)">
		<g transform="translate(0 0)">
			<path class="st0" d="M-12.9,29.5L-12.9,29.5c0-0.1,0-0.3,0-0.4c0-0.3-0.1-0.6-0.1-0.9c-0.6-2-2.4-3.3-4.4-3.3c-0.1,0-0.4,0-0.6,0
				c-2.6,0.3-4.4,2.7-4,5.2c0,0,0,0,0,0.1c0.3,2.4,2.3,4.1,4.7,4.1c0.1,0,0.4,0,0.6,0c1.3-0.1,2.4-0.7,3.3-1.7c0,0,0.1-0.1,0-0.1
				c0,0,0-0.1-0.1-0.1c-0.3-0.1-0.6-0.3-0.9-0.4c-0.1,0-0.1-0.1-0.1-0.1h-0.1c-0.1,0-0.1,0-0.1,0.1c-0.4,0.6-1.1,1-1.8,1
				c-0.1,0-0.3,0-0.4,0c-1.3,0-2.4-0.9-3-2l0,0l0,0c0.4-0.1,1-0.3,1.6-0.3c0.1,0,0.3,0,0.3,0c0.3,0,0.4,0,0.7,0.1
				c0.6,0.1,1.1,0.1,1.6,0.1c0.4,0,0.7,0,1.1-0.1c0.7-0.1,1.4-0.3,2-0.7C-12.9,29.8-12.9,29.7-12.9,29.5 M-14.5,29
				c-0.3,0.1-0.6,0.1-1,0.1c-0.3,0-0.4,0-0.7,0c-0.4,0-0.9,0-1.3-0.1l0,0c-0.4,0-0.9,0-1.1,0s-0.4,0-0.7,0c-0.4,0-0.9,0.1-1.3,0.3
				l0,0c0.1-1.4,1.3-2.6,2.7-2.7c0.1,0,0.3,0,0.4,0C-16.2,26.6-14.9,27.6-14.5,29L-14.5,29L-14.5,29z"/>
			<g transform="translate(56.877)">
				<path class="st0" d="M-47.1,25.4c0-0.1-0.1-0.3-0.3-0.3l0,0h-1.1c-0.1,0-0.3,0.1-0.3,0.3l0,0v8.5c0,0.1,0.1,0.3,0.3,0.3l0,0h1.1
					c0.1,0,0.3-0.1,0.3-0.3l0,0V25.4z"/>
				<path class="st0" d="M-48,22.2c-0.6,0-1.1,0.4-1.1,1.1c0,0.6,0.4,1.1,1.1,1.1c0.6,0,1.1-0.4,1.1-1.1l0,0
					C-47,22.7-47.1,22.2-48,22.2"/>
			</g>
			<path class="st0" d="M-7,34.4h0.1c1.3,0,2.4-0.4,3.3-1.3c1.8-2,1.7-5-0.1-6.8C-4.5,25.4-5.7,25-7,25c-2.1,0-4,1.4-4.5,3.5
				c-0.1,0.7-0.1,1.4-0.1,2.1v6.7c0,0.1,0.1,0.3,0.3,0.3l0,0h1.1c0.1,0,0.3-0.1,0.3-0.3l0,0v-4.3h0.1C-9.1,33.9-8.1,34.4-7,34.4
				 M-7,26.6c1.7,0,3,1.4,3,3.1c0,0,0,0,0,0.1c0.1,1.7-1.1,3-2.8,3.1H-7c-0.9,0-1.6-0.3-2.1-0.9s-1-1.4-0.9-2.3
				C-10.1,28.1-8.7,26.6-7,26.6"/>
			<path class="st0" d="M-28.2,34.4h0.3c1.3,0,2.4-0.4,3.3-1.3c1.8-2,1.7-5-0.1-6.8c-0.9-0.9-2-1.3-3.3-1.3c-2.1,0-4,1.4-4.5,3.5
				c-0.1,0.7-0.1,1.4-0.1,2.1v6.7c0,0.1,0.1,0.3,0.3,0.3l0,0h1.1c0.1,0,0.3-0.1,0.3-0.3l0,0v-4.3l0,0
				C-30.5,33.9-29.4,34.4-28.2,34.4 M-28.2,26.6c1.7,0,3,1.4,3,3.1c0,0,0,0,0,0.1c0.1,1.7-1.1,3-2.8,3.1h-0.1
				c-0.9,0-1.6-0.3-2.1-0.9s-1-1.4-0.9-2.3C-31.3,28.1-29.9,26.6-28.2,26.6"/>
			<path class="st0" d="M-1,33c1,1,2.3,1.4,3.7,1.4l0,0c2.6,0,3.7-1.4,3.7-2.7c0-1.8-1.8-2.4-2.3-2.6C4,29.1,3.8,29,3.5,29
				c-0.4-0.1-0.9-0.1-1.3-0.3C2,28.6,1,28.3,1,27.6c0-0.9,0.9-1.3,1.7-1.3c0.7,0,1.4,0.3,2,0.7c0,0,0.1,0.1,0.3,0.1
				c0.1,0,0.1,0,0.3-0.1c0.3-0.3,0.6-0.4,0.9-0.7l0.1-0.1c0-0.1,0-0.1-0.1-0.3c-0.9-0.7-2.1-1.1-3.3-1.1l0,0c-1.8,0-3.3,1.3-3.3,2.8
				c0,1.3,1,2.1,3,2.6l1.1,0.3c0.4,0.3,0.9,0.7,0.9,1.3s-0.7,1.1-1.8,1.1c-0.9,0-1.8-0.4-2.4-1l0,0l-0.1-0.1c0,0-0.1,0-0.1,0.1
				c-0.1,0-0.9,0.7-1,0.7v0.1C-1.1,32.8-1.1,32.8-1,33"/>
			<g transform="translate(60.494 14.262)">
				<path class="st0" d="M-49.2,18.2c0.6,0,1,0.4,1,1s-0.4,1-1,1c-0.6,0-1-0.4-1-1l0,0C-50.2,18.6-49.6,18.2-49.2,18.2z M-49.2,20.1
					c0.4,0,0.9-0.4,0.9-0.9c0-0.4-0.3-0.9-0.9-0.9l0,0c-0.4,0-0.9,0.4-0.9,0.9C-50,19.8-49.6,20.1-49.2,20.1L-49.2,20.1z M-49,19.3
					c0.1,0,0.3-0.1,0.3-0.3s-0.1-0.3-0.3-0.3l0,0h-0.4v1h0.1v-0.4h0.1l0.3,0.4h0.2L-49,19.3z M-49,19.1h-0.1h-0.1v-0.3
					c0,0,0.1,0,0.2,0C-48.9,18.8-48.9,19.1-49,19.1z"/>
			</g>
		</g>
	</g>
	<g>
		<path class="st0" d="M24.5,22.9c-1.1,0-2-0.2-3-0.5c-0.4-0.2-1-0.5-1.4-0.8c-0.9-0.6-1.7-1.4-2.3-2.3c-0.5-0.9-1-1.8-1.2-2.9
			c-0.3-1.5-0.1-3.1,0.4-4.5c0.2-0.5,0.4-1,0.8-1.4c0.6-0.9,1.4-1.7,2.3-2.3c0.9-0.5,1.8-1,2.9-1.2c1.5-0.3,3.1-0.1,4.5,0.4
			c0.5,0.2,1,0.4,1.4,0.8c0.9,0.6,1.7,1.4,2.3,2.3c0.5,0.9,1,1.8,1.2,2.9c0.3,1.5,0.1,3.1-0.4,4.5c-0.2,0.5-0.4,1-0.8,1.4
			c-0.6,0.9-1.4,1.7-2.3,2.3s-1.8,1-2.9,1.2C25.6,22.8,25,22.9,24.5,22.9z M30.9,10.7L30.9,10.7c0.1,0.5,0.2,1.1,0.2,1.6
			c0,0.9-0.2,1.7-0.6,2.5c-0.2,0.3-0.4,0.8-0.6,1.1c-0.3,0.3-0.5,0.6-0.9,0.9c-0.8,0.5-1.6,1-2.5,1.2c-1,0.3-1.9,0.5-3.1,0.8
			c-1.4,0.3-3,0.6-4.7,1.2c2.7,3.2,7.5,3.6,10.7,1c1.7-1.4,2.8-3.6,2.8-5.9C32.1,13.3,31.7,11.9,30.9,10.7L30.9,10.7z M24.5,7.2
			c-4.2,0-7.6,3.4-7.6,7.6c0,1.6,0.5,3.2,1.5,4.5c5.2-1.5,9.2-5.5,10.7-10.6C27.8,7.8,26.2,7.2,24.5,7.2z"/>
	</g>
</g>
</svg>
