<svg xmlns="http://www.w3.org/2000/svg" width="30" height="30" viewBox="0 0 30 30">
  <g id="rda-rta" transform="translate(-1012 -148)">
    <circle id="Ellipse_89" data-name="Ellipse 89" cx="15" cy="15" r="15" transform="translate(1012 148)" fill="#e7e9e7"/>
    <g id="nicotine-inhaler" transform="translate(1020.249 154.638)">
      <path id="Path_271" data-name="Path 271" d="M159.107,24.709h-7.566a.265.265,0,0,1-.265-.265V8.015a.265.265,0,0,1,.265-.265h7.566a.265.265,0,0,1,.265.265V24.444A.265.265,0,0,1,159.107,24.709Zm0,0" transform="translate(-146.127 -7.485)" fill="#ef0027"/>
      <path id="Path_272" data-name="Path 272" d="M159.108,7.75h-1.1V21.409a2.616,2.616,0,0,1-2.616,2.616h-4.112v.418a.265.265,0,0,0,.265.265h7.566a.265.265,0,0,0,.265-.265V8.014a.265.265,0,0,0-.265-.265Zm0,0" transform="translate(-146.127 -7.485)" fill="#d30d2b"/>
      <path id="Path_273" data-name="Path 273" d="M191.743,42.174H186.8a.373.373,0,0,1-.373-.373V40.264a.373.373,0,0,1,.373-.373h4.948a.373.373,0,0,1,.373.373V41.8A.373.373,0,0,1,191.743,42.174Zm0,0" transform="translate(-180.072 -38.528)" fill="#a7aaaa"/>
      <path id="Path_274" data-name="Path 274" d="M225.422,39.891h3.03v2.284h-3.03Zm0,0" transform="translate(-217.739 -38.528)" fill="#e7e9e7"/>
      <path id="Path_275" data-name="Path 275" d="M191.743,163.959H186.8a.373.373,0,0,1-.373-.373v-1.537a.373.373,0,0,1,.373-.373h4.948a.373.373,0,0,1,.373.373v1.537A.373.373,0,0,1,191.743,163.959Zm0,0" transform="translate(-180.072 -156.153)" fill="#a7aaaa"/>
      <path id="Path_276" data-name="Path 276" d="M225.422,161.68h3.03v2.284h-3.03Zm0,0" transform="translate(-217.739 -156.158)" fill="#e7e9e7"/>
      <path id="Path_277" data-name="Path 277" d="M191.743,285.748H186.8a.373.373,0,0,1-.373-.373v-1.537a.373.373,0,0,1,.373-.373h4.948a.373.373,0,0,1,.373.373v1.537A.373.373,0,0,1,191.743,285.748Zm0,0" transform="translate(-180.072 -273.782)" fill="#a7aaaa"/>
      <path id="Path_278" data-name="Path 278" d="M225.422,283.465h3.03v2.284h-3.03Zm0,0" transform="translate(-217.739 -273.783)" fill="#e7e9e7"/>
      <path id="Path_279" data-name="Path 279" d="M191.743,407.537H186.8a.373.373,0,0,1-.373-.373v-1.537a.373.373,0,0,1,.373-.373h4.948a.373.373,0,0,1,.373.373v1.537A.373.373,0,0,1,191.743,407.537Zm0,0" transform="translate(-180.072 -391.412)" fill="#a7aaaa"/>
      <path id="Path_280" data-name="Path 280" d="M225.422,405.254h3.03v2.284h-3.03Zm0,0" transform="translate(-217.739 -391.412)" fill="#e7e9e7"/>
      <g id="Group_209" data-name="Group 209" transform="translate(7.683 1.363)">
        <path id="Path_281" data-name="Path 281" d="M226.275,285.065h-.853v.683h3.03v-2.284h-1.025v.448A1.153,1.153,0,0,1,226.275,285.065Zm0,0" transform="translate(-225.422 -275.145)" fill="#a7aaaa"/>
        <path id="Path_282" data-name="Path 282" d="M226.275,406.854h-.853v.683h3.03v-2.284h-1.025v.448A1.153,1.153,0,0,1,226.275,406.854Zm0,0" transform="translate(-225.422 -392.774)" fill="#a7aaaa"/>
        <path id="Path_283" data-name="Path 283" d="M227.428,39.891v.448a1.153,1.153,0,0,1-1.153,1.153h-.853v.683h3.03V39.891Zm0,0" transform="translate(-225.422 -39.891)" fill="#a7aaaa"/>
        <path id="Path_284" data-name="Path 284" d="M226.275,163.28h-.853v.683h3.03V161.68h-1.025v.448A1.153,1.153,0,0,1,226.275,163.28Zm0,0" transform="translate(-225.422 -157.52)" fill="#a7aaaa"/>
      </g>
      <path id="Path_285" data-name="Path 285" d="M11.412,13.077H8.274a.2.2,0,0,1-.2-.2V10.362a6.755,6.755,0,0,1,.5-2.553A.5.5,0,0,1,9.04,7.5h1.607a.5.5,0,0,1,.461.31,6.755,6.755,0,0,1,.5,2.553v2.518a.2.2,0,0,1-.2.2Zm0,0" transform="translate(-7.819 -7.244)" fill="#ef0027"/>
      <path id="Path_286" data-name="Path 286" d="M11.107,7.81a.5.5,0,0,0-.461-.31H9.88a6.754,6.754,0,0,1,.362,2.179v1.285a1.43,1.43,0,0,1-1.43,1.43H8.078v.487a.2.2,0,0,0,.2.2h3.138a.2.2,0,0,0,.2-.2V10.363a6.755,6.755,0,0,0-.5-2.553Zm0,0" transform="translate(-7.819 -7.244)" fill="#d30d2b"/>
      <path id="Path_287" data-name="Path 287" d="M22.559,476.106H20.421a.284.284,0,0,1-.284-.284v-.435a.284.284,0,0,1,.284-.284h2.138a.284.284,0,0,1,.284.284v.435A.284.284,0,0,1,22.559,476.106Zm0,0" transform="translate(-19.466 -458.874)" fill="#e7e9e7"/>
      <path id="Path_288" data-name="Path 288" d="M8.274,170.785a.2.2,0,0,0-.2.2v3.66a11.112,11.112,0,0,0,.294,2.538A4.45,4.45,0,0,1,8.49,178.2v3.267a.284.284,0,0,1,.284-.284h2.138a.284.284,0,0,1,.284.284V178.2a4.45,4.45,0,0,1,.118-1.017,11.1,11.1,0,0,0,.294-2.538v-3.66a.2.2,0,0,0-.2-.2Zm0,0" transform="translate(-7.819 -164.952)" fill="#ef0027"/>
      <path id="Path_289" data-name="Path 289" d="M23.059,170.785h-1.17v3.173a11.1,11.1,0,0,1-.294,2.538,4.449,4.449,0,0,0-.118,1.017v1.714a1.268,1.268,0,0,1-1.268,1.268h-.072v.967a.284.284,0,0,1,.284-.284h2.138a.284.284,0,0,1,.284.284V178.2a4.449,4.449,0,0,1,.118-1.017,11.1,11.1,0,0,0,.294-2.538v-3.66a.2.2,0,0,0-.2-.2Zm0,0" transform="translate(-19.466 -164.952)" fill="#d30d2b"/>
      <path id="Path_290" data-name="Path 290" d="M40.56,130.978H39.152v-1.1a.311.311,0,0,1,.311-.311h.785a.311.311,0,0,1,.311.311Zm0,0" transform="translate(-37.832 -125.145)" fill="#e7e9e7"/>
      <path id="Path_291" data-name="Path 291" d="M151.863,17.488H144.3a.521.521,0,0,1-.521-.521V.521A.521.521,0,0,1,144.3,0h7.566a.521.521,0,0,1,.521.521V16.967A.521.521,0,0,1,151.863,17.488ZM144.3.512a.009.009,0,0,0-.009.009V16.967a.009.009,0,0,0,.009.009h7.566a.009.009,0,0,0,.009-.009V.521a.009.009,0,0,0-.009-.009Zm0,0" transform="translate(-138.883 0)" fill="#1f283b"/>
      <path id="Path_292" data-name="Path 292" d="M.913,16.947a.541.541,0,0,0,.54.54H3.592a.541.541,0,0,0,.54-.54v-1.63a.256.256,0,1,0-.512,0v.656c-.048,0-2.155,0-2.195,0,0-2.874.04-3.1-.125-3.8C.94,10.63,1.014,9.94,1.014,6.09H4.032c0,3.791.074,4.54-.287,6.08a7.6,7.6,0,0,0-.124,1.952.256.256,0,1,0,.512,0,7.189,7.189,0,0,1,.111-1.835,11.382,11.382,0,0,0,.3-2.6c0-3.988.019-3.722-.045-3.856.065-.133.045.007.045-2.715a6.979,6.979,0,0,0-.52-2.65A.751.751,0,0,0,3.326,0H1.72a.751.751,0,0,0-.7.469A7.7,7.7,0,0,0,.5,3.774a.256.256,0,1,0,.512,0A7.228,7.228,0,0,1,1.5.663.241.241,0,0,1,1.72.512H3.326a.241.241,0,0,1,.224.15,6.466,6.466,0,0,1,.482,2.456V5.577H3.483v-.84a.568.568,0,0,0-.568-.568H2.13a.568.568,0,0,0-.568.568v.84H1.014V4.97a.256.256,0,1,0-.512,0c0,.7-.015.739.045.864C.482,5.967.5,5.7.5,9.69a11.38,11.38,0,0,0,.3,2.6c.158.671.111.85.111,4.661ZM2.075,4.737a.055.055,0,0,1,.055-.055h.785a.055.055,0,0,1,.055.055v.84h-.9ZM1.454,16.484H3.592a.028.028,0,0,1,.028.028v.435a.028.028,0,0,1-.028.028H1.454a.028.028,0,0,1-.028-.028v-.435A.028.028,0,0,1,1.454,16.484Zm0,0" transform="translate(-0.499 0)" fill="#1f283b"/>
      <path id="Path_293" data-name="Path 293" d="M179.552,35.186H184.5a.63.63,0,0,0,.629-.629V33.02a.63.63,0,0,0-.629-.629h-4.948a.63.63,0,0,0-.629.629v1.537A.63.63,0,0,0,179.552,35.186Zm5.065-2.167v1.537a.117.117,0,0,1-.117.117h-.7V32.9h.7A.117.117,0,0,1,184.617,33.02Zm-1.332-.117v1.771h-2.518V32.9Zm-3.85.117a.117.117,0,0,1,.117-.117h.7v1.771h-.7a.117.117,0,0,1-.117-.117Zm0,0" transform="translate(-172.828 -31.284)" fill="#1f283b"/>
      <path id="Path_294" data-name="Path 294" d="M238.963,72.473h1.61a.256.256,0,1,0,0-.512h-1.61a.256.256,0,0,0,0,.512Zm0,0" transform="translate(-230.571 -69.503)" fill="#1f283b"/>
      <path id="Path_295" data-name="Path 295" d="M179.552,156.972H184.5a.63.63,0,0,0,.629-.629v-1.537a.63.63,0,0,0-.629-.629h-4.948a.63.63,0,0,0-.629.629v1.537A.63.63,0,0,0,179.552,156.972Zm5.065-2.167v1.537a.117.117,0,0,1-.117.117h-.7v-1.771h.7a.117.117,0,0,1,.117.117Zm-1.332-.117v1.771h-2.518v-1.771Zm-3.85.117a.117.117,0,0,1,.117-.117h.7v1.771h-.7a.117.117,0,0,1-.117-.117Zm0,0" transform="translate(-172.828 -148.91)" fill="#1f283b"/>
      <path id="Path_296" data-name="Path 296" d="M238.963,194.262h1.61a.256.256,0,1,0,0-.512h-1.61a.256.256,0,0,0,0,.512Zm0,0" transform="translate(-230.571 -187.132)" fill="#1f283b"/>
      <path id="Path_297" data-name="Path 297" d="M179.551,278.76H184.5a.63.63,0,0,0,.629-.629v-1.537a.63.63,0,0,0-.629-.629h-2.084a.256.256,0,0,0,0,.512h.869v1.771h-2.518v-1.771h.454a.256.256,0,1,0,0-.512h-1.669a.63.63,0,0,0-.629.629v1.537A.63.63,0,0,0,179.551,278.76Zm4.245-2.284h.7a.117.117,0,0,1,.117.117v1.537a.117.117,0,0,1-.117.117h-.7Zm-4.362.117a.117.117,0,0,1,.117-.117h.7v1.771h-.7a.117.117,0,0,1-.117-.117Zm0,0" transform="translate(-172.828 -266.539)" fill="#1f283b"/>
      <path id="Path_298" data-name="Path 298" d="M238.707,315.791a.256.256,0,0,0,.256.256h1.61a.256.256,0,1,0,0-.512h-1.61A.256.256,0,0,0,238.707,315.791Zm0,0" transform="translate(-230.571 -304.758)" fill="#1f283b"/>
      <path id="Path_299" data-name="Path 299" d="M179.552,400.549H184.5a.63.63,0,0,0,.629-.629v-1.537a.63.63,0,0,0-.629-.629h-4.948a.63.63,0,0,0-.629.629v1.537A.63.63,0,0,0,179.552,400.549Zm5.065-2.167v1.537a.117.117,0,0,1-.117.117h-.7v-1.771h.7A.117.117,0,0,1,184.617,398.383Zm-1.332-.117v1.771h-2.518v-1.771Zm-3.85.117a.117.117,0,0,1,.117-.117h.7v1.771h-.7a.117.117,0,0,1-.117-.117Zm0,0" transform="translate(-172.828 -384.168)" fill="#1f283b"/>
      <path id="Path_300" data-name="Path 300" d="M238.963,437.836h1.61a.256.256,0,1,0,0-.512h-1.61a.256.256,0,1,0,0,.512Zm0,0" transform="translate(-230.571 -422.387)" fill="#1f283b"/>
    </g>
  </g>
</svg>
