<?xml version="1.0" encoding="utf-8"?>
<!-- Generator: Adobe Illustrator 22.0.1, SVG Export Plug-In . SVG Version: 6.00 Build 0)  -->
<svg version="1.1" id="Layer_5" xmlns="http://www.w3.org/2000/svg" xmlns:xlink="http://www.w3.org/1999/xlink" x="0px" y="0px"
	 viewBox="0 0 512 512" style="enable-background:new 0 0 512 512;" xml:space="preserve">
<style type="text/css">
	.st0{fill:#CECECE;}
</style>
<path class="st0" d="M328,280c-52.9,0-96,43.1-96,96s43.1,96,96,96s96-43.1,96-96S380.9,280,328,280z M328,456
	c-44.1,0-80-35.9-80-80s35.9-80,80-80s80,35.9,80,80S372.1,456,328,456z"/>
<path class="st0" d="M328,424v16c6.3,0,12.5-0.9,18.5-2.7l-4.6-15.3C337.4,423.3,332.7,424,328,424L328,424z"/>
<path class="st0" d="M328,312v16c26.5,0,48,21.5,48,48c0,16.2-8,31.1-21.5,40.1l8.8,13.3c18-11.9,28.7-31.9,28.7-53.4
	C392,340.7,363.3,312,328,312z"/>
<path class="st0" d="M288,168c0-25.9-15.4-48.1-37.6-58.2c8.2-7.3,13.6-17.9,13.6-29.8c0-22.1-17.9-40-40-40s-40,17.9-40,40
	c0,11.9,5.3,22.4,13.6,29.8C175.4,119.9,160,142.1,160,168v16h128V168z M200,80c0-13.2,10.8-24,24-24s24,10.8,24,24s-10.8,24-24,24
	S200,93.2,200,80z M176,168c0-26.5,21.5-48,48-48s48,21.5,48,48H176z"/>
<path class="st0" d="M304,40h48v16h-48V40z"/>
<path class="st0" d="M304,72h48v16h-48V72z"/>
<path class="st0" d="M304,104h48v16h-48V104z"/>
<path class="st0" d="M304,136h48v16h-48V136z"/>
<path class="st0" d="M304,168h48v16h-48V168z"/>
<path class="st0" d="M417.3,114.1l3.3-15.6l46.9,10l-3.3,15.6L417.3,114.1z"/>
<path class="st0" d="M410.6,145.4l3.3-15.6l46.9,10l-3.3,15.6L410.6,145.4z"/>
<path class="st0" d="M404,176.7l3.3-15.6l46.9,10l-3.3,15.6L404,176.7z"/>
<path class="st0" d="M397.3,208l3.3-15.6l46.9,10l-3.3,15.6L397.3,208z"/>
<path class="st0" d="M390.6,239.3l3.3-15.6l46.9,10l-3.3,15.6L390.6,239.3z"/>
<path class="st0" d="M505.5,83.7L384,57.9V8H128v49.9L6.5,83.7L60.1,336H48c-22.1,0-40,17.9-40,40s17.9,40,40,40h120v-16h34.3
	c11.3,59.1,63.3,104,125.7,104c70.6,0,128-57.4,128-128c0-12.4-1.9-24.3-5.1-35.6L505.5,83.7z M486.5,96.1l-46.4,218.3
	c-12.7-23-32.4-41.7-56.1-53.3V74.3L486.5,96.1z M368,24v230.5c-5.2-1.7-10.5-3.1-16-4.2V200H160v120h53.1c-4.9,10-8.6,20.7-10.7,32
	H168v-16h-24V24H368z M222.3,304H176v-88h160v32.4c-2.7-0.2-5.3-0.4-8-0.4C284.1,248,245.3,270.2,222.3,304z M109.2,336l-12.5-58.8
	l31.3-6.6V336H109.2z M93.4,194.1c7-10.8,17.7-18.1,30.3-20.8c1.4-0.3,2.8-0.5,4.3-0.6v48.8l-41.3,8.8
	C84.1,217.7,86.4,204.9,93.4,194.1L93.4,194.1z M102.3,154.3c-5.4-3.5-9.1-8.9-10.4-15.1c-1.3-6.3-0.2-12.7,3.3-18.1
	s8.9-9.1,15.1-10.4c6.1-1.3,12.3,0,17.6,3.4v40.2c-2.4,1.6-4.9,2.8-7.6,3.4C114.1,159,107.7,157.8,102.3,154.3z M25.5,96.1L128,74.3
	v22.1c-6.7-2.3-13.9-2.8-20.9-1.3c-10.4,2.2-19.4,8.4-25.2,17.3s-7.8,19.7-5.6,30.1c2.2,10.5,8.4,19.4,17.3,25.2
	c0.7,0.4,1.4,0.7,2,1.1c-6.1,4.5-11.4,10-15.6,16.6c-9.3,14.3-12.5,31.4-8.9,48.2l3.3,15.7l53.6-11.4v16.4l-50.3,10.7L92.8,336H76.5
	L25.5,96.1z M152,400H48c-13.2,0-24-10.8-24-24s10.8-24,24-24h104V400z M168,384v-16h32.4c-0.2,2.7-0.4,5.3-0.4,8s0.2,5.3,0.4,8H168
	z M328,488c-61.8,0-112-50.2-112-112s50.2-112,112-112s112,50.2,112,112S389.8,488,328,488z"/>
</svg>
