<svg xmlns="http://www.w3.org/2000/svg" width="56.916" height="51" viewBox="0 0 56.916 51"><defs><style>.a{fill:#fff;}.b{fill:#a6ce39;}</style></defs><g transform="translate(11.305 0)"><path class="a" d="M108.218,30.357a.915.915,0,0,0-1.1-.245l-1.59.612L100.635,19.9a.922.922,0,0,0-.856-.55h-15.9a.872.872,0,0,0-.734.367L74.156,30.479a.8.8,0,0,0-.183.734,1.458,1.458,0,0,0,.367.673l8.989,6.665a.966.966,0,0,0,1.345-.183l5.871-7.95,2.813,5.014-1.773.917a.863.863,0,0,0-.489.917.907.907,0,0,0,.734.795l10.029,2.446h.245a1.045,1.045,0,0,0,.795-.428l5.381-8.622A.916.916,0,0,0,108.218,30.357ZM83.7,36.411l-7.4-5.5,8.072-9.662h1.284l3.975,7.4Zm17.856,2.14L94.764,36.9l.367-.183a.868.868,0,0,0,.489-.55,1.023,1.023,0,0,0-.061-.734l-4.036-7.216-3.791-7.032H99.106l5.014,11.129a.993.993,0,0,0,.978.55Z" transform="translate(-73.95 -19.35)"/></g><g transform="translate(0 19.691)"><path class="b" d="M24.415,164.172l-9.906-.428,2.568-5.137,1.712.978a.922.922,0,0,0,1.1-.122.849.849,0,0,0,.245-1.04l-3.608-9.662a.941.941,0,0,0-.917-.612L5.4,148.517a.917.917,0,0,0-.856.673,1,1,0,0,0,.367,1.04l1.406.978L.138,161.359a1.051,1.051,0,0,0,0,1.04l6.849,10.09,2.629,3.975a1.045,1.045,0,0,0,.795.428H24.353a.966.966,0,0,0,.978-.978V165.15A1.045,1.045,0,0,0,24.415,164.172Zm-15.96,7.094-6.36-9.417,6.421-10.4a.842.842,0,0,0-.122-1.1l6.665-.306,2.446,6.6-.367-.183a.787.787,0,0,0-.734-.061.868.868,0,0,0-.55.489l-3.669,7.338ZM23.375,175H10.9l-1.223-1.9,3.914-7.46,9.784.428Z" transform="translate(0 -148.15)"/></g><g transform="translate(29.971 19.409)"><path class="b" d="M222.9,159.434l-6.115-12.6a.868.868,0,0,0-.55-.489.809.809,0,0,0-.734.122l-9.784,5.442a.984.984,0,0,0-.367,1.284l4.77,8.622-5.748.489-.061-1.957a.917.917,0,0,0-.673-.856.963.963,0,0,0-1.04.306l-6.36,8.133a1.028,1.028,0,0,0-.061,1.1l5.687,8.439a1.045,1.045,0,0,0,.795.428.368.368,0,0,0,.245-.061.981.981,0,0,0,.673-.856l.061-1.712H215.5a.959.959,0,0,0,.856-.55l6.543-14.493A.907.907,0,0,0,222.9,159.434Zm-7.889,14H202.841a.994.994,0,0,0-.917.673l-3.73-5.565,4.342-5.565v.428a.946.946,0,0,0,1.04.917l8.194-.734,7.95-.55Zm5.5-12.414-8.378.612-4.709-8.561,8.072-4.525,5.565,11.313Z" transform="translate(-196.045 -146.311)"/></g></svg>