<?xml version="1.0" encoding="utf-8"?>
<!-- Generator: Adobe Illustrator 22.0.1, SVG Export Plug-In . SVG Version: 6.00 Build 0)  -->
<svg version="1.1" id="Layer_1" xmlns="http://www.w3.org/2000/svg" xmlns:xlink="http://www.w3.org/1999/xlink" x="0px" y="0px"
	 viewBox="0 0 511 511" style="enable-background:new 0 0 511 511;" xml:space="preserve">
<style type="text/css">
	.st0{fill:#EFEFEF;}
	.st1{fill:#CECECE;}
	.st2{fill:#FFFFFF;}
	.st3{fill:#D6D6D6;}
	.st4{fill:none;}
	.st5{fill:#AFAFAF;}
	.st6{fill:#E5E5E5;}
	.st7{fill:#DBDBDB;}
</style>
<g id="background_7_">
	<g>
		<g>
			<g id="SVGID_9_">
				<path class="st0" d="M253.5,6.4c135.3,0,245,112.4,245,251.1s-109.7,251.1-245,251.1S8.5,396.2,8.5,257.5S118.2,6.4,253.5,6.4
					L253.5,6.4z"/>
			</g>
		</g>
	</g>
</g>
<g>
	<polygon class="st1" points="108.8,21 26.3,159.3 187,159.3 	"/>
	<g>
		<path class="st2" d="M98.3,135.7c0-1.1,0.2-2.2,0.6-3.2c0.4-1,1-1.8,1.8-2.6c0.7-0.7,1.6-1.3,2.6-1.7c1-0.4,2.1-0.6,3.3-0.6
			c1.2,0,2.3,0.2,3.3,0.6c1,0.4,1.9,1,2.7,1.7c0.8,0.7,1.4,1.6,1.8,2.6c0.4,1,0.6,2.1,0.6,3.2c0,1.1-0.2,2.2-0.6,3.2
			c-0.4,1-1,1.9-1.8,2.6c-0.8,0.7-1.7,1.3-2.7,1.7c-1,0.4-2.1,0.6-3.3,0.6c-1.2,0-2.3-0.2-3.3-0.6c-1-0.4-1.9-1-2.6-1.7
			c-0.7-0.7-1.3-1.6-1.8-2.6C98.5,137.9,98.3,136.9,98.3,135.7z M113.7,73.7V101c0,2.9-0.2,5.8-0.5,8.7c-0.4,2.9-0.8,5.8-1.4,8.8
			h-10c-0.6-3-1-5.9-1.4-8.8c-0.4-2.9-0.5-5.8-0.5-8.7V73.7H113.7z"/>
	</g>
</g>
<path class="st3" d="M424.9,317.1H228.3c-13.1,0-23.8-10.7-23.8-23.8V179.9c0-13.1,10.7-23.8,23.8-23.8h196.6
	c13.1,0,23.8,10.7,23.8,23.8v113.3C448.7,306.4,438,317.1,424.9,317.1z"/>
<path class="st4" d="M288.8,278.9c36.7-37.7,36.7-98.9,0-136.6s-96.5-37.7-133.3,0c-36.7,37.7-36.7,98.9,0,136.6
	S252,316.6,288.8,278.9z"/>
<g>
	<path class="st5" d="M127.7,367.4c-52.2-53.5-52.2-140.1,0-193.6s136.8-53.5,188.9,0c47.3,48.5,51.5,124.6,13.2,177.9l41.3,42.3
		c3,3,3,8.2,0.1,11.2l-17.4,17.9c-3,3-7.8,2.8-10.8-0.2l-41.2-42.3C249.3,420.4,175.1,416,127.7,367.4z"/>
	<path class="st2" d="M151,343.5c39.3,40.3,102.9,40.3,142.2,0s39.3-105.5,0-145.8s-102.9-40.3-142.2,0
		C111.8,238,111.8,303.3,151,343.5z"/>
	<path class="st1" d="M364.1,381.3l82.4,84.5c-10.2,13.8-21.8,26.6-34.5,38L328.3,418C318.5,407.9,354.2,371.2,364.1,381.3z"/>
	<path class="st6" d="M336.2,415.4c-7.4-7.6,19.3-35.1,26.7-27.6l20.3,21.1V464L336.2,415.4z"/>
	<path class="st1" d="M322.9,426.2c2.5,2.5,6.5,2.5,8.9,0l40.7-41.7c2.5-2.5,2.5-6.6,0-9.2l-10.3-10.5c-2.5-2.5-6.5-2.5-8.9,0
		l-40.7,41.7c-2.5,2.5-2.5,6.6,0,9.2L322.9,426.2z"/>
	<path class="st7" d="M154,346.7V272c0-4.4,3.6-8,8-8h0c4.4,0,8,3.6,8,8v85.1C170,361.5,159,351.3,154,346.7z"/>
	<path class="st7" d="M179,364.5v-77c0-4.4,3.6-8,8-8h0c4.4,0,8,3.6,8,8v81.4C187.8,369.1,182.5,367.2,179,364.5z"/>
</g>
</svg>
