<svg xmlns="http://www.w3.org/2000/svg" width="39.406" height="51" viewBox="0 0 39.406 51"><defs><style>.a{fill:#a6ce39;}.b{fill:#fff;}</style></defs><g transform="translate(-58.197)"><g transform="translate(59.033 8.965)"><path class="a" d="M104.928,97.829a1.988,1.988,0,0,0-1.758-1.056H97.511a5.676,5.676,0,0,0-11.177,0H80.6a4.383,4.383,0,1,0-7.341,0H68.585a1.992,1.992,0,0,0-1.653,3.1L80.3,119.755v11.284a1,1,0,0,0,1.394.913l9.164-3.991a1,1,0,0,0,.6-.913v-7.294l13.367-19.878A1.988,1.988,0,0,0,104.928,97.829ZM91.922,94.084a3.691,3.691,0,0,1,3.548,2.689h-7.1A3.691,3.691,0,0,1,91.922,94.084ZM76.93,91.992a2.391,2.391,0,1,1-2.391,2.391A2.393,2.393,0,0,1,76.93,91.992Zm12.7,26.9a1,1,0,0,0-.17.556V126.4l-7.172,3.123v-9.072h3.6a1,1,0,0,0,0-1.992H81.826L71.8,103.547H91.922a1,1,0,0,0,0-1.992H70.461l-1.876-2.789h34.584Z" transform="translate(-66.593 -90)"/></g><g transform="translate(77.335)"><path class="b" d="M254.707,0a4.383,4.383,0,1,0,4.383,4.383A4.388,4.388,0,0,0,254.707,0Zm0,6.773A2.391,2.391,0,1,1,257.1,4.383,2.393,2.393,0,0,1,254.707,6.773Z" transform="translate(-250.324)"/></g><g transform="translate(91.367 4.814)"><path class="b" d="M392.193,48.333a1,1,0,0,0-1,1V54.99a1,1,0,1,0,1.992,0V49.329A1,1,0,0,0,392.193,48.333Z" transform="translate(-391.197 -48.333)"/></g><g transform="translate(91.367 1.544)"><path class="b" d="M392.9,15.792a1,1,0,1,0,.292.7A1,1,0,0,0,392.9,15.792Z" transform="translate(-391.197 -15.5)"/></g><g transform="translate(71.762 1.271)"><path class="b" d="M195.371,12.755a1,1,0,0,0-1,1v4.084a1,1,0,1,0,1.992,0V13.751A1,1,0,0,0,195.371,12.755Z" transform="translate(-194.375 -12.755)"/></g><g transform="translate(58.197)"><path class="b" d="M59.193,0a1,1,0,0,0-1,1V7.487a1,1,0,0,0,1.992,0V1A1,1,0,0,0,59.193,0Z" transform="translate(-58.197)"/></g><g transform="translate(58.197 10.227)"><path class="b" d="M59.9,102.962a1,1,0,1,0,.292.7A1,1,0,0,0,59.9,102.962Z" transform="translate(-58.197 -102.67)"/></g><g transform="translate(87.796 20.52)"><path class="b" d="M357.047,206.292a1,1,0,1,0,.292.7A1,1,0,0,0,357.047,206.292Z" transform="translate(-355.347 -206)"/></g></g></svg>