<?xml version="1.0" encoding="utf-8"?>
<!-- Generator: Adobe Illustrator 22.0.1, SVG Export Plug-In . SVG Version: 6.00 Build 0)  -->
<svg version="1.1" id="Layer_1" xmlns="http://www.w3.org/2000/svg" xmlns:xlink="http://www.w3.org/1999/xlink" x="0px" y="0px"
	 viewBox="0 0 51 51" style="enable-background:new 0 0 51 51;" xml:space="preserve">
<style type="text/css">
	.st0{fill:#A6CE39;}
</style>
<path class="st0" d="M2,45.5c-1.1,0-2-0.9-2-2s0.9-2,2-2h32.2L47.6,28c0.8-0.8,2-0.8,2.8,0c0,0,0,0,0,0c0.8,0.8,0.8,2,0,2.8
	l-14,14.1c-0.4,0.4-0.9,0.6-1.4,0.6H2z M2,35.1c-1.1,0-2-0.9-2-2c0-1.1,0.9-2,2-2h30.2l14.4-14.5c0.8-0.8,2-0.8,2.8,0c0,0,0,0,0,0
	c0.8,0.8,0.8,2,0,2.8l-14.9,15c-0.4,0.4-0.9,0.6-1.4,0.6H2z M2,25.2c-1.1,0-2-0.9-2-2c0-0.6,0.2-1.1,0.6-1.5L17.6,6
	c0.4-0.3,0.9-0.5,1.4-0.5H47c0.8,0,1.6,0.5,1.9,1.3C49.2,7.5,49,8.4,48.4,9l-17,15.7c-0.4,0.3-0.9,0.5-1.4,0.5L2,25.2z M7.1,21.2
	h22.2L41.9,9.5H19.7L7.1,21.2z"/>
</svg>
