<svg xmlns="http://www.w3.org/2000/svg" width="51" height="51" viewBox="0 0 51 51"><defs><style>.a{fill:#a6ce39;}</style></defs><path class="a" d="M44.787,51a5.635,5.635,0,0,1-4.012-1.637L29.1,37.689a19.682,19.682,0,0,1-9.141,2.236A19.963,19.963,0,1,1,39.927,19.964,19.7,19.7,0,0,1,37.691,29.1L49.365,40.774a5.948,5.948,0,0,1-.2,8.39A6.168,6.168,0,0,1,44.787,51Zm-9.32-18.486a20.231,20.231,0,0,1-2.952,2.952l11.079,11.08a1.676,1.676,0,0,0,1.195.475,2.238,2.238,0,0,0,1.559-.674,1.966,1.966,0,0,0,.2-2.756ZM19.963,3.985A15.979,15.979,0,1,0,35.943,19.964,16,16,0,0,0,19.963,3.985ZM13.05,21.956a2,2,0,0,1-1.993-1.992,8.915,8.915,0,0,1,8.905-8.905,1.992,1.992,0,0,1,0,3.985,4.926,4.926,0,0,0-4.92,4.92A2,2,0,0,1,13.05,21.956Z"/></svg>