<svg xmlns="http://www.w3.org/2000/svg" width="22.602" height="21.405" viewBox="0 0 22.602 21.405"><defs><style>.a{fill:#efefef;}.b{fill:#a4afc1;}.c{fill:#f3f3f1;}.d{fill:#d5dbe1;}.e{fill:#e1001e;}.f{fill:#1f283b;}</style></defs><g transform="translate(0 0)"><path class="a" d="M5.376,4.067c-1.161,4.3-4.185,6.645-4.745,8.715S.087,19.522,9.61,22.1s12.5-2.9,13.118-5.174C25.612,6.261,7.433-3.542,5.376,4.067Z" transform="translate(-0.436 -1.366)"/><g transform="translate(1.73 0.971)"><path class="b" d="M6.625,2.875h.643V4.162H6.625Z" transform="translate(-4.373 -2.875)"/><path class="b" d="M6.625,8.625h.643V9.912H6.625Z" transform="translate(-4.373 -4.925)"/><path class="b" d="M3.125,6.125H4.412v.643H3.125Z" transform="translate(-3.125 -4.034)"/><path class="b" d="M8.875,6.125h1.287v.643H8.875Z" transform="translate(-5.175 -4.034)"/></g><circle class="c" cx="6.273" cy="6.273" r="6.273" transform="translate(5.028 5.394)"/><path class="d" d="M9.7,16.023A6.271,6.271,0,0,1,15.247,9.8a6.273,6.273,0,1,0,0,12.457A6.271,6.271,0,0,1,9.7,16.023Z" transform="translate(-3.222 -4.356)"/><path class="e" d="M19.44,20.478l-2.091-2.735a.483.483,0,0,1-.1-.293v-3.7h.965v3.536l1.992,2.6Z" transform="translate(-6.432 -5.782)"/><path class="f" d="M14.256,22.512a6.756,6.756,0,1,1,6.756-6.756A6.763,6.763,0,0,1,14.256,22.512Zm0-12.547a5.791,5.791,0,1,0,5.791,5.791A5.8,5.8,0,0,0,14.256,9.965Z" transform="translate(-2.955 -4.089)"/><path class="f" d="M14.5,6H19v.965H14.5Z" transform="translate(-5.451 -3.019)"/><path class="f" d="M17.25,6.75h.965V8.68H17.25Z" transform="translate(-6.432 -3.286)"/><path class="f" d="M0,0H2.147V.965H0Z" transform="translate(15.39 6.894) rotate(-45)"/></g></svg>