<svg xmlns="http://www.w3.org/2000/svg" width="47.385" height="53.65" viewBox="0 0 47.385 53.65"><defs><style>.a{fill:#a6ce39;}.b{fill:#fff;}</style></defs><path class="a" d="M77.255,12.538a1.571,1.571,0,0,0-.867-1.324L54.291.166a1.572,1.572,0,0,0-1.406,0l-22.1,11.048a1.571,1.571,0,0,0-.867,1.324,55.689,55.689,0,0,0,2.229,16.874A41.169,41.169,0,0,0,38.9,43.072,31.947,31.947,0,0,0,53.03,53.547a1.573,1.573,0,0,0,1.118,0A31.946,31.946,0,0,0,68.276,43.072a41.171,41.171,0,0,0,6.75-13.659,55.689,55.689,0,0,0,2.229-16.874ZM71.984,28.614c-3.2,10.829-9.387,18.152-18.4,21.776-9.008-3.624-15.2-10.947-18.4-21.776A54.649,54.649,0,0,1,33.044,13.6L53.589,3.329,74.133,13.6A54.646,54.646,0,0,1,71.984,28.614Z" transform="translate(-29.896 0)"/><path class="b" d="M124.537,75.119,108.8,67.249a1.572,1.572,0,0,0-1.406,0L91.65,75.119a1.571,1.571,0,0,0-.866,1.5,51.308,51.308,0,0,0,2,11.408c2.694,8.921,7.609,15.2,14.608,18.66a1.571,1.571,0,0,0,1.393,0c7-3.46,11.914-9.739,14.608-18.66a51.321,51.321,0,0,0,2-11.408A1.571,1.571,0,0,0,124.537,75.119Zm-4.148,12c-2.34,7.75-6.475,13.26-12.3,16.391-5.82-3.131-9.955-8.642-12.3-16.391A47.658,47.658,0,0,1,94,77.46l14.1-7.048,14.1,7.048A47.683,47.683,0,0,1,120.389,87.122Z" transform="translate(-84.401 -60.054)"/></svg>