<?xml version="1.0" encoding="utf-8"?>
<!-- Generator: Adobe Illustrator 22.0.1, SVG Export Plug-In . SVG Version: 6.00 Build 0)  -->
<svg version="1.1" id="Layer_1" xmlns="http://www.w3.org/2000/svg" xmlns:xlink="http://www.w3.org/1999/xlink" x="0px" y="0px"
	 viewBox="0 0 50 50" style="enable-background:new 0 0 50 50;" xml:space="preserve">
<style type="text/css">
	.st0{fill:#FFFFFF;}
</style>
<g>
	<g>
		<path class="st0" d="M7.2,32.8v-1.7H0.3v1.7h2.5v7h1.8v-7H7.2L7.2,32.8z"/>
		<path class="st0" d="M21,33.4c-1,0-1.7,0.1-2.1,1.1v-1h-1.6v6.3h1.6v-2.6c0-1.3,0.3-2.2,2.1-2.3V33.4z"/>
		<path class="st0" d="M9.3,33.2H9.1c-1,0-1.9,0.5-2.5,1.3C6.2,35.1,6,35.9,6,36.6c0,0.8,0.2,1.6,0.6,2.3c0.6,0.8,1.5,1.2,2.5,1.2
			c1.1,0,2.5-0.3,3-2.1h-1.7c-0.2,0.5-0.7,0.8-1.2,0.8H9.1c-1-0.1-1.3-1.1-1.3-1.7h4.4v-0.4C12.2,36,12.1,33.2,9.3,33.2L9.3,33.2z
			 M9.1,36H7.8c0-0.8,0.6-1.4,1.3-1.5h0.1c0.4,0,1.2,0.2,1.2,1.5H9.1z"/>
		<path class="st0" d="M36.6,33.9c0-0.2,0-0.5-0.1-0.7c-0.2-1.7-1.4-2.2-2.8-2.2h-3.5v8.8H32v-3.1h1.7c0.9,0,2.6-0.1,2.9-2.2
			C36.5,34.4,36.6,34.1,36.6,33.9z M33.4,35.1H32v-2.3h1.4c0.4,0,1.3-0.1,1.3,1.1C34.6,34.8,34.2,35.1,33.4,35.1L33.4,35.1z"/>
		<path class="st0" d="M47.1,35.9l2.1-2.4h-1.9l-2.1,2.4v-4.8h-1.7v8.8h1.7v-2.2l0.7-0.5l1.8,2.7h1.9L47.1,35.9L47.1,35.9z"/>
		<path class="st0" d="M42.1,38.3l0.1-2.8c0-0.7-0.1-2.3-2.7-2.3c-0.1,0-0.1,0-0.2,0c-0.8,0-2.5,0.3-2.5,2.2h1.7
			c0-0.5,0.3-0.9,0.8-1c0,0,0,0,0,0c0.1,0,0.1,0,0.2,0c0.5-0.1,0.9,0.3,0.9,0.7c0,0,0,0.1,0,0.1v0.2c0,0.5-0.4,0.5-1.2,0.6
			c-0.2,0-0.4,0-0.6,0.1c-0.9,0.2-1.9,0.4-2.2,1.5c0,0.1,0,0.3,0,0.5c0,0.2,0,0.3,0,0.5c0.1,0.6,0.6,1.4,2,1.4c0.3,0,0.5,0,0.8-0.1
			c0.5-0.1,0.9-0.3,1.2-0.6l0-0.1l0.1,0.8h1.8C42.2,39.4,42.1,38.9,42.1,38.3L42.1,38.3z M40.5,37.7c0,0.7-0.7,0.9-1.2,1h-0.2
			c-0.3,0-1-0.1-1-0.7c0-0.7,0.8-0.9,1.1-0.9h0c0.4,0,0.8-0.2,1.2-0.4L40.5,37.7L40.5,37.7z"/>
		<path class="st0" d="M15,31.6h-1.6v1.9h-1v1.3h1v3.4c0,0.8,0.2,1.7,1.3,1.7c0.4,0,1,0,1.5,0v-1.3h-0.5c-0.7,0-0.7-0.4-0.7-0.7
			v-3.1h1.2v-1.3H15V31.6z"/>
		<path class="st0" d="M26.7,38.3l0.1-2.8c0-0.7-0.1-2.3-2.7-2.3c-0.1,0-0.1,0-0.2,0c-0.8,0-2.5,0.3-2.6,2.2H23c0-0.5,0.3-0.9,0.8-1
			c0,0,0,0,0,0c0.1,0,0.1,0,0.2,0c0.5-0.1,0.9,0.3,0.9,0.7c0,0,0,0.1,0,0.1v0.2c0,0.5-0.4,0.5-1.1,0.6c-0.2,0-0.4,0-0.6,0.1
			C22.1,36.3,21,36.6,21,38c0,0.5,0.1,1.8,2,1.8c0.3,0,0.5,0,0.8-0.1c0.5,0,0.9-0.3,1.1-0.6l0-0.1l0.1,0.8H27
			C26.7,39.4,26.6,38.9,26.7,38.3L26.7,38.3z M25,37.7c0,0.7-0.7,0.9-1.1,1h-0.2c-0.3,0-1-0.1-1-0.7c0-0.7,0.7-0.9,1.1-0.9h0
			c0.4,0,0.8-0.2,1.1-0.4L25,37.7L25,37.7z"/>
	</g>
	<g>
		<path class="st0" d="M29.7,18.7l1.3,1.7l2.9-3.6h-2.9L29.7,18.7L29.7,18.7z"/>
		<path class="st0" d="M25.7,18.6c-1.1,0-2,0.9-2,2c0,1.1,0.9,1.9,2,1.9c1.1,0,1.9-0.8,2-1.9C27.7,19.5,26.8,18.6,25.7,18.6z"/>
		<path class="st0" d="M21.4,20.6c0-2.4,1.9-4.3,4.3-4.3c0.8,0,1.5,0.2,2.2,0.6c0.1,0.1,0.2,0.2,0.3,0.2l-0.3-0.6l-2.2-3.9l-1.4-2.6
			L16,24.4h7.9C22.4,23.8,21.4,22.2,21.4,20.6L21.4,20.6z"/>
		<path class="st0" d="M27.9,24.3l-0.3,0.2h4.7c-1-0.4-2-1-2.8-1.8C29.1,23.3,28.6,23.9,27.9,24.3z"/>
	</g>
</g>
</svg>
