<?xml version="1.0" encoding="utf-8"?>
<!-- Generator: Adobe Illustrator 22.0.1, SVG Export Plug-In . SVG Version: 6.00 Build 0)  -->
<svg version="1.1" id="Layer_1" xmlns="http://www.w3.org/2000/svg" xmlns:xlink="http://www.w3.org/1999/xlink" x="0px" y="0px"
	 viewBox="0 0 45 45" style="enable-background:new 0 0 45 45;" xml:space="preserve">
<style type="text/css">
	.st0{fill:#F2F2F2;}
	.st1{fill:#434343;}
</style>
<g id="Group_3166" transform="translate(17648 12744)">
	<path id="Path_3301" class="st0" d="M-17625.5-12744c12.4,0,22.5,10.1,22.5,22.5s-10.1,22.5-22.5,22.5s-22.5-10.1-22.5-22.5
		S-17637.9-12744-17625.5-12744z"/>
	<path id="fi-rr-user" class="st1" d="M-17625.3-12721.4c3.4,0,6.2-2.8,6.2-6.2s-2.8-6.2-6.2-6.2c-3.4,0-6.2,2.8-6.2,6.2l0,0
		C-17631.6-12724.2-17628.8-12721.4-17625.3-12721.4z M-17625.3-12719.4c-5.2,0-9.3,4.2-9.3,9.3c0,0.6,0.5,1,1,1s1-0.5,1-1l0,0
		c0-4,3.3-7.3,7.3-7.3s7.3,3.3,7.3,7.3c0,0.6,0.5,1,1,1c0.6,0,1-0.5,1-1C-17616-12715.2-17620.2-12719.4-17625.3-12719.4z"/>
</g>
</svg>
