<?xml version="1.0" encoding="utf-8"?>
<!-- Generator: Adobe Illustrator 22.0.1, SVG Export Plug-In . SVG Version: 6.00 Build 0)  -->
<svg version="1.1" id="Layer_1" xmlns="http://www.w3.org/2000/svg" xmlns:xlink="http://www.w3.org/1999/xlink" x="0px" y="0px"
	 viewBox="0 0 245 41.8" style="enable-background:new 0 0 245 41.8;" xml:space="preserve">
<style type="text/css">
	.st0{fill:#A3A3A3;}
	.st1{fill:#EAE9E8;}
	.st2{fill:#FFFFFF;}
	.st3{fill:#C00020;}
	.st4{fill:#E1001E;}
	.st5{fill:#252F38;}
</style>
<g id="Group_1473" transform="translate(-6.854 -12.306)">
	<path id="Path_2901" class="st0" d="M231.4,54.1h-36.7c-2.8,0.1-5.2-2.1-5.3-5c0-0.4,0-0.8,0.1-1.1l4.3-28.6c0.6-3.5,3.5-6,7-6.1
		h36.7c2.8-0.1,5.2,2.1,5.3,5c0,0.4,0,0.8-0.1,1.1L238.4,48C237.8,51.5,234.9,54,231.4,54.1"/>
	<path id="Path_2902" class="st1" d="M231.5,53.1h-36.7c-2.8,0.1-5.2-2.1-5.3-5c0-0.4,0-0.8,0.1-1.1l4.3-28.6c0.6-3.5,3.5-6,7-6.1
		h36.7c2.8-0.1,5.2,2.1,5.3,5c0,0.4,0,0.8-0.1,1.1L238.5,47C237.9,50.4,235,53,231.5,53.1"/>
	<path id="Path_2903" class="st2" d="M225.8,21.5L215,40.6l-5.1-19.1H203c-0.5,0-0.9,0.4-0.9,1c0,0.1,0,0.1,0,0.2l5.7,21.3
		c0.3,1.2,1.5,2.1,2.7,2h7.5c1.4,0,2.6-0.8,3.3-2l12.1-21.3c0.2-0.3,0.2-0.8-0.2-1c-0.1-0.1-0.3-0.1-0.4-0.1H225.8z"/>
	<path id="Path_2904" class="st3" d="M217.4,44.9h-6.5c-0.9,0-1.8-0.6-2-1.5L203,21.6c-0.1-0.5,0.2-1,0.8-1.1c0.1,0,0.1,0,0.2,0h4.2
		c1.6-0.1,3,1,3.4,2.5L217.4,44.9z"/>
	<path id="Path_2905" class="st4" d="M11,21.2l4,19l10.1-19h4.2L18,42.6c-0.4,1-1.2,1.8-2.3,2.2c-2.5,0.7-3.8-0.2-4.2-2.2L6.9,21.2
		H11z"/>
	<path id="Path_2906" class="st4" d="M30,35.4c0.8-4.8,3.5-7.3,7.1-7.3h9.6l0.3-1.5v-0.4c-0.1-0.6-0.6-1.1-1.3-1.1l-0.4,0H31.6
		l0.6-3.9h13.8c3.1,0,4.6,1.3,4.8,4.3c0.1,0.4,0,0.7,0,1.1l-1.9,12c-0.6,3.2-3.3,5.7-6.6,6h-7.8c-1.1,0-2.1-0.4-3-1.1
		c-1.6-1.2-2.4-3.2-2-5.2L30,35.4z M33.4,38.8c0.2,1.5,0.7,1.9,2.9,1.9h5.3c1.9,0,2.5-0.3,3.1-1.3c0.2-0.3,0.3-0.7,0.4-1l0.6-3.8
		v-0.4c-0.2-1.4-0.7-1.9-2.5-2.1h-6.1c-1.1,0-2.1,0.5-2.7,1.4c-0.2,0.3-0.4,0.7-0.5,1.1l-0.6,3.8C33.4,38.5,33.4,38.6,33.4,38.8"/>
	<path id="Path_2907" class="st4" d="M54.9,27.1c0.4-3.5,3.5-6.2,7-5.9h7.3c1.3-0.1,2.6,0.2,3.7,1c1.4,1.2,1.9,2.6,1.6,4.7L72.7,38
		c-0.5,3.6-3.4,6.3-7,6.5H56l-1.2,7.6h-3.9L54.9,27.1z M57,38.3c0,1.1,0.2,1.6,0.9,2c0.3,0.2,0.6,0.3,0.9,0.3h7.4
		c0.3,0,0.5-0.1,0.8-0.1c0.8-0.2,1.4-0.9,1.6-1.7c0-0.2,0.1-0.3,0.1-0.5l1.7-11.1l0-0.3c0.1-1.3-0.1-1.6-1.4-1.9c-0.1,0-0.2,0-0.3,0
		h-7c-1.8,0-2.9,0.9-3.2,2.4L57,37.9C57,38.1,57,38.2,57,38.3"/>
	<path id="Path_2908" class="st4" d="M78.1,27.9c0.7-4.5,3.4-6.7,8.3-6.7h5.8c3.8,0,5.8,2.2,5.2,6L97,29.9L80.6,37l-0.1,0.8V38
		c0,2.1,0.4,2.6,2.2,2.6h12.9l-0.6,3.9h-13c-3.7,0-5.9-2.5-5.4-6.1L78.1,27.9z M93.5,27.5c0-0.1,0-0.2,0-0.3
		c0.3-1.6-0.3-2.1-2.1-2.1h-6.3c-1.9,0-2.8,0.9-3.1,2.9l-0.7,4.7L93.5,27.5z"/>
	<path id="Path_2909" class="st2" d="M98.6,43.1h11.8c2.7,0,4.2-1.1,4.8-3.6c0.1-0.3,0.1-0.6,0.2-0.9l0.1-1.2c0.3-3-0.6-4.1-3.3-4.1
		h-5.5c-0.4,0-0.9,0-1.3,0c-3.5-0.4-5-2.1-4.4-5.6l0.3-1.5c0.1-0.9,0.4-1.7,0.9-2.4c1.3-2,3-2.8,6.2-2.8h11.4l-0.2,1.4h-11.4
		c-2.1,0-2.5,0.1-3.6,0.7c-1,0.7-1.8,1.8-2,3l-0.2,1.5c-0.5,2.9,0.8,4.2,4.6,4.2h5.6c3.4,0,5,1.9,4.4,5.6l-0.2,1.2
		c-0.1,1.2-0.5,2.3-1.1,3.3c-1.4,2-2.8,2.6-5.6,2.6H98.4L98.6,43.1z"/>
	<path id="Path_2910" class="st2" d="M123.6,21h1.4l-2.7,17.2c-0.5,3.3,1.1,4.9,5.1,4.9h5.1c3.6,0,5.4-1.1,6.3-3.8
		c0.1-0.3,0.2-0.7,0.3-1l2.8-17.3h1.4l-2.7,17.2c-0.2,1.9-1.1,3.6-2.6,4.8c-1.5,1.2-2.7,1.6-5.6,1.6h-5.1c-4.9,0-6.9-2.2-6.3-6.3
		L123.6,21z"/>
	<path id="Path_2911" class="st2" d="M149.1,21h1.4l-3.8,23.5h-1.4L149.1,21z M149.6,16.5c0.5-0.4,1.2-0.4,1.6,0c0,0,0,0,0,0
		c0.5,0.5,0.5,1.4,0,1.9c0,0,0,0,0,0c-0.5,0.4-1.2,0.4-1.6-0.1c0,0-0.1-0.1-0.1-0.1c-0.2-0.3-0.3-0.6-0.3-0.9
		C149.2,17.1,149.3,16.8,149.6,16.5"/>
	<path id="Path_2912" class="st2" d="M157.8,13.4h1.4L158,21h6.6l-0.2,1.4h-6.6l-3.5,22.1h-1.4L157.8,13.4z"/>
	<path id="Path_2913" class="st2" d="M164.8,27.8c0.7-4.5,2.9-6.5,7.2-6.8c0.4,0,0.7-0.1,1.1,0l5.7,0c4.7,0.1,6.2,1.9,5.4,7.1
		l-0.1,0.6l-19.2,7.9l-0.1,1c-0.4,4.1,0.6,5.5,4.6,5.5h12.4l-0.2,1.4h-12.1c-5.1,0-6.9-2.1-6.2-6.7L164.8,27.8z M182.6,27.8
		c0.1-0.3,0.2-0.6,0.2-0.9c0.4-3-1.1-4.5-4.9-4.5h-4.8c-4.1,0-5.8,1-6.7,3.9c-0.1,0.3-0.2,0.7-0.2,1l-1.3,7.6L182.6,27.8z"/>
	<path id="Path_2914" class="st4" d="M220.3,43.4l12.4-21.8c0.2-0.3,0.2-0.8-0.2-1c-0.1-0.1-0.3-0.1-0.4-0.1h-4.2
		c-1.7,0-3.3,1-4.1,2.5l-12.4,22h6.5C218.9,44.9,219.8,44.3,220.3,43.4"/>
	<path id="Path_2915" class="st5" d="M246.3,12.4h1.9l-0.1,0.5h-0.7l-0.5,2.9h-0.5l0.5-2.9h-0.7L246.3,12.4z"/>
	<path id="Path_2916" class="st5" d="M248.5,12.9c0-0.2,0.1-0.4,0.3-0.5c0.4-0.2,0.6,0,0.7,0.4l0.3,2.5l1.1-2.5
		c0.1-0.3,0.2-0.3,0.3-0.4c0.3-0.1,0.6,0.1,0.6,0.3c0,0.1,0,0.2,0,0.3l-0.5,2.9h-0.5l0.5-2.9l-1.1,2.5c-0.1,0.2-0.2,0.3-0.3,0.4
		c-0.3,0.1-0.5,0-0.6-0.4l-0.4-2.5l-0.5,2.9H248L248.5,12.9z"/>
</g>
</svg>
