<svg xmlns="http://www.w3.org/2000/svg" width="30" height="30" viewBox="0 0 30 30">
  <g id="vape-tanks" transform="translate(-694 -148)">
    <circle id="Ellipse_87" data-name="Ellipse 87" cx="15" cy="15" r="15" transform="translate(694 148)" fill="#e7e9e7"/>
    <g id="electronic-cigarette" transform="translate(699.785 154.651)">
      <path id="Path_169" data-name="Path 169" d="M8.864,49.495,7.573,48.2a.278.278,0,0,1,0-.393l10.8-10.8,1.685,1.685-10.8,10.8A.278.278,0,0,1,8.864,49.495Zm0,0" transform="translate(-7.236 -35.745)" fill="#e7e9e7"/>
      <path id="Path_170" data-name="Path 170" d="M44.5,66.391l-11,11,.486.486a.278.278,0,0,0,.393,0l10.8-10.8Zm0,0" transform="translate(-32.361 -64.126)" fill="#a7aaaa"/>
      <path id="Path_171" data-name="Path 171" d="M8.864,223.828l-1.291-1.291a.278.278,0,0,1,0-.393l4.647-4.647,1.685,1.685-4.647,4.647A.278.278,0,0,1,8.864,223.828Zm0,0" transform="translate(-7.236 -210.078)" fill="#ef0027"/>
      <path id="Path_172" data-name="Path 172" d="M38.347,246.879,33.5,251.722l.486.486a.278.278,0,0,0,.393,0l4.647-4.647Zm0,0" transform="translate(-32.361 -238.458)" fill="#d30d2b"/>
      <path id="Path_173" data-name="Path 173" d="M119.325,217.492l1.685,1.685-.946.946-1.684-1.685Zm0,0" transform="translate(-114.341 -210.074)" fill="#e7e9e7"/>
      <path id="Path_174" data-name="Path 174" d="M101.426,316.737l-1.291-1.292a.278.278,0,0,1,0-.393l4.626-4.626a.03.03,0,0,1,.042,0l1.642,1.642a.03.03,0,0,1,0,.042l-4.626,4.626A.278.278,0,0,1,101.426,316.737Zm0,0" transform="translate(-96.64 -299.83)" fill="#ef0027"/>
      <path id="Path_175" data-name="Path 175" d="M136.4,312.068l-1.642-1.642a.03.03,0,0,0-.042,0l-.49.49,1.152,1.152a.03.03,0,0,1,0,.042l-4.311,4.31.315.315a.278.278,0,0,0,.393,0l4.626-4.626a.03.03,0,0,0,0-.042Zm0,0" transform="translate(-126.593 -299.83)" fill="#d30d2b"/>
      <path id="Path_176" data-name="Path 176" d="M212.618,313.036l-1.685-1.684.925-.925a.03.03,0,0,1,.042,0l1.642,1.642a.03.03,0,0,1,0,.042Zm0,0" transform="translate(-203.739 -299.83)" fill="#e7e9e7"/>
      <path id="Path_177" data-name="Path 177" d="M147.758,247.825l.946-.946.682.682-.946.946Zm0,0" transform="translate(-142.718 -238.458)" fill="#a7aaaa"/>
      <path id="Path_178" data-name="Path 178" d="M225.851,312.068l-1.642-1.642a.03.03,0,0,0-.042,0l-.49.49.917.918a.361.361,0,0,1,0,.511l-.179.179.512.512.925-.925A.03.03,0,0,0,225.851,312.068Zm0,0" transform="translate(-216.047 -299.83)" fill="#a7aaaa"/>
      <path id="Path_179" data-name="Path 179" d="M328.286,19.7,326.6,18.014l.64-.64a.107.107,0,0,1,.151,0l1.534,1.534a.106.106,0,0,1,0,.151Zm0,0" transform="translate(-315.461 -16.752)" fill="#e7e9e7"/>
      <path id="Path_180" data-name="Path 180" d="M338.546,18.91l-1.534-1.534a.107.107,0,0,0-.151,0l-.3.3.786.786a.305.305,0,0,1,0,.432l-.124.124.682.682.639-.64a.107.107,0,0,0,0-.151Zm0,0" transform="translate(-325.082 -16.753)" fill="#a7aaaa"/>
      <path id="Path_181" data-name="Path 181" d="M355.326,9.256l-1.24-1.24.473-.473a.139.139,0,0,1,.2,0L355.8,8.586a.138.138,0,0,1,0,.2Zm0,0" transform="translate(-342.009 -7.246)" fill="#a7aaaa"/>
      <path id="Path_182" data-name="Path 182" d="M246.727,282.5l-1.218-1.218,1.218-1.218a.134.134,0,0,1,.19,0l1.028,1.028a.134.134,0,0,1,0,.19Zm0,0" transform="translate(-237.134 -270.474)" fill="#e7e9e7"/>
      <path id="Path_183" data-name="Path 183" d="M267.957,281.093l-1.029-1.028a.134.134,0,0,0-.19,0l-.417.417.348.348a.508.508,0,0,1,0,.718l-.442.442.512.512,1.218-1.218A.134.134,0,0,0,267.957,281.093Zm0,0" transform="translate(-257.146 -270.474)" fill="#a7aaaa"/>
      <path id="Path_184" data-name="Path 184" d="M306.331,207.547a.894.894,0,0,1,0,1.264l-1.408,1.408a.139.139,0,0,1-.2,0l-1.067-1.067a.139.139,0,0,1,0-.2l1.408-1.408a.894.894,0,0,1,1.264,0Zm0,0" transform="translate(-293.262 -200.215)" fill="#ef0027"/>
      <path id="Path_185" data-name="Path 185" d="M326.01,207.549a.894.894,0,0,0-1.144-.1.893.893,0,0,1,.12,1.365l-.995.995.413.413a.139.139,0,0,0,.2,0l1.408-1.408A.894.894,0,0,0,326.01,207.549Zm0,0" transform="translate(-312.941 -200.217)" fill="#d30d2b"/>
      <path id="Path_186" data-name="Path 186" d="M417.776,93.441l1.571,1.57-1.436,1.436-1.571-1.57Zm0,0" transform="translate(-402.139 -90.254)" fill="#e7e9e7"/>
      <path id="Path_187" data-name="Path 187" d="M308.59,123.445l-2.481-2.481a.161.161,0,0,0-.227,0l-3.15,3.15a.161.161,0,0,0,0,.227l.608.608.825-.825a.894.894,0,1,1,1.264,1.264l-.825.825.608.608a.161.161,0,0,0,.227,0l3.15-3.15a.161.161,0,0,0,0-.227Zm0,0" transform="translate(-292.361 -116.792)" fill="#ef0027"/>
      <path id="Path_188" data-name="Path 188" d="M443.969,93.445l-.512.512.736.736a.456.456,0,0,1,0,.645l-.6.6.512.512,1.436-1.436Zm0,0" transform="translate(-428.331 -90.258)" fill="#a7aaaa"/>
      <path id="Path_189" data-name="Path 189" d="M364.074,123.445l-2.481-2.481a.161.161,0,0,0-.227,0l-.569.569,1.184,1.184a1.19,1.19,0,0,1,0,1.683l-1.854,1.854.569.569a.161.161,0,0,0,.227,0l3.15-3.15A.161.161,0,0,0,364.074,123.445Zm0,0" transform="translate(-347.845 -116.792)" fill="#d30d2b"/>
      <path id="Path_190" data-name="Path 190" d="M275.625,308.256a.256.256,0,1,1-.256-.256A.256.256,0,0,1,275.625,308.256Zm0,0" transform="translate(-265.729 -297.494)" fill="#1f283b"/>
      <path id="Path_191" data-name="Path 191" d="M445.016,122.936a.256.256,0,1,1-.256-.256A.256.256,0,0,1,445.016,122.936Zm0,0" transform="translate(-429.342 -118.496)" fill="#1f283b"/>
      <path id="Path_192" data-name="Path 192" d="M460.946,138.865a.256.256,0,1,1-.256-.256A.256.256,0,0,1,460.946,138.865Zm0,0" transform="translate(-444.729 -133.881)" fill="#1f283b"/>
      <path id="Path_193" data-name="Path 193" d="M13.644,2.489a.363.363,0,0,0,.031-.476l.295-.295a.4.4,0,0,0,0-.558L12.927.117a.394.394,0,0,0-.558,0l-.295.295A.362.362,0,0,0,11.6.443L9.334,2.707a.256.256,0,1,0,.362.362l1.444-1.444,1.323,1.323L6.668,8.742,5.345,7.419,8.852,3.913a.256.256,0,0,0-.362-.362L.155,11.886a.534.534,0,0,0,0,.755l1.291,1.291a.533.533,0,0,0,.755,0L13.644,2.489Zm-.118-1.05-.21.21L12.439.771l.21-.209ZM11.854.91l1.323,1.323-.353.353L11.5,1.263ZM6.306,9.1l-.584.584L4.4,8.366l.584-.584Zm-4.5,4.466L.517,12.278c-.024-.024-.24.209,3.52-3.551L5.36,10.05c-3.76,3.76-3.527,3.544-3.551,3.52Zm0,0" transform="translate(0.001 -0.001)" fill="#1f283b"/>
      <path id="Path_194" data-name="Path 194" d="M99.356,272.638a.39.39,0,0,0-.552,0l-1.037,1.037-.031-.031a.286.286,0,0,0-.4,0l-4.626,4.626a.533.533,0,0,0,0,.755L94,280.316a.533.533,0,0,0,.755,0l1.677-1.677a.256.256,0,0,0-.362-.362c-1.777,1.777-1.684,1.7-1.708,1.677l-1.291-1.291c-.024-.024-.24.209,3.52-3.551l1.323,1.323-1,1a.256.256,0,0,0,.362.362l2.1-2.1a.284.284,0,0,0,.084-.2.306.306,0,0,0-.115-.233l1.037-1.037a.39.39,0,0,0,0-.552Zm-1.083,3.435L96.95,274.75l.584-.584,1.323,1.323Zm.713-1.179-.857-.857.951-.951.857.856Zm0,0" transform="translate(-89.393 -263.228)" fill="#1f283b"/>
      <path id="Path_195" data-name="Path 195" d="M212.259,148.644a.256.256,0,0,0-.312-.184l-.981.253a.256.256,0,0,0-.117.429l.27.27-.679.207a.256.256,0,0,0,.074.5,8.451,8.451,0,0,0,1.161-.342.256.256,0,0,0,.106-.426l-.255-.255.547-.141A.256.256,0,0,0,212.259,148.644Zm0,0" transform="translate(-203.087 -143.388)" fill="#1f283b"/>
      <path id="Path_196" data-name="Path 196" d="M302.5,87.591l-1.57-1.57a.256.256,0,0,0-.362,0l-1.256,1.256L299.043,87a.416.416,0,0,0-.589,0l-3.15,3.15a.416.416,0,0,0,0,.589l.427.427-.4.4a.4.4,0,0,0,0,.559L296.4,93.2a.4.4,0,0,0,.559,0l.4-.4.427.427a.416.416,0,0,0,.589,0l.365-.365a.256.256,0,0,0-.362-.362l-.3.3-.36-.36.644-.644a1.15,1.15,0,1,0-1.626-1.626l-.644.644-.36-.36,3.016-3.016,2.346,2.346-1.873,1.873a.256.256,0,1,0,.362.362l1.941-1.94a.416.416,0,0,0,0-.589l-.277-.277,1.256-1.256a.256.256,0,0,0,0-.362Zm-5.4,2.936a.638.638,0,0,1,.9.9l-1.325,1.325-.9-.9Zm3.786-1.68-1.209-1.209,1.075-1.075,1.209,1.209Zm0,0" transform="translate(-285.113 -83.014)" fill="#1f283b"/>
    </g>
  </g>
</svg>
