<?xml version="1.0" encoding="utf-8"?>
<!-- Generator: Adobe Illustrator 22.0.1, SVG Export Plug-In . SVG Version: 6.00 Build 0)  -->
<svg version="1.1" id="Layer_1" xmlns="http://www.w3.org/2000/svg" xmlns:xlink="http://www.w3.org/1999/xlink" x="0px" y="0px"
	 viewBox="0 0 180 28" style="enable-background:new 0 0 180 28;" xml:space="preserve">
<style type="text/css">
	.st0{fill:#1F263A;}
</style>
<g>
	<g transform="translate(0 .342)">
		<path class="st0" d="M11.3,22c0.6,1.2,1.5,1.9,2.4,1.9l0,0c1,0,1.9-0.7,2.5-1.9l0.8-1.7L9.4,4.2L4.1,6.7L11.3,22z M21.2,22.1
			c0.6,1.2,1.5,1.9,2.5,1.9l0,0c1,0,1.9-0.7,2.5-1.9l7.1-15.3L28,4.2l-7.5,16.2C20.4,20.4,21.2,22.1,21.2,22.1z M23.7,27
			c-2,0-3.8-1.1-5-3.1c-1.2,1.9-3,3.1-5,3.1l0,0c-2.2,0-4.1-1.4-5.2-3.7l0,0L0,5.2l10.9-5.1l7.8,16.6l7.8-16.6l10.9,5.1L29,23.4
			C27.8,25.7,25.9,27,23.7,27L23.7,27z"/>
	</g>
	<path class="st0" d="M50.5,24c1.6,0,2.4-1.3,2.8-2.2l4-10.1l-3.2-1.1l-3.7,10.1l-3.7-10.1l-3.2,1.1l4,10.1
		C48.1,22.6,48.9,24,50.5,24 M72.6,24c1.6,0,2.4-1.3,2.8-2.2l4-10.1l-3.2-1.1l-3.7,10.1L69,10.4l-3.2,1.1l4,10.1
		C70.2,22.6,71,24,72.6,24 M83.6,17c0,2.1,1.4,3.9,3.6,3.9s3.6-1.6,3.6-3.9c0-2.2-1.5-3.9-3.6-3.9C85,13.1,83.6,14.8,83.6,17
		L83.6,17z M94,23.6h-3.3v-1.5c-0.9,1.1-2.2,1.8-4,1.8c-3.7,0-6.4-3-6.4-7s2.8-7,6.4-7c1.8,0,3.1,0.7,4,1.8v-1.5H94V23.6L94,23.6z
		 M156.8,15.8h6.3c-0.2-1.8-1.5-2.9-3.1-2.9C158.3,12.9,157,14.2,156.8,15.8 M166.6,17c0,0.4,0,0.9-0.1,1.2h-9.6
		c0.4,1.9,1.9,2.8,3.6,2.8c1.4,0,2.4-0.4,3.4-1.2L166,22c-1.5,1.4-3.4,2-5.7,2c-4.1,0-6.9-2.8-6.9-6.9c0-4.2,2.7-7,6.7-7
		C163.9,10,166.5,12.8,166.6,17 M179,13.5h-5.1v4.8c0,1.7,0.6,2.4,2.3,2.4c0.8,0,1.9-0.5,2.6-1l1.3,2.7c-1.2,0.8-2.5,1.4-4.4,1.4
		c-3.3,0-5-1.9-5-5.3v-5.1H168v-3.1h2.6v-4h3.3v4h5.1L179,13.5L179,13.5z M119,10.4l-3.7,10.1l-3.3-9.1c-0.3-0.9-1.1-1.5-2-1.5
		s-1.7,0.6-2,1.5l-3.3,9.1L101,10.4l-3,1.2l4,10.1c0.4,0.9,1.2,2.2,2.8,2.2c1.6,0,2.4-1.3,2.8-2.2l2.4-6.1l2.4,6.1
		c0.4,0.9,1.2,2.2,2.8,2.2c1.6,0,2.4-1.3,2.8-2.2l4-10.1C122.2,11.6,119,10.4,119,10.4z M126.2,17c0,2.1,1.4,3.9,3.6,3.9
		c2.2,0,3.6-1.6,3.6-3.9c0-2.2-1.5-3.9-3.6-3.9C127.6,13.1,126.2,14.8,126.2,17z M136.6,23.6h-3.3v-1.5c-0.9,1.1-2.2,1.8-4,1.8
		c-3.7,0-6.4-3-6.4-7s2.8-7,6.4-7c1.8,0,3.1,0.7,4,1.8v-1.5h3.3V23.6L136.6,23.6z"/>
	<path class="st0" d="M140.1,23.6h3.2V3.9h-3.2V23.6z M147.2,23.6h3.2V3.9h-3.2V23.6z M59.9,23.6h3.2V10.4h-3.2V23.6z M63.6,5.9
		c0,1.2-0.9,2.1-2.1,2.1c-1.2,0-2.1-0.9-2.1-2.1s0.9-2.1,2.1-2.1C62.7,3.8,63.6,4.7,63.6,5.9"/>
</g>
</svg>
