<svg xmlns="http://www.w3.org/2000/svg" width="62.808" height="52.994" viewBox="0 0 62.808 52.994"><defs><style>.a{fill:#fff;}.b{fill:#a6ce39;}</style></defs><path class="a" d="M202.507,18.4a7.459,7.459,0,0,0,5.827-12.141c-.012-.016-.024-.033-.036-.048L203.984.728a1.891,1.891,0,0,0-1.5-.727h0a1.892,1.892,0,0,0-1.5.734l-4.3,5.516,0,0a7.458,7.458,0,0,0,5.82,12.149Zm-3.9-10.623c.012-.015.025-.031.036-.047L202.489,2.8l3.826,4.866a1.156,1.156,0,0,0,.069.092,5.019,5.019,0,1,1-8.9,3.186,4.938,4.938,0,0,1,1.127-3.16Zm0,0" transform="translate(-171.103 0)"/><path class="a" d="M7.48,18.4A7.459,7.459,0,0,0,13.306,6.261l-.035-.048L8.956.728A1.892,1.892,0,0,0,7.46,0h0a1.893,1.893,0,0,0-1.5.734L1.662,6.25v0A7.459,7.459,0,0,0,7.48,18.4ZM3.581,7.78c.012-.015.024-.03.035-.046L7.462,2.8l3.826,4.867c.022.032.045.062.069.092a5.019,5.019,0,1,1-8.9,3.186A4.938,4.938,0,0,1,3.581,7.78Zm0,0" transform="translate(0 0)"/><path class="a" d="M397.537,18.4a7.459,7.459,0,0,0,5.826-12.142l-.035-.048L399.015.728a1.893,1.893,0,0,0-1.5-.727h0a1.892,1.892,0,0,0-1.5.734l-4.3,5.516v0A7.459,7.459,0,0,0,397.537,18.4Zm-3.9-10.623c.012-.015.024-.03.036-.046L397.52,2.8l3.826,4.867a1.127,1.127,0,0,0,.069.092,5.019,5.019,0,1,1-8.9,3.186,4.941,4.941,0,0,1,1.127-3.16Zm0,0" transform="translate(-342.209 0)"/><path class="b" d="M61.581,217.575h-5.4v-1.629a1.227,1.227,0,1,0-2.453,0v1.629h-21.1v-1.629a1.227,1.227,0,1,0-2.453,0v1.629H9.078v-1.629a1.227,1.227,0,1,0-2.453,0v1.629h-5.4a1.227,1.227,0,0,0,0,2.453H61.581a1.227,1.227,0,0,0,0-2.453Zm0,0" transform="translate(0 -188.379)"/><path class="b" d="M61.581,174H1.227a1.227,1.227,0,1,0,0,2.453h17.19v1.629a1.227,1.227,0,0,0,2.453,0v-1.629h21.1v1.629a1.227,1.227,0,0,0,2.453,0v-1.629H61.581a1.227,1.227,0,1,0,0-2.453Zm0,0" transform="translate(0 -152.655)"/><path class="b" d="M229.6,342.959l-.629.629v-6.362a1.227,1.227,0,0,0-2.453,0v6.362l-.629-.63a1.227,1.227,0,1,0-1.735,1.735l2.724,2.723a1.226,1.226,0,0,0,1.735,0l2.723-2.723a1.227,1.227,0,1,0-1.735-1.735Zm0,0" transform="translate(-196.344 -294.782)"/><path class="b" d="M247.227,298.453a1.227,1.227,0,1,0-.867-.359A1.236,1.236,0,0,0,247.227,298.453Zm0,0" transform="translate(-215.823 -259.689)"/><path class="b" d="M424.634,307.866l-.629.629V297.226a1.227,1.227,0,1,0-2.453,0v11.268l-.63-.63a1.227,1.227,0,0,0-1.735,1.735l2.723,2.723a1.227,1.227,0,0,0,1.735,0l2.723-2.723a1.227,1.227,0,1,0-1.735-1.735Zm0,0" transform="translate(-367.45 -259.689)"/><path class="b" d="M34.576,307.866l-.629.629V297.226a1.227,1.227,0,1,0-2.453,0v11.268l-.629-.63a1.227,1.227,0,0,0-1.735,1.735l2.723,2.723a1.227,1.227,0,0,0,1.735,0l2.723-2.723a1.227,1.227,0,1,0-1.735-1.735Zm0,0" transform="translate(-25.24 -259.689)"/></svg>